<?xml version="1.0" encoding="utf-8"?>
<!-- Generator: Adobe Illustrator 21.0.0, SVG Export Plug-In . SVG Version: 6.00 Build 0)  -->
<svg version="1.1" id="Capa_1" xmlns="http://www.w3.org/2000/svg" xmlns:xlink="http://www.w3.org/1999/xlink" x="0px" y="0px"
	 viewBox="0 0 30.3 38.7" style="enable-background:new 0 0 30.3 38.7;" xml:space="preserve">
<style type="text/css">
	.st0{fill:#0096E6;}
	.st1{fill:#D0E8F9;}
	.st2{fill:#E4ECF4;}
</style>
<path class="st0" d="M23.3,29L23.3,29C17.9,34.3,9.4,34.3,4,29l0,0c-5.4-5.4-5.4-13.9,0-19.3L13.6,0l9.7,9.7
	C28.6,15,28.6,23.6,23.3,29z"/>
<path class="st1" d="M28.2,32.8L28.2,32.8c-2.8,2.8-7.3,2.8-10.1,0l0,0c-2.8-2.8-2.8-7.3,0-10.1l5.1-5.1l5.1,5.1
	C30.9,25.5,30.9,29.9,28.2,32.8z"/>
<path class="st2" d="M20.5,37.5L20.5,37.5c-1.6,1.6-4.1,1.6-5.7,0l0,0c-1.6-1.6-1.6-4.1,0-5.7l2.9-2.8l2.8,2.8
	C22.1,33.4,22.1,35.9,20.5,37.5z"/>
<circle class="st1" cx="9" cy="23" r="6"/>
</svg>
