<?xml version="1.0" encoding="utf-8"?>
<!-- Generator: Adobe Illustrator 21.0.0, SVG Export Plug-In . SVG Version: 6.00 Build 0)  -->
<svg version="1.1" id="thermometerHotIcon" xmlns="http://www.w3.org/2000/svg" xmlns:xlink="http://www.w3.org/1999/xlink" x="0px"
	 y="0px" viewBox="0 0 36.1 54.8" style="enable-background:new 0 0 36.1 54.8;" xml:space="preserve">
<style type="text/css">
	.st0{fill:#E6E7E8;}
	.st1{fill:#FF703D;}
	.st2{opacity:0.3;fill:#FFFFFF;enable-background:new    ;}
	.st3{fill:#58595B;}
	.st4{fill:#FFFFFF;}
	.st5{opacity:0.4;fill:#F1F2F2;enable-background:new    ;}
	.st6{fill:#FFE499;}
	.st7{fill:#FFD766;}
	.st8{fill:#FFBC00;}
</style>
<g id="thermometer">
	<circle class="st0" cx="10.3" cy="45.1" r="9.7"/>
	<path class="st0" d="M13.5,3.2C13.5,1.4,12,0,10.3,0l0,0C8.5,0,7.1,1.5,7.1,3.2v33.4c0,1.8,1.5,3.2,3.2,3.2l0,0
		c1.8,0,3.2-1.5,3.2-3.2V3.2z"/>
	<path class="st1" d="M12.5,36.7l0.7,0.2c3.4,1.2,5.7,4.5,5.7,8.1c0,4.8-3.9,8.6-8.6,8.6c-4.8,0-8.6-3.9-8.6-8.6
		c0-3.6,2.3-6.9,5.7-8.1l0.7-0.2L12.5,36.7z"/>
	<rect id="mercury" x="8.1" y="5.3" class="st1" width="4.4" height="31.7"/>
	<path class="st2" d="M14.5,37c1.4,1.6,2.3,3.7,2.3,6c0,5-4.1,9.1-9.1,9.1c-1.9,0-3.6-0.6-5-1.5c1.7,2.1,4.3,3.5,7.2,3.5
		c5.1,0,9.2-4.1,9.2-9.2C19,41.6,17.2,38.6,14.5,37z"/>
	<rect x="7" y="5.3" class="st3" width="2.2" height="0.5"/>
	<rect x="7" y="7.7" class="st3" width="1.1" height="0.5"/>
	<rect x="7" y="10" class="st3" width="1.1" height="0.5"/>
	<rect x="7" y="12.4" class="st3" width="1.1" height="0.5"/>
	<rect x="7" y="14.8" class="st3" width="2.2" height="0.5"/>
	<rect x="7" y="17.1" class="st3" width="1.1" height="0.5"/>
	<rect x="7" y="19.5" class="st3" width="1.1" height="0.5"/>
	<rect x="7" y="21.9" class="st3" width="1.1" height="0.5"/>
	<rect x="7" y="24.2" class="st3" width="2.2" height="0.5"/>
	<rect x="7" y="26.6" class="st3" width="1.1" height="0.5"/>
	<rect x="7" y="29" class="st3" width="1.1" height="0.5"/>
	<rect x="7" y="31.3" class="st3" width="1.1" height="0.5"/>
	<rect x="7" y="33.7" class="st3" width="2.2" height="0.5"/>
	<circle class="st4" cx="6.9" cy="42.3" r="2.1"/>
	<path class="st5" d="M13,34.3c0,0.6-0.5,1.1-1.1,1.1l0,0c-0.6,0-1.1-0.5-1.1-1.1V4.4c0-0.6,0.5-1.1,1.1-1.1l0,0
		c0.6,0,1.1,0.5,1.1,1.1V34.3z"/>
	<g id="c">
		<path class="st4" d="M4.2,10.1c-0.2,0.1-0.5,0.2-0.9,0.2c-0.9,0-1.6-0.6-1.6-1.7c0-1,0.7-1.7,1.7-1.7C3.8,6.9,4.1,7,4.2,7L4.1,7.3
			c-0.2,0-0.4,0-0.7,0c-0.8,0-1.3,0.5-1.3,1.4c0,0.8,0.5,1.3,1.3,1.3c0.3,0,0.5-0.1,0.7-0.1L4.2,10.1z"/>
		<path class="st4" d="M0.6,7C0.3,7,0,7.3,0,7.6s0.3,0.6,0.6,0.6c0.3,0,0.6-0.3,0.6-0.6C1.2,7.2,0.9,7,0.6,7z M0.6,7.9
			c-0.2,0-0.3-0.2-0.3-0.3c0-0.2,0.2-0.3,0.3-0.3c0.2,0,0.3,0.2,0.3,0.3C1,7.8,0.8,7.9,0.6,7.9z"/>
	</g>
</g>
<g id="sun_1_">
	<g id="outerRepeat_1_">
		<circle id="outer_1_" class="st6" cx="25.6" cy="15.5" r="10.5"/>
	</g>
	<g id="middleRepeat_1_">
		<circle id="middle_1_" class="st7" cx="25.6" cy="15.5" r="8.1"/>
	</g>
	<circle id="inner_1_" class="st8" cx="25.6" cy="15.5" r="6"/>
</g>
</svg>
