<?xml version="1.0" encoding="utf-8"?>
<!-- Generator: Adobe Illustrator 21.0.0, SVG Export Plug-In . SVG Version: 6.00 Build 0)  -->
<svg version="1.1" id="Layer_1" xmlns="http://www.w3.org/2000/svg" xmlns:xlink="http://www.w3.org/1999/xlink" x="0px" y="0px"
	 viewBox="0 0 353.5 512" style="enable-background:new 0 0 353.5 512;" xml:space="preserve">
<style type="text/css">
	.st0{fill:#997668;}
	.st1{opacity:0.3;fill:#222222;enable-background:new    ;}
	.st2{fill:#95D600;}
	.st3{opacity:0.2;fill:#218649;enable-background:new    ;}
	.st4{fill:#FFC843;}
	.st5{opacity:0.1;fill:#222222;enable-background:new    ;}
	.st6{fill:#675DC6;}
	.st7{fill:#229CD2;}
	.st8{opacity:0.2;fill:#222222;enable-background:new    ;}
	.st9{fill:#FFFFFF;}
</style>
<g>
	<g>
		<rect x="154.2" y="176.3" class="st0" width="45.1" height="335.7"/>
		<rect x="154.2" y="176.3" class="st1" width="22.5" height="335.7"/>
		<polygon class="st1" points="154.2,176.3 154.2,362.7 199.3,317.6 199.3,176.3 		"/>
	</g>
	<g>
		<g>
			<path class="st2" d="M339.3,199.7L246.5,107l-69.8,69.8l151,151C347.2,293.3,368.2,228.6,339.3,199.7z"/>
			<polygon class="st3" points="176.8,176.8 316.8,177.3 246.5,107 			"/>
		</g>
		<g>
			<path class="st4" d="M199.7,14.2L107,107l69.8,69.8l151-151C293.3,6.3,228.6-14.7,199.7,14.2z"/>
			<polygon class="st5" points="176.8,176.8 177.3,36.7 107,107 			"/>
		</g>
		<g>
			<path class="st6" d="M14.2,153.8l92.8,92.8l69.8-69.8l-151-151C6.3,60.2-14.7,124.9,14.2,153.8z"/>
			<polygon class="st1" points="176.8,176.8 36.7,176.3 107,246.5 			"/>
		</g>
		<g>
			<path class="st7" d="M153.8,339.3l92.8-92.8l-69.8-69.8l-151,151C60.2,347.2,124.9,368.2,153.8,339.3z"/>
			<polygon class="st8" points="176.8,176.8 176.3,316.8 246.5,246.5 			"/>
		</g>
		<g>
			<circle class="st9" cx="176.8" cy="176.8" r="40.6"/>
			<path class="st8" d="M176.8,136.1c-22.4,0-40.6,18.2-40.6,40.6s18.2,40.6,40.6,40.6V136.1z"/>
		</g>
	</g>
</g>
</svg>
