<?xml version="1.0" encoding="utf-8"?>
<!-- Generator: Adobe Illustrator 21.0.0, SVG Export Plug-In . SVG Version: 6.00 Build 0)  -->
<svg version="1.1" id="Layer_1" xmlns="http://www.w3.org/2000/svg" xmlns:xlink="http://www.w3.org/1999/xlink" x="0px" y="0px"
	 viewBox="0 0 1920 1080" style="enable-background:new 0 0 1920 1080;" xml:space="preserve">
<style type="text/css">
	.st0{fill:#50A4DB;stroke:#000000;stroke-miterlimit:10;}
	.st1{fill:#68B0E1;}
	.st2{fill:#84BBE5;}
	.st3{display:none;fill:#A0C5E8;}
	.st4{fill:url(#SVGID_1_);}
	.st5{opacity:0.3;enable-background:new    ;}
	.st6{clip-path:url(#SVGID_3_);}
	.st7{fill:#FFFFFF;}
	.st8{opacity:0.43;fill:#FFFFFF;}
	.st9{opacity:0.43;}
	.st10{fill:#19381F;}
	.st11{fill:#265038;}
	.st12{fill:#1F4929;}
	.st13{fill:#2C573D;}
	.st14{fill:#396C3A;}
</style>
<g id="Layer_2">
	<rect class="st0" width="1920" height="427.7"/>
</g>
<path id="XMLID_10_" class="st1" d="M81.9,124.5c108.2,0,203.9,38.8,261.9,98.1c59.9,3,113.2,23.5,150,54.5
	c41.4-30.3,98.9-49.1,162.5-49.1c108.3,0,198.9,54.4,222.5,127.4c45.9,4.7,86.8,20.6,117.3,43.8c41.1-34.5,101.9-56.3,169.9-56.3
	c48.9,0,94.2,11.3,131,30.5c29.2-36.9,81.3-63.2,142.4-68.6c30.3-73.1,124.1-126.3,235.1-126.3c36.5,0,71.1,5.8,102.2,16.1
	c35-28.7,86.2-46.8,143.2-46.8v222.5v53.1v30.2v66.6V916H0V579.4V453.6V132C26.1,127.1,53.6,124.5,81.9,124.5z"/>
<path id="XMLID_14_" class="st2" d="M1838.1,362.4c-108.2,0-203.9,35.3-261.9,89.2c-59.9,2.7-113.2,21.4-150,49.6
	c-41.4-27.6-98.9-44.6-162.5-44.6c-108.3,0-198.9,49.5-222.5,115.8c-45.9,4.3-86.8,18.7-117.3,39.8C882.8,580.8,822,561,754,561
	c-48.9,0-94.2,10.3-131,27.7c-29.2-33.6-81.3-57.5-142.4-62.4C450.3,460,356.5,411.5,245.4,411.5c-36.5,0-71.1,5.3-102.2,14.6
	c-35-26-86.2-42.4-143.2-42.4V586v48.3v27.5v60.6v359.9h1920V776.1V661.7V369.3C1893.8,364.9,1866.4,362.4,1838.1,362.4z"/>
<path id="XMLID_13_" class="st3" d="M1776.7,474.5c-31.1-10.3-65.7-16.1-102.2-16.1c-111,0-204.8,53.3-235.1,126.3
	c-72.8,6.4-132.9,42.4-156.6,90.9c-30.3-9.7-63.8-15.1-99.1-15.1c-61.7,0-118.1,16.4-161.2,43.6c-30.5-36.6-82.7-62.6-143.7-68.9
	c-23.5-73-114.2-127.4-222.5-127.4c-63.6,0-121.1,18.8-162.5,49.1c-36.8-31-90.1-51.5-150-54.5c-58-59.3-153.7-98.1-261.9-98.1
	c-28.3,0-55.7,2.7-81.9,7.6v321.6v125.8L0,1083h1920V800v-66.6v-30.2v-53.1V427.7C1862.9,427.7,1811.7,445.8,1776.7,474.5z"/>
<g id="Layer_2_1_">
	
		<radialGradient id="SVGID_1_" cx="575.8358" cy="341.1139" r="102.9421" gradientTransform="matrix(0.8752 0 0 -0.9229 340.7285 1021.314)" gradientUnits="userSpaceOnUse">
		<stop  offset="0.1276" style="stop-color:#FFFFFF"/>
		<stop  offset="1" style="stop-color:#84BBE5"/>
	</radialGradient>
	<ellipse class="st4" cx="844.7" cy="706.5" rx="90.1" ry="95"/>
	<g class="st5">
		<g>
			<g>
				<g>
					<defs>
						<rect id="SVGID_2_" width="1920.8" height="1079.1"/>
					</defs>
					<clipPath id="SVGID_3_">
						<use xlink:href="#SVGID_2_"  style="overflow:visible;"/>
					</clipPath>
					<g class="st6">
						<g>
							<polygon class="st7" points="763.2,1835.1 831,746.6 898.8,1835.1 							"/>
							<polygon class="st8" points="898.8,-397.2 831,691.3 763.2,-397.2 							"/>
						</g>
						<g>
							<polygon class="st7" points="434,1800.7 822.8,745.9 566.7,1820.6 							"/>
							<polygon class="st8" points="1227.9,-362.9 839.2,691.9 1095.3,-382.7 							"/>
						</g>
						<g>
							<polygon class="st8" points="122.4,1719.2 815,744.1 246.2,1757.9 							"/>
							<polygon class="st8" points="1539.6,-281.4 847,693.8 1415.8,-320 							"/>
						</g>
						<g>
							<polygon class="st8" points="-158.4,1593.8 807.8,741.2 -48.8,1649.8 							"/>
							<polygon class="st8" points="1820.4,-155.9 854.1,696.6 1710.7,-211.9 							"/>
						</g>
						<g>
							<polygon class="st8" points="-396,1430.2 801.8,737.4 -305.2,1500.9 							"/>
							<polygon class="st8" points="2057.9,7.7 860.2,700.5 1967.2,-63.1 							"/>
						</g>
						<g class="st9">
							<polygon class="st7" points="-579.8,1235.4 796.9,732.8 -512,1317.8 							"/>
							<polygon class="st7" points="2241.8,202.5 865,705.1 2174,120 							"/>
						</g>
						<g class="st9">
							<polygon class="st7" points="-701.9,1018.1 793.6,727.4 -660,1108.6 							"/>
							<polygon class="st7" points="2363.8,419.7 868.4,710.5 2322,329.2 							"/>
						</g>
						<g>
							<polygon class="st8" points="-756.9,787.7 791.9,721.8 -742.8,882.4 							"/>
							<polygon class="st8" points="2418.9,650.2 870.1,716.1 2404.8,555.6 							"/>
						</g>
						<g>
							<polygon class="st8" points="-742.6,554.3 791.9,716.1 -756.8,648.9 							"/>
							<polygon class="st8" points="2404.5,883.6 870.1,721.8 2418.8,789 							"/>
						</g>
						<g class="st9">
							<polygon class="st7" points="-659.4,328 793.6,710.5 -701.3,418.5 							"/>
							<polygon class="st7" points="2321.4,1109.9 868.3,727.4 2363.3,1019.4 							"/>
						</g>
						<g>
							<polygon class="st8" points="-511,118.9 797,705 -578.9,201.3 							"/>
							<polygon class="st8" points="2173,1318.9 865,732.8 2240.9,1236.5 							"/>
						</g>
						<g>
							<polygon class="st8" points="-303.9,-64 801.8,700.5 -394.7,6.7 							"/>
							<polygon class="st8" points="1965.9,1501.9 860.2,737.4 2056.7,1431.2 							"/>
						</g>
						<g>
							<polygon class="st8" points="-47.2,-212.7 807.9,696.6 -157,-156.8 							"/>
							<polygon class="st8" points="1709.2,1650.5 854.1,741.2 1819,1594.6 							"/>
						</g>
						<g>
							<polygon class="st8" points="248,-320.6 815,693.8 124,-281.9 							"/>
							<polygon class="st8" points="1414,1758.4 847,744.1 1538,1719.7 							"/>
						</g>
						<g>
							<polygon class="st8" points="568.6,-382.9 822.9,691.9 435.9,-363.3 							"/>
							<polygon class="st7" points="1093.4,1820.7 839.1,745.9 1226.1,1801.1 							"/>
						</g>
					</g>
				</g>
			</g>
		</g>
	</g>
</g>
<g id="Layer_1_1_">
	<g id="XMLID_194_">
		<g id="XMLID_188_">
			<path id="XMLID_4_" class="st10" d="M64.6,1027.3c0,0-8.3,29.1-24.1,55.7h205c-15.8-26.6-24.1-55.7-24.1-55.7
				c18,6.6,39.9,0,39.9,0c-51.3-45.6-63.4-117.7-63.4-117.7c10.9,2.9,27.1-2,27.1-2c-38-52.2-45.6-106.3-45.6-106.3
				c12.3,6.6,24.8,1.7,24.8,1.7c-31.3-14.2-60.5-80.5-60.5-80.5c-0.7-1.8-1.5,0-1.5,0S113,788.7,81.7,803c0,0,12.5,4.9,24.8-1.7
				c0,0-7.6,54.1-45.6,106.3c0,0,16.2,4.9,27.1,2c0,0-12.1,72.1-63.4,117.7C24.7,1027.3,46.5,1034,64.6,1027.3z"/>
			<g id="XMLID_130_">
				<g id="XMLID_125_">
					<path class="st11" d="M120.6,785.3c-0.1,0.9-0.2,1.9-0.3,2.8c-0.1,0.9-0.3,1.9-0.4,2.8c-0.3,1.9-0.6,3.7-0.9,5.6l-1,5.5
						l-1.1,5.5l-2.1-1.6c0.6-0.3,1.2-0.7,1.9-1.1c0.6-0.4,1.2-0.8,1.8-1.2c1.2-0.8,2.4-1.6,3.6-2.4c1.2-0.8,2.3-1.7,3.5-2.6
						c1.1-0.9,2.2-1.8,3.3-2.8c1.1-1,2.1-2,3.1-3c0.5-0.5,0.9-1.1,1.4-1.6c0.4-0.6,0.9-1.1,1.3-1.7c0.4-0.6,0.8-1.2,1.2-1.8
						s0.7-1.3,1-1.9c0.2-0.3,0.3-0.7,0.4-1c0.1-0.3,0.3-0.7,0.4-1c0.2-0.7,0.4-1.4,0.6-2.1c0,0.7,0,1.5-0.1,2.3
						c0,0.4-0.1,0.8-0.2,1.1c-0.1,0.4-0.1,0.8-0.2,1.1c-0.2,0.7-0.4,1.5-0.7,2.2s-0.6,1.4-1,2.1c-0.3,0.7-0.7,1.3-1.1,2
						c-0.4,0.6-0.9,1.3-1.3,1.9c-0.5,0.6-0.9,1.2-1.4,1.8s-1,1.1-1.5,1.7c-1.1,1.1-2.2,2.1-3.3,3.1c-1.2,1-2.4,1.9-3.6,2.8
						c-1.2,0.9-2.5,1.8-3.8,2.5c-0.6,0.4-1.3,0.8-1.9,1.2c-0.7,0.4-1.3,0.7-2,1.1l-2.9,1.5l0.8-3.1l1.5-5.4l1.6-5.4
						c0.6-1.8,1.1-3.6,1.7-5.4c0.3-0.9,0.6-1.8,0.9-2.7C119.9,787,120.2,786.2,120.6,785.3z"/>
				</g>
				<g id="XMLID_126_">
					<path class="st11" d="M104.4,878.3c0,2.1-0.1,4.1-0.2,6.1c0,1-0.1,2-0.2,3.1c-0.1,1-0.1,2-0.2,3c-0.2,2-0.4,4.1-0.6,6.1
						c-0.1,1-0.2,2-0.3,3l-0.4,3l-2-1.6c0.5-0.2,1-0.5,1.5-0.7c0.5-0.3,1-0.5,1.5-0.8c1-0.5,2-1.1,3-1.7c1-0.6,2-1.2,2.9-1.8
						c0.5-0.3,1-0.6,1.4-1s0.9-0.7,1.4-1l1.3-1.1c0.5-0.4,0.8-0.8,1.3-1.2c0.4-0.4,0.9-0.8,1.2-1.2l1.2-1.3l1.1-1.3
						c0.4-0.4,0.7-0.9,1-1.4s0.7-1,0.9-1.5l0.8-1.6c-0.1,0.6-0.3,1.2-0.4,1.7c-0.1,0.6-0.4,1.1-0.6,1.7c-0.2,0.6-0.4,1.1-0.7,1.7
						l-0.9,1.6l-1,1.5c-0.3,0.5-0.7,1-1.1,1.4c-0.4,0.5-0.8,0.9-1.2,1.4l-1.3,1.3c-0.4,0.4-0.9,0.8-1.4,1.2s-0.9,0.8-1.4,1.1
						c-0.5,0.4-1,0.7-1.5,1.1c-0.5,0.4-1,0.7-1.5,1c-1,0.7-2.1,1.3-3.1,1.9c-0.5,0.3-1.1,0.6-1.6,0.8c-0.6,0.3-1.1,0.5-1.7,0.8
						l-2.4,1l0.4-2.6l0.4-3c0.1-1,0.3-2,0.5-3c0.3-2,0.7-4,1.1-6c0.2-1,0.4-2,0.6-3s0.4-2,0.7-3
						C103.4,882.3,103.8,880.3,104.4,878.3z"/>
				</g>
				<g id="XMLID_128_">
					<path class="st11" d="M129.1,929.6c0.3,1.4,0.5,2.8,0.8,4.2c0.2,1.4,0.5,2.8,0.7,4.2s0.4,2.8,0.7,4.2c0.2,1.4,0.4,2.8,0.6,4.2
						l0.7,4.2c0.2,1.4,0.4,2.8,0.7,4.2s0.5,2.7,0.8,4.1c0.1,0.7,0.3,1.3,0.5,2s0.4,1.2,0.6,1.9l-2.5-0.1c0.8-1.4,1.6-2.9,2.4-4.3
						c0.8-1.4,1.7-2.8,2.5-4.2c0.9-1.4,1.7-2.8,2.6-4.2c0.9-1.4,1.8-2.8,2.8-4.1c-0.6,1.6-1.1,3.1-1.8,4.6c-0.6,1.5-1.3,3-1.9,4.5
						c-0.7,1.5-1.4,3-2,4.5c-0.7,1.5-1.4,3-2.1,4.4l-1.4,2.9l-1.2-3c-0.3-0.7-0.6-1.4-0.8-2.2c-0.2-0.7-0.4-1.4-0.6-2.1
						c-0.3-1.4-0.6-2.8-0.9-4.3c-0.2-1.4-0.4-2.8-0.6-4.3c-0.2-1.4-0.3-2.9-0.4-4.3c-0.1-1.4-0.2-2.9-0.3-4.3
						c-0.1-1.4-0.1-2.9-0.1-4.3c0-1.4,0-2.9,0-4.3C128.9,932.4,129,931,129.1,929.6z"/>
				</g>
			</g>
		</g>
		<g id="XMLID_190_">
			<path id="XMLID_16_" class="st10" d="M673,1083h261.5c-31.8-25.6-40.7-87.3-40.7-87.3c18,7.2,39.9,0,39.9,0
				c-51.3-49.7-75-138.2-75-138.2c10.9,3.2,27.1-2.1,27.1-2.1c-38-57-52.9-115-52.9-115c12.3,7.2,16.6,3.7,16.6,3.7
				c-29.4-30.4-44.9-90.6-44.9-90.6c-0.7-2-1.5,0-1.5,0s-16.7,62.1-46.9,89.3c0,0,6.6,4.9,19-2.3c0,0-10.5,41.9-48.4,98.8
				c0,0,16.2,5.3,27.1,2.1c0,0-17,94.8-68.3,144.5c0,0,21.8,7.2,39.9,0C725.3,985.9,707,1056,673,1083z"/>
			<g id="XMLID_132_">
				<g id="XMLID_118_">
					<path class="st11" d="M789.8,723.6c0,1.7-0.2,3.4-0.3,5.1c-0.1,0.8-0.2,1.7-0.2,2.5c-0.1,0.8-0.2,1.7-0.3,2.5
						c-0.2,1.7-0.4,3.3-0.7,5s-0.5,3.3-0.8,5l-2.2-1.5c0.9-0.6,1.8-1.2,2.7-1.8s1.8-1.3,2.7-1.9c0.4-0.3,0.9-0.7,1.3-1l1.3-1
						l1.3-1.1c0.4-0.4,0.8-0.7,1.2-1.1c0.4-0.4,0.8-0.7,1.2-1.1c0.4-0.4,0.8-0.8,1.2-1.2s0.7-0.8,1.1-1.2c0.4-0.4,0.7-0.8,1-1.3
						c0.4-0.4,0.7-0.9,1-1.3c0.3-0.5,0.7-0.9,0.9-1.4c0.3-0.5,0.6-1,0.8-1.5l0.7-1.6c0,0.6-0.1,1.1-0.2,1.7
						c-0.1,0.6-0.3,1.1-0.4,1.7c-0.1,0.6-0.4,1.1-0.6,1.6c-0.2,0.5-0.4,1.1-0.8,1.6c-0.3,0.5-0.6,1-0.9,1.5c-0.3,0.5-0.7,1-1,1.4
						c-0.3,0.5-0.7,0.9-1.1,1.4c-0.4,0.5-0.7,0.9-1.1,1.3c-0.4,0.4-0.8,0.9-1.2,1.3l-1.3,1.2c-0.9,0.8-1.7,1.5-2.6,2.3
						c-0.4,0.4-0.9,0.7-1.4,1.1c-0.5,0.4-0.9,0.7-1.4,1c-1,0.7-1.9,1.3-3,1.9l-2.8,1.6l0.6-3.2c0.3-1.6,0.7-3.3,1.1-4.9
						c0.4-1.6,0.8-3.3,1.2-4.9c0.2-0.8,0.4-1.6,0.7-2.4c0.2-0.8,0.4-1.6,0.7-2.4C788.7,726.8,789.2,725.2,789.8,723.6z"/>
				</g>
				<g id="XMLID_119_">
					<path class="st11" d="M763.4,817.3c-0.4,3-0.8,6-1.3,8.9c-0.5,3-1,5.9-1.5,8.9c-0.6,2.9-1.1,5.9-1.7,8.8
						c-0.6,2.9-1.1,5.9-1.8,8.8l-2-1.6c0.9-0.4,1.9-0.9,2.8-1.4c0.9-0.5,1.9-1,2.8-1.5c1.9-1.1,3.7-2.1,5.5-3.3
						c1.8-1.1,3.6-2.3,5.4-3.5c1.8-1.2,3.5-2.5,5.1-3.8c0.8-0.7,1.7-1.3,2.5-2.1c0.8-0.7,1.6-1.4,2.4-2.2c0.8-0.7,1.5-1.5,2.2-2.3
						s1.4-1.6,2.1-2.4c0.7-0.8,1.3-1.7,1.9-2.6c0.6-0.9,1.2-1.8,1.7-2.7c0.3-0.5,0.5-0.9,0.7-1.4s0.5-1,0.6-1.5
						c0.2-0.5,0.4-1,0.6-1.5l0.5-1.6l-0.2,1.6c-0.1,0.5-0.2,1.1-0.3,1.6s-0.3,1.1-0.5,1.6s-0.3,1.1-0.6,1.6c-0.4,1-0.9,2-1.4,3
						l-0.8,1.4c-0.3,0.5-0.6,0.9-0.9,1.4c-0.6,0.9-1.3,1.8-2,2.7s-1.4,1.7-2.2,2.5s-1.5,1.6-2.3,2.4c-0.8,0.8-1.6,1.5-2.4,2.3
						c-1.7,1.5-3.4,2.8-5.1,4.2c-1.8,1.3-3.6,2.5-5.4,3.7c-1.9,1.2-3.7,2.3-5.7,3.4c-1,0.5-1.9,1-2.9,1.6c-1,0.5-2,1-3,1.5l-2.6,1.2
						l0.6-2.8c0.6-2.9,1.4-5.8,2.1-8.7c0.7-2.9,1.5-5.8,2.2-8.7c0.8-2.9,1.5-5.8,2.3-8.7C761.7,823.1,762.5,820.2,763.4,817.3z"/>
				</g>
				<g id="XMLID_120_">
					<path class="st11" d="M749.5,924.8c-0.6,3-1.3,6-2,8.9c-0.7,3-1.5,5.9-2.2,8.9c-0.8,2.9-1.5,5.9-2.4,8.8
						c-0.8,2.9-1.6,5.9-2.5,8.8l-1.7-1.8c1-0.3,2.1-0.6,3.2-1c1.1-0.4,2.1-0.7,3.2-1.2c1-0.4,2.1-0.8,3.1-1.3c1-0.4,2.1-0.9,3.1-1.4
						c2-1,4-2,5.9-3.2c1-0.6,1.9-1.2,2.8-1.8c0.9-0.6,1.8-1.3,2.7-1.9c0.5-0.3,0.9-0.7,1.3-1c0.4-0.3,0.9-0.7,1.3-1.1
						c0.8-0.7,1.7-1.5,2.4-2.3c0.8-0.8,1.5-1.6,2.2-2.5c0.7-0.8,1.4-1.7,2-2.6c0.6-0.9,1.2-1.9,1.7-2.9c0.6-1,1-2,1.5-3
						c0.4-1.1,0.8-2.1,1.1-3.2c0.4-1.1,0.5-2.2,0.8-3.3c-0.1,1.1-0.1,2.3-0.3,3.4c-0.1,1.2-0.4,2.3-0.7,3.4
						c-0.4,1.1-0.7,2.2-1.2,3.3c-0.4,1.1-1,2.1-1.5,3.2c-0.6,1-1.2,2-1.9,3s-1.4,1.9-2.2,2.8c-0.8,0.9-1.6,1.7-2.4,2.5
						c-0.8,0.8-1.7,1.6-2.6,2.3c-0.9,0.8-1.8,1.5-2.8,2.1c-1,0.7-1.9,1.3-2.9,2c-1,0.6-2,1.2-3,1.8s-2.1,1.1-3.1,1.6
						c-2.1,1-4.2,2-6.4,2.8c-1.1,0.4-2.2,0.8-3.3,1.2s-2.2,0.7-3.4,1l-2.5,0.6l0.8-2.5c0.9-2.9,1.8-5.8,2.8-8.7
						c0.9-2.9,1.9-5.8,2.9-8.7s2-5.8,3-8.6C747.3,930.5,748.4,927.6,749.5,924.8z"/>
				</g>
			</g>
		</g>
		<g id="XMLID_189_">
			<path id="XMLID_5_" class="st10" d="M360.4,1083h255.8c-48.9-45.6-69.3-113-69.3-113c18.1,5,25.7-8.8,25.7-8.8
				c-38-52.2-52.7-105.8-52.7-105.8c12.2,1,15.7-3.3,15.7-3.3c-27.8-22.1-44.2-59.5-44.2-59.5c-0.7-1.8-1.5,0-1.5,0
				s-20.5,39.5-51.2,62.3c0,0,6.2,8.8,18.2,5.6c0,0-10.3,48.6-48.3,100.8c0,0,7.3,10.9,27.1,2C435.6,963.2,411.5,1037.5,360.4,1083z
				"/>
			<g id="XMLID_127_">
				<g id="XMLID_122_">
					<path class="st11" d="M473.7,842.7c0,1.5-0.2,3.1-0.4,4.6c-0.2,1.5-0.4,3-0.6,4.5s-0.5,3-0.8,4.5s-0.6,3-1,4.4l-1.9-1.8l1-0.4
						c0.3-0.1,0.7-0.3,1-0.4c0.7-0.3,1.4-0.6,2.1-0.9c0.7-0.3,1.3-0.7,2-1l1-0.5c0.3-0.2,0.6-0.4,1-0.6c0.3-0.2,0.6-0.4,0.9-0.6
						c0.3-0.2,0.6-0.4,0.9-0.6l0.9-0.7c0.3-0.2,0.5-0.5,0.8-0.8c0.3-0.2,0.5-0.5,0.8-0.8s0.5-0.6,0.7-0.9c0.2-0.3,0.5-0.6,0.6-1
						l0.5-1c0,0.4-0.1,0.8-0.1,1.2s-0.2,0.8-0.3,1.2c-0.1,0.4-0.3,0.8-0.5,1.1c-0.2,0.4-0.4,0.8-0.6,1.1s-0.5,0.7-0.7,1l-0.8,0.9
						c-0.3,0.3-0.6,0.6-0.9,0.9c-0.3,0.3-0.6,0.6-0.9,0.8c-0.3,0.3-0.6,0.5-1,0.8l-1,0.7c-0.7,0.4-1.4,0.9-2.1,1.3
						c-0.7,0.4-1.4,0.8-2.2,1.1c-0.8,0.3-1.5,0.6-2.3,0.9l-2.6,0.9l0.7-2.7c0.4-1.5,0.7-2.9,1.2-4.4c0.4-1.5,0.8-2.9,1.3-4.4
						c0.5-1.4,1-2.9,1.5-4.3C472.5,845.5,473,844.1,473.7,842.7z"/>
				</g>
				<g id="XMLID_123_">
					<path class="st11" d="M455.7,908.2c0.5,1,0.9,2.1,1.3,3.1c0.4,1.1,0.8,2.1,1.2,3.2c0.4,1.1,0.8,2.1,1.1,3.2l1.1,3.2
						c0.4,1.1,0.7,2.2,1,3.2c0.3,1.1,0.7,2.2,1,3.2c0.6,2.2,1.2,4.3,1.8,6.5l-2.7-0.4c0.4-0.7,0.8-1.5,1.2-2.3
						c0.4-0.8,0.8-1.6,1.2-2.4c0.4-0.8,0.7-1.6,1.1-2.4l0.5-1.2c0.2-0.4,0.3-0.8,0.5-1.2c0.3-0.8,0.6-1.7,1-2.5
						c0.3-0.8,0.6-1.7,0.9-2.5c0.1-0.4,0.3-0.8,0.4-1.3l0.4-1.3c0.3-0.9,0.5-1.7,0.8-2.6c0,0.9,0,1.8-0.1,2.7c0,0.9-0.1,1.8-0.3,2.7
						c-0.1,0.9-0.3,1.8-0.4,2.7c-0.2,0.9-0.4,1.8-0.6,2.7c-0.1,0.4-0.2,0.9-0.4,1.3l-0.4,1.3c-0.3,0.9-0.6,1.7-0.9,2.6
						c-0.3,0.9-0.7,1.7-1,2.6c-0.4,0.8-0.8,1.7-1.2,2.5l-1.7,3.2l-1-3.5c-0.6-2.2-1.2-4.4-1.7-6.5c-0.3-1.1-0.6-2.2-0.8-3.3
						c-0.3-1.1-0.5-2.2-0.8-3.3l-0.7-3.3c-0.2-1.1-0.4-2.2-0.6-3.3s-0.4-2.2-0.6-3.4C456,910.5,455.8,909.3,455.7,908.2z"/>
				</g>
				<g id="XMLID_124_">
					<path class="st11" d="M455.7,1006c0,2.4-0.2,4.8-0.4,7.1l-0.3,3.5l-0.4,3.5c-0.1,1.2-0.3,2.3-0.5,3.5c-0.2,1.2-0.3,2.3-0.5,3.5
						c-0.4,2.3-0.7,4.7-1.1,7l-1.9-1.7c0.4-0.1,0.9-0.3,1.4-0.5s0.9-0.4,1.4-0.6c0.9-0.4,1.8-0.8,2.8-1.3c0.9-0.5,1.8-1,2.7-1.5
						c0.4-0.3,0.9-0.5,1.3-0.8l1.3-0.8l1.2-0.9c0.4-0.3,0.8-0.6,1.2-1c0.4-0.3,0.8-0.6,1.1-1l1.1-1.1l1-1.2c0.4-0.4,0.6-0.8,0.9-1.2
						s0.6-0.8,0.9-1.3l0.8-1.4l-0.4,1.5c-0.1,0.5-0.4,1-0.6,1.5s-0.4,1-0.7,1.5l-0.8,1.4c-0.3,0.5-0.6,0.9-1,1.3
						c-0.3,0.4-0.7,0.8-1,1.3c-0.4,0.4-0.7,0.8-1.1,1.2l-1.2,1.1l-1.3,1c-0.4,0.4-0.9,0.7-1.3,1c-0.9,0.6-1.8,1.2-2.7,1.8
						c-0.9,0.6-1.9,1.1-2.9,1.5c-0.5,0.2-1,0.5-1.5,0.7s-1,0.4-1.6,0.6l-2.3,0.8l0.4-2.5c0.4-2.3,0.8-4.7,1.2-7
						c0.2-1.2,0.5-2.3,0.7-3.5c0.2-1.2,0.5-2.3,0.7-3.5l0.8-3.5l0.8-3.5C454.3,1010.6,454.9,1008.3,455.7,1006z"/>
				</g>
			</g>
		</g>
	</g>
	<path id="XMLID_6_" class="st12" d="M0,1083h168.5c-47.2-18.2-60.9-105.2-60.9-105.2c22,12.9,45.1,0,45.1,0
		c-58-51.5-82.1-131.2-82.1-131.2c20.4,5.6,29-10,29-10C56.5,777.7,39.9,717,39.9,717c13.7,1.2,17.7-3.8,17.7-3.8
		c-31.4-25-50-67.2-50-67.2c-0.8-2.1-1.6,0-1.6,0s-2.1,4-6,10.4C0,656.4,0,1083,0,1083z"/>
	<g id="XMLID_192_">
		<path id="XMLID_12_" class="st12" d="M523.9,1083h243.6c-28.2-28.3-43.4-81.3-43.4-81.3c18,6.6,39.9,0,39.9,0
			C712.7,956.1,700.6,884,700.6,884c10.9,2.9,27.1-2,27.1-2c-38-52.2-45.6-106.3-45.6-106.3c12.3,6.6,24.8,1.7,24.8,1.7
			c-31.3-14.2-60.5-80.5-60.5-80.5c-0.7-1.8-1.5,0-1.5,0s-29.2,66.2-60.5,80.5c0,0,12.5,4.9,24.8-1.7c0,0-7.6,54.1-45.6,106.3
			c0,0,16.2,4.9,27.1,2c0,0-12.1,72.1-63.4,117.7c0,0,21.8,6.6,39.9,0C567.2,1001.7,552.1,1054.7,523.9,1083z"/>
		<g id="XMLID_131_">
			<g id="XMLID_110_">
				<path class="st13" d="M622.3,766.5c0,1.7-0.1,3.4-0.3,5c-0.1,1.7-0.3,3.3-0.5,5s-0.4,3.3-0.6,5c-0.2,1.6-0.5,3.3-0.7,4.9
					l-2.2-1.5c1-0.6,2.1-1.3,3.1-2l3-2.1c2-1.4,4.1-2.8,6-4.2c1-0.7,2-1.4,2.9-2.2s1.9-1.5,2.8-2.3c0.5-0.4,0.9-0.8,1.3-1.2
					c0.4-0.4,0.9-0.9,1.3-1.3c0.4-0.4,0.8-0.9,1.1-1.4c0.4-0.5,0.6-1,0.8-1.6c0,0.6-0.1,1.3-0.4,1.9c-0.2,0.6-0.5,1.2-0.8,1.8
					s-0.7,1.1-1,1.6c-0.4,0.5-0.8,1-1.2,1.5c-0.8,1-1.7,1.9-2.6,2.8c-0.9,0.9-1.8,1.8-2.8,2.6c-1.9,1.6-3.9,3.2-5.9,4.6
					c-1,0.7-2.1,1.4-3.1,2.1c-1.1,0.7-2.1,1.3-3.2,2l-2.8,1.7l0.6-3.2c0.3-1.6,0.7-3.3,1-4.9c0.4-1.6,0.8-3.2,1.1-4.9
					c0.4-1.6,0.8-3.2,1.3-4.8C621.2,769.7,621.7,768.1,622.3,766.5z"/>
			</g>
			<g id="XMLID_111_">
				<path class="st13" d="M607,865.1c-0.3,2.8-0.6,5.6-1,8.4l-0.6,4.2c-0.2,1.4-0.4,2.8-0.7,4.2c-0.2,1.4-0.4,2.8-0.7,4.2l-0.7,4.2
					c-0.5,2.8-1.1,5.5-1.6,8.3l-2.1-1.6c0.6-0.3,1.3-0.7,1.9-1.1c0.7-0.4,1.3-0.7,1.9-1.1c1.3-0.8,2.5-1.6,3.8-2.5
					c1.2-0.9,2.5-1.7,3.6-2.6c0.6-0.5,1.2-0.9,1.7-1.4c0.6-0.5,1.1-1,1.7-1.5c1.1-1,2.2-2.1,3.2-3.2c0.5-0.5,1-1.1,1.5-1.7
					c0.5-0.6,0.9-1.2,1.3-1.8c0.4-0.6,0.8-1.2,1.2-1.9l0.6-1l0.5-1c0.2-0.3,0.3-0.7,0.5-1s0.3-0.7,0.4-1.1c0.3-0.7,0.5-1.5,0.7-2.2
					c0,0.8-0.1,1.5-0.2,2.3c-0.1,0.4-0.1,0.8-0.2,1.1c-0.1,0.4-0.2,0.8-0.3,1.1l-0.4,1.1l-0.4,1.1c-0.3,0.7-0.6,1.4-1,2.1
					c-0.4,0.7-0.8,1.4-1.2,2c-0.4,0.7-0.9,1.3-1.3,1.9c-0.9,1.3-2,2.4-3.1,3.6c-1.1,1.1-2.2,2.2-3.4,3.2s-2.4,2-3.7,2.9
					s-2.6,1.8-3.9,2.6c-0.7,0.4-1.3,0.8-2,1.2s-1.4,0.8-2.1,1.1l-2.8,1.4l0.7-3c0.6-2.8,1.1-5.5,1.8-8.3l0.9-4.1
					c0.3-1.4,0.7-2.7,1-4.1c0.3-1.4,0.7-2.7,1-4.1l1.1-4.1C605.3,870.5,606.1,867.8,607,865.1z"/>
			</g>
			<g id="XMLID_112_">
				<path class="st13" d="M589.2,972.3c-0.3,3.3-0.7,6.5-1.1,9.7c-0.2,1.6-0.4,3.2-0.7,4.8c-0.2,1.6-0.5,3.2-0.7,4.8
					c-0.5,3.2-1,6.4-1.5,9.7c-0.3,1.6-0.5,3.2-0.8,4.8l-0.9,4.8l-2-1.6c0.8-0.4,1.7-0.8,2.5-1.2l2.5-1.3c1.7-0.9,3.3-1.9,4.9-2.9
					c0.8-0.5,1.6-1.1,2.4-1.6c0.8-0.6,1.5-1.1,2.3-1.7c0.8-0.6,1.5-1.2,2.2-1.8s1.4-1.3,2.1-1.9c0.7-0.7,1.4-1.3,2-2
					c0.7-0.7,1.3-1.4,1.9-2.1c0.6-0.7,1.2-1.5,1.8-2.2c0.6-0.8,1.1-1.6,1.6-2.4c0.5-0.8,1-1.6,1.4-2.5c0.5-0.8,0.8-1.7,1.2-2.6
					c0.3-0.9,0.7-1.8,1-2.7s0.5-1.9,0.8-2.8c-0.1,1-0.1,2-0.3,2.9c-0.1,1-0.4,1.9-0.6,2.9c-0.1,0.5-0.3,0.9-0.4,1.4
					c-0.1,0.5-0.3,0.9-0.5,1.4c-0.3,0.9-0.7,1.8-1.2,2.7s-0.9,1.8-1.5,2.6c-0.5,0.9-1.1,1.7-1.6,2.5c-0.6,0.8-1.2,1.6-1.9,2.4
					c-0.6,0.8-1.3,1.5-2,2.2s-1.4,1.4-2.1,2.1c-0.7,0.7-1.5,1.3-2.2,2c-0.8,0.6-1.5,1.3-2.3,1.9c-0.8,0.6-1.6,1.2-2.4,1.7
					c-1.6,1.1-3.3,2.2-5.1,3.1c-0.9,0.5-1.7,1-2.6,1.4c-0.9,0.4-1.8,0.9-2.8,1.3l-2.5,1.1l0.5-2.7l0.9-4.8c0.3-1.6,0.6-3.2,1-4.8
					c0.6-3.2,1.3-6.4,2-9.6c0.3-1.6,0.7-3.2,1.1-4.8c0.4-1.6,0.7-3.2,1.1-4.8C587.5,978.6,588.3,975.4,589.2,972.3z"/>
			</g>
			<g id="XMLID_114_">
				<path class="st13" d="M635.1,848.8l0.8,4.2c0.3,1.4,0.5,2.8,0.8,4.2s0.6,2.8,0.9,4.2c0.3,1.4,0.6,2.8,1,4.1
					c0.3,1.4,0.7,2.7,1.1,4.1c0.2,0.7,0.4,1.3,0.7,2c0.2,0.7,0.5,1.3,0.7,2s0.5,1.3,0.8,1.9c0.3,0.6,0.5,1.3,0.9,1.9
					c0.3,0.6,0.6,1.2,1,1.8l1.1,1.6l-2.5,0.5c0.4-1,0.7-2,1.1-3l1.1-3c0.4-1,0.7-2,1.1-3l1.2-3c0.4-1,0.9-2,1.3-3l0.6-1.5
					c0.2-0.5,0.5-1,0.7-1.4c1-1.9,2-3.8,3.1-5.7c-0.6,2.1-1.2,4.1-1.9,6.2c-0.3,1-0.6,2-0.9,3.1c-0.3,1-0.6,2.1-0.9,3.1l-1.9,6.1
					l-1.9,6.1l-0.9,2.8l-1.7-2.3l-1.3-1.9c-0.4-0.6-0.7-1.3-1.1-2c-0.4-0.7-0.6-1.4-0.9-2.1c-0.3-0.7-0.6-1.4-0.8-2.1
					c-0.2-0.7-0.5-1.4-0.7-2.1c-0.2-0.7-0.4-1.4-0.6-2.1c-0.3-1.4-0.7-2.8-0.9-4.3c-0.3-1.4-0.4-2.9-0.6-4.3
					c-0.2-1.4-0.3-2.9-0.4-4.3c-0.1-1.4-0.1-2.9-0.2-4.3C635,851.6,635,850.2,635.1,848.8z"/>
			</g>
		</g>
	</g>
	<g id="XMLID_195_">
		<g id="XMLID_193_">
			<path id="XMLID_8_" class="st14" d="M180.5,1083h309.9c-37.8-26.4-48.5-90.5-48.5-90.5c21.3,7.5,47.1,0,47.1,0
				c-60.6-51.4-88.7-142.9-88.7-142.9c12.9,3.3,32-2.2,32-2.2c-44.9-58.9-62.6-118.9-62.6-118.9c14.6,7.5,19.6,3.8,19.6,3.8
				c-34.8-31.4-53.1-93.7-53.1-93.7c-0.9-2.1-1.7,0-1.7,0s-19.8,64.2-55.4,92.3c0,0,7.9,5.1,22.4-2.4c0,0-12.4,43.3-57.3,102.2
				c0,0,19.1,5.5,32,2.2c0,0-20.1,98-80.7,149.4c0,0,25.8,7.5,47.1,0C242.8,982.3,220.9,1055.2,180.5,1083z"/>
			<g id="XMLID_129_">
				<g id="XMLID_102_">
					<path class="st11" d="M313.9,713.2c-0.5,2.2-1.1,4.4-1.7,6.6c-0.3,1.1-0.6,2.2-0.9,3.3l-0.9,3.3c-0.7,2.2-1.3,4.3-2,6.5
						s-1.4,4.3-2.1,6.5l-2.2-1.7c1.3-0.9,2.6-1.8,3.8-2.7l3.8-2.8l3.8-2.8c1.3-0.9,2.5-1.9,3.7-2.9l1.8-1.5c0.6-0.5,1.2-1,1.8-1.5
						c1.2-1,2.4-2,3.5-3.1s2.3-2.2,3.3-3.3c1-1.2,2-2.4,2.7-3.8c-0.2,0.8-0.5,1.5-0.8,2.3c-0.3,0.7-0.7,1.4-1.2,2.1
						c-0.4,0.7-0.9,1.3-1.4,2c-0.5,0.6-1,1.3-1.5,1.9c-1,1.2-2.1,2.4-3.2,3.6c-1.1,1.1-2.3,2.3-3.5,3.3c-1.2,1.1-2.4,2.1-3.6,3.1
						s-2.5,2-3.7,3c-1.3,1-2.5,1.9-3.8,2.9c-1.3,0.9-2.6,1.8-4,2.7l-3.6,2.4l1.4-4.1c0.8-2.1,1.6-4.2,2.4-6.4
						c0.8-2.1,1.7-4.2,2.5-6.3l1.3-3.1c0.4-1,0.9-2.1,1.3-3.1C312,717.3,312.9,715.2,313.9,713.2z"/>
				</g>
				<g id="XMLID_104_">
					<path class="st11" d="M304.9,804.2c-0.3,1.9-0.6,3.8-0.9,5.6l-1,5.6l-1.2,5.6c-0.4,1.9-0.9,3.7-1.3,5.6l-0.7,2.8l-0.7,2.8
						c-0.5,1.8-1,3.7-1.5,5.5l-1.7,5.5c-0.7,1.8-1.4,3.6-2.1,5.4l-1.9-2c0.7-0.3,1.6-0.6,2.3-1c0.8-0.4,1.6-0.8,2.3-1.1
						c0.8-0.4,1.5-0.8,2.3-1.2l2.2-1.3l2.2-1.4l2.1-1.5l2.1-1.6c0.7-0.5,1.4-1.1,2-1.6c0.7-0.6,1.3-1.1,2-1.7l1.9-1.8l1.8-1.9
						c0.6-0.6,1.2-1.3,1.8-1.9c0.6-0.7,1.2-1.3,1.7-2l1.6-2.1c0.6-0.7,1-1.4,1.5-2.2l1.5-2.2l-1.1,2.4c-0.4,0.8-0.8,1.6-1.2,2.4
						l-1.4,2.3c-0.5,0.8-1,1.5-1.5,2.2s-1,1.5-1.6,2.2l-1.7,2.1c-0.6,0.7-1.2,1.3-1.8,2c-0.6,0.7-1.3,1.3-1.9,1.9
						c-0.7,0.6-1.3,1.3-2,1.8c-0.7,0.6-1.4,1.2-2.1,1.7l-2.2,1.6l-2.2,1.5c-0.8,0.5-1.5,1-2.3,1.5s-1.6,0.9-2.4,1.3
						c-0.8,0.4-1.6,0.8-2.4,1.2s-1.6,0.8-2.5,1.1l-3.1,1.2l1.2-3.2c0.6-1.7,1.3-3.5,2-5.2l1.8-5.4c0.6-1.8,1.1-3.6,1.7-5.4l1.7-5.4
						l3.3-10.9l1.7-5.4C303.7,807.8,304.3,806,304.9,804.2z"/>
				</g>
				<g id="XMLID_103_">
					<path class="st11" d="M256.8,968c-0.8,4.1-1.6,8.3-2.5,12.4c-0.4,2.1-0.9,4.1-1.3,6.2l-1.4,6.2c-0.9,4.1-1.8,8.2-2.8,12.3
						s-1.9,8.2-3,12.3l-2-1.7c1.2-0.5,2.4-1.1,3.6-1.7c1.2-0.6,2.4-1.2,3.6-1.9c2.4-1.2,4.8-2.5,7.1-3.9c1.2-0.7,2.3-1.4,3.5-2.1
						c1.2-0.7,2.3-1.4,3.4-2.2c1.1-0.7,2.3-1.5,3.4-2.3s2.2-1.6,3.3-2.4c1.1-0.8,2.2-1.6,3.2-2.5c1.1-0.8,2.1-1.7,3.1-2.6
						c1-0.9,2-1.8,3-2.8c0.5-0.5,1-1,1.4-1.4c0.5-0.5,0.9-1,1.4-1.5c0.9-1,1.8-2,2.6-3.1c0.8-1.1,1.6-2.2,2.3-3.3l0.6-0.9l0.5-0.9
						c0.3-0.6,0.7-1.2,0.9-1.8c0.3-0.6,0.6-1.2,0.8-1.9l0.7-1.9l-0.5,2c-0.2,0.7-0.4,1.3-0.6,2s-0.5,1.3-0.8,1.9l-0.4,1l-0.5,0.9
						c-0.6,1.2-1.3,2.4-2.1,3.6l-1.2,1.7c-0.4,0.6-0.8,1.1-1.3,1.7c-3.4,4.4-7.5,8.2-11.8,11.7c-1.1,0.9-2.2,1.7-3.3,2.5
						c-1.1,0.8-2.2,1.6-3.4,2.4c-1.1,0.8-2.3,1.6-3.5,2.3s-2.3,1.5-3.5,2.2c-2.4,1.4-4.8,2.8-7.2,4.1c-1.2,0.6-2.5,1.3-3.7,1.9
						c-1.2,0.6-2.5,1.2-3.8,1.7l-2.7,1.2l0.7-2.9c1-4.1,2.1-8.1,3.2-12.2c1.1-4.1,2.2-8.1,3.3-12.2l1.7-6.1c0.6-2,1.2-4,1.8-6.1
						C254.3,976,255.5,972,256.8,968z"/>
				</g>
				<g id="XMLID_105_">
					<path class="st11" d="M298.6,898.7c-0.2,4-0.5,7.9-0.8,11.9l-0.5,5.9c-0.2,2-0.4,3.9-0.6,5.9s-0.4,3.9-0.6,5.9l-0.7,5.9
						c-0.4,3.9-1,7.9-1.4,11.8l-2.2-1.5c1.8-1,3.7-2.1,5.5-3.2c1.8-1.1,3.6-2.3,5.4-3.4l2.7-1.8c0.9-0.6,1.8-1.2,2.6-1.8
						c0.9-0.6,1.7-1.3,2.6-1.9c0.8-0.7,1.7-1.3,2.5-2c1.7-1.3,3.3-2.7,4.9-4.2c0.8-0.7,1.6-1.5,2.3-2.2c0.7-0.8,1.5-1.5,2.2-2.3
						c0.4-0.4,0.7-0.8,1-1.2s0.7-0.8,1-1.3c0.6-0.8,1.2-1.7,1.8-2.7l0.8-1.4l0.6-1.5l0.5-1.5l0.4-1.6l-0.1,1.6l-0.3,1.6l-0.5,1.6
						l-0.6,1.5c-0.5,1-1,2-1.5,2.9c-0.3,0.5-0.6,0.9-0.9,1.4s-0.6,0.9-0.9,1.4c-0.6,0.9-1.3,1.7-2,2.6c-0.7,0.8-1.4,1.7-2.2,2.4
						c-0.7,0.8-1.5,1.6-2.3,2.3s-1.6,1.5-2.4,2.2c-1.6,1.5-3.3,2.8-5.1,4.2c-1.7,1.3-3.5,2.6-5.3,3.9c-1.8,1.2-3.6,2.4-5.5,3.6
						c-1.9,1.2-3.7,2.3-5.7,3.3l-2.6,1.4l0.4-2.9c0.6-3.9,1-7.8,1.6-11.8l0.9-5.9c0.3-2,0.6-3.9,0.9-5.9s0.6-3.9,1-5.9l1-5.9
						C297,906.5,297.7,902.6,298.6,898.7z"/>
				</g>
				<g id="XMLID_107_">
					<path class="st11" d="M328.5,1000.1c0.6,3.6,1.1,7.2,1.6,10.8s0.9,7.2,1.4,10.8c0.4,3.6,0.9,7.2,1.2,10.8
						c0.4,3.6,0.8,7.2,1.1,10.8l-2.3-1c1-0.8,2.1-1.6,3.1-2.5c1-0.8,2-1.7,3-2.6c2-1.8,3.9-3.5,5.8-5.4c1.9-1.8,3.7-3.8,5.5-5.7
						c1.8-1.9,3.5-3.9,5.2-6c0.8-1,1.6-2.1,2.4-3.1c0.8-1.1,1.6-2.1,2.3-3.2c0.8-1.1,1.5-2.2,2.2-3.3l1-1.7l1-1.7
						c0.3-0.6,0.6-1.2,0.9-1.7c0.3-0.6,0.6-1.2,0.9-1.8s0.6-1.2,0.8-1.8l0.8-1.8c0.3-0.6,0.5-1.2,0.7-1.9c0.2-0.6,0.4-1.3,0.6-1.9
						c0.4-1.3,0.7-2.6,1-3.9c-0.1,1.3-0.2,2.7-0.5,4c-0.1,0.7-0.2,1.3-0.4,2c-0.2,0.7-0.3,1.3-0.5,2l-0.6,1.9
						c-0.2,0.6-0.5,1.3-0.7,1.9c-0.5,1.3-1,2.5-1.6,3.7l-0.9,1.8l-0.9,1.8c-0.6,1.2-1.3,2.4-2,3.5c-0.7,1.2-1.4,2.3-2.2,3.4
						c-0.8,1.1-1.5,2.2-2.4,3.3c-1.6,2.2-3.3,4.2-5.1,6.3c-0.9,1-1.8,2-2.7,3c-0.9,1-1.9,1.9-2.8,2.9c-1.9,1.9-3.9,3.8-5.9,5.5
						c-1,0.9-2,1.8-3.1,2.6c-1.1,0.9-2.1,1.7-3.2,2.5l-2.1,1.6l-0.2-2.6c-0.3-3.6-0.6-7.2-0.8-10.9c-0.3-3.6-0.5-7.3-0.7-10.9
						s-0.4-7.3-0.6-10.9C328.7,1007.3,328.5,1003.7,328.5,1000.1z"/>
				</g>
			</g>
		</g>
		<g id="XMLID_155_">
			<path id="XMLID_17_" class="st14" d="M839.4,960.3c0,0-23.1,71.2-71.9,122.8H1031c-46.2-50.5-65.8-115-65.8-115
				c20.4,5.6,29-10,29-10c-42.9-59-59.6-119.7-59.6-119.7c13.7,1.2,17.7-3.8,17.7-3.8c-31.4-25-50-67.2-50-67.2
				c-0.8-2.1-1.6,0-1.6,0s-23.2,44.7-57.8,70.4c0,0,7,9.9,20.6,6.3c0,0-11.7,54.9-54.6,114C808.8,958.1,817,970.4,839.4,960.3z"/>
			<g id="XMLID_133_">
				<g id="XMLID_106_">
					<path class="st11" d="M882.9,838c-0.2,1.4-0.5,2.7-0.8,4.1c-0.3,1.4-0.6,2.7-0.9,4c-0.3,1.3-0.7,2.7-1,4s-0.8,2.6-1.1,4
						l-1.5-1.8c0.6-0.1,1.2-0.3,1.8-0.4c0.6-0.1,1.2-0.3,1.8-0.4c1.2-0.3,2.3-0.7,3.5-1.1c1.2-0.4,2.3-0.8,3.4-1.3
						c1.1-0.5,2.2-0.9,3.3-1.5c0.5-0.3,1.1-0.6,1.6-0.9c0.5-0.3,1-0.6,1.6-0.9c0.5-0.3,1-0.7,1.5-1c0.5-0.4,1-0.7,1.4-1.1
						c0.4-0.4,0.9-0.8,1.3-1.2c0.4-0.4,0.8-0.9,1.2-1.4s0.8-1,1.1-1.5c0.4-0.5,0.6-1.1,1-1.6c-0.1,0.6-0.2,1.3-0.5,1.9
						c-0.2,0.6-0.4,1.2-0.7,1.8s-0.6,1.2-1,1.7c-0.3,0.6-0.8,1.1-1.2,1.6s-0.9,1-1.3,1.5c-0.5,0.5-1,0.9-1.5,1.3
						c-0.5,0.4-1,0.8-1.6,1.2c-0.5,0.4-1.1,0.7-1.7,1.1c-2.2,1.4-4.6,2.4-7.1,3.3c-1.2,0.4-2.5,0.8-3.7,1.1
						c-0.6,0.2-1.3,0.3-1.9,0.4c-0.6,0.1-1.3,0.2-2,0.3l-2.3,0.3l0.8-2.1c0.5-1.3,0.9-2.6,1.5-3.9c0.5-1.3,1-2.6,1.6-3.8
						c0.5-1.3,1.1-2.5,1.7-3.8C881.6,840.4,882.2,839.2,882.9,838z"/>
				</g>
				<g id="XMLID_108_">
					<path class="st11" d="M866.5,941.9c-0.6,3-1.3,6.1-2,9.1s-1.4,6-2.2,9s-1.5,6-2.3,9s-1.6,6-2.4,8.9l-1.3-1.8
						c1.1,0,2.2,0,3.3-0.1s2.3-0.2,3.4-0.3c2.2-0.3,4.5-0.7,6.7-1.2c1.1-0.2,2.2-0.5,3.3-0.8s2.2-0.7,3.2-1c1.1-0.4,2.1-0.8,3.2-1.2
						c1-0.4,2.1-0.9,3.1-1.4s2-1,3-1.6s1.9-1.2,2.9-1.8s1.8-1.3,2.7-2s1.7-1.4,2.5-2.2s1.6-1.6,2.4-2.5c0.7-0.9,1.5-1.7,2.1-2.7
						l1-1.4l0.9-1.5c0.6-1,1.2-2,1.7-3c-0.4,1.1-0.8,2.2-1.3,3.3l-0.7,1.6c-0.3,0.5-0.6,1-0.8,1.5c-0.6,1-1.3,2-1.9,3
						c-0.7,0.9-1.4,1.9-2.2,2.8c-0.8,0.9-1.6,1.7-2.5,2.6c-0.9,0.8-1.8,1.6-2.7,2.3c-0.9,0.8-1.9,1.4-2.9,2.1c-1,0.6-2,1.3-3.1,1.8
						c-1,0.6-2.1,1.1-3.2,1.6c-1.1,0.5-2.2,0.9-3.3,1.4c-2.2,0.8-4.5,1.5-6.8,2s-4.6,1-7,1.2c-1.2,0.1-2.4,0.2-3.5,0.3
						c-1.2,0.1-2.4,0.1-3.6,0.1h-1.9l0.5-1.8c0.9-3,1.8-5.9,2.7-8.8c0.9-2.9,1.9-5.9,2.8-8.8c1-2.9,1.9-5.9,3-8.8
						C864.4,947.7,865.5,944.8,866.5,941.9z"/>
				</g>
				<g id="XMLID_109_">
					<path class="st11" d="M856.3,1039.7c-0.7,3.4-1.4,6.9-2.2,10.3c-0.4,1.7-0.8,3.4-1.2,5.1s-0.8,3.4-1.2,5.1
						c-0.9,3.4-1.7,6.8-2.6,10.2c-0.9,3.4-1.8,6.8-2.7,10.1l-1.7-1.8c1.1-0.2,2.2-0.5,3.2-0.8l3.2-0.9c2.2-0.6,4.3-1.2,6.4-1.9
						c2.1-0.7,4.2-1.5,6.3-2.2c1-0.4,2.1-0.8,3.1-1.2c1-0.4,2-0.9,3-1.4s2-1,3-1.5s1.9-1,2.9-1.6s1.9-1.2,2.8-1.8l1.3-1
						c0.4-0.3,0.9-0.7,1.3-1c0.4-0.3,0.8-0.7,1.2-1.1s0.8-0.8,1.2-1.2c0.4-0.4,0.8-0.8,1.1-1.2c0.3-0.4,0.7-0.9,1-1.3
						c0.6-0.9,1.2-1.9,1.6-2.9c0.2-0.5,0.4-1,0.6-1.6l0.4-1.6l-0.2,1.7c-0.1,0.6-0.2,1.1-0.4,1.7c-0.3,1.1-0.7,2.2-1.3,3.2
						c-0.2,0.5-0.6,1-0.9,1.5c-0.3,0.5-0.6,1-1,1.4c-0.3,0.5-0.7,0.9-1.1,1.3c-0.4,0.4-0.8,0.9-1.2,1.3s-0.8,0.8-1.3,1.2l-1.3,1.1
						c-0.9,0.7-1.8,1.4-2.8,2.1c-0.9,0.7-1.9,1.3-2.9,1.9s-2,1.2-3,1.7s-2,1-3.1,1.5c-1,0.5-2.1,1-3.1,1.4c-1.1,0.4-2.1,0.9-3.2,1.3
						c-1.1,0.4-2.1,0.8-3.2,1.2c-2.2,0.7-4.3,1.4-6.5,2c-1.1,0.3-2.2,0.6-3.3,0.9s-2.2,0.5-3.4,0.8l-2.3,0.5l0.7-2.3
						c1-3.4,2-6.7,3-10.1c1-3.3,2-6.7,3.1-10c0.5-1.7,1.1-3.3,1.6-5s1.1-3.3,1.6-5C853.9,1046.3,855.1,1043,856.3,1039.7z"/>
				</g>
				<g id="XMLID_121_">
					<path class="st11" d="M856.3,902.5c-0.7,2.8-1.4,5.5-2.2,8.2c-0.4,1.4-0.8,2.7-1.2,4.1c-0.4,1.4-0.8,2.7-1.2,4.1
						c-0.8,2.7-1.7,5.4-2.6,8.1c-0.9,2.7-1.8,5.4-2.7,8l-1.9-1.9c1.5-0.6,3.1-1.2,4.6-1.8s3.1-1.2,4.6-1.9s3-1.3,4.5-2
						s3-1.4,4.5-2.2c1.5-0.7,2.9-1.5,4.4-2.3c1.4-0.8,2.8-1.7,4.2-2.6c0.7-0.5,1.3-1,2-1.5c0.6-0.5,1.2-1.1,1.8-1.6
						c0.6-0.6,1.1-1.2,1.6-1.9s0.9-1.4,1.2-2.2c-0.1,0.8-0.4,1.7-0.7,2.4c-0.4,0.8-0.8,1.5-1.3,2.2s-1.1,1.3-1.7,2
						c-0.6,0.6-1.2,1.2-1.8,1.8c-1.3,1.1-2.6,2.2-4,3.1c-1.4,1-2.8,1.9-4.3,2.7c-1.5,0.9-3,1.7-4.4,2.4c-1.5,0.8-3,1.5-4.6,2.2
						c-1.5,0.7-3.1,1.4-4.6,2c-1.6,0.7-3.1,1.2-4.7,1.8l-2.9,1l1.1-2.9c1-2.7,1.9-5.3,3-8c1-2.7,2-5.3,3.1-7.9
						c0.5-1.3,1.1-2.6,1.6-3.9c0.6-1.3,1.1-2.6,1.6-3.9C853.9,907.7,855.1,905.1,856.3,902.5z"/>
				</g>
			</g>
		</g>
	</g>
	<g id="XMLID_235_">
		<g id="XMLID_260_">
			<path id="XMLID_271_" class="st10" d="M954.4,1025.6c0,0-8.3,29.1-24.1,55.7h205c-15.8-26.6-24.1-55.7-24.1-55.7
				c18,6.6,39.9,0,39.9,0c-51.3-45.6-63.4-117.7-63.4-117.7c10.9,2.9,27.1-2,27.1-2c-38-52.2-45.6-106.3-45.6-106.3
				c12.3,6.6,24.8,1.7,24.8,1.7c-31.3-14.2-60.5-80.5-60.5-80.5c-0.7-1.8-1.5,0-1.5,0s-29.2,66.2-60.5,80.5c0,0,12.5,4.9,24.8-1.7
				c0,0-7.6,54.1-45.6,106.3c0,0,16.2,4.9,27.1,2c0,0-12.1,72.1-63.4,117.7C914.5,1025.6,936.4,1032.2,954.4,1025.6z"/>
			<g id="XMLID_261_">
				<g id="XMLID_268_">
					<path class="st11" d="M1010.4,783.5c-0.1,0.9-0.2,1.9-0.3,2.8c-0.1,0.9-0.3,1.9-0.4,2.8c-0.3,1.9-0.6,3.7-0.9,5.6l-1,5.5
						l-1.1,5.5l-2.1-1.6c0.6-0.3,1.2-0.7,1.9-1.1c0.6-0.4,1.2-0.8,1.8-1.2c1.2-0.8,2.4-1.6,3.6-2.4c1.2-0.8,2.3-1.7,3.5-2.6
						c1.1-0.9,2.2-1.8,3.3-2.8s2.1-2,3.1-3c0.5-0.5,0.9-1.1,1.4-1.6c0.4-0.6,0.9-1.1,1.3-1.7c0.4-0.6,0.8-1.2,1.2-1.8
						c0.4-0.6,0.7-1.3,1-1.9c0.2-0.3,0.3-0.7,0.4-1s0.3-0.7,0.4-1c0.2-0.7,0.4-1.4,0.6-2.1c0,0.7,0,1.5-0.1,2.3
						c0,0.4-0.1,0.8-0.2,1.1c-0.1,0.4-0.1,0.8-0.2,1.1c-0.2,0.7-0.4,1.5-0.7,2.2c-0.3,0.7-0.6,1.4-1,2.1c-0.3,0.7-0.7,1.3-1.1,2
						c-0.4,0.6-0.9,1.3-1.3,1.9c-0.5,0.6-0.9,1.2-1.4,1.8s-1,1.1-1.5,1.7c-1.1,1.1-2.2,2.1-3.3,3.1c-1.2,1-2.4,1.9-3.6,2.8
						c-1.2,0.9-2.5,1.8-3.8,2.5c-0.6,0.4-1.3,0.8-1.9,1.2c-0.7,0.4-1.3,0.7-2,1.1l-2.9,1.5l0.8-3.1l1.5-5.4l1.6-5.4
						c0.6-1.8,1.1-3.6,1.7-5.4c0.3-0.9,0.6-1.8,0.9-2.7C1009.8,785.3,1010.1,784.4,1010.4,783.5z"/>
				</g>
				<g id="XMLID_265_">
					<path class="st11" d="M994.3,876.5c0,2.1-0.1,4.1-0.2,6.1c0,1-0.1,2-0.2,3.1c-0.1,1-0.1,2-0.2,3c-0.2,2-0.4,4.1-0.6,6.1
						c-0.1,1-0.2,2-0.3,3l-0.4,3l-2-1.6c0.5-0.2,1-0.5,1.5-0.7c0.5-0.3,1-0.5,1.5-0.8c1-0.5,2-1.1,3-1.7c1-0.6,2-1.2,2.9-1.8
						c0.5-0.3,1-0.6,1.4-1s0.9-0.7,1.4-1l1.3-1.1c0.5-0.4,0.8-0.8,1.3-1.2c0.4-0.4,0.9-0.8,1.2-1.2l1.2-1.3l1.1-1.3
						c0.4-0.4,0.7-0.9,1-1.4s0.7-1,0.9-1.5l0.8-1.6c-0.1,0.6-0.3,1.2-0.4,1.7c-0.1,0.6-0.4,1.1-0.6,1.7c-0.2,0.6-0.4,1.1-0.7,1.7
						l-0.9,1.6l-1,1.5c-0.3,0.5-0.7,1-1.1,1.4c-0.4,0.5-0.8,0.9-1.2,1.4l-1.3,1.3c-0.4,0.4-0.9,0.8-1.4,1.2s-0.9,0.8-1.4,1.1
						c-0.5,0.4-1,0.7-1.5,1.1c-0.5,0.4-1,0.7-1.5,1c-1,0.7-2.1,1.3-3.1,1.9c-0.5,0.3-1.1,0.6-1.6,0.8c-0.6,0.3-1.1,0.5-1.7,0.8
						l-2.4,1l0.4-2.6l0.4-3c0.1-1,0.3-2,0.5-3c0.3-2,0.7-4,1.1-6c0.2-1,0.4-2,0.6-3c0.2-1,0.4-2,0.7-3
						C993.2,880.5,993.7,878.5,994.3,876.5z"/>
				</g>
				<g id="XMLID_262_">
					<path class="st11" d="M1019,927.8c0.3,1.4,0.5,2.8,0.8,4.2c0.2,1.4,0.5,2.8,0.7,4.2s0.4,2.8,0.7,4.2c0.2,1.4,0.4,2.8,0.6,4.2
						l0.7,4.2c0.2,1.4,0.4,2.8,0.7,4.2s0.5,2.7,0.8,4.1c0.1,0.7,0.3,1.3,0.5,2s0.4,1.2,0.6,1.9l-2.5-0.1c0.8-1.4,1.6-2.9,2.4-4.3
						c0.8-1.4,1.7-2.8,2.5-4.2c0.9-1.4,1.7-2.8,2.6-4.2s1.8-2.8,2.8-4.1c-0.6,1.6-1.1,3.1-1.8,4.6c-0.6,1.5-1.3,3-1.9,4.5
						c-0.7,1.5-1.4,3-2,4.5c-0.7,1.5-1.4,3-2.1,4.4l-1.4,2.9l-1.2-3c-0.3-0.7-0.6-1.4-0.8-2.2c-0.2-0.7-0.4-1.4-0.6-2.1
						c-0.3-1.4-0.6-2.8-0.9-4.3c-0.2-1.4-0.4-2.8-0.6-4.3c-0.2-1.4-0.3-2.9-0.4-4.3c-0.1-1.4-0.2-2.9-0.3-4.3
						c-0.1-1.4-0.1-2.9-0.1-4.3c0-1.4,0-2.9,0-4.3C1018.8,930.6,1018.8,929.2,1019,927.8z"/>
				</g>
			</g>
		</g>
		<g id="XMLID_248_">
			<path id="XMLID_259_" class="st10" d="M1562.9,1081.3h261.5c-31.8-25.6-40.7-87.3-40.7-87.3c18,7.2,39.9,0,39.9,0
				c-51.3-49.7-75-138.2-75-138.2c10.9,3.2,27.1-2.1,27.1-2.1c-38-57-52.9-115-52.9-115c12.3,7.2,16.6,3.7,16.6,3.7
				c-29.4-30.4-44.9-90.6-44.9-90.6c-0.7-2-1.5,0-1.5,0s-16.7,62.1-46.9,89.3c0,0,6.6,4.9,19-2.3c0,0-10.5,41.9-48.4,98.8
				c0,0,16.2,5.3,27.1,2.1c0,0-17,94.8-68.3,144.5c0,0,21.8,7.2,39.9,0C1615.2,984.1,1596.8,1054.2,1562.9,1081.3z"/>
			<g id="XMLID_249_">
				<g id="XMLID_256_">
					<path class="st11" d="M1679.7,721.8c0,1.7-0.2,3.4-0.3,5.1c-0.1,0.8-0.2,1.7-0.2,2.5c-0.1,0.8-0.2,1.7-0.3,2.5
						c-0.2,1.7-0.4,3.3-0.7,5c-0.3,1.7-0.5,3.3-0.8,5l-2.2-1.5c0.9-0.6,1.8-1.2,2.7-1.8c0.9-0.6,1.8-1.3,2.7-1.9
						c0.4-0.3,0.9-0.7,1.3-1l1.3-1l1.3-1.1c0.4-0.4,0.8-0.7,1.2-1.1c0.4-0.4,0.8-0.7,1.2-1.1c0.4-0.4,0.8-0.8,1.2-1.2
						c0.4-0.4,0.7-0.8,1.1-1.2s0.7-0.8,1-1.3c0.4-0.4,0.7-0.9,1-1.3c0.3-0.5,0.7-0.9,0.9-1.4c0.3-0.5,0.6-1,0.8-1.5l0.7-1.6
						c0,0.6-0.1,1.1-0.2,1.7c-0.1,0.6-0.3,1.1-0.4,1.7c-0.1,0.6-0.4,1.1-0.6,1.6s-0.4,1.1-0.8,1.6c-0.3,0.5-0.6,1-0.9,1.5
						s-0.7,1-1,1.4c-0.3,0.5-0.7,0.9-1.1,1.4s-0.7,0.9-1.1,1.3c-0.4,0.4-0.8,0.9-1.2,1.3l-1.3,1.2c-0.9,0.8-1.7,1.5-2.6,2.3
						c-0.4,0.4-0.9,0.7-1.4,1.1c-0.5,0.4-0.9,0.7-1.4,1c-1,0.7-1.9,1.3-3,1.9l-2.8,1.6l0.6-3.2c0.3-1.6,0.7-3.3,1.1-4.9
						c0.4-1.6,0.8-3.3,1.2-4.9c0.2-0.8,0.4-1.6,0.7-2.4c0.2-0.8,0.4-1.6,0.7-2.4C1678.6,725,1679.1,723.4,1679.7,721.8z"/>
				</g>
				<g id="XMLID_253_">
					<path class="st11" d="M1653.3,815.5c-0.4,3-0.8,6-1.3,8.9c-0.5,3-1,5.9-1.5,8.9c-0.6,2.9-1.1,5.9-1.7,8.8
						c-0.6,2.9-1.1,5.9-1.8,8.8l-2-1.6c0.9-0.4,1.9-0.9,2.8-1.4s1.9-1,2.8-1.5c1.9-1.1,3.7-2.1,5.5-3.3c1.8-1.1,3.6-2.3,5.4-3.5
						s3.5-2.5,5.1-3.8c0.8-0.7,1.7-1.3,2.5-2.1c0.8-0.7,1.6-1.4,2.4-2.2c0.8-0.7,1.5-1.5,2.2-2.3s1.4-1.6,2.1-2.4
						c0.7-0.8,1.3-1.7,1.9-2.6c0.6-0.9,1.2-1.8,1.7-2.7c0.3-0.5,0.5-0.9,0.7-1.4s0.5-1,0.6-1.5c0.2-0.5,0.4-1,0.6-1.5l0.5-1.6
						l-0.2,1.6c-0.1,0.5-0.2,1.1-0.3,1.6c-0.1,0.5-0.3,1.1-0.5,1.6s-0.3,1.1-0.6,1.6c-0.4,1-0.9,2-1.4,3l-0.8,1.4
						c-0.3,0.5-0.6,0.9-0.9,1.4c-0.6,0.9-1.3,1.8-2,2.7s-1.4,1.7-2.2,2.5c-0.8,0.8-1.5,1.6-2.3,2.4c-0.8,0.8-1.6,1.5-2.4,2.3
						c-1.7,1.5-3.4,2.8-5.1,4.2c-1.8,1.3-3.6,2.5-5.4,3.7c-1.9,1.2-3.7,2.3-5.7,3.4c-1,0.5-1.9,1-2.9,1.6c-1,0.5-2,1-3,1.5l-2.6,1.2
						l0.6-2.8c0.6-2.9,1.4-5.8,2.1-8.7s1.5-5.8,2.2-8.7c0.8-2.9,1.5-5.8,2.3-8.7C1651.5,821.3,1652.4,818.4,1653.3,815.5z"/>
				</g>
				<g id="XMLID_250_">
					<path class="st11" d="M1639.4,923c-0.6,3-1.3,6-2,8.9c-0.7,3-1.5,5.9-2.2,8.9c-0.8,2.9-1.5,5.9-2.4,8.8
						c-0.8,2.9-1.6,5.9-2.5,8.8l-1.7-1.8c1-0.3,2.1-0.6,3.2-1s2.1-0.7,3.2-1.2c1-0.4,2.1-0.8,3.1-1.3c1-0.4,2.1-0.9,3.1-1.4
						c2-1,4-2,5.9-3.2c1-0.6,1.9-1.2,2.8-1.8s1.8-1.3,2.7-1.9c0.5-0.3,0.9-0.7,1.3-1s0.9-0.7,1.3-1.1c0.8-0.7,1.7-1.5,2.4-2.3
						c0.8-0.8,1.5-1.6,2.2-2.5c0.7-0.8,1.4-1.7,2-2.6c0.6-0.9,1.2-1.9,1.7-2.9c0.6-1,1-2,1.5-3c0.4-1,0.8-2.1,1.1-3.2
						c0.4-1.1,0.5-2.2,0.8-3.3c-0.1,1.1-0.1,2.3-0.3,3.4c-0.1,1.2-0.4,2.3-0.7,3.4c-0.4,1.1-0.7,2.2-1.2,3.3c-0.4,1.1-1,2.1-1.5,3.2
						c-0.6,1-1.2,2-1.9,3c-0.7,1-1.4,1.9-2.2,2.8c-0.8,0.9-1.6,1.7-2.4,2.5s-1.7,1.6-2.6,2.3c-0.9,0.8-1.8,1.5-2.8,2.1
						c-1,0.7-1.9,1.3-2.9,2c-1,0.6-2,1.2-3,1.8s-2.1,1.1-3.1,1.6c-2.1,1-4.2,2-6.4,2.8c-1.1,0.4-2.2,0.8-3.3,1.2
						c-1.1,0.4-2.2,0.7-3.4,1l-2.5,0.6l0.8-2.5c0.9-2.9,1.8-5.8,2.8-8.7c0.9-2.9,1.9-5.8,2.9-8.7s2-5.8,3-8.6
						C1637.2,928.7,1638.2,925.8,1639.4,923z"/>
				</g>
			</g>
		</g>
		<g id="XMLID_236_">
			<path id="XMLID_247_" class="st10" d="M1250.2,1081.3H1506c-48.9-45.6-69.3-113-69.3-113c18.1,5,25.7-8.8,25.7-8.8
				c-38-52.2-52.7-105.8-52.7-105.8c12.2,1,15.7-3.3,15.7-3.3c-27.8-22.1-44.2-59.5-44.2-59.5c-0.7-1.8-1.5,0-1.5,0
				s-20.5,39.5-51.2,62.3c0,0,6.2,8.8,18.2,5.6c0,0-10.3,48.6-48.3,100.8c0,0,7.3,10.9,27.1,2
				C1325.4,961.4,1301.4,1035.7,1250.2,1081.3z"/>
			<g id="XMLID_237_">
				<g id="XMLID_244_">
					<path class="st11" d="M1363.6,840.9c0,1.5-0.2,3.1-0.4,4.6c-0.2,1.5-0.4,3-0.6,4.5s-0.5,3-0.8,4.5s-0.6,3-1,4.4l-1.9-1.8l1-0.4
						c0.3-0.1,0.7-0.3,1-0.4c0.7-0.3,1.4-0.6,2.1-0.9c0.7-0.3,1.3-0.7,2-1l1-0.5c0.3-0.2,0.6-0.4,1-0.6c0.3-0.2,0.6-0.4,0.9-0.6
						c0.3-0.2,0.6-0.4,0.9-0.6l0.9-0.7c0.3-0.2,0.5-0.5,0.8-0.8c0.3-0.2,0.5-0.5,0.8-0.8s0.5-0.6,0.7-0.9c0.2-0.3,0.5-0.6,0.6-1
						l0.5-1c0,0.4-0.1,0.8-0.1,1.2s-0.2,0.8-0.3,1.2c-0.1,0.4-0.3,0.8-0.5,1.1c-0.2,0.4-0.4,0.8-0.6,1.1s-0.5,0.7-0.7,1l-0.8,0.9
						c-0.3,0.3-0.6,0.6-0.9,0.9c-0.3,0.3-0.6,0.6-0.9,0.8c-0.3,0.3-0.6,0.5-1,0.8l-1,0.7c-0.7,0.4-1.4,0.9-2.1,1.3
						c-0.7,0.4-1.4,0.8-2.2,1.1c-0.8,0.3-1.5,0.6-2.3,0.9l-2.6,0.9l0.7-2.7c0.4-1.5,0.7-2.9,1.2-4.4c0.4-1.5,0.8-2.9,1.3-4.4
						c0.5-1.4,1-2.9,1.5-4.3C1362.4,843.7,1362.9,842.3,1363.6,840.9z"/>
				</g>
				<g id="XMLID_241_">
					<path class="st11" d="M1345.5,906.4c0.5,1,0.9,2.1,1.3,3.1c0.4,1.1,0.8,2.1,1.2,3.2c0.4,1.1,0.8,2.1,1.1,3.2l1.1,3.2
						c0.4,1.1,0.7,2.2,1,3.2c0.3,1.1,0.7,2.2,1,3.2c0.6,2.2,1.2,4.3,1.8,6.5l-2.7-0.4c0.4-0.7,0.8-1.5,1.2-2.3
						c0.4-0.8,0.8-1.6,1.2-2.4c0.4-0.8,0.7-1.6,1.1-2.4l0.5-1.2c0.2-0.4,0.3-0.8,0.5-1.2c0.3-0.8,0.6-1.7,1-2.5
						c0.3-0.8,0.6-1.7,0.9-2.5c0.1-0.4,0.3-0.8,0.4-1.3l0.4-1.3c0.3-0.9,0.5-1.7,0.8-2.6c0,0.9,0,1.8-0.1,2.7c0,0.9-0.1,1.8-0.3,2.7
						c-0.1,0.9-0.3,1.8-0.4,2.7c-0.2,0.9-0.4,1.8-0.6,2.7c-0.1,0.4-0.2,0.9-0.4,1.3l-0.4,1.3c-0.3,0.9-0.6,1.7-0.9,2.6
						c-0.3,0.9-0.7,1.7-1,2.6c-0.4,0.8-0.8,1.7-1.2,2.5l-1.7,3.2l-1-3.5c-0.6-2.2-1.2-4.4-1.7-6.5c-0.3-1.1-0.6-2.2-0.8-3.3
						c-0.3-1.1-0.5-2.2-0.8-3.3l-0.7-3.3c-0.2-1.1-0.4-2.2-0.6-3.3s-0.4-2.2-0.6-3.4C1345.8,908.7,1345.7,907.6,1345.5,906.4z"/>
				</g>
				<g id="XMLID_238_">
					<path class="st11" d="M1345.5,1004.2c0,2.4-0.2,4.8-0.4,7.1l-0.3,3.5l-0.4,3.5c-0.1,1.2-0.3,2.3-0.5,3.5s-0.3,2.3-0.5,3.5
						c-0.4,2.3-0.7,4.7-1.1,7l-1.9-1.7c0.4-0.1,0.9-0.3,1.4-0.5s0.9-0.4,1.4-0.6c0.9-0.4,1.8-0.8,2.8-1.3c0.9-0.5,1.8-1,2.7-1.5
						c0.4-0.3,0.9-0.5,1.3-0.8l1.3-0.8l1.2-0.9c0.4-0.3,0.8-0.6,1.2-1c0.4-0.3,0.8-0.7,1.1-1l1.1-1.1l1-1.2c0.4-0.4,0.6-0.8,0.9-1.2
						s0.6-0.8,0.9-1.3l0.8-1.4l-0.4,1.5c-0.1,0.5-0.4,1-0.6,1.5s-0.4,1-0.7,1.5l-0.8,1.4c-0.3,0.5-0.6,0.9-1,1.3
						c-0.3,0.4-0.7,0.8-1,1.3c-0.4,0.4-0.7,0.8-1.1,1.2l-1.2,1.1l-1.3,1c-0.4,0.4-0.9,0.7-1.3,1c-0.9,0.6-1.8,1.2-2.7,1.8
						c-0.9,0.6-1.9,1.1-2.9,1.5c-0.5,0.2-1,0.5-1.5,0.7s-1,0.4-1.6,0.6l-2.3,0.8l0.4-2.5c0.4-2.3,0.8-4.7,1.2-7
						c0.2-1.2,0.5-2.3,0.7-3.5s0.5-2.3,0.7-3.5l0.8-3.5l0.8-3.5C1344.2,1008.8,1344.8,1006.5,1345.5,1004.2z"/>
				</g>
			</g>
		</g>
	</g>
	<g id="XMLID_219_">
		<path id="XMLID_233_" class="st12" d="M1413.7,1081.3h243.6c-28.2-28.3-43.4-81.3-43.4-81.3c18,6.6,39.9,0,39.9,0
			c-51.3-45.6-63.4-117.7-63.4-117.7c10.9,2.9,27.1-2,27.1-2c-38-52.2-45.6-106.3-45.6-106.3c12.3,6.6,24.8,1.7,24.8,1.7
			c-31.3-14.2-60.5-80.5-60.5-80.5c-0.7-1.8-1.5,0-1.5,0s-29.2,66.2-60.5,80.5c0,0,12.5,4.9,24.8-1.7c0,0-7.6,54.1-45.6,106.3
			c0,0,16.2,4.9,27.1,2c0,0-12.1,72.1-63.4,117.7c0,0,21.8,6.6,39.9,0C1457.1,999.9,1442,1052.9,1413.7,1081.3z"/>
		<g id="XMLID_220_">
			<g id="XMLID_230_">
				<path class="st13" d="M1512.1,764.7c0,1.7-0.1,3.4-0.3,5c-0.1,1.7-0.3,3.3-0.5,5s-0.4,3.3-0.6,5c-0.2,1.6-0.5,3.3-0.7,4.9
					l-2.2-1.5c1-0.6,2.1-1.3,3.1-2l3-2.1c2-1.4,4.1-2.8,6-4.2c1-0.7,2-1.4,2.9-2.2s1.9-1.5,2.8-2.3c0.5-0.4,0.9-0.8,1.3-1.2
					s0.9-0.9,1.3-1.3c0.4-0.4,0.8-0.9,1.1-1.4c0.4-0.5,0.6-1,0.8-1.6c0,0.6-0.1,1.3-0.4,1.9c-0.2,0.6-0.5,1.2-0.8,1.8
					s-0.7,1.1-1,1.6c-0.4,0.5-0.8,1-1.2,1.5c-0.8,1-1.7,1.9-2.6,2.8c-0.9,0.9-1.8,1.8-2.8,2.6c-1.9,1.6-3.9,3.2-5.9,4.6
					c-1,0.7-2.1,1.4-3.1,2.1c-1.1,0.7-2.1,1.3-3.2,2l-2.8,1.7l0.6-3.2c0.3-1.6,0.7-3.3,1-4.9c0.4-1.6,0.8-3.2,1.1-4.9
					c0.4-1.6,0.8-3.2,1.3-4.8C1511.1,767.9,1511.6,766.3,1512.1,764.7z"/>
			</g>
			<g id="XMLID_227_">
				<path class="st13" d="M1496.8,863.4c-0.3,2.8-0.6,5.6-1,8.4l-0.6,4.2c-0.2,1.4-0.4,2.8-0.7,4.2c-0.2,1.4-0.4,2.8-0.7,4.2
					l-0.7,4.2c-0.5,2.8-1.1,5.5-1.6,8.3l-2.1-1.6c0.6-0.3,1.3-0.7,1.9-1.1c0.7-0.4,1.3-0.7,1.9-1.1c1.3-0.8,2.5-1.6,3.8-2.5
					c1.2-0.9,2.5-1.7,3.6-2.6c0.6-0.5,1.2-0.9,1.7-1.4c0.6-0.5,1.1-1,1.7-1.5c1.1-1,2.2-2.1,3.2-3.2c0.5-0.5,1-1.1,1.5-1.7
					c0.5-0.6,0.9-1.2,1.3-1.8s0.8-1.2,1.2-1.9l0.6-1l0.5-1c0.2-0.3,0.3-0.7,0.5-1s0.3-0.7,0.4-1.1c0.3-0.7,0.5-1.5,0.7-2.2
					c0,0.8-0.1,1.5-0.2,2.3c-0.1,0.4-0.1,0.8-0.2,1.1c-0.1,0.4-0.2,0.8-0.3,1.1l-0.4,1.1l-0.4,1.1c-0.3,0.7-0.6,1.4-1,2.1
					c-0.4,0.7-0.8,1.4-1.2,2c-0.4,0.7-0.9,1.3-1.3,1.9c-0.9,1.3-2,2.4-3.1,3.6c-1.1,1.1-2.2,2.2-3.4,3.2c-1.2,1-2.4,2-3.7,2.9
					c-1.3,0.9-2.6,1.8-3.9,2.6c-0.7,0.4-1.3,0.8-2,1.2s-1.4,0.8-2.1,1.1l-2.8,1.4l0.7-3c0.6-2.8,1.1-5.5,1.8-8.3l0.9-4.1
					c0.3-1.4,0.7-2.7,1-4.1c0.3-1.4,0.7-2.7,1-4.1l1.1-4.1C1495.2,868.8,1496,866,1496.8,863.4z"/>
			</g>
			<g id="XMLID_224_">
				<path class="st13" d="M1479,970.5c-0.3,3.3-0.7,6.5-1.1,9.7c-0.2,1.6-0.4,3.2-0.7,4.8c-0.2,1.6-0.5,3.2-0.7,4.8
					c-0.5,3.2-1,6.4-1.5,9.7c-0.3,1.6-0.5,3.2-0.8,4.8l-0.9,4.8l-2-1.6c0.8-0.4,1.7-0.8,2.5-1.2l2.5-1.3c1.7-0.9,3.3-1.9,4.9-2.9
					c0.8-0.5,1.6-1.1,2.4-1.6c0.8-0.6,1.6-1.1,2.3-1.7c0.8-0.6,1.5-1.2,2.2-1.8s1.4-1.3,2.1-1.9c0.7-0.7,1.4-1.3,2-2
					c0.7-0.7,1.3-1.4,1.9-2.1c0.6-0.7,1.2-1.5,1.8-2.2c0.6-0.8,1.1-1.6,1.6-2.4c0.5-0.8,1-1.6,1.4-2.5c0.5-0.8,0.8-1.7,1.2-2.6
					c0.3-0.9,0.7-1.8,1-2.7s0.5-1.9,0.8-2.8c-0.1,1-0.1,2-0.3,2.9c-0.1,1-0.4,1.9-0.6,2.9c-0.1,0.5-0.3,0.9-0.4,1.4
					s-0.3,0.9-0.5,1.4c-0.3,0.9-0.7,1.8-1.2,2.7s-0.9,1.8-1.5,2.6c-0.5,0.9-1.1,1.7-1.6,2.5c-0.6,0.8-1.2,1.6-1.9,2.4
					c-0.6,0.8-1.3,1.5-2,2.2s-1.4,1.4-2.1,2.1c-0.7,0.7-1.5,1.3-2.2,2c-0.8,0.6-1.5,1.3-2.3,1.9c-0.8,0.6-1.6,1.2-2.4,1.7
					c-1.6,1.1-3.3,2.2-5.1,3.1c-0.9,0.5-1.7,1-2.6,1.4s-1.8,0.9-2.8,1.3l-2.5,1.1l0.5-2.7l0.9-4.8c0.3-1.6,0.6-3.2,1-4.8
					c0.6-3.2,1.3-6.4,2-9.6c0.3-1.6,0.7-3.2,1.1-4.8s0.7-3.2,1.1-4.8C1477.4,976.8,1478.2,973.7,1479,970.5z"/>
			</g>
			<g id="XMLID_221_">
				<path class="st13" d="M1525,847l0.8,4.2c0.3,1.4,0.5,2.8,0.8,4.2s0.6,2.8,0.9,4.2s0.6,2.8,1,4.1c0.3,1.4,0.7,2.7,1.1,4.1
					c0.2,0.7,0.4,1.3,0.7,2c0.2,0.7,0.5,1.3,0.7,2s0.5,1.3,0.8,1.9c0.3,0.6,0.5,1.3,0.9,1.9c0.3,0.6,0.6,1.2,1,1.8l1.1,1.6l-2.5,0.5
					c0.4-1,0.7-2,1.1-3l1.1-3c0.4-1,0.7-2,1.1-3l1.2-3c0.4-1,0.9-2,1.3-3l0.6-1.5c0.2-0.5,0.5-1,0.7-1.4c1-1.9,2-3.8,3.1-5.7
					c-0.6,2.1-1.2,4.1-1.9,6.2c-0.3,1-0.6,2-0.9,3.1c-0.3,1-0.6,2.1-0.9,3.1l-1.9,6.1l-1.9,6.1l-0.9,2.8l-1.7-2.3l-1.3-1.9
					c-0.4-0.6-0.7-1.3-1.1-2s-0.6-1.4-0.9-2.1c-0.3-0.7-0.6-1.4-0.8-2.1c-0.2-0.7-0.5-1.4-0.7-2.1c-0.2-0.7-0.4-1.4-0.6-2.1
					c-0.3-1.4-0.7-2.8-0.9-4.3c-0.3-1.4-0.4-2.9-0.6-4.3c-0.2-1.4-0.3-2.9-0.4-4.3c-0.1-1.4-0.1-2.9-0.2-4.3
					C1524.8,849.9,1524.8,848.4,1525,847z"/>
			</g>
		</g>
	</g>
	<g id="XMLID_18_">
		<g id="XMLID_67_">
			<path id="XMLID_101_" class="st14" d="M1070.4,1081.3h309.9c-37.8-26.4-48.5-90.5-48.5-90.5c21.3,7.5,47.1,0,47.1,0
				c-60.6-51.4-88.7-142.9-88.7-142.9c12.9,3.3,32-2.2,32-2.2c-44.9-58.9-62.6-118.9-62.6-118.9c14.6,7.5,19.6,3.8,19.6,3.8
				c-34.8-31.4-53.1-93.7-53.1-93.7c-0.9-2.1-1.7,0-1.7,0s-19.8,64.2-55.4,92.3c0,0,7.9,5.1,22.4-2.4c0,0-12.4,43.3-57.3,102.2
				c0,0,19.1,5.5,32,2.2c0,0-20.1,98-80.7,149.4c0,0,25.8,7.5,47.1,0C1132.6,980.5,1110.8,1053.4,1070.4,1081.3z"/>
			<g id="XMLID_68_">
				<g id="XMLID_98_">
					<path class="st11" d="M1203.8,711.4c-0.5,2.2-1.1,4.4-1.7,6.6c-0.3,1.1-0.6,2.2-0.9,3.3l-0.9,3.3c-0.7,2.2-1.3,4.3-2,6.5
						s-1.4,4.3-2.1,6.5l-2.2-1.7c1.3-0.9,2.6-1.8,3.8-2.7l3.8-2.8l3.8-2.8c1.3-0.9,2.5-1.9,3.7-2.9l1.8-1.5c0.6-0.5,1.2-1,1.8-1.5
						c1.2-1,2.4-2,3.5-3.1s2.3-2.2,3.3-3.3c1-1.2,2-2.4,2.7-3.8c-0.2,0.8-0.5,1.5-0.8,2.3c-0.3,0.7-0.7,1.4-1.2,2.1
						c-0.4,0.7-0.9,1.3-1.4,2c-0.5,0.6-1,1.3-1.5,1.9c-1,1.2-2.1,2.4-3.2,3.6c-1.1,1.1-2.3,2.3-3.5,3.3c-1.2,1.1-2.4,2.1-3.6,3.1
						s-2.5,2-3.7,3c-1.3,1-2.5,1.9-3.8,2.9c-1.3,0.9-2.6,1.8-4,2.7l-3.6,2.4l1.4-4.1c0.8-2.1,1.6-4.2,2.4-6.4
						c0.8-2.1,1.7-4.2,2.5-6.3l1.3-3.1c0.4-1,0.9-2.1,1.3-3.1C1201.8,715.5,1202.8,713.5,1203.8,711.4z"/>
				</g>
				<g id="XMLID_95_">
					<path class="st11" d="M1194.7,802.4c-0.3,1.9-0.6,3.8-0.9,5.6l-1,5.6l-1.2,5.6c-0.4,1.9-0.9,3.7-1.3,5.6l-0.7,2.8l-0.7,2.8
						c-0.5,1.8-1,3.7-1.5,5.5l-1.7,5.5c-0.7,1.8-1.4,3.6-2.1,5.4l-1.9-2c0.7-0.3,1.6-0.6,2.3-1c0.8-0.4,1.6-0.8,2.3-1.1
						c0.8-0.4,1.5-0.8,2.3-1.2l2.2-1.3l2.2-1.4l2.1-1.5l2.1-1.6c0.7-0.5,1.4-1.1,2-1.6c0.7-0.6,1.3-1.1,2-1.7l1.9-1.8l1.8-1.9
						c0.6-0.6,1.2-1.3,1.8-1.9c0.6-0.7,1.2-1.3,1.7-2l1.6-2.1c0.6-0.7,1-1.4,1.5-2.2l1.5-2.2l-1.1,2.4c-0.4,0.8-0.8,1.6-1.2,2.4
						l-1.4,2.3c-0.5,0.8-1,1.5-1.5,2.2s-1,1.5-1.6,2.2l-1.7,2.1c-0.6,0.7-1.2,1.3-1.8,2c-0.6,0.7-1.3,1.3-1.9,1.9
						c-0.7,0.6-1.3,1.3-2,1.8c-0.7,0.6-1.4,1.2-2.1,1.7l-2.2,1.6l-2.2,1.5c-0.8,0.5-1.5,1-2.3,1.5s-1.6,0.9-2.4,1.3
						c-0.8,0.4-1.6,0.8-2.4,1.2s-1.6,0.8-2.5,1.1l-3.1,1.2l1.2-3.2c0.6-1.7,1.3-3.5,2-5.2l1.8-5.4c0.6-1.8,1.1-3.6,1.7-5.4l1.7-5.4
						l3.3-10.9l1.7-5.4C1193.6,806,1194.2,804.2,1194.7,802.4z"/>
				</g>
				<g id="XMLID_91_">
					<path class="st11" d="M1146.7,966.2c-0.8,4.1-1.6,8.3-2.5,12.4c-0.4,2.1-0.9,4.1-1.3,6.2l-1.4,6.2c-0.9,4.1-1.8,8.2-2.8,12.3
						s-1.9,8.2-3,12.3l-2-1.7c1.2-0.5,2.4-1.1,3.6-1.7c1.2-0.6,2.4-1.2,3.6-1.9c2.4-1.2,4.8-2.5,7.1-3.9c1.2-0.7,2.3-1.4,3.5-2.1
						c1.2-0.7,2.3-1.4,3.4-2.2c1.1-0.7,2.3-1.5,3.4-2.3s2.2-1.6,3.3-2.4c1.1-0.8,2.2-1.6,3.2-2.5c1.1-0.8,2.1-1.7,3.1-2.6
						c1-0.9,2-1.8,3-2.8c0.5-0.5,1-1,1.4-1.4c0.5-0.5,0.9-1,1.4-1.5c0.9-1,1.8-2,2.6-3.1c0.8-1.1,1.6-2.2,2.3-3.3l0.6-0.9l0.5-0.9
						c0.3-0.6,0.7-1.2,0.9-1.8c0.3-0.6,0.6-1.2,0.8-1.9l0.7-1.9l-0.5,2c-0.2,0.7-0.4,1.3-0.6,2s-0.5,1.3-0.8,1.9l-0.4,1l-0.5,0.9
						c-0.6,1.2-1.3,2.4-2.1,3.6l-1.2,1.7c-0.4,0.6-0.8,1.1-1.3,1.7c-3.4,4.4-7.5,8.2-11.8,11.7c-1.1,0.9-2.2,1.7-3.3,2.5
						c-1.1,0.8-2.2,1.6-3.4,2.4c-1.1,0.8-2.3,1.6-3.5,2.3s-2.3,1.5-3.5,2.2c-2.4,1.4-4.8,2.8-7.2,4.1c-1.2,0.6-2.5,1.3-3.7,1.9
						c-1.3,0.6-2.5,1.2-3.8,1.7l-2.7,1.2l0.7-2.9c1-4.1,2.1-8.1,3.2-12.2c1.1-4.1,2.2-8.1,3.3-12.2l1.7-6.1c0.6-2,1.2-4,1.8-6.1
						C1144.1,974.3,1145.4,970.2,1146.7,966.2z"/>
				</g>
				<g id="XMLID_87_">
					<path class="st11" d="M1188.4,896.9c-0.2,4-0.5,7.9-0.8,11.9l-0.5,5.9c-0.2,2-0.4,3.9-0.6,5.9s-0.4,3.9-0.6,5.9l-0.7,5.9
						c-0.4,3.9-1,7.9-1.4,11.8l-2.2-1.5c1.8-1,3.7-2.1,5.5-3.2c1.8-1.1,3.6-2.3,5.4-3.4l2.7-1.8c0.9-0.6,1.8-1.2,2.6-1.8
						c0.9-0.6,1.7-1.3,2.6-1.9c0.8-0.7,1.7-1.3,2.5-2c1.7-1.3,3.3-2.7,4.9-4.2c0.8-0.7,1.6-1.5,2.3-2.2c0.7-0.8,1.5-1.5,2.2-2.3
						c0.4-0.4,0.7-0.8,1-1.2s0.7-0.8,1-1.3c0.6-0.8,1.2-1.7,1.8-2.7l0.8-1.4l0.6-1.5l0.5-1.5l0.4-1.6l-0.1,1.6l-0.3,1.6l-0.5,1.6
						l-0.6,1.5c-0.5,1-1,2-1.5,2.9c-0.3,0.5-0.6,0.9-0.9,1.4s-0.6,0.9-0.9,1.4c-0.6,0.9-1.3,1.7-2,2.6c-0.7,0.8-1.4,1.7-2.2,2.4
						c-0.7,0.8-1.5,1.6-2.3,2.3s-1.6,1.5-2.4,2.2c-1.6,1.5-3.3,2.8-5.1,4.2c-1.7,1.3-3.5,2.6-5.3,3.9c-1.8,1.2-3.6,2.4-5.5,3.6
						c-1.9,1.2-3.7,2.3-5.7,3.3l-2.6,1.4l0.4-2.9c0.6-3.9,1-7.8,1.6-11.8l0.9-5.9c0.3-2,0.6-3.9,0.9-5.9s0.6-3.9,1-5.9l1-5.9
						C1186.9,904.7,1187.6,900.8,1188.4,896.9z"/>
				</g>
				<g id="XMLID_69_">
					<path class="st11" d="M1218.3,998.3c0.6,3.6,1.1,7.2,1.6,10.8s0.9,7.2,1.4,10.8c0.4,3.6,0.9,7.2,1.2,10.8
						c0.4,3.6,0.8,7.2,1.1,10.8l-2.3-1c1-0.8,2.1-1.6,3.1-2.5c1-0.8,2-1.7,3-2.6c2-1.8,3.9-3.5,5.8-5.4c1.9-1.8,3.7-3.8,5.5-5.7
						c1.8-1.9,3.5-3.9,5.2-6c0.8-1,1.6-2.1,2.4-3.1c0.8-1.1,1.6-2.1,2.3-3.2c0.8-1.1,1.5-2.2,2.2-3.3l1-1.7l1-1.7
						c0.3-0.6,0.6-1.2,0.9-1.7c0.3-0.6,0.6-1.2,0.9-1.8s0.6-1.2,0.8-1.8l0.8-1.8c0.3-0.6,0.5-1.2,0.7-1.9c0.2-0.6,0.4-1.3,0.6-1.9
						c0.4-1.3,0.7-2.6,1-3.9c-0.1,1.3-0.2,2.7-0.5,4c-0.1,0.7-0.2,1.3-0.4,2c-0.2,0.7-0.3,1.3-0.5,2l-0.6,1.9
						c-0.2,0.6-0.5,1.3-0.7,1.9c-0.5,1.3-1,2.5-1.6,3.7l-0.9,1.8l-0.9,1.8c-0.6,1.2-1.3,2.4-2,3.5c-0.7,1.2-1.4,2.3-2.2,3.4
						c-0.8,1.1-1.5,2.2-2.4,3.3c-1.6,2.2-3.3,4.2-5.1,6.3c-0.9,1-1.8,2-2.7,3c-0.9,1-1.9,1.9-2.8,2.9c-1.9,1.9-3.9,3.8-5.9,5.5
						c-1,0.9-2,1.8-3.1,2.6c-1.1,0.9-2.1,1.7-3.2,2.5l-2.1,1.6l-0.2-2.6c-0.3-3.6-0.6-7.2-0.8-10.9c-0.3-3.6-0.5-7.3-0.7-10.9
						c-0.2-3.6-0.4-7.3-0.6-10.9C1218.5,1005.6,1218.4,1001.9,1218.3,998.3z"/>
				</g>
			</g>
		</g>
		<g id="XMLID_19_">
			<path id="XMLID_66_" class="st14" d="M1729.2,958.5c0,0-23.1,71.2-71.9,122.8h263.5c-46.2-50.5-65.8-115-65.8-115
				c20.4,5.6,29-10,29-10c-42.9-59-59.6-119.7-59.6-119.7c13.7,1.2,17.7-3.8,17.7-3.8c-31.4-25-50-67.2-50-67.2
				c-0.8-2.1-1.6,0-1.6,0s-23.2,44.7-57.8,70.4c0,0,7,9.9,20.6,6.3c0,0-11.7,54.9-54.6,114C1698.6,956.3,1706.9,968.6,1729.2,958.5z
				"/>
			<g id="XMLID_53_">
				<g id="XMLID_63_">
					<path class="st11" d="M1772.7,836.2c-0.2,1.4-0.5,2.7-0.8,4.1c-0.3,1.4-0.6,2.7-0.9,4s-0.7,2.7-1,4s-0.8,2.6-1.1,4l-1.5-1.8
						c0.6-0.1,1.2-0.3,1.8-0.4c0.6-0.1,1.2-0.3,1.8-0.4c1.2-0.3,2.3-0.7,3.5-1.1c1.2-0.4,2.3-0.8,3.4-1.3s2.2-0.9,3.3-1.5
						c0.5-0.3,1.1-0.6,1.6-0.9c0.5-0.3,1-0.6,1.6-0.9c0.5-0.3,1-0.7,1.5-1c0.5-0.4,1-0.7,1.4-1.1c0.4-0.4,0.9-0.8,1.3-1.2
						s0.8-0.9,1.2-1.4c0.4-0.5,0.8-1,1.1-1.5c0.4-0.5,0.6-1.1,1-1.6c-0.1,0.6-0.2,1.3-0.5,1.9c-0.2,0.6-0.4,1.2-0.7,1.8
						c-0.3,0.6-0.6,1.2-1,1.7c-0.3,0.6-0.8,1.1-1.2,1.6c-0.4,0.5-0.9,1-1.3,1.5c-0.5,0.5-1,0.9-1.5,1.3c-0.5,0.4-1,0.8-1.6,1.2
						c-0.5,0.4-1.1,0.7-1.7,1.1c-2.2,1.4-4.6,2.4-7.1,3.3c-1.2,0.4-2.5,0.8-3.7,1.1c-0.6,0.2-1.3,0.3-1.9,0.4
						c-0.6,0.1-1.3,0.2-2,0.3l-2.3,0.3l0.8-2.1c0.5-1.3,0.9-2.6,1.5-3.9c0.5-1.3,1-2.6,1.6-3.8c0.5-1.3,1.1-2.5,1.7-3.8
						C1771.5,838.7,1772.1,837.4,1772.7,836.2z"/>
				</g>
				<g id="XMLID_60_">
					<path class="st11" d="M1756.4,940.2c-0.6,3-1.3,6.1-2,9.1s-1.4,6-2.2,9c-0.8,3-1.5,6-2.3,9s-1.6,6-2.4,8.9l-1.3-1.8
						c1.1,0,2.2,0,3.3-0.1c1.1-0.1,2.3-0.2,3.4-0.3c2.2-0.3,4.5-0.7,6.7-1.2c1.1-0.2,2.2-0.5,3.3-0.8c1.1-0.3,2.2-0.7,3.2-1
						c1.1-0.4,2.1-0.8,3.2-1.2c1-0.4,2.1-0.9,3.1-1.4s2-1,3-1.6s1.9-1.2,2.9-1.8s1.8-1.3,2.7-2c0.9-0.7,1.7-1.4,2.5-2.2
						s1.6-1.6,2.4-2.5c0.7-0.9,1.5-1.7,2.1-2.7l1-1.4l0.9-1.5c0.6-1,1.2-2,1.7-3c-0.4,1.1-0.8,2.2-1.3,3.3l-0.7,1.6
						c-0.3,0.5-0.6,1-0.8,1.5c-0.6,1-1.3,2-1.9,3c-0.7,0.9-1.4,1.9-2.2,2.8c-0.8,0.9-1.6,1.7-2.5,2.6c-0.9,0.8-1.8,1.6-2.7,2.3
						c-0.9,0.8-1.9,1.4-2.9,2.1c-1,0.6-2,1.3-3.1,1.8c-1,0.6-2.1,1.1-3.2,1.6s-2.2,0.9-3.3,1.4c-2.2,0.8-4.5,1.5-6.8,2s-4.6,1-7,1.2
						c-1.2,0.1-2.4,0.2-3.5,0.3c-1.2,0.1-2.4,0.1-3.6,0.1h-1.9l0.5-1.8c0.9-3,1.8-5.9,2.7-8.8c0.9-2.9,1.9-5.9,2.8-8.8
						c1-2.9,1.9-5.9,3-8.8C1754.3,946,1755.3,943.1,1756.4,940.2z"/>
				</g>
				<g id="XMLID_57_">
					<path class="st11" d="M1746.1,1037.9c-0.7,3.4-1.4,6.9-2.2,10.3c-0.4,1.7-0.8,3.4-1.2,5.1c-0.4,1.7-0.8,3.4-1.2,5.1
						c-0.9,3.4-1.7,6.8-2.6,10.2c-0.9,3.4-1.8,6.8-2.7,10.1l-1.7-1.8c1.1-0.2,2.2-0.5,3.2-0.8l3.2-0.9c2.2-0.6,4.3-1.2,6.4-1.9
						c2.1-0.7,4.2-1.5,6.3-2.2c1-0.4,2.1-0.8,3.1-1.2c1-0.4,2-0.9,3-1.4s2-1,3-1.5s1.9-1,2.9-1.6s1.9-1.2,2.8-1.8l1.3-1
						c0.4-0.3,0.9-0.7,1.3-1s0.8-0.7,1.2-1.1c0.4-0.4,0.8-0.8,1.2-1.2c0.4-0.4,0.8-0.8,1.1-1.2c0.3-0.4,0.7-0.9,1-1.3
						c0.6-0.9,1.2-1.9,1.6-2.9c0.2-0.5,0.4-1,0.6-1.6l0.4-1.6l-0.2,1.7c-0.1,0.6-0.2,1.1-0.4,1.7c-0.3,1.1-0.7,2.2-1.3,3.2
						c-0.2,0.5-0.6,1-0.9,1.5s-0.6,1-1,1.4c-0.3,0.5-0.7,0.9-1.1,1.3s-0.8,0.9-1.2,1.3c-0.4,0.4-0.8,0.8-1.3,1.2l-1.3,1.1
						c-0.9,0.7-1.8,1.4-2.8,2.1c-0.9,0.7-1.9,1.3-2.9,1.9s-2,1.2-3,1.7s-2,1-3.1,1.5c-1,0.5-2.1,1-3.1,1.4c-1.1,0.4-2.1,0.9-3.2,1.3
						s-2.1,0.8-3.2,1.2c-2.2,0.7-4.3,1.4-6.5,2c-1.1,0.3-2.2,0.6-3.3,0.9c-1.1,0.3-2.2,0.5-3.4,0.8l-2.3,0.5l0.7-2.3
						c1-3.4,2-6.7,3-10.1c1-3.3,2-6.7,3.1-10c0.5-1.7,1.1-3.3,1.6-5s1.1-3.3,1.6-5C1743.8,1044.5,1744.9,1041.2,1746.1,1037.9z"/>
				</g>
				<g id="XMLID_54_">
					<path class="st11" d="M1746.1,900.7c-0.7,2.8-1.4,5.5-2.2,8.2c-0.4,1.4-0.8,2.7-1.2,4.1c-0.4,1.4-0.8,2.7-1.2,4.1
						c-0.8,2.7-1.7,5.4-2.6,8.1c-0.9,2.7-1.8,5.4-2.7,8l-1.9-1.9c1.5-0.6,3.1-1.2,4.6-1.8s3.1-1.2,4.6-1.9s3-1.3,4.5-2
						s3-1.4,4.5-2.2c1.5-0.7,2.9-1.5,4.4-2.3c1.4-0.8,2.8-1.7,4.2-2.6c0.7-0.5,1.3-1,2-1.5c0.6-0.5,1.2-1.1,1.8-1.6
						c0.6-0.6,1.1-1.2,1.6-1.9s0.9-1.4,1.2-2.2c-0.1,0.8-0.4,1.7-0.7,2.4c-0.4,0.8-0.8,1.5-1.3,2.2s-1.1,1.3-1.7,2
						c-0.6,0.6-1.2,1.2-1.8,1.8c-1.3,1.1-2.6,2.2-4,3.1c-1.4,1-2.8,1.9-4.3,2.7c-1.5,0.9-3,1.7-4.4,2.4c-1.5,0.8-3,1.5-4.6,2.2
						c-1.5,0.7-3.1,1.4-4.6,2c-1.6,0.7-3.1,1.2-4.7,1.8l-2.9,1l1.1-2.9c1-2.7,1.9-5.3,3-8c1-2.7,2-5.3,3.1-7.9
						c0.5-1.3,1.1-2.6,1.6-3.9c0.6-1.3,1.1-2.6,1.6-3.9C1743.8,905.9,1744.9,903.3,1746.1,900.7z"/>
				</g>
			</g>
		</g>
	</g>
	<path id="XMLID_2_" class="st12" d="M1919.6,1085h-168.5c47.2-18.2,60.9-105.2,60.9-105.2c-22,12.9-45.1,0-45.1,0
		c58-51.5,82.1-131.2,82.1-131.2c-20.4,5.6-29-10-29-10c42.9-59,59.6-119.7,59.6-119.7c-13.7,1.2-17.7-3.8-17.7-3.8
		c31.4-25,50-67.2,50-67.2c0.8-2.1,1.6,0,1.6,0s2.1,4,6,10.4L1919.6,1085L1919.6,1085z"/>
</g>
</svg>
