<?xml version="1.0" encoding="utf-8"?>
<!-- Generator: Adobe Illustrator 17.1.0, SVG Export Plug-In . SVG Version: 6.00 Build 0)  -->
<!DOCTYPE svg PUBLIC "-//W3C//DTD SVG 1.1//EN" "http://www.w3.org/Graphics/SVG/1.1/DTD/svg11.dtd">
<svg version="1.1" id="Layer_1" xmlns="http://www.w3.org/2000/svg" xmlns:xlink="http://www.w3.org/1999/xlink" x="0px" y="0px"
	 viewBox="0 0 1920 1080" enable-background="new 0 0 1920 1080" xml:space="preserve">
<linearGradient id="XMLID_15_" gradientUnits="userSpaceOnUse" x1="959.8" y1="7.3987" x2="959.8" y2="1075.8673" gradientTransform="matrix(1 0 0 -1 0 1080)">
	<stop  offset="0" style="stop-color:#2E31A4"/>
	<stop  offset="0.1495" style="stop-color:#2E2F9C"/>
	<stop  offset="0.3801" style="stop-color:#302A87"/>
	<stop  offset="0.663" style="stop-color:#312163"/>
	<stop  offset="0.9847" style="stop-color:#341632"/>
	<stop  offset="1" style="stop-color:#341530"/>
</linearGradient>
<rect id="XMLID_21_" fill="url(#XMLID_15_)" width="1919.6" height="1080"/>
<g id="Layer_1_1_">
	<path id="XMLID_10_" fill="#302972" d="M81.9,124.5c108.2,0,203.9,38.8,261.9,98.1c59.9,3,113.2,23.5,150,54.5
		c41.4-30.3,98.9-49.1,162.5-49.1c108.3,0,198.9,54.4,222.5,127.4c45.9,4.7,86.8,20.6,117.3,43.8c41.1-34.5,101.9-56.3,169.9-56.3
		c48.9,0,94.2,11.3,131,30.5c29.2-36.9,81.3-63.2,142.4-68.6c30.3-73.1,124.1-126.3,235.1-126.3c36.5,0,71.1,5.8,102.2,16.1
		c35-28.7,86.2-46.8,143.2-46.8v222.5v53.1v30.2v66.6V916H0V579.4V453.6V132C26.1,127.1,53.6,124.5,81.9,124.5z"/>
	<path id="XMLID_14_" fill="#37347A" d="M1838.1,273.9c-108.2,0-203.9,38.8-261.9,98.1c-59.9,3-113.2,23.5-150,54.5
		c-41.4-30.3-98.9-49.1-162.5-49.1c-108.3,0-198.9,54.4-222.5,127.4c-45.9,4.7-86.8,20.6-117.3,43.8
		C882.8,514.1,822,492.3,754,492.3c-48.9,0-94.2,11.3-131,30.5c-29.2-36.9-81.3-63.2-142.4-68.6C450.3,381.3,356.5,328,245.4,328
		c-36.5,0-71.1,5.8-102.2,16.1C108.2,315.4,57,297.3,0,297.3v222.5v53.1v30.2v66.6v395.8h1920V728.9V603.1V281.5
		C1893.8,276.6,1866.4,273.9,1838.1,273.9z"/>
	<path id="XMLID_13_" fill="#3B3B7F" d="M1776.7,474.5c-31.1-10.3-65.7-16.1-102.2-16.1c-111,0-204.8,53.3-235.1,126.3
		c-72.8,6.4-132.9,42.4-156.6,90.9c-30.3-9.7-63.8-15.1-99.1-15.1c-61.7,0-118.1,16.4-161.2,43.6c-30.5-36.6-82.7-62.6-143.7-68.9
		c-23.5-73-114.2-127.4-222.5-127.4c-63.6,0-121.1,18.8-162.5,49.1c-36.8-31-90.1-51.5-150-54.5c-58-59.3-153.7-98.1-261.9-98.1
		c-28.3,0-55.7,2.7-81.9,7.6v321.6v125.8L0,1083h1920V800v-66.6v-30.2v-53.1V427.7C1862.9,427.7,1811.7,445.8,1776.7,474.5z"/>
	<g id="XMLID_3_">
		<polygon id="XMLID_44_" fill="#D8D080" points="1470.5,1041.4 1459.7,1045.5 1456.8,1056.7 1449.7,1047.6 1438.1,1048.4 
			1444.5,1038.8 1440.2,1028.1 1451.3,1031.2 1460.2,1023.8 1460.7,1035.3 		"/>
		<polygon id="XMLID_43_" fill="#D8D080" points="1569,948.4 1557.5,954 1555.7,966.7 1546.7,957.6 1534.1,959.7 1540,948.4 
			1534.1,937 1546.7,939.2 1555.7,930 1557.5,942.7 		"/>
		<polygon id="XMLID_40_" fill="#D8D080" points="1525.7,497.7 1517.6,501.7 1516.3,510.6 1510,504.1 1501.1,505.7 1505.3,497.7 
			1501.1,489.7 1510,491.3 1516.3,484.8 1517.6,493.7 		"/>
		<polygon id="XMLID_36_" fill="#D8D080" points="1338.9,162.5 1331,171.9 1334.2,183.7 1322.9,179 1312.6,185.7 1313.5,173.5 
			1304,165.8 1315.9,162.9 1320.2,151.5 1326.7,161.9 		"/>
		<polygon id="XMLID_35_" fill="#D8D080" points="1579.9,59.8 1581.4,71.1 1591.6,76.2 1581.4,81.1 1579.6,92.4 1571.7,84.2 
			1560.5,86 1565.9,76 1560.7,65.8 1571.9,67.9 		"/>
		<polygon id="XMLID_34_" fill="#D8D080" points="1734.7,552.5 1732.5,558.7 1736.5,564 1729.9,564 1726.1,569.4 1724.1,563 
			1717.8,561.1 1723.2,557.3 1723.1,550.6 1728.4,554.6 		"/>
		<polygon id="XMLID_33_" fill="#D8D080" points="1643.1,1048.5 1641.3,1055.4 1646,1060.9 1638.9,1061.3 1635.2,1067.5 
			1632.5,1060.8 1625.5,1059.2 1631.1,1054.6 1630.4,1047.5 1636.5,1051.3 		"/>
		<polygon id="XMLID_31_" fill="#D8D080" points="1619.4,403.3 1609.7,409.2 1609.1,420.5 1600.4,413 1589.3,415.8 1593.6,405.4 
			1587.4,395.7 1598.8,396.8 1606,388 1608.7,399.1 		"/>
		<polygon id="XMLID_30_" fill="#D8D080" points="1762.2,876.7 1758,885.9 1763.2,894.6 1753.2,893.5 1746.5,901.1 1744.5,891.2 
			1735.2,887.3 1744,882.3 1744.9,872.2 1752.3,879 		"/>
		<polygon id="XMLID_28_" fill="#D8D080" points="1803.4,863.2 1797,866.3 1795.9,873.4 1791,868.3 1783.9,869.5 1787.2,863.2 
			1783.9,856.8 1791,858 1795.9,852.9 1797,860 		"/>
		<polygon id="XMLID_27_" fill="#D8D080" points="1819.2,1017.9 1811.5,1026 1813.9,1037 1803.7,1032.2 1794,1037.8 1795.5,1026.7 
			1787.1,1019.2 1798.1,1017.1 1802.7,1006.9 1808.1,1016.7 		"/>
		<polygon id="XMLID_25_" fill="#D8D080" points="1819.2,349.9 1813.2,361.8 1819.6,373.5 1806.4,371.5 1797.2,381.2 1795.1,368 
			1783.1,362.3 1794.9,356.2 1796.7,343 1806.1,352.4 		"/>
		<polygon id="XMLID_24_" fill="#D8D080" points="1853,410.9 1855.8,416.6 1862.1,417.5 1857.5,422 1858.6,428.3 1853,425.3 
			1847.3,428.3 1848.4,422 1843.8,417.5 1850.1,416.6 		"/>
		<polygon id="XMLID_23_" fill="#D8D080" points="1793.7,116.1 1786.4,119.6 1785.3,127.6 1779.6,121.8 1771.7,123.2 1775.4,116.1 
			1771.7,108.9 1779.6,110.3 1785.3,104.5 1786.4,112.5 		"/>
		<polygon id="XMLID_20_" fill="#D8D080" points="1708.3,510.6 1701.4,517.9 1703.5,527.6 1694.5,523.3 1685.9,528.4 1687.1,518.5 
			1679.7,511.8 1689.5,509.9 1693.6,500.8 1698.3,509.6 		"/>
	</g>
	<g id="XMLID_1_">
		<polygon id="XMLID_73_" fill="#D8D080" points="687.9,876.7 689,883.4 695.1,886.2 689.1,889.4 688.3,896 683.5,891.3 
			676.9,892.6 679.9,886.5 676.6,880.6 683.3,881.6 		"/>
		<polygon id="XMLID_72_" fill="#D8D080" points="851.5,1041.4 840.7,1045.5 837.8,1056.7 830.7,1047.6 819.1,1048.4 825.5,1038.8 
			821.2,1028.1 832.3,1031.2 841.2,1023.8 841.7,1035.3 		"/>
		<polygon id="XMLID_71_" fill="#D8D080" points="950,948.4 938.5,954 936.7,966.7 927.7,957.6 915.1,959.7 921,948.4 915.1,937 
			927.7,939.2 936.7,930 938.5,942.7 		"/>
		<polygon id="XMLID_61_" fill="#D8D080" points="805.2,277 797.1,281 795.8,289.9 789.6,283.5 780.7,285 784.9,277 780.7,269.1 
			789.6,270.6 795.8,264.1 797.1,273 		"/>
		<polygon id="XMLID_58_" fill="#D8D080" points="960.9,59.8 962.4,71.1 972.6,76.2 962.4,81.1 960.6,92.4 952.7,84.2 941.5,86 
			946.9,76 941.7,65.8 952.9,67.9 		"/>
		<polygon id="XMLID_55_" fill="#D8D080" points="1024.1,1048.5 1022.3,1055.4 1027,1060.9 1019.9,1061.3 1016.2,1067.5 
			1013.5,1060.8 1006.5,1059.2 1012.1,1054.6 1011.4,1047.5 1017.5,1051.3 		"/>
		<polygon id="XMLID_52_" fill="#D8D080" points="791.7,783.1 785.1,786.3 784.1,793.5 779,788.3 771.8,789.6 775.2,783.1 
			771.8,776.7 779,777.9 784.1,772.7 785.1,779.9 		"/>
		<polygon id="XMLID_51_" fill="#D8D080" points="1000.4,403.3 990.7,409.2 990.1,420.5 981.4,413 970.3,415.8 974.6,405.4 
			968.4,395.7 979.8,396.8 987,388 989.7,399.1 		"/>
		<polygon id="XMLID_48_" fill="#D8D080" points="1184.4,863.2 1178,866.3 1176.9,873.4 1172,868.3 1164.9,869.5 1168.2,863.2 
			1164.9,856.8 1172,858 1176.9,852.9 1178,860 		"/>
		<polygon id="XMLID_47_" fill="#D8D080" points="1200.2,1017.9 1192.5,1026 1194.9,1037 1184.7,1032.2 1175,1037.8 1176.5,1026.7 
			1168.1,1019.2 1179.1,1017.1 1183.7,1006.9 1189.1,1016.7 		"/>
		<polygon id="XMLID_37_" fill="#D8D080" points="1234,410.9 1236.8,416.6 1243.1,417.5 1238.5,422 1239.6,428.3 1234,425.3 
			1228.3,428.3 1229.4,422 1224.8,417.5 1231.1,416.6 		"/>
		<polygon id="XMLID_9_" fill="#D8D080" points="1089.3,510.6 1082.4,517.9 1084.5,527.6 1075.5,523.3 1066.9,528.4 1068.1,518.5 
			1060.7,511.8 1070.5,509.9 1074.6,500.8 1079.3,509.6 		"/>
		<polygon id="XMLID_7_" fill="#D8D080" points="1108.1,12.8 1107.3,25.1 1117,32.8 1105,35.8 1100.7,47.4 1094.1,37 1081.7,36.4 
			1089.7,26.9 1086.4,15 1097.8,19.6 		"/>
	</g>
	<g id="XMLID_74_">
		<polygon id="XMLID_115_" fill="#D8D080" points="51.2,878.3 52.3,885 58.5,887.8 52.5,890.9 51.6,897.6 46.8,892.9 40.2,894.2 
			43.2,888.1 40,882.2 46.6,883.2 		"/>
		<polygon id="XMLID_113_" fill="#D8D080" points="214.8,1043 204,1047.1 201.2,1058.3 194,1049.2 182.5,1050 188.8,1040.4 
			184.5,1029.7 195.7,1032.8 204.5,1025.3 205,1036.9 		"/>
		<polygon id="XMLID_100_" fill="#D8D080" points="313.3,949.9 301.8,955.6 300,968.3 291,959.1 278.4,961.3 284.4,949.9 
			278.4,938.6 291,940.8 300,931.6 301.8,944.3 		"/>
		<polygon id="XMLID_99_" fill="#D8D080" points="80.9,517.4 76.1,527.2 81.4,536.8 70.5,535.3 63.1,543.3 61.2,532.5 51.2,527.9 
			61,522.8 62.3,511.8 70.1,519.5 		"/>
		<polygon id="XMLID_96_" fill="#D8D080" points="270,499.3 261.9,503.3 260.6,512.2 254.3,505.7 245.5,507.3 249.7,499.3 
			245.5,491.3 254.3,492.8 260.6,486.4 261.9,495.3 		"/>
		<polygon id="XMLID_94_" fill="#D8D080" points="383.9,358.9 379.1,365.1 381.6,372.6 374.2,370 367.9,374.7 368,366.8 
			361.6,362.2 369.2,360 371.5,352.5 376,358.9 		"/>
		<polygon id="XMLID_93_" fill="#D8D080" points="168.5,278.6 160.5,282.6 159.2,291.5 152.9,285.1 144,286.6 148.2,278.6 
			144,270.6 152.9,272.2 159.2,265.7 160.5,274.6 		"/>
		<polygon id="XMLID_92_" fill="#D8D080" points="83.3,164.1 75.3,173.4 78.5,185.3 67.2,180.6 56.9,187.3 57.9,175.1 48.3,167.4 
			60.2,164.5 64.6,153.1 71,163.5 		"/>
		<polygon id="XMLID_88_" fill="#D8D080" points="387.4,1050.1 385.6,1057 390.4,1062.4 383.2,1062.9 379.5,1069.1 376.9,1062.4 
			369.9,1060.8 375.4,1056.2 374.8,1049 380.8,1052.9 		"/>
		<polygon id="XMLID_86_" fill="#D8D080" points="155,784.7 148.5,787.9 147.4,795.1 142.3,789.9 135.1,791.1 138.5,784.7 
			135.1,778.2 142.3,779.5 147.4,774.3 148.5,781.5 		"/>
		<polygon id="XMLID_84_" fill="#D8D080" points="506.5,878.3 502.3,887.5 507.6,896.2 497.5,895.1 490.9,902.7 488.8,892.8 
			479.5,888.8 488.3,883.8 489.2,873.8 496.7,880.6 		"/>
		<polygon id="XMLID_81_" fill="#D8D080" points="563.6,1019.5 555.9,1027.6 558.2,1038.6 548.1,1033.8 538.3,1039.4 539.8,1028.3 
			531.4,1020.8 542.5,1018.7 547,1008.4 552.4,1018.3 		"/>
		<polygon id="XMLID_80_" fill="#D8D080" points="563.6,351.5 557.5,363.4 563.9,375.1 550.7,373.1 541.6,382.8 539.5,369.6 
			527.4,363.9 539.3,357.8 541,344.6 550.5,354 		"/>
		<polygon id="XMLID_77_" fill="#D8D080" points="588.1,71.8 583.6,78.4 586.5,85.8 578.8,83.6 572.6,88.6 572.4,80.6 565.7,76.2 
			573.2,73.6 575.3,65.9 580.2,72.2 		"/>
		<polygon id="XMLID_76_" fill="#D8D080" points="452.6,512.2 445.7,519.4 447.8,529.2 438.8,524.9 430.2,529.9 431.5,520 
			424,513.4 433.8,511.5 437.9,502.4 442.7,511.2 		"/>
		<polygon id="XMLID_75_" fill="#D8D080" points="471.5,14.4 470.6,26.7 480.3,34.4 468.3,37.4 464,49 457.4,38.5 445.1,38 
			453,28.5 449.7,16.6 461.2,21.2 		"/>
	</g>
	<g id="XMLID_194_">
		<g id="XMLID_188_">
			<path id="XMLID_4_" fill="#19381F" d="M64.6,1027.3c0,0-8.3,29.1-24.1,55.7h205c-15.8-26.6-24.1-55.7-24.1-55.7
				c18,6.6,39.9,0,39.9,0c-51.3-45.6-63.4-117.7-63.4-117.7c10.9,2.9,27.1-2,27.1-2c-38-52.2-45.6-106.3-45.6-106.3
				c12.3,6.6,24.8,1.7,24.8,1.7c-31.3-14.2-60.5-80.5-60.5-80.5c-0.7-1.8-1.5,0-1.5,0S113,788.7,81.7,803c0,0,12.5,4.9,24.8-1.7
				c0,0-7.6,54.1-45.6,106.3c0,0,16.2,4.9,27.1,2c0,0-12.1,72.1-63.4,117.7C24.7,1027.3,46.5,1034,64.6,1027.3z"/>
			<g id="XMLID_130_">
				<g id="XMLID_125_">
					<path fill="#265038" d="M120.6,785.3c-0.1,0.9-0.2,1.9-0.3,2.8c-0.1,0.9-0.3,1.9-0.4,2.8c-0.3,1.9-0.6,3.7-0.9,5.6l-1,5.5
						l-1.1,5.5l-2.1-1.6c0.6-0.3,1.2-0.7,1.9-1.1c0.6-0.4,1.2-0.8,1.8-1.2c1.2-0.8,2.4-1.6,3.6-2.4c1.2-0.8,2.3-1.7,3.5-2.6
						c1.1-0.9,2.2-1.8,3.3-2.8c1.1-1,2.1-2,3.1-3c0.5-0.5,0.9-1.1,1.4-1.6c0.4-0.6,0.9-1.1,1.3-1.7c0.4-0.6,0.8-1.2,1.2-1.8
						s0.7-1.3,1-1.9c0.2-0.3,0.3-0.7,0.4-1c0.1-0.3,0.3-0.7,0.4-1c0.2-0.7,0.4-1.4,0.6-2.1c0,0.7,0,1.5-0.1,2.3
						c0,0.4-0.1,0.8-0.2,1.1c-0.1,0.4-0.1,0.8-0.2,1.1c-0.2,0.7-0.4,1.5-0.7,2.2s-0.6,1.4-1,2.1c-0.3,0.7-0.7,1.3-1.1,2
						c-0.4,0.6-0.9,1.3-1.3,1.9c-0.5,0.6-0.9,1.2-1.4,1.8s-1,1.1-1.5,1.7c-1.1,1.1-2.2,2.1-3.3,3.1c-1.2,1-2.4,1.9-3.6,2.8
						c-1.2,0.9-2.5,1.8-3.8,2.5c-0.6,0.4-1.3,0.8-1.9,1.2c-0.7,0.4-1.3,0.7-2,1.1l-2.9,1.5l0.8-3.1l1.5-5.4l1.6-5.4
						c0.6-1.8,1.1-3.6,1.7-5.4c0.3-0.9,0.6-1.8,0.9-2.7C119.9,787,120.2,786.2,120.6,785.3z"/>
				</g>
				<g id="XMLID_126_">
					<path fill="#265038" d="M104.4,878.3c0,2.1-0.1,4.1-0.2,6.1c0,1-0.1,2-0.2,3.1c-0.1,1-0.1,2-0.2,3c-0.2,2-0.4,4.1-0.6,6.1
						c-0.1,1-0.2,2-0.3,3l-0.4,3l-2-1.6c0.5-0.2,1-0.5,1.5-0.7c0.5-0.3,1-0.5,1.5-0.8c1-0.5,2-1.1,3-1.7c1-0.6,2-1.2,2.9-1.8
						c0.5-0.3,1-0.6,1.4-1s0.9-0.7,1.4-1l1.3-1.1c0.5-0.4,0.8-0.8,1.3-1.2c0.4-0.4,0.9-0.8,1.2-1.2l1.2-1.3l1.1-1.3
						c0.4-0.4,0.7-0.9,1-1.4s0.7-1,0.9-1.5l0.8-1.6c-0.1,0.6-0.3,1.2-0.4,1.7c-0.1,0.6-0.4,1.1-0.6,1.7c-0.2,0.6-0.4,1.1-0.7,1.7
						l-0.9,1.6l-1,1.5c-0.3,0.5-0.7,1-1.1,1.4c-0.4,0.5-0.8,0.9-1.2,1.4l-1.3,1.3c-0.4,0.4-0.9,0.8-1.4,1.2s-0.9,0.8-1.4,1.1
						c-0.5,0.4-1,0.7-1.5,1.1c-0.5,0.4-1,0.7-1.5,1c-1,0.7-2.1,1.3-3.1,1.9c-0.5,0.3-1.1,0.6-1.6,0.8c-0.6,0.3-1.1,0.5-1.7,0.8
						l-2.4,1l0.4-2.6l0.4-3c0.1-1,0.3-2,0.5-3c0.3-2,0.7-4,1.1-6c0.2-1,0.4-2,0.6-3s0.4-2,0.7-3
						C103.4,882.3,103.8,880.3,104.4,878.3z"/>
				</g>
				<g id="XMLID_128_">
					<path fill="#265038" d="M129.1,929.6c0.3,1.4,0.5,2.8,0.8,4.2c0.2,1.4,0.5,2.8,0.7,4.2s0.4,2.8,0.7,4.2
						c0.2,1.4,0.4,2.8,0.6,4.2l0.7,4.2c0.2,1.4,0.4,2.8,0.7,4.2s0.5,2.7,0.8,4.1c0.1,0.7,0.3,1.3,0.5,2s0.4,1.2,0.6,1.9l-2.5-0.1
						c0.8-1.4,1.6-2.9,2.4-4.3c0.8-1.4,1.7-2.8,2.5-4.2c0.9-1.4,1.7-2.8,2.6-4.2c0.9-1.4,1.8-2.8,2.8-4.1c-0.6,1.6-1.1,3.1-1.8,4.6
						c-0.6,1.5-1.3,3-1.9,4.5c-0.7,1.5-1.4,3-2,4.5c-0.7,1.5-1.4,3-2.1,4.4l-1.4,2.9l-1.2-3c-0.3-0.7-0.6-1.4-0.8-2.2
						c-0.2-0.7-0.4-1.4-0.6-2.1c-0.3-1.4-0.6-2.8-0.9-4.3c-0.2-1.4-0.4-2.8-0.6-4.3c-0.2-1.4-0.3-2.9-0.4-4.3
						c-0.1-1.4-0.2-2.9-0.3-4.3c-0.1-1.4-0.1-2.9-0.1-4.3c0-1.4,0-2.9,0-4.3C128.9,932.4,129,931,129.1,929.6z"/>
				</g>
			</g>
		</g>
		<g id="XMLID_190_">
			<path id="XMLID_16_" fill="#19381F" d="M673,1083h261.5c-31.8-25.6-40.7-87.3-40.7-87.3c18,7.2,39.9,0,39.9,0
				c-51.3-49.7-75-138.2-75-138.2c10.9,3.2,27.1-2.1,27.1-2.1c-38-57-52.9-115-52.9-115c12.3,7.2,16.6,3.7,16.6,3.7
				c-29.4-30.4-44.9-90.6-44.9-90.6c-0.7-2-1.5,0-1.5,0s-16.7,62.1-46.9,89.3c0,0,6.6,4.9,19-2.3c0,0-10.5,41.9-48.4,98.8
				c0,0,16.2,5.3,27.1,2.1c0,0-17,94.8-68.3,144.5c0,0,21.8,7.2,39.9,0C725.3,985.9,707,1056,673,1083z"/>
			<g id="XMLID_132_">
				<g id="XMLID_118_">
					<path fill="#265038" d="M789.8,723.6c0,1.7-0.2,3.4-0.3,5.1c-0.1,0.8-0.2,1.7-0.2,2.5c-0.1,0.8-0.2,1.7-0.3,2.5
						c-0.2,1.7-0.4,3.3-0.7,5s-0.5,3.3-0.8,5l-2.2-1.5c0.9-0.6,1.8-1.2,2.7-1.8s1.8-1.3,2.7-1.9c0.4-0.3,0.9-0.7,1.3-1l1.3-1
						l1.3-1.1c0.4-0.4,0.8-0.7,1.2-1.1c0.4-0.4,0.8-0.7,1.2-1.1c0.4-0.4,0.8-0.8,1.2-1.2s0.7-0.8,1.1-1.2c0.4-0.4,0.7-0.8,1-1.3
						c0.4-0.4,0.7-0.9,1-1.3c0.3-0.5,0.7-0.9,0.9-1.4c0.3-0.5,0.6-1,0.8-1.5l0.7-1.6c0,0.6-0.1,1.1-0.2,1.7
						c-0.1,0.6-0.3,1.1-0.4,1.7c-0.1,0.6-0.4,1.1-0.6,1.6c-0.2,0.5-0.4,1.1-0.8,1.6c-0.3,0.5-0.6,1-0.9,1.5c-0.3,0.5-0.7,1-1,1.4
						c-0.3,0.5-0.7,0.9-1.1,1.4c-0.4,0.5-0.7,0.9-1.1,1.3c-0.4,0.4-0.8,0.9-1.2,1.3l-1.3,1.2c-0.9,0.8-1.7,1.5-2.6,2.3
						c-0.4,0.4-0.9,0.7-1.4,1.1c-0.5,0.4-0.9,0.7-1.4,1c-1,0.7-1.9,1.3-3,1.9l-2.8,1.6l0.6-3.2c0.3-1.6,0.7-3.3,1.1-4.9
						c0.4-1.6,0.8-3.3,1.2-4.9c0.2-0.8,0.4-1.6,0.7-2.4c0.2-0.8,0.4-1.6,0.7-2.4C788.7,726.8,789.2,725.2,789.8,723.6z"/>
				</g>
				<g id="XMLID_119_">
					<path fill="#265038" d="M763.4,817.3c-0.4,3-0.8,6-1.3,8.9c-0.5,3-1,5.9-1.5,8.9c-0.6,2.9-1.1,5.9-1.7,8.8
						c-0.6,2.9-1.1,5.9-1.8,8.8l-2-1.6c0.9-0.4,1.9-0.9,2.8-1.4c0.9-0.5,1.9-1,2.8-1.5c1.9-1.1,3.7-2.1,5.5-3.3
						c1.8-1.1,3.6-2.3,5.4-3.5c1.8-1.2,3.5-2.5,5.1-3.8c0.8-0.7,1.7-1.3,2.5-2.1c0.8-0.7,1.6-1.4,2.4-2.2c0.8-0.7,1.5-1.5,2.2-2.3
						s1.4-1.6,2.1-2.4c0.7-0.8,1.3-1.7,1.9-2.6c0.6-0.9,1.2-1.8,1.7-2.7c0.3-0.5,0.5-0.9,0.7-1.4s0.5-1,0.6-1.5
						c0.2-0.5,0.4-1,0.6-1.5l0.5-1.6l-0.2,1.6c-0.1,0.5-0.2,1.1-0.3,1.6s-0.3,1.1-0.5,1.6s-0.3,1.1-0.6,1.6c-0.4,1-0.9,2-1.4,3
						l-0.8,1.4c-0.3,0.5-0.6,0.9-0.9,1.4c-0.6,0.9-1.3,1.8-2,2.7s-1.4,1.7-2.2,2.5s-1.5,1.6-2.3,2.4c-0.8,0.8-1.6,1.5-2.4,2.3
						c-1.7,1.5-3.4,2.8-5.1,4.2c-1.8,1.3-3.6,2.5-5.4,3.7c-1.9,1.2-3.7,2.3-5.7,3.4c-1,0.5-1.9,1-2.9,1.6c-1,0.5-2,1-3,1.5l-2.6,1.2
						l0.6-2.8c0.6-2.9,1.4-5.8,2.1-8.7c0.7-2.9,1.5-5.8,2.2-8.7c0.8-2.9,1.5-5.8,2.3-8.7C761.7,823.1,762.5,820.2,763.4,817.3z"/>
				</g>
				<g id="XMLID_120_">
					<path fill="#265038" d="M749.5,924.8c-0.6,3-1.3,6-2,8.9c-0.7,3-1.5,5.9-2.2,8.9c-0.8,2.9-1.5,5.9-2.4,8.8
						c-0.8,2.9-1.6,5.9-2.5,8.8l-1.7-1.8c1-0.3,2.1-0.6,3.2-1c1.1-0.4,2.1-0.7,3.2-1.2c1-0.4,2.1-0.8,3.1-1.3c1-0.4,2.1-0.9,3.1-1.4
						c2-1,4-2,5.9-3.2c1-0.6,1.9-1.2,2.8-1.8c0.9-0.6,1.8-1.3,2.7-1.9c0.5-0.3,0.9-0.7,1.3-1c0.4-0.3,0.9-0.7,1.3-1.1
						c0.8-0.7,1.7-1.5,2.4-2.3c0.8-0.8,1.5-1.6,2.2-2.5c0.7-0.8,1.4-1.7,2-2.6c0.6-0.9,1.2-1.9,1.7-2.9c0.6-1,1-2,1.5-3
						c0.4-1.1,0.8-2.1,1.1-3.2c0.4-1.1,0.5-2.2,0.8-3.3c-0.1,1.1-0.1,2.3-0.3,3.4c-0.1,1.2-0.4,2.3-0.7,3.4
						c-0.4,1.1-0.7,2.2-1.2,3.3c-0.4,1.1-1,2.1-1.5,3.2c-0.6,1-1.2,2-1.9,3s-1.4,1.9-2.2,2.8c-0.8,0.9-1.6,1.7-2.4,2.5
						c-0.8,0.8-1.7,1.6-2.6,2.3c-0.9,0.8-1.8,1.5-2.8,2.1c-1,0.7-1.9,1.3-2.9,2c-1,0.6-2,1.2-3,1.8s-2.1,1.1-3.1,1.6
						c-2.1,1-4.2,2-6.4,2.8c-1.1,0.4-2.2,0.8-3.3,1.2s-2.2,0.7-3.4,1l-2.5,0.6l0.8-2.5c0.9-2.9,1.8-5.8,2.8-8.7
						c0.9-2.9,1.9-5.8,2.9-8.7s2-5.8,3-8.6C747.3,930.5,748.4,927.6,749.5,924.8z"/>
				</g>
			</g>
		</g>
		<g id="XMLID_189_">
			<path id="XMLID_5_" fill="#19381F" d="M360.4,1083h255.8c-48.9-45.6-69.3-113-69.3-113c18.1,5,25.7-8.8,25.7-8.8
				c-38-52.2-52.7-105.8-52.7-105.8c12.2,1,15.7-3.3,15.7-3.3c-27.8-22.1-44.2-59.5-44.2-59.5c-0.7-1.8-1.5,0-1.5,0
				s-20.5,39.5-51.2,62.3c0,0,6.2,8.8,18.2,5.6c0,0-10.3,48.6-48.3,100.8c0,0,7.3,10.9,27.1,2C435.6,963.2,411.5,1037.5,360.4,1083z
				"/>
			<g id="XMLID_127_">
				<g id="XMLID_122_">
					<path fill="#265038" d="M473.7,842.7c0,1.5-0.2,3.1-0.4,4.6c-0.2,1.5-0.4,3-0.6,4.5s-0.5,3-0.8,4.5s-0.6,3-1,4.4l-1.9-1.8
						l1-0.4c0.3-0.1,0.7-0.3,1-0.4c0.7-0.3,1.4-0.6,2.1-0.9c0.7-0.3,1.3-0.7,2-1l1-0.5c0.3-0.2,0.6-0.4,1-0.6
						c0.3-0.2,0.6-0.4,0.9-0.6c0.3-0.2,0.6-0.4,0.9-0.6l0.9-0.7c0.3-0.2,0.5-0.5,0.8-0.8c0.3-0.2,0.5-0.5,0.8-0.8s0.5-0.6,0.7-0.9
						c0.2-0.3,0.5-0.6,0.6-1l0.5-1c0,0.4-0.1,0.8-0.1,1.2s-0.2,0.8-0.3,1.2c-0.1,0.4-0.3,0.8-0.5,1.1c-0.2,0.4-0.4,0.8-0.6,1.1
						s-0.5,0.7-0.7,1l-0.8,0.9c-0.3,0.3-0.6,0.6-0.9,0.9c-0.3,0.3-0.6,0.6-0.9,0.8c-0.3,0.3-0.6,0.5-1,0.8l-1,0.7
						c-0.7,0.4-1.4,0.9-2.1,1.3c-0.7,0.4-1.4,0.8-2.2,1.1c-0.8,0.3-1.5,0.6-2.3,0.9l-2.6,0.9l0.7-2.7c0.4-1.5,0.7-2.9,1.2-4.4
						c0.4-1.5,0.8-2.9,1.3-4.4c0.5-1.4,1-2.9,1.5-4.3C472.5,845.5,473,844.1,473.7,842.7z"/>
				</g>
				<g id="XMLID_123_">
					<path fill="#265038" d="M455.7,908.2c0.5,1,0.9,2.1,1.3,3.1c0.4,1.1,0.8,2.1,1.2,3.2c0.4,1.1,0.8,2.1,1.1,3.2l1.1,3.2
						c0.4,1.1,0.7,2.2,1,3.2c0.3,1.1,0.7,2.2,1,3.2c0.6,2.2,1.2,4.3,1.8,6.5l-2.7-0.4c0.4-0.7,0.8-1.5,1.2-2.3
						c0.4-0.8,0.8-1.6,1.2-2.4c0.4-0.8,0.7-1.6,1.1-2.4l0.5-1.2c0.2-0.4,0.3-0.8,0.5-1.2c0.3-0.8,0.6-1.7,1-2.5
						c0.3-0.8,0.6-1.7,0.9-2.5c0.1-0.4,0.3-0.8,0.4-1.3l0.4-1.3c0.3-0.9,0.5-1.7,0.8-2.6c0,0.9,0,1.8-0.1,2.7c0,0.9-0.1,1.8-0.3,2.7
						c-0.1,0.9-0.3,1.8-0.4,2.7c-0.2,0.9-0.4,1.8-0.6,2.7c-0.1,0.4-0.2,0.9-0.4,1.3l-0.4,1.3c-0.3,0.9-0.6,1.7-0.9,2.6
						c-0.3,0.9-0.7,1.7-1,2.6c-0.4,0.8-0.8,1.7-1.2,2.5l-1.7,3.2l-1-3.5c-0.6-2.2-1.2-4.4-1.7-6.5c-0.3-1.1-0.6-2.2-0.8-3.3
						c-0.3-1.1-0.5-2.2-0.8-3.3l-0.7-3.3c-0.2-1.1-0.4-2.2-0.6-3.3s-0.4-2.2-0.6-3.4C456,910.5,455.8,909.3,455.7,908.2z"/>
				</g>
				<g id="XMLID_124_">
					<path fill="#265038" d="M455.7,1006c0,2.4-0.2,4.8-0.4,7.1l-0.3,3.5l-0.4,3.5c-0.1,1.2-0.3,2.3-0.5,3.5
						c-0.2,1.2-0.3,2.3-0.5,3.5c-0.4,2.3-0.7,4.7-1.1,7l-1.9-1.7c0.4-0.1,0.9-0.3,1.4-0.5s0.9-0.4,1.4-0.6c0.9-0.4,1.8-0.8,2.8-1.3
						c0.9-0.5,1.8-1,2.7-1.5c0.4-0.3,0.9-0.5,1.3-0.8l1.3-0.8l1.2-0.9c0.4-0.3,0.8-0.6,1.2-1c0.4-0.3,0.8-0.6,1.1-1l1.1-1.1l1-1.2
						c0.4-0.4,0.6-0.8,0.9-1.2s0.6-0.8,0.9-1.3l0.8-1.4l-0.4,1.5c-0.1,0.5-0.4,1-0.6,1.5s-0.4,1-0.7,1.5l-0.8,1.4
						c-0.3,0.5-0.6,0.9-1,1.3c-0.3,0.4-0.7,0.8-1,1.3c-0.4,0.4-0.7,0.8-1.1,1.2l-1.2,1.1l-1.3,1c-0.4,0.4-0.9,0.7-1.3,1
						c-0.9,0.6-1.8,1.2-2.7,1.8c-0.9,0.6-1.9,1.1-2.9,1.5c-0.5,0.2-1,0.5-1.5,0.7s-1,0.4-1.6,0.6l-2.3,0.8l0.4-2.5
						c0.4-2.3,0.8-4.7,1.2-7c0.2-1.2,0.5-2.3,0.7-3.5c0.2-1.2,0.5-2.3,0.7-3.5l0.8-3.5l0.8-3.5
						C454.3,1010.6,454.9,1008.3,455.7,1006z"/>
				</g>
			</g>
		</g>
	</g>
	<path id="XMLID_6_" fill="#1F4929" d="M0,1083h168.5c-47.2-18.2-60.9-105.2-60.9-105.2c22,12.9,45.1,0,45.1,0
		c-58-51.5-82.1-131.2-82.1-131.2c20.4,5.6,29-10,29-10C56.5,777.7,39.9,717,39.9,717c13.7,1.2,17.7-3.8,17.7-3.8
		c-31.4-25-50-67.2-50-67.2c-0.8-2.1-1.6,0-1.6,0s-2.1,4-6,10.4C0,656.4,0,1083,0,1083z"/>
	<g id="XMLID_192_">
		<path id="XMLID_12_" fill="#1F4929" d="M523.9,1083h243.6c-28.2-28.3-43.4-81.3-43.4-81.3c18,6.6,39.9,0,39.9,0
			C712.7,956.1,700.6,884,700.6,884c10.9,2.9,27.1-2,27.1-2c-38-52.2-45.6-106.3-45.6-106.3c12.3,6.6,24.8,1.7,24.8,1.7
			c-31.3-14.2-60.5-80.5-60.5-80.5c-0.7-1.8-1.5,0-1.5,0s-29.2,66.2-60.5,80.5c0,0,12.5,4.9,24.8-1.7c0,0-7.6,54.1-45.6,106.3
			c0,0,16.2,4.9,27.1,2c0,0-12.1,72.1-63.4,117.7c0,0,21.8,6.6,39.9,0C567.2,1001.7,552.1,1054.7,523.9,1083z"/>
		<g id="XMLID_131_">
			<g id="XMLID_110_">
				<path fill="#2C573D" d="M622.3,766.5c0,1.7-0.1,3.4-0.3,5c-0.1,1.7-0.3,3.3-0.5,5s-0.4,3.3-0.6,5c-0.2,1.6-0.5,3.3-0.7,4.9
					l-2.2-1.5c1-0.6,2.1-1.3,3.1-2l3-2.1c2-1.4,4.1-2.8,6-4.2c1-0.7,2-1.4,2.9-2.2s1.9-1.5,2.8-2.3c0.5-0.4,0.9-0.8,1.3-1.2
					c0.4-0.4,0.9-0.9,1.3-1.3c0.4-0.4,0.8-0.9,1.1-1.4c0.4-0.5,0.6-1,0.8-1.6c0,0.6-0.1,1.3-0.4,1.9c-0.2,0.6-0.5,1.2-0.8,1.8
					s-0.7,1.1-1,1.6c-0.4,0.5-0.8,1-1.2,1.5c-0.8,1-1.7,1.9-2.6,2.8c-0.9,0.9-1.8,1.8-2.8,2.6c-1.9,1.6-3.9,3.2-5.9,4.6
					c-1,0.7-2.1,1.4-3.1,2.1c-1.1,0.7-2.1,1.3-3.2,2l-2.8,1.7l0.6-3.2c0.3-1.6,0.7-3.3,1-4.9c0.4-1.6,0.8-3.2,1.1-4.9
					c0.4-1.6,0.8-3.2,1.3-4.8C621.2,769.7,621.7,768.1,622.3,766.5z"/>
			</g>
			<g id="XMLID_111_">
				<path fill="#2C573D" d="M607,865.1c-0.3,2.8-0.6,5.6-1,8.4l-0.6,4.2c-0.2,1.4-0.4,2.8-0.7,4.2c-0.2,1.4-0.4,2.8-0.7,4.2
					l-0.7,4.2c-0.5,2.8-1.1,5.5-1.6,8.3l-2.1-1.6c0.6-0.3,1.3-0.7,1.9-1.1c0.7-0.4,1.3-0.7,1.9-1.1c1.3-0.8,2.5-1.6,3.8-2.5
					c1.2-0.9,2.5-1.7,3.6-2.6c0.6-0.5,1.2-0.9,1.7-1.4c0.6-0.5,1.1-1,1.7-1.5c1.1-1,2.2-2.1,3.2-3.2c0.5-0.5,1-1.1,1.5-1.7
					c0.5-0.6,0.9-1.2,1.3-1.8c0.4-0.6,0.8-1.2,1.2-1.9l0.6-1l0.5-1c0.2-0.3,0.3-0.7,0.5-1s0.3-0.7,0.4-1.1c0.3-0.7,0.5-1.5,0.7-2.2
					c0,0.8-0.1,1.5-0.2,2.3c-0.1,0.4-0.1,0.8-0.2,1.1c-0.1,0.4-0.2,0.8-0.3,1.1l-0.4,1.1l-0.4,1.1c-0.3,0.7-0.6,1.4-1,2.1
					c-0.4,0.7-0.8,1.4-1.2,2c-0.4,0.7-0.9,1.3-1.3,1.9c-0.9,1.3-2,2.4-3.1,3.6c-1.1,1.1-2.2,2.2-3.4,3.2s-2.4,2-3.7,2.9
					s-2.6,1.8-3.9,2.6c-0.7,0.4-1.3,0.8-2,1.2s-1.4,0.8-2.1,1.1l-2.8,1.4l0.7-3c0.6-2.8,1.1-5.5,1.8-8.3l0.9-4.1
					c0.3-1.4,0.7-2.7,1-4.1c0.3-1.4,0.7-2.7,1-4.1l1.1-4.1C605.3,870.5,606.1,867.8,607,865.1z"/>
			</g>
			<g id="XMLID_112_">
				<path fill="#2C573D" d="M589.2,972.3c-0.3,3.3-0.7,6.5-1.1,9.7c-0.2,1.6-0.4,3.2-0.7,4.8c-0.2,1.6-0.5,3.2-0.7,4.8
					c-0.5,3.2-1,6.4-1.5,9.7c-0.3,1.6-0.5,3.2-0.8,4.8l-0.9,4.8l-2-1.6c0.8-0.4,1.7-0.8,2.5-1.2l2.5-1.3c1.7-0.9,3.3-1.9,4.9-2.9
					c0.8-0.5,1.6-1.1,2.4-1.6c0.8-0.6,1.5-1.1,2.3-1.7c0.8-0.6,1.5-1.2,2.2-1.8s1.4-1.3,2.1-1.9c0.7-0.7,1.4-1.3,2-2
					c0.7-0.7,1.3-1.4,1.9-2.1c0.6-0.7,1.2-1.5,1.8-2.2c0.6-0.8,1.1-1.6,1.6-2.4c0.5-0.8,1-1.6,1.4-2.5c0.5-0.8,0.8-1.7,1.2-2.6
					c0.3-0.9,0.7-1.8,1-2.7s0.5-1.9,0.8-2.8c-0.1,1-0.1,2-0.3,2.9c-0.1,1-0.4,1.9-0.6,2.9c-0.1,0.5-0.3,0.9-0.4,1.4
					c-0.1,0.5-0.3,0.9-0.5,1.4c-0.3,0.9-0.7,1.8-1.2,2.7s-0.9,1.8-1.5,2.6c-0.5,0.9-1.1,1.7-1.6,2.5c-0.6,0.8-1.2,1.6-1.9,2.4
					c-0.6,0.8-1.3,1.5-2,2.2s-1.4,1.4-2.1,2.1c-0.7,0.7-1.5,1.3-2.2,2c-0.8,0.6-1.5,1.3-2.3,1.9c-0.8,0.6-1.6,1.2-2.4,1.7
					c-1.6,1.1-3.3,2.2-5.1,3.1c-0.9,0.5-1.7,1-2.6,1.4c-0.9,0.4-1.8,0.9-2.8,1.3l-2.5,1.1l0.5-2.7l0.9-4.8c0.3-1.6,0.6-3.2,1-4.8
					c0.6-3.2,1.3-6.4,2-9.6c0.3-1.6,0.7-3.2,1.1-4.8c0.4-1.6,0.7-3.2,1.1-4.8C587.5,978.6,588.3,975.4,589.2,972.3z"/>
			</g>
			<g id="XMLID_114_">
				<path fill="#2C573D" d="M635.1,848.8l0.8,4.2c0.3,1.4,0.5,2.8,0.8,4.2s0.6,2.8,0.9,4.2c0.3,1.4,0.6,2.8,1,4.1
					c0.3,1.4,0.7,2.7,1.1,4.1c0.2,0.7,0.4,1.3,0.7,2c0.2,0.7,0.5,1.3,0.7,2s0.5,1.3,0.8,1.9c0.3,0.6,0.5,1.3,0.9,1.9
					c0.3,0.6,0.6,1.2,1,1.8l1.1,1.6l-2.5,0.5c0.4-1,0.7-2,1.1-3l1.1-3c0.4-1,0.7-2,1.1-3l1.2-3c0.4-1,0.9-2,1.3-3l0.6-1.5
					c0.2-0.5,0.5-1,0.7-1.4c1-1.9,2-3.8,3.1-5.7c-0.6,2.1-1.2,4.1-1.9,6.2c-0.3,1-0.6,2-0.9,3.1c-0.3,1-0.6,2.1-0.9,3.1l-1.9,6.1
					l-1.9,6.1l-0.9,2.8l-1.7-2.3l-1.3-1.9c-0.4-0.6-0.7-1.3-1.1-2c-0.4-0.7-0.6-1.4-0.9-2.1c-0.3-0.7-0.6-1.4-0.8-2.1
					c-0.2-0.7-0.5-1.4-0.7-2.1c-0.2-0.7-0.4-1.4-0.6-2.1c-0.3-1.4-0.7-2.8-0.9-4.3c-0.3-1.4-0.4-2.9-0.6-4.3
					c-0.2-1.4-0.3-2.9-0.4-4.3c-0.1-1.4-0.1-2.9-0.2-4.3C635,851.6,635,850.2,635.1,848.8z"/>
			</g>
		</g>
	</g>
	<g id="XMLID_195_">
		<g id="XMLID_193_">
			<path id="XMLID_8_" fill="#396C3A" d="M180.5,1083h309.9c-37.8-26.4-48.5-90.5-48.5-90.5c21.3,7.5,47.1,0,47.1,0
				c-60.6-51.4-88.7-142.9-88.7-142.9c12.9,3.3,32-2.2,32-2.2c-44.9-58.9-62.6-118.9-62.6-118.9c14.6,7.5,19.6,3.8,19.6,3.8
				c-34.8-31.4-53.1-93.7-53.1-93.7c-0.9-2.1-1.7,0-1.7,0s-19.8,64.2-55.4,92.3c0,0,7.9,5.1,22.4-2.4c0,0-12.4,43.3-57.3,102.2
				c0,0,19.1,5.5,32,2.2c0,0-20.1,98-80.7,149.4c0,0,25.8,7.5,47.1,0C242.8,982.3,220.9,1055.2,180.5,1083z"/>
			<g id="XMLID_129_">
				<g id="XMLID_102_">
					<path fill="#265038" d="M313.9,713.2c-0.5,2.2-1.1,4.4-1.7,6.6c-0.3,1.1-0.6,2.2-0.9,3.3l-0.9,3.3c-0.7,2.2-1.3,4.3-2,6.5
						s-1.4,4.3-2.1,6.5l-2.2-1.7c1.3-0.9,2.6-1.8,3.8-2.7l3.8-2.8l3.8-2.8c1.3-0.9,2.5-1.9,3.7-2.9l1.8-1.5c0.6-0.5,1.2-1,1.8-1.5
						c1.2-1,2.4-2,3.5-3.1s2.3-2.2,3.3-3.3c1-1.2,2-2.4,2.7-3.8c-0.2,0.8-0.5,1.5-0.8,2.3c-0.3,0.7-0.7,1.4-1.2,2.1
						c-0.4,0.7-0.9,1.3-1.4,2c-0.5,0.6-1,1.3-1.5,1.9c-1,1.2-2.1,2.4-3.2,3.6c-1.1,1.1-2.3,2.3-3.5,3.3c-1.2,1.1-2.4,2.1-3.6,3.1
						s-2.5,2-3.7,3c-1.3,1-2.5,1.9-3.8,2.9c-1.3,0.9-2.6,1.8-4,2.7l-3.6,2.4l1.4-4.1c0.8-2.1,1.6-4.2,2.4-6.4
						c0.8-2.1,1.7-4.2,2.5-6.3l1.3-3.1c0.4-1,0.9-2.1,1.3-3.1C312,717.3,312.9,715.2,313.9,713.2z"/>
				</g>
				<g id="XMLID_104_">
					<path fill="#265038" d="M304.9,804.2c-0.3,1.9-0.6,3.8-0.9,5.6l-1,5.6l-1.2,5.6c-0.4,1.9-0.9,3.7-1.3,5.6l-0.7,2.8l-0.7,2.8
						c-0.5,1.8-1,3.7-1.5,5.5l-1.7,5.5c-0.7,1.8-1.4,3.6-2.1,5.4l-1.9-2c0.7-0.3,1.6-0.6,2.3-1c0.8-0.4,1.6-0.8,2.3-1.1
						c0.8-0.4,1.5-0.8,2.3-1.2l2.2-1.3l2.2-1.4l2.1-1.5l2.1-1.6c0.7-0.5,1.4-1.1,2-1.6c0.7-0.6,1.3-1.1,2-1.7l1.9-1.8l1.8-1.9
						c0.6-0.6,1.2-1.3,1.8-1.9c0.6-0.7,1.2-1.3,1.7-2l1.6-2.1c0.6-0.7,1-1.4,1.5-2.2l1.5-2.2l-1.1,2.4c-0.4,0.8-0.8,1.6-1.2,2.4
						l-1.4,2.3c-0.5,0.8-1,1.5-1.5,2.2s-1,1.5-1.6,2.2l-1.7,2.1c-0.6,0.7-1.2,1.3-1.8,2c-0.6,0.7-1.3,1.3-1.9,1.9
						c-0.7,0.6-1.3,1.3-2,1.8c-0.7,0.6-1.4,1.2-2.1,1.7l-2.2,1.6l-2.2,1.5c-0.8,0.5-1.5,1-2.3,1.5s-1.6,0.9-2.4,1.3
						c-0.8,0.4-1.6,0.8-2.4,1.2s-1.6,0.8-2.5,1.1l-3.1,1.2l1.2-3.2c0.6-1.7,1.3-3.5,2-5.2l1.8-5.4c0.6-1.8,1.1-3.6,1.7-5.4l1.7-5.4
						l3.3-10.9l1.7-5.4C303.7,807.8,304.3,806,304.9,804.2z"/>
				</g>
				<g id="XMLID_103_">
					<path fill="#265038" d="M256.8,968c-0.8,4.1-1.6,8.3-2.5,12.4c-0.4,2.1-0.9,4.1-1.3,6.2l-1.4,6.2c-0.9,4.1-1.8,8.2-2.8,12.3
						s-1.9,8.2-3,12.3l-2-1.7c1.2-0.5,2.4-1.1,3.6-1.7c1.2-0.6,2.4-1.2,3.6-1.9c2.4-1.2,4.8-2.5,7.1-3.9c1.2-0.7,2.3-1.4,3.5-2.1
						c1.2-0.7,2.3-1.4,3.4-2.2c1.1-0.7,2.3-1.5,3.4-2.3s2.2-1.6,3.3-2.4c1.1-0.8,2.2-1.6,3.2-2.5c1.1-0.8,2.1-1.7,3.1-2.6
						c1-0.9,2-1.8,3-2.8c0.5-0.5,1-1,1.4-1.4c0.5-0.5,0.9-1,1.4-1.5c0.9-1,1.8-2,2.6-3.1c0.8-1.1,1.6-2.2,2.3-3.3l0.6-0.9l0.5-0.9
						c0.3-0.6,0.7-1.2,0.9-1.8c0.3-0.6,0.6-1.2,0.8-1.9l0.7-1.9l-0.5,2c-0.2,0.7-0.4,1.3-0.6,2s-0.5,1.3-0.8,1.9l-0.4,1l-0.5,0.9
						c-0.6,1.2-1.3,2.4-2.1,3.6l-1.2,1.7c-0.4,0.6-0.8,1.1-1.3,1.7c-3.4,4.4-7.5,8.2-11.8,11.7c-1.1,0.9-2.2,1.7-3.3,2.5
						c-1.1,0.8-2.2,1.6-3.4,2.4c-1.1,0.8-2.3,1.6-3.5,2.3s-2.3,1.5-3.5,2.2c-2.4,1.4-4.8,2.8-7.2,4.1c-1.2,0.6-2.5,1.3-3.7,1.9
						c-1.2,0.6-2.5,1.2-3.8,1.7l-2.7,1.2l0.7-2.9c1-4.1,2.1-8.1,3.2-12.2c1.1-4.1,2.2-8.1,3.3-12.2l1.7-6.1c0.6-2,1.2-4,1.8-6.1
						C254.3,976,255.5,972,256.8,968z"/>
				</g>
				<g id="XMLID_105_">
					<path fill="#265038" d="M298.6,898.7c-0.2,4-0.5,7.9-0.8,11.9l-0.5,5.9c-0.2,2-0.4,3.9-0.6,5.9s-0.4,3.9-0.6,5.9l-0.7,5.9
						c-0.4,3.9-1,7.9-1.4,11.8l-2.2-1.5c1.8-1,3.7-2.1,5.5-3.2c1.8-1.1,3.6-2.3,5.4-3.4l2.7-1.8c0.9-0.6,1.8-1.2,2.6-1.8
						c0.9-0.6,1.7-1.3,2.6-1.9c0.8-0.7,1.7-1.3,2.5-2c1.7-1.3,3.3-2.7,4.9-4.2c0.8-0.7,1.6-1.5,2.3-2.2c0.7-0.8,1.5-1.5,2.2-2.3
						c0.4-0.4,0.7-0.8,1-1.2s0.7-0.8,1-1.3c0.6-0.8,1.2-1.7,1.8-2.7l0.8-1.4l0.6-1.5l0.5-1.5l0.4-1.6l-0.1,1.6l-0.3,1.6l-0.5,1.6
						l-0.6,1.5c-0.5,1-1,2-1.5,2.9c-0.3,0.5-0.6,0.9-0.9,1.4s-0.6,0.9-0.9,1.4c-0.6,0.9-1.3,1.7-2,2.6c-0.7,0.8-1.4,1.7-2.2,2.4
						c-0.7,0.8-1.5,1.6-2.3,2.3s-1.6,1.5-2.4,2.2c-1.6,1.5-3.3,2.8-5.1,4.2c-1.7,1.3-3.5,2.6-5.3,3.9c-1.8,1.2-3.6,2.4-5.5,3.6
						c-1.9,1.2-3.7,2.3-5.7,3.3l-2.6,1.4l0.4-2.9c0.6-3.9,1-7.8,1.6-11.8l0.9-5.9c0.3-2,0.6-3.9,0.9-5.9s0.6-3.9,1-5.9l1-5.9
						C297,906.5,297.7,902.6,298.6,898.7z"/>
				</g>
				<g id="XMLID_107_">
					<path fill="#265038" d="M328.5,1000.1c0.6,3.6,1.1,7.2,1.6,10.8s0.9,7.2,1.4,10.8c0.4,3.6,0.9,7.2,1.2,10.8
						c0.4,3.6,0.8,7.2,1.1,10.8l-2.3-1c1-0.8,2.1-1.6,3.1-2.5c1-0.8,2-1.7,3-2.6c2-1.8,3.9-3.5,5.8-5.4c1.9-1.8,3.7-3.8,5.5-5.7
						c1.8-1.9,3.5-3.9,5.2-6c0.8-1,1.6-2.1,2.4-3.1c0.8-1.1,1.6-2.1,2.3-3.2c0.8-1.1,1.5-2.2,2.2-3.3l1-1.7l1-1.7
						c0.3-0.6,0.6-1.2,0.9-1.7c0.3-0.6,0.6-1.2,0.9-1.8s0.6-1.2,0.8-1.8l0.8-1.8c0.3-0.6,0.5-1.2,0.7-1.9c0.2-0.6,0.4-1.3,0.6-1.9
						c0.4-1.3,0.7-2.6,1-3.9c-0.1,1.3-0.2,2.7-0.5,4c-0.1,0.7-0.2,1.3-0.4,2c-0.2,0.7-0.3,1.3-0.5,2l-0.6,1.9
						c-0.2,0.6-0.5,1.3-0.7,1.9c-0.5,1.3-1,2.5-1.6,3.7l-0.9,1.8l-0.9,1.8c-0.6,1.2-1.3,2.4-2,3.5c-0.7,1.2-1.4,2.3-2.2,3.4
						c-0.8,1.1-1.5,2.2-2.4,3.3c-1.6,2.2-3.3,4.2-5.1,6.3c-0.9,1-1.8,2-2.7,3c-0.9,1-1.9,1.9-2.8,2.9c-1.9,1.9-3.9,3.8-5.9,5.5
						c-1,0.9-2,1.8-3.1,2.6c-1.1,0.9-2.1,1.7-3.2,2.5l-2.1,1.6l-0.2-2.6c-0.3-3.6-0.6-7.2-0.8-10.9c-0.3-3.6-0.5-7.3-0.7-10.9
						s-0.4-7.3-0.6-10.9C328.7,1007.3,328.5,1003.7,328.5,1000.1z"/>
				</g>
			</g>
		</g>
		<g id="XMLID_155_">
			<path id="XMLID_17_" fill="#396C3A" d="M839.4,960.3c0,0-23.1,71.2-71.9,122.8H1031c-46.2-50.5-65.8-115-65.8-115
				c20.4,5.6,29-10,29-10c-42.9-59-59.6-119.7-59.6-119.7c13.7,1.2,17.7-3.8,17.7-3.8c-31.4-25-50-67.2-50-67.2
				c-0.8-2.1-1.6,0-1.6,0s-23.2,44.7-57.8,70.4c0,0,7,9.9,20.6,6.3c0,0-11.7,54.9-54.6,114C808.8,958.1,817,970.4,839.4,960.3z"/>
			<g id="XMLID_133_">
				<g id="XMLID_106_">
					<path fill="#265038" d="M882.9,838c-0.2,1.4-0.5,2.7-0.8,4.1c-0.3,1.4-0.6,2.7-0.9,4c-0.3,1.3-0.7,2.7-1,4s-0.8,2.6-1.1,4
						l-1.5-1.8c0.6-0.1,1.2-0.3,1.8-0.4c0.6-0.1,1.2-0.3,1.8-0.4c1.2-0.3,2.3-0.7,3.5-1.1c1.2-0.4,2.3-0.8,3.4-1.3
						c1.1-0.5,2.2-0.9,3.3-1.5c0.5-0.3,1.1-0.6,1.6-0.9c0.5-0.3,1-0.6,1.6-0.9c0.5-0.3,1-0.7,1.5-1c0.5-0.4,1-0.7,1.4-1.1
						c0.4-0.4,0.9-0.8,1.3-1.2c0.4-0.4,0.8-0.9,1.2-1.4s0.8-1,1.1-1.5c0.4-0.5,0.6-1.1,1-1.6c-0.1,0.6-0.2,1.3-0.5,1.9
						c-0.2,0.6-0.4,1.2-0.7,1.8s-0.6,1.2-1,1.7c-0.3,0.6-0.8,1.1-1.2,1.6s-0.9,1-1.3,1.5c-0.5,0.5-1,0.9-1.5,1.3
						c-0.5,0.4-1,0.8-1.6,1.2c-0.5,0.4-1.1,0.7-1.7,1.1c-2.2,1.4-4.6,2.4-7.1,3.3c-1.2,0.4-2.5,0.8-3.7,1.1
						c-0.6,0.2-1.3,0.3-1.9,0.4c-0.6,0.1-1.3,0.2-2,0.3l-2.3,0.3l0.8-2.1c0.5-1.3,0.9-2.6,1.5-3.9c0.5-1.3,1-2.6,1.6-3.8
						c0.5-1.3,1.1-2.5,1.7-3.8C881.6,840.4,882.2,839.2,882.9,838z"/>
				</g>
				<g id="XMLID_108_">
					<path fill="#265038" d="M866.5,941.9c-0.6,3-1.3,6.1-2,9.1s-1.4,6-2.2,9s-1.5,6-2.3,9s-1.6,6-2.4,8.9l-1.3-1.8
						c1.1,0,2.2,0,3.3-0.1s2.3-0.2,3.4-0.3c2.2-0.3,4.5-0.7,6.7-1.2c1.1-0.2,2.2-0.5,3.3-0.8s2.2-0.7,3.2-1c1.1-0.4,2.1-0.8,3.2-1.2
						c1-0.4,2.1-0.9,3.1-1.4s2-1,3-1.6s1.9-1.2,2.9-1.8s1.8-1.3,2.7-2s1.7-1.4,2.5-2.2s1.6-1.6,2.4-2.5c0.7-0.9,1.5-1.7,2.1-2.7
						l1-1.4l0.9-1.5c0.6-1,1.2-2,1.7-3c-0.4,1.1-0.8,2.2-1.3,3.3l-0.7,1.6c-0.3,0.5-0.6,1-0.8,1.5c-0.6,1-1.3,2-1.9,3
						c-0.7,0.9-1.4,1.9-2.2,2.8c-0.8,0.9-1.6,1.7-2.5,2.6c-0.9,0.8-1.8,1.6-2.7,2.3c-0.9,0.8-1.9,1.4-2.9,2.1c-1,0.6-2,1.3-3.1,1.8
						c-1,0.6-2.1,1.1-3.2,1.6c-1.1,0.5-2.2,0.9-3.3,1.4c-2.2,0.8-4.5,1.5-6.8,2s-4.6,1-7,1.2c-1.2,0.1-2.4,0.2-3.5,0.3
						c-1.2,0.1-2.4,0.1-3.6,0.1h-1.9l0.5-1.8c0.9-3,1.8-5.9,2.7-8.8c0.9-2.9,1.9-5.9,2.8-8.8c1-2.9,1.9-5.9,3-8.8
						C864.4,947.7,865.5,944.8,866.5,941.9z"/>
				</g>
				<g id="XMLID_109_">
					<path fill="#265038" d="M856.3,1039.7c-0.7,3.4-1.4,6.9-2.2,10.3c-0.4,1.7-0.8,3.4-1.2,5.1s-0.8,3.4-1.2,5.1
						c-0.9,3.4-1.7,6.8-2.6,10.2c-0.9,3.4-1.8,6.8-2.7,10.1l-1.7-1.8c1.1-0.2,2.2-0.5,3.2-0.8l3.2-0.9c2.2-0.6,4.3-1.2,6.4-1.9
						c2.1-0.7,4.2-1.5,6.3-2.2c1-0.4,2.1-0.8,3.1-1.2c1-0.4,2-0.9,3-1.4s2-1,3-1.5s1.9-1,2.9-1.6s1.9-1.2,2.8-1.8l1.3-1
						c0.4-0.3,0.9-0.7,1.3-1c0.4-0.3,0.8-0.7,1.2-1.1s0.8-0.8,1.2-1.2c0.4-0.4,0.8-0.8,1.1-1.2c0.3-0.4,0.7-0.9,1-1.3
						c0.6-0.9,1.2-1.9,1.6-2.9c0.2-0.5,0.4-1,0.6-1.6l0.4-1.6l-0.2,1.7c-0.1,0.6-0.2,1.1-0.4,1.7c-0.3,1.1-0.7,2.2-1.3,3.2
						c-0.2,0.5-0.6,1-0.9,1.5c-0.3,0.5-0.6,1-1,1.4c-0.3,0.5-0.7,0.9-1.1,1.3c-0.4,0.4-0.8,0.9-1.2,1.3s-0.8,0.8-1.3,1.2l-1.3,1.1
						c-0.9,0.7-1.8,1.4-2.8,2.1c-0.9,0.7-1.9,1.3-2.9,1.9s-2,1.2-3,1.7s-2,1-3.1,1.5c-1,0.5-2.1,1-3.1,1.4c-1.1,0.4-2.1,0.9-3.2,1.3
						c-1.1,0.4-2.1,0.8-3.2,1.2c-2.2,0.7-4.3,1.4-6.5,2c-1.1,0.3-2.2,0.6-3.3,0.9s-2.2,0.5-3.4,0.8l-2.3,0.5l0.7-2.3
						c1-3.4,2-6.7,3-10.1c1-3.3,2-6.7,3.1-10c0.5-1.7,1.1-3.3,1.6-5s1.1-3.3,1.6-5C853.9,1046.3,855.1,1043,856.3,1039.7z"/>
				</g>
				<g id="XMLID_121_">
					<path fill="#265038" d="M856.3,902.5c-0.7,2.8-1.4,5.5-2.2,8.2c-0.4,1.4-0.8,2.7-1.2,4.1c-0.4,1.4-0.8,2.7-1.2,4.1
						c-0.8,2.7-1.7,5.4-2.6,8.1c-0.9,2.7-1.8,5.4-2.7,8l-1.9-1.9c1.5-0.6,3.1-1.2,4.6-1.8s3.1-1.2,4.6-1.9s3-1.3,4.5-2
						s3-1.4,4.5-2.2c1.5-0.7,2.9-1.5,4.4-2.3c1.4-0.8,2.8-1.7,4.2-2.6c0.7-0.5,1.3-1,2-1.5c0.6-0.5,1.2-1.1,1.8-1.6
						c0.6-0.6,1.1-1.2,1.6-1.9s0.9-1.4,1.2-2.2c-0.1,0.8-0.4,1.7-0.7,2.4c-0.4,0.8-0.8,1.5-1.3,2.2s-1.1,1.3-1.7,2
						c-0.6,0.6-1.2,1.2-1.8,1.8c-1.3,1.1-2.6,2.2-4,3.1c-1.4,1-2.8,1.9-4.3,2.7c-1.5,0.9-3,1.7-4.4,2.4c-1.5,0.8-3,1.5-4.6,2.2
						c-1.5,0.7-3.1,1.4-4.6,2c-1.6,0.7-3.1,1.2-4.7,1.8l-2.9,1l1.1-2.9c1-2.7,1.9-5.3,3-8c1-2.7,2-5.3,3.1-7.9
						c0.5-1.3,1.1-2.6,1.6-3.9c0.6-1.3,1.1-2.6,1.6-3.9C853.9,907.7,855.1,905.1,856.3,902.5z"/>
				</g>
			</g>
		</g>
	</g>
	<g id="XMLID_235_">
		<g id="XMLID_260_">
			<path id="XMLID_271_" fill="#19381F" d="M954.4,1025.6c0,0-8.3,29.1-24.1,55.7h205c-15.8-26.6-24.1-55.7-24.1-55.7
				c18,6.6,39.9,0,39.9,0c-51.3-45.6-63.4-117.7-63.4-117.7c10.9,2.9,27.1-2,27.1-2c-38-52.2-45.6-106.3-45.6-106.3
				c12.3,6.6,24.8,1.7,24.8,1.7c-31.3-14.2-60.5-80.5-60.5-80.5c-0.7-1.8-1.5,0-1.5,0s-29.2,66.2-60.5,80.5c0,0,12.5,4.9,24.8-1.7
				c0,0-7.6,54.1-45.6,106.3c0,0,16.2,4.9,27.1,2c0,0-12.1,72.1-63.4,117.7C914.5,1025.6,936.4,1032.2,954.4,1025.6z"/>
			<g id="XMLID_261_">
				<g id="XMLID_268_">
					<path fill="#265038" d="M1010.4,783.5c-0.1,0.9-0.2,1.9-0.3,2.8c-0.1,0.9-0.3,1.9-0.4,2.8c-0.3,1.9-0.6,3.7-0.9,5.6l-1,5.5
						l-1.1,5.5l-2.1-1.6c0.6-0.3,1.2-0.7,1.9-1.1c0.6-0.4,1.2-0.8,1.8-1.2c1.2-0.8,2.4-1.6,3.6-2.4c1.2-0.8,2.3-1.7,3.5-2.6
						c1.1-0.9,2.2-1.8,3.3-2.8s2.1-2,3.1-3c0.5-0.5,0.9-1.1,1.4-1.6c0.4-0.6,0.9-1.1,1.3-1.7c0.4-0.6,0.8-1.2,1.2-1.8
						c0.4-0.6,0.7-1.3,1-1.9c0.2-0.3,0.3-0.7,0.4-1s0.3-0.7,0.4-1c0.2-0.7,0.4-1.4,0.6-2.1c0,0.7,0,1.5-0.1,2.3
						c0,0.4-0.1,0.8-0.2,1.1c-0.1,0.4-0.1,0.8-0.2,1.1c-0.2,0.7-0.4,1.5-0.7,2.2c-0.3,0.7-0.6,1.4-1,2.1c-0.3,0.7-0.7,1.3-1.1,2
						c-0.4,0.6-0.9,1.3-1.3,1.9c-0.5,0.6-0.9,1.2-1.4,1.8s-1,1.1-1.5,1.7c-1.1,1.1-2.2,2.1-3.3,3.1c-1.2,1-2.4,1.9-3.6,2.8
						c-1.2,0.9-2.5,1.8-3.8,2.5c-0.6,0.4-1.3,0.8-1.9,1.2c-0.7,0.4-1.3,0.7-2,1.1l-2.9,1.5l0.8-3.1l1.5-5.4l1.6-5.4
						c0.6-1.8,1.1-3.6,1.7-5.4c0.3-0.9,0.6-1.8,0.9-2.7C1009.8,785.3,1010.1,784.4,1010.4,783.5z"/>
				</g>
				<g id="XMLID_265_">
					<path fill="#265038" d="M994.3,876.5c0,2.1-0.1,4.1-0.2,6.1c0,1-0.1,2-0.2,3.1c-0.1,1-0.1,2-0.2,3c-0.2,2-0.4,4.1-0.6,6.1
						c-0.1,1-0.2,2-0.3,3l-0.4,3l-2-1.6c0.5-0.2,1-0.5,1.5-0.7c0.5-0.3,1-0.5,1.5-0.8c1-0.5,2-1.1,3-1.7c1-0.6,2-1.2,2.9-1.8
						c0.5-0.3,1-0.6,1.4-1s0.9-0.7,1.4-1l1.3-1.1c0.5-0.4,0.8-0.8,1.3-1.2c0.4-0.4,0.9-0.8,1.2-1.2l1.2-1.3l1.1-1.3
						c0.4-0.4,0.7-0.9,1-1.4s0.7-1,0.9-1.5l0.8-1.6c-0.1,0.6-0.3,1.2-0.4,1.7c-0.1,0.6-0.4,1.1-0.6,1.7c-0.2,0.6-0.4,1.1-0.7,1.7
						l-0.9,1.6l-1,1.5c-0.3,0.5-0.7,1-1.1,1.4c-0.4,0.5-0.8,0.9-1.2,1.4l-1.3,1.3c-0.4,0.4-0.9,0.8-1.4,1.2s-0.9,0.8-1.4,1.1
						c-0.5,0.4-1,0.7-1.5,1.1c-0.5,0.4-1,0.7-1.5,1c-1,0.7-2.1,1.3-3.1,1.9c-0.5,0.3-1.1,0.6-1.6,0.8c-0.6,0.3-1.1,0.5-1.7,0.8
						l-2.4,1l0.4-2.6l0.4-3c0.1-1,0.3-2,0.5-3c0.3-2,0.7-4,1.1-6c0.2-1,0.4-2,0.6-3c0.2-1,0.4-2,0.7-3
						C993.2,880.5,993.7,878.5,994.3,876.5z"/>
				</g>
				<g id="XMLID_262_">
					<path fill="#265038" d="M1019,927.8c0.3,1.4,0.5,2.8,0.8,4.2c0.2,1.4,0.5,2.8,0.7,4.2s0.4,2.8,0.7,4.2c0.2,1.4,0.4,2.8,0.6,4.2
						l0.7,4.2c0.2,1.4,0.4,2.8,0.7,4.2s0.5,2.7,0.8,4.1c0.1,0.7,0.3,1.3,0.5,2s0.4,1.2,0.6,1.9l-2.5-0.1c0.8-1.4,1.6-2.9,2.4-4.3
						c0.8-1.4,1.7-2.8,2.5-4.2c0.9-1.4,1.7-2.8,2.6-4.2s1.8-2.8,2.8-4.1c-0.6,1.6-1.1,3.1-1.8,4.6c-0.6,1.5-1.3,3-1.9,4.5
						c-0.7,1.5-1.4,3-2,4.5c-0.7,1.5-1.4,3-2.1,4.4l-1.4,2.9l-1.2-3c-0.3-0.7-0.6-1.4-0.8-2.2c-0.2-0.7-0.4-1.4-0.6-2.1
						c-0.3-1.4-0.6-2.8-0.9-4.3c-0.2-1.4-0.4-2.8-0.6-4.3c-0.2-1.4-0.3-2.9-0.4-4.3c-0.1-1.4-0.2-2.9-0.3-4.3
						c-0.1-1.4-0.1-2.9-0.1-4.3c0-1.4,0-2.9,0-4.3C1018.8,930.6,1018.8,929.2,1019,927.8z"/>
				</g>
			</g>
		</g>
		<g id="XMLID_248_">
			<path id="XMLID_259_" fill="#19381F" d="M1562.9,1081.3h261.5c-31.8-25.6-40.7-87.3-40.7-87.3c18,7.2,39.9,0,39.9,0
				c-51.3-49.7-75-138.2-75-138.2c10.9,3.2,27.1-2.1,27.1-2.1c-38-57-52.9-115-52.9-115c12.3,7.2,16.6,3.7,16.6,3.7
				c-29.4-30.4-44.9-90.6-44.9-90.6c-0.7-2-1.5,0-1.5,0s-16.7,62.1-46.9,89.3c0,0,6.6,4.9,19-2.3c0,0-10.5,41.9-48.4,98.8
				c0,0,16.2,5.3,27.1,2.1c0,0-17,94.8-68.3,144.5c0,0,21.8,7.2,39.9,0C1615.2,984.1,1596.8,1054.2,1562.9,1081.3z"/>
			<g id="XMLID_249_">
				<g id="XMLID_256_">
					<path fill="#265038" d="M1679.7,721.8c0,1.7-0.2,3.4-0.3,5.1c-0.1,0.8-0.2,1.7-0.2,2.5c-0.1,0.8-0.2,1.7-0.3,2.5
						c-0.2,1.7-0.4,3.3-0.7,5c-0.3,1.7-0.5,3.3-0.8,5l-2.2-1.5c0.9-0.6,1.8-1.2,2.7-1.8c0.9-0.6,1.8-1.3,2.7-1.9
						c0.4-0.3,0.9-0.7,1.3-1l1.3-1l1.3-1.1c0.4-0.4,0.8-0.7,1.2-1.1c0.4-0.4,0.8-0.7,1.2-1.1c0.4-0.4,0.8-0.8,1.2-1.2
						c0.4-0.4,0.7-0.8,1.1-1.2s0.7-0.8,1-1.3c0.4-0.4,0.7-0.9,1-1.3c0.3-0.5,0.7-0.9,0.9-1.4c0.3-0.5,0.6-1,0.8-1.5l0.7-1.6
						c0,0.6-0.1,1.1-0.2,1.7c-0.1,0.6-0.3,1.1-0.4,1.7c-0.1,0.6-0.4,1.1-0.6,1.6s-0.4,1.1-0.8,1.6c-0.3,0.5-0.6,1-0.9,1.5
						s-0.7,1-1,1.4c-0.3,0.5-0.7,0.9-1.1,1.4s-0.7,0.9-1.1,1.3c-0.4,0.4-0.8,0.9-1.2,1.3l-1.3,1.2c-0.9,0.8-1.7,1.5-2.6,2.3
						c-0.4,0.4-0.9,0.7-1.4,1.1c-0.5,0.4-0.9,0.7-1.4,1c-1,0.7-1.9,1.3-3,1.9l-2.8,1.6l0.6-3.2c0.3-1.6,0.7-3.3,1.1-4.9
						c0.4-1.6,0.8-3.3,1.2-4.9c0.2-0.8,0.4-1.6,0.7-2.4c0.2-0.8,0.4-1.6,0.7-2.4C1678.6,725,1679.1,723.4,1679.7,721.8z"/>
				</g>
				<g id="XMLID_253_">
					<path fill="#265038" d="M1653.3,815.5c-0.4,3-0.8,6-1.3,8.9c-0.5,3-1,5.9-1.5,8.9c-0.6,2.9-1.1,5.9-1.7,8.8
						c-0.6,2.9-1.1,5.9-1.8,8.8l-2-1.6c0.9-0.4,1.9-0.9,2.8-1.4s1.9-1,2.8-1.5c1.9-1.1,3.7-2.1,5.5-3.3c1.8-1.1,3.6-2.3,5.4-3.5
						s3.5-2.5,5.1-3.8c0.8-0.7,1.7-1.3,2.5-2.1c0.8-0.7,1.6-1.4,2.4-2.2c0.8-0.7,1.5-1.5,2.2-2.3s1.4-1.6,2.1-2.4
						c0.7-0.8,1.3-1.7,1.9-2.6c0.6-0.9,1.2-1.8,1.7-2.7c0.3-0.5,0.5-0.9,0.7-1.4s0.5-1,0.6-1.5c0.2-0.5,0.4-1,0.6-1.5l0.5-1.6
						l-0.2,1.6c-0.1,0.5-0.2,1.1-0.3,1.6c-0.1,0.5-0.3,1.1-0.5,1.6s-0.3,1.1-0.6,1.6c-0.4,1-0.9,2-1.4,3l-0.8,1.4
						c-0.3,0.5-0.6,0.9-0.9,1.4c-0.6,0.9-1.3,1.8-2,2.7s-1.4,1.7-2.2,2.5c-0.8,0.8-1.5,1.6-2.3,2.4c-0.8,0.8-1.6,1.5-2.4,2.3
						c-1.7,1.5-3.4,2.8-5.1,4.2c-1.8,1.3-3.6,2.5-5.4,3.7c-1.9,1.2-3.7,2.3-5.7,3.4c-1,0.5-1.9,1-2.9,1.6c-1,0.5-2,1-3,1.5l-2.6,1.2
						l0.6-2.8c0.6-2.9,1.4-5.8,2.1-8.7s1.5-5.8,2.2-8.7c0.8-2.9,1.5-5.8,2.3-8.7C1651.5,821.3,1652.4,818.4,1653.3,815.5z"/>
				</g>
				<g id="XMLID_250_">
					<path fill="#265038" d="M1639.4,923c-0.6,3-1.3,6-2,8.9c-0.7,3-1.5,5.9-2.2,8.9c-0.8,2.9-1.5,5.9-2.4,8.8
						c-0.8,2.9-1.6,5.9-2.5,8.8l-1.7-1.8c1-0.3,2.1-0.6,3.2-1s2.1-0.7,3.2-1.2c1-0.4,2.1-0.8,3.1-1.3c1-0.4,2.1-0.9,3.1-1.4
						c2-1,4-2,5.9-3.2c1-0.6,1.9-1.2,2.8-1.8s1.8-1.3,2.7-1.9c0.5-0.3,0.9-0.7,1.3-1s0.9-0.7,1.3-1.1c0.8-0.7,1.7-1.5,2.4-2.3
						c0.8-0.8,1.5-1.6,2.2-2.5c0.7-0.8,1.4-1.7,2-2.6c0.6-0.9,1.2-1.9,1.7-2.9c0.6-1,1-2,1.5-3c0.4-1,0.8-2.1,1.1-3.2
						c0.4-1.1,0.5-2.2,0.8-3.3c-0.1,1.1-0.1,2.3-0.3,3.4c-0.1,1.2-0.4,2.3-0.7,3.4c-0.4,1.1-0.7,2.2-1.2,3.3c-0.4,1.1-1,2.1-1.5,3.2
						c-0.6,1-1.2,2-1.9,3c-0.7,1-1.4,1.9-2.2,2.8c-0.8,0.9-1.6,1.7-2.4,2.5s-1.7,1.6-2.6,2.3c-0.9,0.8-1.8,1.5-2.8,2.1
						c-1,0.7-1.9,1.3-2.9,2c-1,0.6-2,1.2-3,1.8s-2.1,1.1-3.1,1.6c-2.1,1-4.2,2-6.4,2.8c-1.1,0.4-2.2,0.8-3.3,1.2
						c-1.1,0.4-2.2,0.7-3.4,1l-2.5,0.6l0.8-2.5c0.9-2.9,1.8-5.8,2.8-8.7c0.9-2.9,1.9-5.8,2.9-8.7s2-5.8,3-8.6
						C1637.2,928.7,1638.2,925.8,1639.4,923z"/>
				</g>
			</g>
		</g>
		<g id="XMLID_236_">
			<path id="XMLID_247_" fill="#19381F" d="M1250.2,1081.3H1506c-48.9-45.6-69.3-113-69.3-113c18.1,5,25.7-8.8,25.7-8.8
				c-38-52.2-52.7-105.8-52.7-105.8c12.2,1,15.7-3.3,15.7-3.3c-27.8-22.1-44.2-59.5-44.2-59.5c-0.7-1.8-1.5,0-1.5,0
				s-20.5,39.5-51.2,62.3c0,0,6.2,8.8,18.2,5.6c0,0-10.3,48.6-48.3,100.8c0,0,7.3,10.9,27.1,2
				C1325.4,961.4,1301.4,1035.7,1250.2,1081.3z"/>
			<g id="XMLID_237_">
				<g id="XMLID_244_">
					<path fill="#265038" d="M1363.6,840.9c0,1.5-0.2,3.1-0.4,4.6c-0.2,1.5-0.4,3-0.6,4.5s-0.5,3-0.8,4.5s-0.6,3-1,4.4l-1.9-1.8
						l1-0.4c0.3-0.1,0.7-0.3,1-0.4c0.7-0.3,1.4-0.6,2.1-0.9c0.7-0.3,1.3-0.7,2-1l1-0.5c0.3-0.2,0.6-0.4,1-0.6
						c0.3-0.2,0.6-0.4,0.9-0.6c0.3-0.2,0.6-0.4,0.9-0.6l0.9-0.7c0.3-0.2,0.5-0.5,0.8-0.8c0.3-0.2,0.5-0.5,0.8-0.8s0.5-0.6,0.7-0.9
						c0.2-0.3,0.5-0.6,0.6-1l0.5-1c0,0.4-0.1,0.8-0.1,1.2s-0.2,0.8-0.3,1.2c-0.1,0.4-0.3,0.8-0.5,1.1c-0.2,0.4-0.4,0.8-0.6,1.1
						s-0.5,0.7-0.7,1l-0.8,0.9c-0.3,0.3-0.6,0.6-0.9,0.9c-0.3,0.3-0.6,0.6-0.9,0.8c-0.3,0.3-0.6,0.5-1,0.8l-1,0.7
						c-0.7,0.4-1.4,0.9-2.1,1.3c-0.7,0.4-1.4,0.8-2.2,1.1c-0.8,0.3-1.5,0.6-2.3,0.9l-2.6,0.9l0.7-2.7c0.4-1.5,0.7-2.9,1.2-4.4
						c0.4-1.5,0.8-2.9,1.3-4.4c0.5-1.4,1-2.9,1.5-4.3C1362.4,843.7,1362.9,842.3,1363.6,840.9z"/>
				</g>
				<g id="XMLID_241_">
					<path fill="#265038" d="M1345.5,906.4c0.5,1,0.9,2.1,1.3,3.1c0.4,1.1,0.8,2.1,1.2,3.2c0.4,1.1,0.8,2.1,1.1,3.2l1.1,3.2
						c0.4,1.1,0.7,2.2,1,3.2c0.3,1.1,0.7,2.2,1,3.2c0.6,2.2,1.2,4.3,1.8,6.5l-2.7-0.4c0.4-0.7,0.8-1.5,1.2-2.3
						c0.4-0.8,0.8-1.6,1.2-2.4c0.4-0.8,0.7-1.6,1.1-2.4l0.5-1.2c0.2-0.4,0.3-0.8,0.5-1.2c0.3-0.8,0.6-1.7,1-2.5
						c0.3-0.8,0.6-1.7,0.9-2.5c0.1-0.4,0.3-0.8,0.4-1.3l0.4-1.3c0.3-0.9,0.5-1.7,0.8-2.6c0,0.9,0,1.8-0.1,2.7c0,0.9-0.1,1.8-0.3,2.7
						c-0.1,0.9-0.3,1.8-0.4,2.7c-0.2,0.9-0.4,1.8-0.6,2.7c-0.1,0.4-0.2,0.9-0.4,1.3l-0.4,1.3c-0.3,0.9-0.6,1.7-0.9,2.6
						c-0.3,0.9-0.7,1.7-1,2.6c-0.4,0.8-0.8,1.7-1.2,2.5l-1.7,3.2l-1-3.5c-0.6-2.2-1.2-4.4-1.7-6.5c-0.3-1.1-0.6-2.2-0.8-3.3
						c-0.3-1.1-0.5-2.2-0.8-3.3l-0.7-3.3c-0.2-1.1-0.4-2.2-0.6-3.3s-0.4-2.2-0.6-3.4C1345.8,908.7,1345.7,907.6,1345.5,906.4z"/>
				</g>
				<g id="XMLID_238_">
					<path fill="#265038" d="M1345.5,1004.2c0,2.4-0.2,4.8-0.4,7.1l-0.3,3.5l-0.4,3.5c-0.1,1.2-0.3,2.3-0.5,3.5s-0.3,2.3-0.5,3.5
						c-0.4,2.3-0.7,4.7-1.1,7l-1.9-1.7c0.4-0.1,0.9-0.3,1.4-0.5s0.9-0.4,1.4-0.6c0.9-0.4,1.8-0.8,2.8-1.3c0.9-0.5,1.8-1,2.7-1.5
						c0.4-0.3,0.9-0.5,1.3-0.8l1.3-0.8l1.2-0.9c0.4-0.3,0.8-0.6,1.2-1c0.4-0.3,0.8-0.7,1.1-1l1.1-1.1l1-1.2c0.4-0.4,0.6-0.8,0.9-1.2
						s0.6-0.8,0.9-1.3l0.8-1.4l-0.4,1.5c-0.1,0.5-0.4,1-0.6,1.5s-0.4,1-0.7,1.5l-0.8,1.4c-0.3,0.5-0.6,0.9-1,1.3
						c-0.3,0.4-0.7,0.8-1,1.3c-0.4,0.4-0.7,0.8-1.1,1.2l-1.2,1.1l-1.3,1c-0.4,0.4-0.9,0.7-1.3,1c-0.9,0.6-1.8,1.2-2.7,1.8
						c-0.9,0.6-1.9,1.1-2.9,1.5c-0.5,0.2-1,0.5-1.5,0.7s-1,0.4-1.6,0.6l-2.3,0.8l0.4-2.5c0.4-2.3,0.8-4.7,1.2-7
						c0.2-1.2,0.5-2.3,0.7-3.5s0.5-2.3,0.7-3.5l0.8-3.5l0.8-3.5C1344.2,1008.8,1344.8,1006.5,1345.5,1004.2z"/>
				</g>
			</g>
		</g>
	</g>
	<g id="XMLID_219_">
		<path id="XMLID_233_" fill="#1F4929" d="M1413.7,1081.3h243.6c-28.2-28.3-43.4-81.3-43.4-81.3c18,6.6,39.9,0,39.9,0
			c-51.3-45.6-63.4-117.7-63.4-117.7c10.9,2.9,27.1-2,27.1-2c-38-52.2-45.6-106.3-45.6-106.3c12.3,6.6,24.8,1.7,24.8,1.7
			c-31.3-14.2-60.5-80.5-60.5-80.5c-0.7-1.8-1.5,0-1.5,0s-29.2,66.2-60.5,80.5c0,0,12.5,4.9,24.8-1.7c0,0-7.6,54.1-45.6,106.3
			c0,0,16.2,4.9,27.1,2c0,0-12.1,72.1-63.4,117.7c0,0,21.8,6.6,39.9,0C1457.1,999.9,1442,1052.9,1413.7,1081.3z"/>
		<g id="XMLID_220_">
			<g id="XMLID_230_">
				<path fill="#2C573D" d="M1512.1,764.7c0,1.7-0.1,3.4-0.3,5c-0.1,1.7-0.3,3.3-0.5,5s-0.4,3.3-0.6,5c-0.2,1.6-0.5,3.3-0.7,4.9
					l-2.2-1.5c1-0.6,2.1-1.3,3.1-2l3-2.1c2-1.4,4.1-2.8,6-4.2c1-0.7,2-1.4,2.9-2.2s1.9-1.5,2.8-2.3c0.5-0.4,0.9-0.8,1.3-1.2
					s0.9-0.9,1.3-1.3c0.4-0.4,0.8-0.9,1.1-1.4c0.4-0.5,0.6-1,0.8-1.6c0,0.6-0.1,1.3-0.4,1.9c-0.2,0.6-0.5,1.2-0.8,1.8
					s-0.7,1.1-1,1.6c-0.4,0.5-0.8,1-1.2,1.5c-0.8,1-1.7,1.9-2.6,2.8c-0.9,0.9-1.8,1.8-2.8,2.6c-1.9,1.6-3.9,3.2-5.9,4.6
					c-1,0.7-2.1,1.4-3.1,2.1c-1.1,0.7-2.1,1.3-3.2,2l-2.8,1.7l0.6-3.2c0.3-1.6,0.7-3.3,1-4.9c0.4-1.6,0.8-3.2,1.1-4.9
					c0.4-1.6,0.8-3.2,1.3-4.8C1511.1,767.9,1511.6,766.3,1512.1,764.7z"/>
			</g>
			<g id="XMLID_227_">
				<path fill="#2C573D" d="M1496.8,863.4c-0.3,2.8-0.6,5.6-1,8.4l-0.6,4.2c-0.2,1.4-0.4,2.8-0.7,4.2c-0.2,1.4-0.4,2.8-0.7,4.2
					l-0.7,4.2c-0.5,2.8-1.1,5.5-1.6,8.3l-2.1-1.6c0.6-0.3,1.3-0.7,1.9-1.1c0.7-0.4,1.3-0.7,1.9-1.1c1.3-0.8,2.5-1.6,3.8-2.5
					c1.2-0.9,2.5-1.7,3.6-2.6c0.6-0.5,1.2-0.9,1.7-1.4c0.6-0.5,1.1-1,1.7-1.5c1.1-1,2.2-2.1,3.2-3.2c0.5-0.5,1-1.1,1.5-1.7
					c0.5-0.6,0.9-1.2,1.3-1.8s0.8-1.2,1.2-1.9l0.6-1l0.5-1c0.2-0.3,0.3-0.7,0.5-1s0.3-0.7,0.4-1.1c0.3-0.7,0.5-1.5,0.7-2.2
					c0,0.8-0.1,1.5-0.2,2.3c-0.1,0.4-0.1,0.8-0.2,1.1c-0.1,0.4-0.2,0.8-0.3,1.1l-0.4,1.1l-0.4,1.1c-0.3,0.7-0.6,1.4-1,2.1
					c-0.4,0.7-0.8,1.4-1.2,2c-0.4,0.7-0.9,1.3-1.3,1.9c-0.9,1.3-2,2.4-3.1,3.6c-1.1,1.1-2.2,2.2-3.4,3.2c-1.2,1-2.4,2-3.7,2.9
					c-1.3,0.9-2.6,1.8-3.9,2.6c-0.7,0.4-1.3,0.8-2,1.2s-1.4,0.8-2.1,1.1l-2.8,1.4l0.7-3c0.6-2.8,1.1-5.5,1.8-8.3l0.9-4.1
					c0.3-1.4,0.7-2.7,1-4.1c0.3-1.4,0.7-2.7,1-4.1l1.1-4.1C1495.2,868.8,1496,866,1496.8,863.4z"/>
			</g>
			<g id="XMLID_224_">
				<path fill="#2C573D" d="M1479,970.5c-0.3,3.3-0.7,6.5-1.1,9.7c-0.2,1.6-0.4,3.2-0.7,4.8c-0.2,1.6-0.5,3.2-0.7,4.8
					c-0.5,3.2-1,6.4-1.5,9.7c-0.3,1.6-0.5,3.2-0.8,4.8l-0.9,4.8l-2-1.6c0.8-0.4,1.7-0.8,2.5-1.2l2.5-1.3c1.7-0.9,3.3-1.9,4.9-2.9
					c0.8-0.5,1.6-1.1,2.4-1.6c0.8-0.6,1.6-1.1,2.3-1.7c0.8-0.6,1.5-1.2,2.2-1.8s1.4-1.3,2.1-1.9c0.7-0.7,1.4-1.3,2-2
					c0.7-0.7,1.3-1.4,1.9-2.1c0.6-0.7,1.2-1.5,1.8-2.2c0.6-0.8,1.1-1.6,1.6-2.4c0.5-0.8,1-1.6,1.4-2.5c0.5-0.8,0.8-1.7,1.2-2.6
					c0.3-0.9,0.7-1.8,1-2.7s0.5-1.9,0.8-2.8c-0.1,1-0.1,2-0.3,2.9c-0.1,1-0.4,1.9-0.6,2.9c-0.1,0.5-0.3,0.9-0.4,1.4
					s-0.3,0.9-0.5,1.4c-0.3,0.9-0.7,1.8-1.2,2.7s-0.9,1.8-1.5,2.6c-0.5,0.9-1.1,1.7-1.6,2.5c-0.6,0.8-1.2,1.6-1.9,2.4
					c-0.6,0.8-1.3,1.5-2,2.2s-1.4,1.4-2.1,2.1c-0.7,0.7-1.5,1.3-2.2,2c-0.8,0.6-1.5,1.3-2.3,1.9c-0.8,0.6-1.6,1.2-2.4,1.7
					c-1.6,1.1-3.3,2.2-5.1,3.1c-0.9,0.5-1.7,1-2.6,1.4s-1.8,0.9-2.8,1.3l-2.5,1.1l0.5-2.7l0.9-4.8c0.3-1.6,0.6-3.2,1-4.8
					c0.6-3.2,1.3-6.4,2-9.6c0.3-1.6,0.7-3.2,1.1-4.8s0.7-3.2,1.1-4.8C1477.4,976.8,1478.2,973.7,1479,970.5z"/>
			</g>
			<g id="XMLID_221_">
				<path fill="#2C573D" d="M1525,847l0.8,4.2c0.3,1.4,0.5,2.8,0.8,4.2s0.6,2.8,0.9,4.2s0.6,2.8,1,4.1c0.3,1.4,0.7,2.7,1.1,4.1
					c0.2,0.7,0.4,1.3,0.7,2c0.2,0.7,0.5,1.3,0.7,2s0.5,1.3,0.8,1.9c0.3,0.6,0.5,1.3,0.9,1.9c0.3,0.6,0.6,1.2,1,1.8l1.1,1.6l-2.5,0.5
					c0.4-1,0.7-2,1.1-3l1.1-3c0.4-1,0.7-2,1.1-3l1.2-3c0.4-1,0.9-2,1.3-3l0.6-1.5c0.2-0.5,0.5-1,0.7-1.4c1-1.9,2-3.8,3.1-5.7
					c-0.6,2.1-1.2,4.1-1.9,6.2c-0.3,1-0.6,2-0.9,3.1c-0.3,1-0.6,2.1-0.9,3.1l-1.9,6.1l-1.9,6.1l-0.9,2.8l-1.7-2.3l-1.3-1.9
					c-0.4-0.6-0.7-1.3-1.1-2s-0.6-1.4-0.9-2.1c-0.3-0.7-0.6-1.4-0.8-2.1c-0.2-0.7-0.5-1.4-0.7-2.1c-0.2-0.7-0.4-1.4-0.6-2.1
					c-0.3-1.4-0.7-2.8-0.9-4.3c-0.3-1.4-0.4-2.9-0.6-4.3c-0.2-1.4-0.3-2.9-0.4-4.3c-0.1-1.4-0.1-2.9-0.2-4.3
					C1524.8,849.9,1524.8,848.4,1525,847z"/>
			</g>
		</g>
	</g>
	<g id="XMLID_18_">
		<g id="XMLID_67_">
			<path id="XMLID_101_" fill="#396C3A" d="M1070.4,1081.3h309.9c-37.8-26.4-48.5-90.5-48.5-90.5c21.3,7.5,47.1,0,47.1,0
				c-60.6-51.4-88.7-142.9-88.7-142.9c12.9,3.3,32-2.2,32-2.2c-44.9-58.9-62.6-118.9-62.6-118.9c14.6,7.5,19.6,3.8,19.6,3.8
				c-34.8-31.4-53.1-93.7-53.1-93.7c-0.9-2.1-1.7,0-1.7,0s-19.8,64.2-55.4,92.3c0,0,7.9,5.1,22.4-2.4c0,0-12.4,43.3-57.3,102.2
				c0,0,19.1,5.5,32,2.2c0,0-20.1,98-80.7,149.4c0,0,25.8,7.5,47.1,0C1132.6,980.5,1110.8,1053.4,1070.4,1081.3z"/>
			<g id="XMLID_68_">
				<g id="XMLID_98_">
					<path fill="#265038" d="M1203.8,711.4c-0.5,2.2-1.1,4.4-1.7,6.6c-0.3,1.1-0.6,2.2-0.9,3.3l-0.9,3.3c-0.7,2.2-1.3,4.3-2,6.5
						s-1.4,4.3-2.1,6.5l-2.2-1.7c1.3-0.9,2.6-1.8,3.8-2.7l3.8-2.8l3.8-2.8c1.3-0.9,2.5-1.9,3.7-2.9l1.8-1.5c0.6-0.5,1.2-1,1.8-1.5
						c1.2-1,2.4-2,3.5-3.1s2.3-2.2,3.3-3.3c1-1.2,2-2.4,2.7-3.8c-0.2,0.8-0.5,1.5-0.8,2.3c-0.3,0.7-0.7,1.4-1.2,2.1
						c-0.4,0.7-0.9,1.3-1.4,2c-0.5,0.6-1,1.3-1.5,1.9c-1,1.2-2.1,2.4-3.2,3.6c-1.1,1.1-2.3,2.3-3.5,3.3c-1.2,1.1-2.4,2.1-3.6,3.1
						s-2.5,2-3.7,3c-1.3,1-2.5,1.9-3.8,2.9c-1.3,0.9-2.6,1.8-4,2.7l-3.6,2.4l1.4-4.1c0.8-2.1,1.6-4.2,2.4-6.4
						c0.8-2.1,1.7-4.2,2.5-6.3l1.3-3.1c0.4-1,0.9-2.1,1.3-3.1C1201.8,715.5,1202.8,713.5,1203.8,711.4z"/>
				</g>
				<g id="XMLID_95_">
					<path fill="#265038" d="M1194.7,802.4c-0.3,1.9-0.6,3.8-0.9,5.6l-1,5.6l-1.2,5.6c-0.4,1.9-0.9,3.7-1.3,5.6l-0.7,2.8l-0.7,2.8
						c-0.5,1.8-1,3.7-1.5,5.5l-1.7,5.5c-0.7,1.8-1.4,3.6-2.1,5.4l-1.9-2c0.7-0.3,1.6-0.6,2.3-1c0.8-0.4,1.6-0.8,2.3-1.1
						c0.8-0.4,1.5-0.8,2.3-1.2l2.2-1.3l2.2-1.4l2.1-1.5l2.1-1.6c0.7-0.5,1.4-1.1,2-1.6c0.7-0.6,1.3-1.1,2-1.7l1.9-1.8l1.8-1.9
						c0.6-0.6,1.2-1.3,1.8-1.9c0.6-0.7,1.2-1.3,1.7-2l1.6-2.1c0.6-0.7,1-1.4,1.5-2.2l1.5-2.2l-1.1,2.4c-0.4,0.8-0.8,1.6-1.2,2.4
						l-1.4,2.3c-0.5,0.8-1,1.5-1.5,2.2s-1,1.5-1.6,2.2l-1.7,2.1c-0.6,0.7-1.2,1.3-1.8,2c-0.6,0.7-1.3,1.3-1.9,1.9
						c-0.7,0.6-1.3,1.3-2,1.8c-0.7,0.6-1.4,1.2-2.1,1.7l-2.2,1.6l-2.2,1.5c-0.8,0.5-1.5,1-2.3,1.5s-1.6,0.9-2.4,1.3
						c-0.8,0.4-1.6,0.8-2.4,1.2s-1.6,0.8-2.5,1.1l-3.1,1.2l1.2-3.2c0.6-1.7,1.3-3.5,2-5.2l1.8-5.4c0.6-1.8,1.1-3.6,1.7-5.4l1.7-5.4
						l3.3-10.9l1.7-5.4C1193.6,806,1194.2,804.2,1194.7,802.4z"/>
				</g>
				<g id="XMLID_91_">
					<path fill="#265038" d="M1146.7,966.2c-0.8,4.1-1.6,8.3-2.5,12.4c-0.4,2.1-0.9,4.1-1.3,6.2l-1.4,6.2c-0.9,4.1-1.8,8.2-2.8,12.3
						s-1.9,8.2-3,12.3l-2-1.7c1.2-0.5,2.4-1.1,3.6-1.7c1.2-0.6,2.4-1.2,3.6-1.9c2.4-1.2,4.8-2.5,7.1-3.9c1.2-0.7,2.3-1.4,3.5-2.1
						c1.2-0.7,2.3-1.4,3.4-2.2c1.1-0.7,2.3-1.5,3.4-2.3s2.2-1.6,3.3-2.4c1.1-0.8,2.2-1.6,3.2-2.5c1.1-0.8,2.1-1.7,3.1-2.6
						c1-0.9,2-1.8,3-2.8c0.5-0.5,1-1,1.4-1.4c0.5-0.5,0.9-1,1.4-1.5c0.9-1,1.8-2,2.6-3.1c0.8-1.1,1.6-2.2,2.3-3.3l0.6-0.9l0.5-0.9
						c0.3-0.6,0.7-1.2,0.9-1.8c0.3-0.6,0.6-1.2,0.8-1.9l0.7-1.9l-0.5,2c-0.2,0.7-0.4,1.3-0.6,2s-0.5,1.3-0.8,1.9l-0.4,1l-0.5,0.9
						c-0.6,1.2-1.3,2.4-2.1,3.6l-1.2,1.7c-0.4,0.6-0.8,1.1-1.3,1.7c-3.4,4.4-7.5,8.2-11.8,11.7c-1.1,0.9-2.2,1.7-3.3,2.5
						c-1.1,0.8-2.2,1.6-3.4,2.4c-1.1,0.8-2.3,1.6-3.5,2.3s-2.3,1.5-3.5,2.2c-2.4,1.4-4.8,2.8-7.2,4.1c-1.2,0.6-2.5,1.3-3.7,1.9
						c-1.3,0.6-2.5,1.2-3.8,1.7l-2.7,1.2l0.7-2.9c1-4.1,2.1-8.1,3.2-12.2c1.1-4.1,2.2-8.1,3.3-12.2l1.7-6.1c0.6-2,1.2-4,1.8-6.1
						C1144.1,974.3,1145.4,970.2,1146.7,966.2z"/>
				</g>
				<g id="XMLID_87_">
					<path fill="#265038" d="M1188.4,896.9c-0.2,4-0.5,7.9-0.8,11.9l-0.5,5.9c-0.2,2-0.4,3.9-0.6,5.9s-0.4,3.9-0.6,5.9l-0.7,5.9
						c-0.4,3.9-1,7.9-1.4,11.8l-2.2-1.5c1.8-1,3.7-2.1,5.5-3.2c1.8-1.1,3.6-2.3,5.4-3.4l2.7-1.8c0.9-0.6,1.8-1.2,2.6-1.8
						c0.9-0.6,1.7-1.3,2.6-1.9c0.8-0.7,1.7-1.3,2.5-2c1.7-1.3,3.3-2.7,4.9-4.2c0.8-0.7,1.6-1.5,2.3-2.2c0.7-0.8,1.5-1.5,2.2-2.3
						c0.4-0.4,0.7-0.8,1-1.2s0.7-0.8,1-1.3c0.6-0.8,1.2-1.7,1.8-2.7l0.8-1.4l0.6-1.5l0.5-1.5l0.4-1.6l-0.1,1.6l-0.3,1.6l-0.5,1.6
						l-0.6,1.5c-0.5,1-1,2-1.5,2.9c-0.3,0.5-0.6,0.9-0.9,1.4s-0.6,0.9-0.9,1.4c-0.6,0.9-1.3,1.7-2,2.6c-0.7,0.8-1.4,1.7-2.2,2.4
						c-0.7,0.8-1.5,1.6-2.3,2.3s-1.6,1.5-2.4,2.2c-1.6,1.5-3.3,2.8-5.1,4.2c-1.7,1.3-3.5,2.6-5.3,3.9c-1.8,1.2-3.6,2.4-5.5,3.6
						c-1.9,1.2-3.7,2.3-5.7,3.3l-2.6,1.4l0.4-2.9c0.6-3.9,1-7.8,1.6-11.8l0.9-5.9c0.3-2,0.6-3.9,0.9-5.9s0.6-3.9,1-5.9l1-5.9
						C1186.9,904.7,1187.6,900.8,1188.4,896.9z"/>
				</g>
				<g id="XMLID_69_">
					<path fill="#265038" d="M1218.3,998.3c0.6,3.6,1.1,7.2,1.6,10.8s0.9,7.2,1.4,10.8c0.4,3.6,0.9,7.2,1.2,10.8
						c0.4,3.6,0.8,7.2,1.1,10.8l-2.3-1c1-0.8,2.1-1.6,3.1-2.5c1-0.8,2-1.7,3-2.6c2-1.8,3.9-3.5,5.8-5.4c1.9-1.8,3.7-3.8,5.5-5.7
						c1.8-1.9,3.5-3.9,5.2-6c0.8-1,1.6-2.1,2.4-3.1c0.8-1.1,1.6-2.1,2.3-3.2c0.8-1.1,1.5-2.2,2.2-3.3l1-1.7l1-1.7
						c0.3-0.6,0.6-1.2,0.9-1.7c0.3-0.6,0.6-1.2,0.9-1.8s0.6-1.2,0.8-1.8l0.8-1.8c0.3-0.6,0.5-1.2,0.7-1.9c0.2-0.6,0.4-1.3,0.6-1.9
						c0.4-1.3,0.7-2.6,1-3.9c-0.1,1.3-0.2,2.7-0.5,4c-0.1,0.7-0.2,1.3-0.4,2c-0.2,0.7-0.3,1.3-0.5,2l-0.6,1.9
						c-0.2,0.6-0.5,1.3-0.7,1.9c-0.5,1.3-1,2.5-1.6,3.7l-0.9,1.8l-0.9,1.8c-0.6,1.2-1.3,2.4-2,3.5c-0.7,1.2-1.4,2.3-2.2,3.4
						c-0.8,1.1-1.5,2.2-2.4,3.3c-1.6,2.2-3.3,4.2-5.1,6.3c-0.9,1-1.8,2-2.7,3c-0.9,1-1.9,1.9-2.8,2.9c-1.9,1.9-3.9,3.8-5.9,5.5
						c-1,0.9-2,1.8-3.1,2.6c-1.1,0.9-2.1,1.7-3.2,2.5l-2.1,1.6l-0.2-2.6c-0.3-3.6-0.6-7.2-0.8-10.9c-0.3-3.6-0.5-7.3-0.7-10.9
						c-0.2-3.6-0.4-7.3-0.6-10.9C1218.5,1005.6,1218.4,1001.9,1218.3,998.3z"/>
				</g>
			</g>
		</g>
		<g id="XMLID_19_">
			<path id="XMLID_66_" fill="#396C3A" d="M1729.2,958.5c0,0-23.1,71.2-71.9,122.8h263.5c-46.2-50.5-65.8-115-65.8-115
				c20.4,5.6,29-10,29-10c-42.9-59-59.6-119.7-59.6-119.7c13.7,1.2,17.7-3.8,17.7-3.8c-31.4-25-50-67.2-50-67.2
				c-0.8-2.1-1.6,0-1.6,0s-23.2,44.7-57.8,70.4c0,0,7,9.9,20.6,6.3c0,0-11.7,54.9-54.6,114C1698.6,956.3,1706.9,968.6,1729.2,958.5z
				"/>
			<g id="XMLID_53_">
				<g id="XMLID_63_">
					<path fill="#265038" d="M1772.7,836.2c-0.2,1.4-0.5,2.7-0.8,4.1c-0.3,1.4-0.6,2.7-0.9,4s-0.7,2.7-1,4s-0.8,2.6-1.1,4l-1.5-1.8
						c0.6-0.1,1.2-0.3,1.8-0.4c0.6-0.1,1.2-0.3,1.8-0.4c1.2-0.3,2.3-0.7,3.5-1.1c1.2-0.4,2.3-0.8,3.4-1.3s2.2-0.9,3.3-1.5
						c0.5-0.3,1.1-0.6,1.6-0.9c0.5-0.3,1-0.6,1.6-0.9c0.5-0.3,1-0.7,1.5-1c0.5-0.4,1-0.7,1.4-1.1c0.4-0.4,0.9-0.8,1.3-1.2
						s0.8-0.9,1.2-1.4c0.4-0.5,0.8-1,1.1-1.5c0.4-0.5,0.6-1.1,1-1.6c-0.1,0.6-0.2,1.3-0.5,1.9c-0.2,0.6-0.4,1.2-0.7,1.8
						c-0.3,0.6-0.6,1.2-1,1.7c-0.3,0.6-0.8,1.1-1.2,1.6c-0.4,0.5-0.9,1-1.3,1.5c-0.5,0.5-1,0.9-1.5,1.3c-0.5,0.4-1,0.8-1.6,1.2
						c-0.5,0.4-1.1,0.7-1.7,1.1c-2.2,1.4-4.6,2.4-7.1,3.3c-1.2,0.4-2.5,0.8-3.7,1.1c-0.6,0.2-1.3,0.3-1.9,0.4
						c-0.6,0.1-1.3,0.2-2,0.3l-2.3,0.3l0.8-2.1c0.5-1.3,0.9-2.6,1.5-3.9c0.5-1.3,1-2.6,1.6-3.8c0.5-1.3,1.1-2.5,1.7-3.8
						C1771.5,838.7,1772.1,837.4,1772.7,836.2z"/>
				</g>
				<g id="XMLID_60_">
					<path fill="#265038" d="M1756.4,940.2c-0.6,3-1.3,6.1-2,9.1s-1.4,6-2.2,9c-0.8,3-1.5,6-2.3,9s-1.6,6-2.4,8.9l-1.3-1.8
						c1.1,0,2.2,0,3.3-0.1c1.1-0.1,2.3-0.2,3.4-0.3c2.2-0.3,4.5-0.7,6.7-1.2c1.1-0.2,2.2-0.5,3.3-0.8c1.1-0.3,2.2-0.7,3.2-1
						c1.1-0.4,2.1-0.8,3.2-1.2c1-0.4,2.1-0.9,3.1-1.4s2-1,3-1.6s1.9-1.2,2.9-1.8s1.8-1.3,2.7-2c0.9-0.7,1.7-1.4,2.5-2.2
						s1.6-1.6,2.4-2.5c0.7-0.9,1.5-1.7,2.1-2.7l1-1.4l0.9-1.5c0.6-1,1.2-2,1.7-3c-0.4,1.1-0.8,2.2-1.3,3.3l-0.7,1.6
						c-0.3,0.5-0.6,1-0.8,1.5c-0.6,1-1.3,2-1.9,3c-0.7,0.9-1.4,1.9-2.2,2.8c-0.8,0.9-1.6,1.7-2.5,2.6c-0.9,0.8-1.8,1.6-2.7,2.3
						c-0.9,0.8-1.9,1.4-2.9,2.1c-1,0.6-2,1.3-3.1,1.8c-1,0.6-2.1,1.1-3.2,1.6s-2.2,0.9-3.3,1.4c-2.2,0.8-4.5,1.5-6.8,2s-4.6,1-7,1.2
						c-1.2,0.1-2.4,0.2-3.5,0.3c-1.2,0.1-2.4,0.1-3.6,0.1h-1.9l0.5-1.8c0.9-3,1.8-5.9,2.7-8.8c0.9-2.9,1.9-5.9,2.8-8.8
						c1-2.9,1.9-5.9,3-8.8C1754.3,946,1755.3,943.1,1756.4,940.2z"/>
				</g>
				<g id="XMLID_57_">
					<path fill="#265038" d="M1746.1,1037.9c-0.7,3.4-1.4,6.9-2.2,10.3c-0.4,1.7-0.8,3.4-1.2,5.1c-0.4,1.7-0.8,3.4-1.2,5.1
						c-0.9,3.4-1.7,6.8-2.6,10.2c-0.9,3.4-1.8,6.8-2.7,10.1l-1.7-1.8c1.1-0.2,2.2-0.5,3.2-0.8l3.2-0.9c2.2-0.6,4.3-1.2,6.4-1.9
						c2.1-0.7,4.2-1.5,6.3-2.2c1-0.4,2.1-0.8,3.1-1.2c1-0.4,2-0.9,3-1.4s2-1,3-1.5s1.9-1,2.9-1.6s1.9-1.2,2.8-1.8l1.3-1
						c0.4-0.3,0.9-0.7,1.3-1s0.8-0.7,1.2-1.1c0.4-0.4,0.8-0.8,1.2-1.2c0.4-0.4,0.8-0.8,1.1-1.2c0.3-0.4,0.7-0.9,1-1.3
						c0.6-0.9,1.2-1.9,1.6-2.9c0.2-0.5,0.4-1,0.6-1.6l0.4-1.6l-0.2,1.7c-0.1,0.6-0.2,1.1-0.4,1.7c-0.3,1.1-0.7,2.2-1.3,3.2
						c-0.2,0.5-0.6,1-0.9,1.5s-0.6,1-1,1.4c-0.3,0.5-0.7,0.9-1.1,1.3s-0.8,0.9-1.2,1.3c-0.4,0.4-0.8,0.8-1.3,1.2l-1.3,1.1
						c-0.9,0.7-1.8,1.4-2.8,2.1c-0.9,0.7-1.9,1.3-2.9,1.9s-2,1.2-3,1.7s-2,1-3.1,1.5c-1,0.5-2.1,1-3.1,1.4c-1.1,0.4-2.1,0.9-3.2,1.3
						s-2.1,0.8-3.2,1.2c-2.2,0.7-4.3,1.4-6.5,2c-1.1,0.3-2.2,0.6-3.3,0.9c-1.1,0.3-2.2,0.5-3.4,0.8l-2.3,0.5l0.7-2.3
						c1-3.4,2-6.7,3-10.1c1-3.3,2-6.7,3.1-10c0.5-1.7,1.1-3.3,1.6-5s1.1-3.3,1.6-5C1743.8,1044.5,1744.9,1041.2,1746.1,1037.9z"/>
				</g>
				<g id="XMLID_54_">
					<path fill="#265038" d="M1746.1,900.7c-0.7,2.8-1.4,5.5-2.2,8.2c-0.4,1.4-0.8,2.7-1.2,4.1c-0.4,1.4-0.8,2.7-1.2,4.1
						c-0.8,2.7-1.7,5.4-2.6,8.1c-0.9,2.7-1.8,5.4-2.7,8l-1.9-1.9c1.5-0.6,3.1-1.2,4.6-1.8s3.1-1.2,4.6-1.9s3-1.3,4.5-2
						s3-1.4,4.5-2.2c1.5-0.7,2.9-1.5,4.4-2.3c1.4-0.8,2.8-1.7,4.2-2.6c0.7-0.5,1.3-1,2-1.5c0.6-0.5,1.2-1.1,1.8-1.6
						c0.6-0.6,1.1-1.2,1.6-1.9s0.9-1.4,1.2-2.2c-0.1,0.8-0.4,1.7-0.7,2.4c-0.4,0.8-0.8,1.5-1.3,2.2s-1.1,1.3-1.7,2
						c-0.6,0.6-1.2,1.2-1.8,1.8c-1.3,1.1-2.6,2.2-4,3.1c-1.4,1-2.8,1.9-4.3,2.7c-1.5,0.9-3,1.7-4.4,2.4c-1.5,0.8-3,1.5-4.6,2.2
						c-1.5,0.7-3.1,1.4-4.6,2c-1.6,0.7-3.1,1.2-4.7,1.8l-2.9,1l1.1-2.9c1-2.7,1.9-5.3,3-8c1-2.7,2-5.3,3.1-7.9
						c0.5-1.3,1.1-2.6,1.6-3.9c0.6-1.3,1.1-2.6,1.6-3.9C1743.8,905.9,1744.9,903.3,1746.1,900.7z"/>
				</g>
			</g>
		</g>
	</g>
	<path id="XMLID_2_" fill="#1F4929" d="M1919.6,1085h-168.5c47.2-18.2,60.9-105.2,60.9-105.2c-22,12.9-45.1,0-45.1,0
		c58-51.5,82.1-131.2,82.1-131.2c-20.4,5.6-29-10-29-10c42.9-59,59.6-119.7,59.6-119.7c-13.7,1.2-17.7-3.8-17.7-3.8
		c31.4-25,50-67.2,50-67.2c0.8-2.1,1.6,0,1.6,0s2.1,4,6,10.4L1919.6,1085L1919.6,1085z"/>
</g>
<g id="Layer_2">
</g>
</svg>
