<?xml version="1.0" encoding="utf-8"?>
<!-- Generator: Adobe Illustrator 21.0.0, SVG Export Plug-In . SVG Version: 6.00 Build 0)  -->
<svg version="1.1" id="Слой_1" xmlns="http://www.w3.org/2000/svg" xmlns:xlink="http://www.w3.org/1999/xlink" x="0px" y="0px"
	 viewBox="0 0 25.7 40.6" style="enable-background:new 0 0 25.7 40.6;" xml:space="preserve">
<style type="text/css">
	.st0{fill:#707070;}
</style>
<path class="st0" d="M25.7,12.7c0,4.9-3.8,9.7-6.3,13.4c-5.3,7.7-6.1,14.1-6.1,14.1c-0.1,0.5-0.6,0.5-0.7,0c0,0-1-6.5-6.2-14.1
	C2,20,0,17.6,0,12.7C0,5.6,5.6,0,12.8,0C19.8,0,25.7,5.6,25.7,12.7z M12.9,18c2.8,0,4.9-2.3,4.9-5s-2.1-4.9-4.9-4.9
	c-2.6,0-4.8,2.1-4.8,4.9S10.3,18,12.9,18z"/>
</svg>
