<?xml version="1.0" encoding="utf-8"?>
<!-- Generator: Adobe Illustrator 19.0.0, SVG Export Plug-In . SVG Version: 6.00 Build 0)  -->
<svg version="1.1" id="Layer_1" xmlns="http://www.w3.org/2000/svg" xmlns:xlink="http://www.w3.org/1999/xlink" x="0px" y="0px"
	 viewBox="0 0 100 100" style="enable-background:new 0 0 100 100;" xml:space="preserve">
<style type="text/css">
	.st0{fill:#E5E5E6;}
	.st1{fill:url(#XMLID_3_);}
	.st2{fill:#DA7656;}
	.st3{fill:#E5A188;}
	.st4{fill:#FFFFFF;}
	.st5{fill:#606162;}
</style>
<g id="XMLID_1_">
	<g id="XMLID_56_">
		<ellipse id="XMLID_47_" class="st0" cx="49.4" cy="67.9" rx="9.5" ry="9.5"/>
		<path id="XMLID_68_" class="st0" d="M50.1,64.4h-1.4c-1.4,0-2.5-1.1-2.5-2.5V24.9c0-1.4,1.1-2.5,2.5-2.5h1.4
			c1.4,0,2.5,1.1,2.5,2.5v37.1C52.6,63.3,51.5,64.4,50.1,64.4z"/>
	</g>
	
		<radialGradient id="XMLID_3_" cx="40.8723" cy="64.5784" r="21.3792" fx="32.023" fy="69.4559" gradientTransform="matrix(-0.1579 0.986 -0.8887 -0.1419 104.7188 33.4284)" gradientUnits="userSpaceOnUse">
		<stop  offset="0.3228" style="stop-color:#DA7656"/>
		<stop  offset="0.5576" style="stop-color:#DA7858"/>
		<stop  offset="0.6422" style="stop-color:#DC7E5F"/>
		<stop  offset="0.7023" style="stop-color:#DF886A"/>
		<stop  offset="0.7507" style="stop-color:#E2967B"/>
		<stop  offset="0.7571" style="stop-color:#E3997E"/>
		<stop  offset="0.7703" style="stop-color:#E49E85"/>
		<stop  offset="0.7741" style="stop-color:#E5A188"/>
		<stop  offset="0.8551" style="stop-color:#E5A188"/>
	</radialGradient>
	<ellipse id="XMLID_88_" class="st1" cx="49.3" cy="68" rx="8.5" ry="8.4"/>
	<path id="XMLID_71_" class="st2" d="M49.9,66.5h-1c-0.9,0-1.5-0.7-1.5-1.5V42.1h4.1V65C51.4,65.8,50.7,66.5,49.9,66.5z"/>
	<rect id="XMLID_66_" x="50" y="42.1" class="st3" width="1.4" height="16.2"/>
	<circle id="XMLID_70_" class="st4" cx="45.7" cy="65.9" r="2.1"/>
	<g id="XMLID_90_">
		<g id="XMLID_89_">
			<rect id="XMLID_82_" x="46.1" y="28.2" class="st5" width="0.7" height="0.5"/>
			<path id="XMLID_87_" class="st5" d="M48.1,28.6h-1.6c-0.1,0-0.2-0.1-0.2-0.2l0,0c0-0.1,0.1-0.2,0.2-0.2h1.6
				c0.1,0,0.2,0.1,0.2,0.2l0,0C48.3,28.5,48.2,28.6,48.1,28.6z"/>
		</g>
		<g id="XMLID_116_">
			<rect id="XMLID_122_" x="46.1" y="30.5" class="st5" width="0.4" height="0.5"/>
			<path id="XMLID_119_" class="st5" d="M47.1,30.9h-0.6c-0.1,0-0.2-0.1-0.2-0.2l0,0c0-0.1,0.1-0.2,0.2-0.2h0.6
				c0.1,0,0.2,0.1,0.2,0.2l0,0C47.3,30.8,47.2,30.9,47.1,30.9z"/>
		</g>
		<g id="XMLID_129_">
			<rect id="XMLID_136_" x="46.1" y="35.1" class="st5" width="0.4" height="0.5"/>
			<path id="XMLID_133_" class="st5" d="M47.1,35.6h-0.6c-0.1,0-0.2-0.1-0.2-0.2v0c0-0.1,0.1-0.2,0.2-0.2h0.6c0.1,0,0.2,0.1,0.2,0.2
				v0C47.3,35.5,47.2,35.6,47.1,35.6z"/>
		</g>
		<g id="XMLID_120_">
			<rect id="XMLID_125_" x="46.1" y="32.8" class="st5" width="0.4" height="0.5"/>
			<path id="XMLID_121_" class="st5" d="M47.1,33.2h-0.6c-0.1,0-0.2-0.1-0.2-0.2v0c0-0.1,0.1-0.2,0.2-0.2h0.6c0.1,0,0.2,0.1,0.2,0.2
				v0C47.3,33.1,47.2,33.2,47.1,33.2z"/>
		</g>
		<g id="XMLID_171_">
			<rect id="XMLID_175_" x="46.1" y="39.7" class="st5" width="0.4" height="0.5"/>
			<path id="XMLID_172_" class="st5" d="M47.1,40.2h-0.6c-0.1,0-0.2-0.1-0.2-0.2l0,0c0-0.1,0.1-0.2,0.2-0.2h0.6
				c0.1,0,0.2,0.1,0.2,0.2l0,0C47.3,40.1,47.2,40.2,47.1,40.2z"/>
		</g>
		<g id="XMLID_164_">
			<rect id="XMLID_168_" x="46.1" y="44.4" class="st5" width="0.4" height="0.5"/>
			<path id="XMLID_165_" class="st5" d="M47.1,44.8h-0.6c-0.1,0-0.2-0.1-0.2-0.2l0,0c0-0.1,0.1-0.2,0.2-0.2h0.6
				c0.1,0,0.2,0.1,0.2,0.2l0,0C47.3,44.7,47.2,44.8,47.1,44.8z"/>
		</g>
		<g id="XMLID_154_">
			<rect id="XMLID_161_" x="46.1" y="42.1" class="st5" width="0.4" height="0.5"/>
			<path id="XMLID_155_" class="st5" d="M47.1,42.5h-0.6c-0.1,0-0.2-0.1-0.2-0.2l0,0c0-0.1,0.1-0.2,0.2-0.2h0.6
				c0.1,0,0.2,0.1,0.2,0.2l0,0C47.3,42.4,47.2,42.5,47.1,42.5z"/>
		</g>
		<g id="XMLID_209_">
			<rect id="XMLID_213_" x="46.1" y="49" class="st5" width="0.4" height="0.5"/>
			<path id="XMLID_210_" class="st5" d="M47.1,49.5h-0.6c-0.1,0-0.2-0.1-0.2-0.2l0,0c0-0.1,0.1-0.2,0.2-0.2h0.6
				c0.1,0,0.2,0.1,0.2,0.2l0,0C47.3,49.4,47.2,49.5,47.1,49.5z"/>
		</g>
		<g id="XMLID_202_">
			<rect id="XMLID_206_" x="46.1" y="53.6" class="st5" width="0.4" height="0.5"/>
			<path id="XMLID_203_" class="st5" d="M47.1,54.1h-0.6c-0.1,0-0.2-0.1-0.2-0.2l0,0c0-0.1,0.1-0.2,0.2-0.2h0.6
				c0.1,0,0.2,0.1,0.2,0.2l0,0C47.3,54,47.2,54.1,47.1,54.1z"/>
		</g>
		<g id="XMLID_195_">
			<rect id="XMLID_199_" x="46.1" y="51.3" class="st5" width="0.4" height="0.5"/>
			<path id="XMLID_196_" class="st5" d="M47.1,51.8h-0.6c-0.1,0-0.2-0.1-0.2-0.2l0,0c0-0.1,0.1-0.2,0.2-0.2h0.6
				c0.1,0,0.2,0.1,0.2,0.2l0,0C47.3,51.7,47.2,51.8,47.1,51.8z"/>
		</g>
		<g id="XMLID_98_">
			<rect id="XMLID_105_" x="46.1" y="37.4" class="st5" width="0.7" height="0.5"/>
			<path id="XMLID_101_" class="st5" d="M48.1,37.9h-1.6c-0.1,0-0.2-0.1-0.2-0.2l0,0c0-0.1,0.1-0.2,0.2-0.2h1.6
				c0.1,0,0.2,0.1,0.2,0.2l0,0C48.3,37.8,48.2,37.9,48.1,37.9z"/>
		</g>
		<g id="XMLID_139_">
			<rect id="XMLID_143_" x="46.1" y="46.7" class="st5" width="0.7" height="0.5"/>
			<path id="XMLID_140_" class="st5" d="M48.1,47.2h-1.6c-0.1,0-0.2-0.1-0.2-0.2l0,0c0-0.1,0.1-0.2,0.2-0.2h1.6
				c0.1,0,0.2,0.1,0.2,0.2l0,0C48.3,47,48.2,47.2,48.1,47.2z"/>
		</g>
		<g id="XMLID_146_">
			<rect id="XMLID_150_" x="46.1" y="56" class="st5" width="0.7" height="0.5"/>
			<path id="XMLID_147_" class="st5" d="M48.1,56.4h-1.6c-0.1,0-0.2-0.1-0.2-0.2l0,0c0-0.1,0.1-0.2,0.2-0.2h1.6
				c0.1,0,0.2,0.1,0.2,0.2l0,0C48.3,56.3,48.2,56.4,48.1,56.4z"/>
		</g>
	</g>
</g>
</svg>
