<?xml version="1.0" encoding="utf-8"?>
<!-- Generator: Adobe Illustrator 19.0.0, SVG Export Plug-In . SVG Version: 6.00 Build 0)  -->
<svg version="1.1" id="Layer_1" xmlns="http://www.w3.org/2000/svg" xmlns:xlink="http://www.w3.org/1999/xlink" x="0px" y="0px"
	 viewBox="0 0 100 100" style="enable-background:new 0 0 100 100;" xml:space="preserve">
<style type="text/css">
	.st0{fill:none;stroke:#BEBEBE;stroke-miterlimit:10;}
	.st1{fill:#404546;}
	.st2{fill:#FFFFFD;}
</style>
<path id="XMLID_10_" class="st0" d="M38.7,26.6c3.1-1.8,6.7-2.9,10.6-2.9c1.5,0,3,0.2,4.4,0.5"/>
<path id="XMLID_11_" class="st0" d="M41.4,29.9c2.3-1.3,4.9-2.1,7.7-2.1c1.1,0,2.2,0.1,3.2,0.3"/>
<path id="XMLID_13_" class="st0" d="M70.5,47.1c-0.4,3.6-1.6,7.2-3.9,10.4c-0.9,1.3-1.9,2.4-3,3.4"/>
<path id="XMLID_12_" class="st0" d="M66.2,47.4C66,50,65,52.7,63.4,55c-0.7,0.9-1.4,1.7-2.2,2.5"/>
<path id="XMLID_17_" class="st0" d="M40,63.5c-3.2-1.7-6-4.3-8-7.7c-0.8-1.3-1.4-2.7-1.9-4.1"/>
<path id="XMLID_16_" class="st0" d="M41.4,59.4c-2.3-1.3-4.3-3.1-5.8-5.6c-0.6-1-1-2-1.4-3"/>
<polygon id="XMLID_2_" class="st1" points="51.3,76.1 48,76.1 48.8,44.2 50.4,44.2 "/>
<path id="XMLID_4_" class="st1" d="M53.5,45.7c-0.5,2.2-2.6,3.5-4.8,3c-2.1-0.5-3.5-2.7-3-4.8c0.5-2.2,2.6-3.5,4.8-3
	S54,43.6,53.5,45.7z"/>
<polygon id="XMLID_6_" class="st1" points="53.3,22.6 55.1,23 50.2,44.6 49.2,44.4 49.9,38.8 48.2,37.1 "/>
<polygon id="XMLID_14_" class="st1" points="65,61.5 63.7,62.7 49.3,46 50.1,45.3 54.1,49.2 56.5,48.7 "/>
<polygon id="XMLID_18_" class="st1" points="29,52.9 28.5,51.1 49.2,44.2 49.5,45.1 44.4,47.4 43.9,49.8 "/>
<path id="XMLID_3_" class="st1" d="M62,77.6H37.2c-0.4,0-0.8-0.4-0.8-0.8v0c0-0.4,0.4-0.8,0.8-0.8H62c0.4,0,0.8,0.4,0.8,0.8v0
	C62.9,77.3,62.5,77.6,62,77.6z"/>
<path id="XMLID_7_" class="st2" d="M50.9,45.3c-0.2,0.7-0.8,1.1-1.5,1c-0.7-0.2-1.1-0.9-1-1.6c0.2-0.7,0.8-1.1,1.5-1
	C50.6,43.9,51,44.6,50.9,45.3z"/>
</svg>
