<?xml version="1.0" encoding="utf-8"?>
<!-- Generator: Adobe Illustrator 21.0.0, SVG Export Plug-In . SVG Version: 6.00 Build 0)  -->
<svg version="1.1" id="clearNightIcon" xmlns="http://www.w3.org/2000/svg" xmlns:xlink="http://www.w3.org/1999/xlink" x="0px"
	 y="0px" viewBox="0 0 58.3 41.7" style="enable-background:new 0 0 58.3 41.7;" xml:space="preserve">
<style type="text/css">
	.st0{fill:#F1E5A1;}
	.st1{fill:#F5EEBC;}
	.st2{fill:#DBD093;}
	.st3{fill:#FFFFFF;}
</style>
<g id="moon">
	<circle class="st0" cx="26.1" cy="21.7" r="20"/>
	<path class="st1" d="M6.2,21.7c0,6.5,3.1,12.2,7.9,15.9c1.5,0.3,3,0.5,4.6,0.5c11,0,20-8.9,20-20c0-6.5-3.1-12.2-7.9-15.9
		c-1.5-0.3-3-0.5-4.6-0.5C15.1,1.7,6.2,10.7,6.2,21.7z"/>
	<circle class="st2" cx="19.9" cy="12.1" r="2.7"/>
	<circle class="st2" cx="13.7" cy="21.7" r="3.8"/>
	<circle class="st2" cx="23.4" cy="21.7" r="2"/>
</g>
<g id="stars">
	<path id="star6" class="st3" d="M5,10.5c-1.3,0.2-1.4,0.3-1.5,1.5c-0.2-1.3-0.3-1.4-1.5-1.5c1.3-0.2,1.4-0.3,1.5-1.5
		C3.6,10.2,3.7,10.4,5,10.5z"/>
	<path id="star5" class="st3" d="M49.2,12.1c-1.3,0.2-1.4,0.3-1.5,1.5c-0.2-1.3-0.3-1.4-1.5-1.5c1.3-0.2,1.4-0.3,1.5-1.5
		C47.8,11.8,47.9,11.9,49.2,12.1z"/>
	<path id="star4" class="st3" d="M54.5,19.7c-1.6,0.2-1.8,0.4-2,2c-0.2-1.6-0.4-1.8-2-2c1.6-0.2,1.8-0.4,2-2
		C52.7,19.4,52.9,19.5,54.5,19.7z"/>
	<path id="star3" class="st3" d="M58.3,12.4c-2.1,0.3-2.3,0.5-2.6,2.6c-0.3-2.1-0.5-2.3-2.6-2.6c2.1-0.3,2.3-0.5,2.6-2.6
		C56,11.9,56.2,12.1,58.3,12.4z"/>
	<path id="star2" class="st3" d="M12.1,2c-1.6,0.2-1.8,0.4-2,2c-0.2-1.6-0.4-1.8-2-2c1.6-0.2,1.8-0.4,2-2C10.3,1.6,10.5,1.8,12.1,2z
		"/>
	<path id="star1" class="st3" d="M4,4C2.4,4.2,2.2,4.4,2,6C1.8,4.4,1.6,4.2,0,4c1.6-0.2,1.8-0.4,2-2C2.1,3.6,2.3,3.8,4,4z"/>
</g>
</svg>
