<?xml version="1.0" encoding="utf-8"?>
<!-- Generator: Adobe Illustrator 19.0.0, SVG Export Plug-In . SVG Version: 6.00 Build 0)  -->
<svg version="1.1" id="Layer_1" xmlns="http://www.w3.org/2000/svg" xmlns:xlink="http://www.w3.org/1999/xlink" x="0px" y="0px"
	 viewBox="0 0 100 100" style="enable-background:new 0 0 100 100;" xml:space="preserve">
<style type="text/css">
	.st0{fill:url(#XMLID_2_);}
	.st1{fill:#FFFFFF;stroke:#D0D1D3;stroke-miterlimit:10;}
	.st2{fill:#FFFFFF;}
	.st3{fill:#D0D1D3;}
</style>
<radialGradient id="XMLID_2_" cx="55.3982" cy="52.1016" r="27.5356" gradientTransform="matrix(0.9987 0 0 0.9927 -0.1478 -0.9756)" gradientUnits="userSpaceOnUse">
	<stop  offset="0.6731" style="stop-color:#EEB844"/>
	<stop  offset="0.7874" style="stop-color:#F7D36F"/>
	<stop  offset="0.8573" style="stop-color:#F7D471"/>
	<stop  offset="0.8825" style="stop-color:#F8D678"/>
	<stop  offset="0.9004" style="stop-color:#F8D983"/>
	<stop  offset="0.9148" style="stop-color:#FADE94"/>
	<stop  offset="0.9192" style="stop-color:#FAE09B"/>
</radialGradient>
<ellipse id="XMLID_31_" class="st0" cx="55.2" cy="50.7" rx="27.5" ry="27.3"/>
<g id="XMLID_440_">
	<path id="XMLID_760_" class="st1" d="M45.8,62.1c0,0-0.1,0-0.1,0c-1.2-3.1-4.2-5.2-7.8-5.2c-0.5,0-1.1,0.1-1.6,0.2
		c0-6.2-5.1-11.2-11.3-11.2c-6,0-10.9,4.6-11.3,10.5c-0.2,0-0.4,0-0.6,0c-6.2,0-11.3,5-11.3,11.2c0,5.3,3.8,10.1,8.8,11.2
		c0.6,0.2,35.1,0.1,35.2,0.1c4.6,0,8.4-3.8,8.4-8.4C54.2,65.9,50.4,62.1,45.8,62.1z"/>
	<g id="XMLID_638_">
		<path id="XMLID_41_" class="st2" d="M45.1,62.1c0,0-0.1,0-0.1,0c-1.2-3.1-4.2-5.2-7.8-5.2c-0.5,0-1.1,0.1-1.6,0.2
			c0-6.2-5.1-11.2-11.3-11.2c-6,0-10.9,4.6-11.3,10.5c-0.2,0-0.4,0-0.6,0c-6.2,0-11.3,5-11.3,11.2c0,5.3,3.8,10.1,8.8,11.2
			c0.6,0.2,35.1,0.1,35.2,0.1c4.6,0,8.4-3.8,8.4-8.4C53.5,65.9,49.7,62.1,45.1,62.1z"/>
		<g id="XMLID_37_">
			<path id="XMLID_38_" class="st3" d="M45.1,62.2l-0.1,0l-0.1,0l0-0.1c-0.4-0.9-0.9-1.7-1.5-2.4C42.7,59,42,58.4,41.1,58
				c-0.4-0.2-0.9-0.4-1.3-0.5c-0.4-0.1-0.9-0.2-1.4-0.3c-0.2,0-0.5,0-0.7,0c-0.2,0-0.5,0-0.7,0l-1.4,0.2l-0.4,0.1l0-0.4l-0.1-1
				c-0.1-0.3-0.1-0.7-0.2-1c-0.2-0.7-0.4-1.3-0.7-1.9c-0.3-0.6-0.6-1.2-1-1.8c-0.4-0.5-0.9-1.1-1.3-1.5c-0.5-0.5-1-0.9-1.6-1.2
				c-0.6-0.4-1.2-0.7-1.8-0.9c-0.6-0.3-1.3-0.5-1.9-0.6c-0.7-0.1-1.3-0.2-2-0.2l-0.2,0l-0.1,0c0.1,0,0,0,0,0l-0.1,0l-0.5,0
				c-0.4,0-0.7,0.1-1,0.1c-0.6,0.1-1.3,0.3-1.9,0.5c-1.3,0.4-2.4,1.1-3.5,2c-0.5,0.4-1,0.9-1.4,1.4c-0.2,0.3-0.4,0.5-0.6,0.8
				c-0.2,0.3-0.3,0.6-0.5,0.9l-0.4,0.9l-0.3,1l-0.2,1l-0.2,1l-0.1,0.5l-0.4,0l-0.5,0c-0.1,0-0.3,0-0.5,0c-0.3,0-0.7,0-1,0.1
				c-0.7,0.1-1.3,0.2-2,0.4c-0.6,0.2-1.3,0.5-1.9,0.8l-0.9,0.5l-0.8,0.6l-0.8,0.7L4,60.5l-0.6,0.8l-0.5,0.9
				c-0.3,0.6-0.6,1.2-0.8,1.9c-0.2,0.7-0.3,1.3-0.4,2c-0.1,0.3,0,0.7-0.1,1c0,0.3,0,0.7,0,1c0.1,0.7,0.2,1.3,0.4,2
				c0.2,0.7,0.4,1.3,0.7,1.9c0.3,0.6,0.6,1.2,1,1.7c0.4,0.5,0.8,1,1.3,1.5c0.2,0.2,0.5,0.5,0.7,0.7c0.3,0.2,0.5,0.4,0.8,0.6
				c0.5,0.4,1.1,0.7,1.7,0.9c0.6,0.3,1.2,0.4,1.9,0.6l0.1,0l15.1-0.1c2.6,0,5.1,0,7.7,0c2.6,0,5.1,0,7.7,0l3.8,0l0.5,0l0.1,0
				c-0.1,0,0.1,0,0.1,0l0.2,0l0.5,0l0.4-0.1c0.5-0.1,1.1-0.2,1.6-0.4c1.1-0.4,2.1-1.1,2.9-1.9c0.8-0.8,1.5-1.9,1.8-3
				c0.4-1.1,0.5-2.4,0.3-3.6c-0.2-1.2-0.7-2.4-1.4-3.4c-0.7-1-1.7-1.9-2.8-2.4C47.6,62.5,46.4,62.2,45.1,62.2z M45.1,62
				c2.6,0,5.2,1.2,6.8,3.3c0.8,1,1.5,2.2,1.8,3.5c0.3,1.3,0.3,2.7,0,4c-0.6,2.7-2.5,5.1-5.1,6.2c-0.7,0.3-1.3,0.5-2.1,0.6L46,79.8
				l-0.5,0l-0.2,0l-0.3,0l-0.5,0l-3.8,0.1c-2.6,0-5.1,0.1-7.7,0c-2.6,0-5.1,0-7.7-0.1l-7.7-0.1l-3.8-0.1l-1.9-0.1l-1,0l-0.5,0
				c-0.2,0-0.5,0-0.7-0.1l0.1,0c-0.7-0.2-1.4-0.4-2.1-0.8C7,78.4,6.3,78,5.7,77.6c-0.3-0.2-0.6-0.5-0.9-0.7
				c-0.3-0.2-0.5-0.5-0.8-0.8c-0.5-0.5-0.9-1.1-1.3-1.7c-0.4-0.6-0.7-1.3-1-1.9c-0.3-0.7-0.5-1.4-0.6-2.1c-0.1-0.7-0.3-1.5-0.3-2.2
				c0-0.3,0-0.7,0-1.1c0-0.4,0-0.7,0.1-1.1c0.1-0.7,0.3-1.4,0.5-2.1c0.1-0.3,0.2-0.7,0.4-1c0.2-0.3,0.3-0.7,0.5-1L2.9,61l0.7-0.9
				l0.7-0.8l0.8-0.7l0.9-0.7l0.9-0.6c0.6-0.3,1.3-0.7,2-0.9c0.7-0.2,1.4-0.4,2.1-0.5c0.4-0.1,0.7-0.1,1.1-0.1c0.2,0,0.3,0,0.6,0
				l0.5,0l-0.5,0.5l0.1-1.1l0.2-1.1l0.3-1.1l0.4-1.1c0.2-0.3,0.3-0.7,0.5-1c0.2-0.3,0.4-0.7,0.6-1c0.4-0.6,0.9-1.2,1.5-1.7
				c1.1-1.1,2.4-1.9,3.9-2.5c0.7-0.3,1.5-0.5,2.3-0.6c0.4-0.1,0.8-0.1,1.2-0.1l0.5,0l0.1,0l0.1,0l0.1,0l0.3,0c1.6,0,3.1,0.4,4.5,1.1
				c0.7,0.3,1.4,0.7,2,1.2c0.6,0.5,1.2,1,1.7,1.5c0.5,0.6,1,1.2,1.4,1.8c0.4,0.7,0.7,1.3,1,2.1c0.3,0.7,0.4,1.4,0.6,2.2
				c0,0.4,0.1,0.7,0.1,1.1l0,1.1l-0.4-0.4l1.4-0.1c0.3,0,0.5,0,0.8,0c0.2,0,0.5,0.1,0.7,0.1c0.5,0.1,1,0.2,1.4,0.4
				c0.5,0.2,0.9,0.4,1.3,0.6c0.9,0.5,1.6,1.1,2.3,1.9C44.2,60.3,44.7,61.1,45.1,62L45,62L45.1,62z"/>
		</g>
	</g>
	<g id="XMLID_441_">
		<path id="XMLID_34_" class="st2" d="M45.1,62.1c0,0-0.1,0-0.1,0c-1.2-3.1-4.2-5.2-7.8-5.2c-0.5,0-1.1,0.1-1.6,0.2
			c0-6.2-5.1-11.2-11.3-11.2c-6,0-10.9,4.6-11.3,10.5c-0.2,0-0.4,0-0.6,0c-6.2,0-11.3,5-11.3,11.2c0,5.3,3.8,10.1,8.8,11.2
			c0.6,0.2,35.1,0.1,35.2,0.1c4.6,0,8.4-3.8,8.4-8.4C53.5,65.9,49.7,62.1,45.1,62.1z"/>
		<g id="XMLID_29_">
			<path id="XMLID_30_" class="st3" d="M45.1,62.2l-0.1,0l-0.1,0l0-0.1c-0.7-1.8-2.1-3.3-3.7-4.1c-0.8-0.4-1.7-0.7-2.7-0.9
				c-0.2,0-0.5-0.1-0.7-0.1c-0.2,0-0.5,0-0.7,0l-1.4,0.2l-0.2,0l0-0.2l-0.1-1.1c0-0.3-0.1-0.7-0.2-1c-0.2-0.7-0.4-1.4-0.7-2
				c-0.3-0.6-0.6-1.3-1-1.8c-0.4-0.6-0.9-1.1-1.4-1.6c-0.5-0.5-1.1-0.9-1.6-1.3c-0.6-0.4-1.2-0.7-1.8-0.9c-1.3-0.5-2.6-0.7-4-0.7
				l-0.3,0l-0.1,0c0.1,0,0,0,0,0l-0.1,0l-0.5,0c-0.4,0-0.7,0.1-1,0.2c-0.6,0.1-1.3,0.3-1.9,0.6c-1.2,0.5-2.4,1.2-3.3,2.2
				c-0.5,0.5-0.9,1-1.3,1.5c-0.2,0.3-0.3,0.6-0.5,0.8c-0.2,0.3-0.3,0.6-0.4,0.9l-0.3,0.9l-0.3,0.9l-0.2,0.9l-0.1,1l-0.1,1.3l-1.3,0
				l-0.5,0l-0.1,0l0,0c-0.1,0,0.1,0,0.1,0l0,0l0,0l-0.1,0l-0.3,0c-0.3,0-0.7,0-1,0.1c-0.5,0.1-1.1,0.3-1.7,0.5
				c-0.6,0.2-1.1,0.5-1.6,0.8L7,59.5l-0.7,0.6l-0.7,0.6L5,61.4l-0.5,0.7l-0.5,0.8c-0.1,0.3-0.2,0.5-0.4,0.8
				c-0.1,0.3-0.2,0.6-0.3,0.8c-0.2,0.6-0.3,1.1-0.4,1.7c-0.1,0.3,0,0.6-0.1,0.9c0,0.1,0,0.4,0,0.4L3,68c0,0.4,0.1,0.6,0.1,0.9
				c0,0.3,0.1,0.6,0.2,0.8c0.1,0.6,0.4,1.1,0.6,1.7C4.1,72,4.4,72.5,4.7,73c0.3,0.5,0.7,1,1.1,1.4C6,74.6,6.2,74.8,6.5,75
				c0.2,0.2,0.5,0.4,0.7,0.6c0.5,0.4,1,0.6,1.5,0.9c0.5,0.2,1.1,0.4,1.7,0.6l0.2,0c0,0,0-0.1,0-0.1l0.5,0l0.9,0l1.9,0.1l3.8,0.1
				c2.6,0,5.1,0.2,7.7,0.3l15.4,0.6l3.8,0.1c1.3,0.1,2.4,0,3.6-0.5c1.1-0.4,2.2-1.1,3-2c0.8-0.9,1.5-2,1.8-3.2
				c0.4-1.2,0.4-2.5,0.2-3.7c-0.2-1.2-0.7-2.4-1.5-3.4c-0.7-1-1.7-1.8-2.9-2.4C47.6,62.5,46.4,62.2,45.1,62.2z M45.1,62
				c1.3,0,2.6,0.3,3.8,0.9c1.2,0.6,2.2,1.4,3,2.5c0.8,1,1.3,2.2,1.6,3.5c0.2,1.3,0.2,2.6-0.1,3.9c-0.7,2.5-2.6,4.7-5,5.7
				c-1.2,0.5-2.5,0.7-3.8,0.6l-3.8,0l-15.4,0l-7.7,0l-3.8,0c-1.3,0-2.5,0-3.9-0.1l0,0c-0.7-0.2-1.4-0.4-2-0.7
				c-0.6-0.3-1.3-0.6-1.9-1.1c-0.3-0.2-0.6-0.4-0.8-0.7c-0.3-0.2-0.5-0.5-0.8-0.7c-0.5-0.5-0.9-1.1-1.4-1.6c-0.4-0.6-0.7-1.2-1-1.9
				c-0.3-0.7-0.5-1.3-0.7-2C1.2,69.6,1,68.8,1,68.1c0-0.7,0-1.4,0.1-2.1c0.1-0.7,0.3-1.4,0.5-2.1c0.2-0.7,0.5-1.3,0.9-2L3,61.1
				l0.6-0.9l0.7-0.8l0.8-0.7L6,58.1l0.9-0.6c0.6-0.3,1.3-0.6,2-0.8c0.7-0.2,1.4-0.4,2.1-0.5c0.4-0.1,0.7-0.1,1.1-0.1
				c0.3,0,0.7,0,1.1,0l-0.2,0.2l0.1-1.1l0.2-1.1l0.3-1l0.4-1c0.2-0.3,0.3-0.6,0.5-1c0.2-0.3,0.4-0.6,0.6-0.9
				c0.4-0.6,0.9-1.1,1.5-1.6c1.1-1,2.4-1.7,3.7-2.2c0.7-0.3,1.4-0.4,2.1-0.5c0.7-0.1,1.4-0.2,2.2-0.1c1.5,0,2.9,0.4,4.2,1
				c0.7,0.3,1.3,0.7,1.9,1.1c0.6,0.4,1.2,0.9,1.7,1.4c0.5,0.5,1,1.1,1.4,1.7c0.4,0.6,0.7,1.3,1,1.9c0.3,0.7,0.5,1.4,0.6,2.1
				c0.1,0.4,0.1,0.7,0.2,1.1l0.1,1.1l-0.1-0.1l1.4-0.1c0.3,0,0.5,0,0.7,0c0.2,0,0.5,0.1,0.7,0.1c1,0.1,1.9,0.5,2.8,0.9
				C43,58.7,44.3,60.2,45.1,62L45,62L45.1,62z"/>
		</g>
	</g>
</g>
<g id="XMLID_103_">
	<path id="XMLID_112_" class="st1" d="M98.3,43.2c0-1.8-1-3.4-2.5-4.3c0-0.1,0-0.2,0-0.2c0-3.7-3-6.7-6.7-6.7
		c-1.6,0-3.1,0.6-4.3,1.6c-1.1-3-3.9-5.1-7.3-5.1c-0.2,0-0.4,0-0.6,0c-1.5-3.8-5.2-6.4-9.6-6.4c-5,0-9.1,3.5-10.1,8.1
		c-0.7-0.2-1.5-0.3-2.3-0.3c-3.4,0-6.4,2.2-7.4,5.3c-0.7-0.2-1.4-0.4-2.1-0.4c-3.7,0-6.7,3-6.7,6.7c0,3.5,2.7,6.1,6.1,6.4
		c0.9,0.9,48.5,0.9,49.3,0.1C96.6,47.5,98.3,45.7,98.3,43.2z"/>
	<g id="XMLID_362_">
		<path id="XMLID_24_" class="st2" d="M98.3,43.2c0-1.8-1-3.4-2.5-4.3c0-0.1,0-0.2,0-0.2c0-3.7-3-6.7-6.7-6.7
			c-1.6,0-3.1,0.6-4.3,1.6c-1.1-3-3.9-5.1-7.3-5.1c-0.2,0-0.4,0-0.6,0c-1.5-3.8-5.2-6.4-9.6-6.4c-5,0-9.1,3.5-10.1,8.1
			c-0.7-0.2-1.5-0.3-2.3-0.3c-3.4,0-6.4,2.2-7.4,5.3c-0.7-0.2-1.4-0.4-2.1-0.4c-3.7,0-6.7,3-6.7,6.7c0,3.5,2.7,6.1,6.1,6.4
			c0.9,0.9,48.5,0.9,49.3,0.1C96.6,47.5,98.3,45.7,98.3,43.2z"/>
		<path id="XMLID_21_" class="st3" d="M98.2,43.2c0-0.9-0.2-1.7-0.7-2.4c-0.4-0.7-1-1.4-1.8-1.8l-0.1,0l0-0.1c0.1-0.3,0-0.6,0-0.9
			c-0.1-0.3-0.1-0.6-0.2-0.9c-0.1-0.6-0.4-1.2-0.7-1.7c-0.6-1.1-1.6-1.9-2.8-2.5c-0.3-0.1-0.6-0.2-0.9-0.3c-0.3-0.1-0.6-0.2-0.9-0.2
			c-0.3-0.1-0.6-0.1-0.9-0.1c-0.3,0-0.6,0-0.9,0c-1.2,0.2-2.4,0.7-3.3,1.5L84.8,34l-0.1-0.3c-0.3-0.8-0.7-1.5-1.2-2.1
			c-0.5-0.6-1.1-1.2-1.8-1.6c-0.7-0.4-1.4-0.7-2.2-0.9c-0.4-0.1-0.8-0.1-1.2-0.2c-0.2,0-0.4,0-0.6,0c-0.2,0-0.4,0-0.6,0l-0.3,0
			l-0.1-0.3c-0.2-0.5-0.4-0.9-0.7-1.4c-0.3-0.4-0.6-0.9-0.9-1.3c-0.3-0.4-0.7-0.8-1.1-1.1c-0.4-0.3-0.8-0.6-1.3-0.9
			c-0.4-0.3-0.9-0.5-1.4-0.7c-0.5-0.2-1-0.3-1.5-0.5c-0.5-0.1-1-0.2-1.5-0.2l-0.8,0l-0.8,0c-0.5,0.1-1,0.1-1.5,0.3
			c-0.5,0.1-1,0.3-1.5,0.5c-0.5,0.2-0.9,0.4-1.4,0.7c-0.2,0.1-0.4,0.3-0.6,0.4c-0.2,0.2-0.4,0.3-0.6,0.5c-0.4,0.3-0.7,0.7-1.1,1.1
			c-0.3,0.4-0.6,0.8-0.9,1.3c-0.3,0.4-0.5,0.9-0.7,1.4c-0.2,0.5-0.3,1-0.4,1.5L57.9,31l-0.7-0.2c-0.4-0.1-0.9-0.2-1.3-0.3
			c-0.2,0-0.5,0-0.7,0c-0.2,0-0.5,0-0.7,0c-0.9,0.1-1.8,0.4-2.6,0.8c-0.8,0.4-1.5,1-2.1,1.7c-0.6,0.7-1,1.5-1.3,2.4l-0.2,0.7
			l-0.7-0.2c-0.4-0.1-0.8-0.2-1.2-0.3c-0.4-0.1-0.8,0-1.3,0l-0.6,0.1l-0.6,0.2c-0.4,0.1-0.8,0.3-1.1,0.5c-0.4,0.2-0.7,0.4-1,0.7
			c-0.3,0.3-0.6,0.6-0.8,0.9c-0.2,0.3-0.4,0.7-0.6,1.1c-0.2,0.4-0.3,0.8-0.4,1.2c-0.1,0.4-0.1,0.8-0.1,1.2c0,0.1,0,0.4,0,0.6
			l0.1,0.6c0.1,0.4,0.2,0.8,0.4,1.1c0.2,0.4,0.4,0.7,0.6,1c0.5,0.6,1.1,1.1,1.8,1.5c0.4,0.2,0.7,0.3,1.1,0.4
			c0.4,0.1,0.8,0.2,1.2,0.2l0.6,0.3c0-0.1-0.1-0.2-0.2-0.2c-0.1,0,0,0,0,0l0.1,0l0.3,0l0.7,0.1l1.5,0.1l3.1,0.1l6.2,0.1l12.3,0.2
			L82,48l6.2,0.1l3.1,0l1.5-0.1l0.8,0c0.2,0,0.6-0.1,0.6-0.1l0.1,0c1.1-0.2,2.1-0.8,2.8-1.6C97.8,45.4,98.2,44.3,98.2,43.2z
			 M98.4,43.2c0,0.6-0.1,1.2-0.3,1.7c-0.2,0.5-0.5,1.1-0.9,1.5c-0.7,0.9-1.8,1.5-2.9,1.8l0.1,0c-0.4,0.2-0.6,0.2-0.9,0.2l-0.8,0.1
			l-1.5,0.1l-3.1,0.2L82,49.1c-4.1,0.2-8.2,0.3-12.4,0.4c-4.1,0.1-8.2,0.1-12.4,0c-2.1,0-4.1-0.1-6.2-0.1L48,49.2
			c-0.5,0-1-0.1-1.6-0.1L45.6,49c-0.1,0-0.3,0-0.5-0.1l-0.1,0c0,0-0.1,0-0.2-0.1c-0.2-0.1-0.4-0.2-0.6-0.3l0.6,0.3
			c-0.5-0.1-1-0.2-1.6-0.3c-0.5-0.2-1-0.4-1.5-0.6c-0.9-0.5-1.8-1.2-2.4-2.1c-0.3-0.4-0.6-0.9-0.8-1.4c-0.2-0.5-0.4-1-0.5-1.5
			c-0.1-0.3-0.1-0.6-0.1-0.8c0-0.3,0-0.4,0-0.8c0-0.5,0.1-1.1,0.2-1.6c0.1-0.5,0.3-1,0.5-1.5c0.2-0.5,0.5-0.9,0.8-1.3
			c0.3-0.4,0.7-0.8,1.1-1.1c0.4-0.3,0.8-0.6,1.3-0.9c0.5-0.3,0.9-0.4,1.4-0.6l0.8-0.2c0.3,0,0.6-0.1,0.8-0.1c0.4,0,1,0,1.5,0
			c0.5,0.1,1,0.2,1.5,0.4l-1,0.5c0.4-1,0.9-2,1.6-2.8c0.7-0.8,1.6-1.5,2.6-2c1-0.5,2-0.8,3.2-0.9c0.3,0,0.5,0,0.8,0
			c0.3,0,0.5,0,0.8,0.1c0.5,0.1,1.1,0.2,1.6,0.3L56.8,30c0.1-0.6,0.3-1.1,0.5-1.7c0.2-0.5,0.5-1.1,0.8-1.6c0.3-0.5,0.6-1,1-1.4
			c0.4-0.4,0.8-0.9,1.2-1.2c0.2-0.2,0.4-0.4,0.7-0.5c0.2-0.2,0.5-0.3,0.7-0.5c0.5-0.3,1-0.6,1.5-0.8c0.5-0.2,1.1-0.4,1.6-0.5
			c0.6-0.1,1.1-0.2,1.7-0.3l0.8,0c0.3,0,0.6,0,0.9,0c0.6,0,1.1,0.1,1.7,0.3c0.6,0.1,1.1,0.3,1.6,0.5c0.5,0.2,1,0.5,1.5,0.8
			c0.5,0.3,0.9,0.6,1.4,1c0.4,0.4,0.8,0.8,1.2,1.2c0.4,0.4,0.7,0.9,1,1.4c0.3,0.5,0.5,1,0.7,1.5L77,28.1c0.2,0,0.4,0,0.6,0
			c0.2,0,0.4,0,0.7,0c0.4,0,0.9,0.1,1.3,0.2c0.9,0.2,1.7,0.6,2.4,1.1c0.7,0.5,1.4,1.1,1.9,1.8c0.5,0.7,1,1.5,1.2,2.3l-0.4-0.1
			c1-0.8,2.3-1.4,3.6-1.5c1.3-0.1,2.7,0.1,3.8,0.7c0.3,0.1,0.6,0.3,0.8,0.5c0.3,0.2,0.5,0.4,0.8,0.6c0.5,0.4,0.9,1,1.2,1.5
			c0.3,0.6,0.6,1.2,0.8,1.8c0.1,0.3,0.1,0.6,0.2,1c0,0.3,0.1,0.6,0,1l0-0.1c0.8,0.5,1.4,1.1,1.8,1.9C98.2,41.5,98.4,42.3,98.4,43.2z
			"/>
	</g>
	<g id="XMLID_364_">
		<path id="XMLID_19_" class="st2" d="M98.3,43.2c0-1.8-1-3.4-2.5-4.3c0-0.1,0-0.2,0-0.2c0-3.7-3-6.7-6.7-6.7
			c-1.6,0-3.1,0.6-4.3,1.6c-1.1-3-3.9-5.1-7.3-5.1c-0.2,0-0.4,0-0.6,0c-1.5-3.8-5.2-6.4-9.6-6.4c-5,0-9.1,3.5-10.1,8.1
			c-0.7-0.2-1.5-0.3-2.3-0.3c-3.4,0-6.4,2.2-7.4,5.3c-0.7-0.2-1.4-0.4-2.1-0.4c-3.7,0-6.7,3-6.7,6.7c0,3.5,2.7,6.1,6.1,6.4
			c0.9,0.9,48.5,0.9,49.3,0.1C96.6,47.5,98.3,45.7,98.3,43.2z"/>
		<path id="XMLID_16_" class="st3" d="M98.2,43.2c0-0.9-0.2-1.7-0.7-2.4c-0.4-0.7-1-1.4-1.8-1.8l-0.1,0l0-0.1c0-0.3,0-0.6,0-0.9
			c-0.1-0.3-0.1-0.6-0.2-0.9c-0.2-0.6-0.4-1.2-0.8-1.7c-0.7-1-1.6-1.8-2.8-2.3c-0.3-0.1-0.6-0.2-0.8-0.3c-0.3-0.1-0.6-0.1-0.9-0.2
			c-0.3,0-0.6-0.1-0.9,0c-0.1,0-0.3,0-0.5,0c-0.1,0-0.3,0-0.4,0.1c-1.2,0.2-2.2,0.7-3.1,1.5l-0.7,0.6l-0.4-1
			c-0.3-0.7-0.7-1.4-1.2-1.9c-0.5-0.6-1.1-1.1-1.7-1.5c-0.6-0.4-1.3-0.7-2-0.9c-0.4-0.1-0.7-0.1-1.1-0.2l-0.6,0c-0.1,0-0.4,0-0.6,0
			l-0.6,0l-0.2-0.6c-0.2-0.5-0.4-0.9-0.7-1.3c-0.3-0.4-0.5-0.8-0.9-1.2c-0.3-0.4-0.7-0.8-1-1.1c-0.4-0.3-0.8-0.6-1.2-0.9
			c-0.4-0.3-0.9-0.5-1.3-0.7c-0.5-0.2-0.9-0.4-1.4-0.5c-0.5-0.1-1-0.2-1.5-0.3l-0.7,0l-0.8,0c-0.5,0-1,0.1-1.5,0.2
			c-0.5,0.1-1,0.3-1.5,0.4c-0.5,0.2-1,0.4-1.4,0.7c-0.2,0.1-0.4,0.3-0.7,0.4c-0.2,0.1-0.4,0.3-0.6,0.5c-0.4,0.3-0.8,0.7-1.1,1.1
			c-0.3,0.4-0.7,0.8-0.9,1.3c-0.3,0.4-0.5,0.9-0.7,1.4c-0.2,0.5-0.3,1-0.5,1.5l-0.1,0.3l-0.3-0.1c-0.5-0.1-0.9-0.2-1.4-0.3
			c-0.2,0-0.5,0-0.7,0c-0.2,0-0.5,0-0.7,0c-0.9,0.1-1.9,0.4-2.7,0.8c-0.8,0.5-1.6,1.1-2.2,1.8c-0.6,0.7-1.1,1.6-1.3,2.5L48,35.7
			l-0.4-0.1c-0.4-0.1-0.9-0.2-1.3-0.3c-0.4-0.1-0.8,0-1.3,0l-0.6,0.1l-0.6,0.2c-0.4,0.1-0.8,0.3-1.2,0.5c-0.4,0.2-0.7,0.5-1,0.8
			c-0.3,0.3-0.6,0.6-0.8,1c-0.2,0.3-0.4,0.7-0.6,1.1c-0.2,0.4-0.3,0.8-0.4,1.2c-0.1,0.4-0.1,0.8-0.1,1.2c0,0.1,0,0.4,0,0.7l0.1,0.6
			c0.1,0.4,0.2,0.8,0.4,1.1c0.2,0.4,0.4,0.7,0.6,1c0.5,0.6,1.2,1.1,1.9,1.5c0.4,0.2,0.7,0.3,1.1,0.4c0.4,0.1,0.8,0.2,1.2,0.2
			l0.6,0.3c0-0.1-0.1-0.1-0.2-0.2c-0.1,0,0,0,0,0l0.1,0l0.3,0l0.7,0.1l1.5,0.1l3.1,0.1l6.2,0.1l12.3,0.2c4.1,0,8.2,0.1,12.3,0.3
			c2.1,0.1,4.1,0.1,6.2,0.1l3.1,0l1.5,0c0.3,0,0.5,0,0.8,0c0.2,0,0.6-0.1,0.6-0.1l0.1,0c1.1-0.2,2.1-0.7,2.8-1.6
			C97.8,45.4,98.2,44.3,98.2,43.2z M98.4,43.2c0,0.6-0.1,1.2-0.3,1.7c-0.2,0.5-0.5,1.1-0.9,1.5c-0.7,0.9-1.8,1.5-2.9,1.8l0.1,0
			c-0.4,0.2-0.6,0.2-0.9,0.2l-0.8,0.1l-1.5,0.1l-3.1,0.2L82,49.2c-4.1,0.2-8.2,0.4-12.4,0.4c-4.1,0-8.2,0-12.4-0.1
			c-2.1,0-4.1-0.1-6.2-0.2L48,49.2l-1.6-0.1L45.6,49c-0.1,0-0.3,0-0.4-0.1l-0.1,0c0,0-0.1,0-0.2,0c-0.2-0.1-0.4-0.2-0.6-0.3l0.6,0.3
			c-0.5-0.1-1-0.2-1.5-0.3c-0.5-0.2-1-0.4-1.5-0.6c-0.9-0.5-1.7-1.2-2.4-2.1c-0.3-0.4-0.6-0.9-0.8-1.4c-0.2-0.5-0.4-1-0.5-1.5
			c0-0.3-0.1-0.5-0.1-0.8c0-0.3,0-0.4,0-0.7c0-0.5,0.1-1,0.2-1.5c0.1-0.5,0.3-1,0.5-1.5c0.2-0.5,0.5-0.9,0.8-1.3
			c0.3-0.4,0.7-0.8,1.1-1.1c0.4-0.3,0.8-0.6,1.3-0.8c0.4-0.2,0.9-0.4,1.4-0.6l0.7-0.2c0.3,0,0.5-0.1,0.8-0.1c0.4,0,1,0,1.5,0.1
			c0.5,0.1,1,0.2,1.4,0.4L47.3,35c0.4-1,0.9-1.9,1.6-2.7c0.4-0.4,0.7-0.8,1.1-1.1c0.4-0.3,0.9-0.6,1.3-0.8c0.9-0.5,1.9-0.8,3-0.9
			c0.3,0,0.5,0,0.8,0c0.3,0,0.5,0,0.8,0c0.5,0,1,0.2,1.5,0.3l-0.4,0.2c0.1-0.5,0.3-1.1,0.5-1.6c0.2-0.5,0.4-1,0.7-1.5
			c0.3-0.5,0.6-1,0.9-1.4c0.4-0.4,0.7-0.9,1.2-1.2c0.2-0.2,0.4-0.4,0.6-0.6c0.2-0.2,0.4-0.4,0.7-0.5c0.5-0.3,1-0.6,1.5-0.8
			c0.5-0.2,1.1-0.4,1.6-0.6c0.5-0.2,1.1-0.3,1.7-0.3l0.8-0.1c0.3,0,0.6,0,0.9,0c0.6,0,1.2,0.1,1.7,0.2c0.6,0.1,1.1,0.3,1.7,0.5
			c0.5,0.2,1.1,0.5,1.6,0.8c0.5,0.3,1,0.6,1.4,1c0.5,0.4,0.9,0.8,1.3,1.2c0.4,0.4,0.7,0.9,1,1.4c0.3,0.5,0.6,1,0.8,1.6L77,27.6
			c0.2,0,0.4,0,0.7,0c0.2,0,0.5,0,0.7,0c0.5,0,0.9,0.1,1.4,0.2c0.9,0.2,1.8,0.6,2.5,1.1c0.4,0.3,0.8,0.5,1.1,0.9
			c0.3,0.3,0.6,0.7,0.9,1c0.3,0.4,0.5,0.8,0.7,1.2c0.2,0.4,0.4,0.8,0.5,1.3L84.5,33c1.1-0.9,2.5-1.4,3.9-1.5c0.2,0,0.4,0,0.5,0
			c0.1,0,0.3,0,0.5,0c0.3,0,0.7,0.1,1,0.1c0.3,0.1,0.7,0.2,1,0.3c0.3,0.1,0.6,0.3,0.9,0.4c1.2,0.6,2.2,1.6,2.8,2.8
			c0.2,0.3,0.3,0.6,0.4,0.9c0.1,0.3,0.2,0.6,0.3,0.9c0.1,0.3,0.1,0.7,0.2,1c0,0.3,0.1,0.6,0,1l-0.1-0.1c0.8,0.5,1.4,1.1,1.8,1.9
			C98.2,41.5,98.4,42.3,98.4,43.2z"/>
	</g>
	<g id="XMLID_378_">
		<path id="XMLID_14_" class="st2" d="M98.3,43.2c0-1.8-1-3.4-2.5-4.3c0-0.1,0-0.2,0-0.2c0-3.7-3-6.7-6.7-6.7
			c-1.6,0-3.1,0.6-4.3,1.6c-1.1-3-3.9-5.1-7.3-5.1c-0.2,0-0.4,0-0.6,0c-1.5-3.8-5.2-6.4-9.6-6.4c-5,0-9.1,3.5-10.1,8.1
			c-0.7-0.2-1.5-0.3-2.3-0.3c-3.4,0-6.4,2.2-7.4,5.3c-0.7-0.2-1.4-0.4-2.1-0.4c-3.7,0-6.7,3-6.7,6.7c0,3.5,2.7,6.1,6.1,6.4
			c0.9,0.9,48.5,0.9,49.3,0.1C96.6,47.5,98.3,45.7,98.3,43.2z"/>
		<path id="XMLID_11_" class="st3" d="M98.2,43.2c0-0.9-0.2-1.7-0.7-2.4c-0.4-0.7-1-1.4-1.8-1.8l-0.1,0l0-0.1c0.1-0.3,0-0.6,0-0.9
			c-0.1-0.3-0.1-0.6-0.2-0.9c-0.2-0.6-0.4-1.2-0.7-1.7c-0.6-1.1-1.6-1.9-2.7-2.4c-0.3-0.1-0.6-0.2-0.9-0.3c-0.3-0.1-0.6-0.2-0.9-0.2
			c-0.3-0.1-0.6-0.1-0.9-0.1c-0.3,0-0.6,0-0.9,0.1c-1.2,0.2-2.4,0.7-3.3,1.5l-0.4,0.4l-0.2-0.5c-0.3-0.7-0.7-1.4-1.2-2
			c-0.5-0.6-1.1-1.1-1.8-1.5c-0.7-0.4-1.4-0.7-2.1-0.8c-0.4-0.1-0.8-0.1-1.1-0.1l-0.6,0l-0.6,0l-0.5,0l-0.2-0.5
			c-0.2-0.5-0.5-0.9-0.7-1.3c-0.3-0.4-0.6-0.8-0.9-1.2c-0.3-0.4-0.7-0.7-1.1-1c-0.4-0.3-0.8-0.6-1.2-0.8c-0.4-0.2-0.9-0.4-1.3-0.6
			c-0.5-0.2-0.9-0.3-1.4-0.4c-0.5-0.1-1-0.1-1.5-0.2l-0.7,0l-0.8,0.1c-0.5,0.1-0.9,0.2-1.4,0.3c-0.5,0.1-0.9,0.3-1.3,0.5
			c-0.4,0.2-0.8,0.4-1.2,0.7c-0.2,0.1-0.4,0.3-0.6,0.4c-0.2,0.1-0.4,0.3-0.5,0.5c-0.3,0.3-0.7,0.7-0.9,1c-0.3,0.4-0.5,0.8-0.8,1.2
			c-0.2,0.4-0.4,0.8-0.6,1.3c-0.2,0.4-0.3,0.9-0.4,1.3l-0.4,1.7l-1.7-0.5c-0.4-0.1-0.8-0.2-1.2-0.2c-0.2,0-0.4,0-0.6,0
			c-0.1,0-0.5,0-0.7,0c-0.2,0-0.3,0-0.5,0.1c-0.2,0-0.4,0.1-0.6,0.2c-0.4,0.1-0.7,0.3-1.1,0.5c-0.3,0.2-0.7,0.4-1,0.6
			c-0.3,0.2-0.6,0.5-0.8,0.8c-0.5,0.6-0.9,1.3-1.1,2l-0.6,1.7l-1.7-0.5c-0.4-0.1-0.7-0.2-1-0.2c-0.2,0-0.3,0-0.5,0l-0.6,0l-0.4,0.1
			l-0.5,0.1c-0.3,0.1-0.6,0.2-0.9,0.4c-0.3,0.2-0.6,0.4-0.8,0.6c-0.3,0.2-0.5,0.5-0.7,0.7c-0.2,0.3-0.4,0.6-0.5,0.9
			c-0.2,0.3-0.3,0.6-0.3,1c-0.1,0.3-0.1,0.7-0.1,1l0,0l0.2,0c0,0.1,0.2-0.1,0.2-0.1v0v0l-0.2,0.1l-0.1,0.2l0,0.3l0,0.4
			c0.1,0.3,0.2,0.7,0.3,1c0.1,0.3,0.3,0.6,0.5,0.9c0.4,0.6,0.9,1,1.5,1.4c0.3,0.2,0.6,0.3,1,0.4c0.3,0.1,0.7,0.2,1.1,0.2l1,0.5
			c-0.1-0.1-0.3-0.3-0.5-0.3c0,0-0.1,0-0.1,0l0,0l0.1,0c0.1,0,0.2,0,0.3,0l0.7,0.1l1.5,0.1l3.1,0.2l6.1,0.4
			c4.1,0.2,8.2,0.4,12.3,0.5l6.2,0.2c2.1,0.1,4.1,0.1,6.2,0.2l6.2,0c1,0,2.1,0,3.1-0.1l1.5-0.1l0.8-0.1c0.2,0,0.5-0.1,0.7-0.1l0.1,0
			c1.1-0.2,2.1-0.8,2.8-1.6C97.8,45.4,98.2,44.3,98.2,43.2z M98.4,43.2c0,0.6-0.1,1.1-0.3,1.7c-0.2,0.5-0.5,1-0.9,1.5
			c-0.7,0.9-1.8,1.5-2.9,1.7l0.1,0c-0.6,0.2-1.1,0.2-1.6,0.2l-1.5,0.1l-3.1,0.1L82,48.7c-4.1,0.1-8.2,0.1-12.4,0.1
			c-4.1,0-8.2,0-12.4-0.1l-6.2-0.1L48,48.4l-1.5-0.1l-0.8-0.1c-0.3-0.1-0.5,0-0.9-0.2l0.1,0.1c-0.5-0.1-0.9-0.1-1.4-0.3
			c-0.5-0.1-0.9-0.3-1.3-0.5c-0.8-0.4-1.6-1.1-2.2-1.8c-0.3-0.4-0.6-0.8-0.7-1.2c-0.2-0.4-0.3-0.9-0.5-1.4c0-0.2-0.1-0.5-0.1-0.7
			c0-0.2,0-0.5,0-0.7c0-0.5,0.1-1,0.2-1.4c0.1-0.5,0.3-0.9,0.5-1.4c0.2-0.4,0.4-0.9,0.7-1.2c0.3-0.4,0.6-0.7,1-1.1
			c0.4-0.3,0.8-0.6,1.2-0.8c0.4-0.2,0.9-0.4,1.3-0.6c0.5-0.1,0.9-0.2,1.4-0.3c0.5,0,1-0.1,1.4,0c0.5,0.1,0.9,0.2,1.4,0.3l-0.2,0.1
			c0.3-1,0.8-1.9,1.5-2.7c0.7-0.8,1.5-1.4,2.4-1.9c0.9-0.5,1.9-0.8,2.9-0.8c0.5,0,1-0.1,1.5,0c0.5,0.1,1,0.2,1.5,0.3l-0.2,0.1
			c0.1-0.5,0.3-1.1,0.5-1.6c0.2-0.5,0.4-1,0.7-1.5c0.3-0.5,0.6-0.9,1-1.4c0.4-0.4,0.7-0.8,1.2-1.2c0.2-0.2,0.4-0.4,0.6-0.5
			c0.2-0.2,0.4-0.3,0.7-0.5c0.5-0.3,1-0.6,1.5-0.8c0.5-0.2,1-0.4,1.6-0.5c0.5-0.1,1.1-0.2,1.6-0.3c0.5,0,1.1,0,1.7,0
			c0.6,0,1.1,0.1,1.6,0.2c0.5,0.1,1.1,0.3,1.6,0.5c0.5,0.2,1,0.5,1.5,0.8c0.5,0.3,0.9,0.6,1.3,1c0.4,0.4,0.8,0.8,1.2,1.2
			c0.4,0.4,0.7,0.9,1,1.3c0.3,0.5,0.5,1,0.7,1.5L77,28.3c0.8-0.1,1.7,0,2.5,0.2c0.8,0.2,1.6,0.6,2.3,1c0.7,0.5,1.4,1,1.9,1.7
			c0.5,0.7,1,1.4,1.3,2.2l-0.2-0.1c1-0.8,2.2-1.4,3.5-1.5c1.3-0.1,2.6,0.1,3.8,0.7c1.2,0.6,2.2,1.5,2.8,2.6c0.3,0.6,0.6,1.2,0.8,1.8
			c0.1,0.3,0.1,0.6,0.2,1c0,0.3,0.1,0.6,0,1l-0.1-0.1c0.8,0.5,1.4,1.1,1.8,1.9C98.2,41.5,98.4,42.3,98.4,43.2z"/>
	</g>
</g>
</svg>
