<?xml version="1.0" encoding="utf-8"?>
<!-- Generator: Adobe Illustrator 19.0.0, SVG Export Plug-In . SVG Version: 6.00 Build 0)  -->
<svg version="1.1" id="Layer_1" xmlns="http://www.w3.org/2000/svg" xmlns:xlink="http://www.w3.org/1999/xlink" x="0px" y="0px"
	 viewBox="0 0 100 100" style="enable-background:new 0 0 100 100;" xml:space="preserve">
<style type="text/css">
	.st0{fill:url(#XMLID_2_);}
	.st1{opacity:0.68;}
	.st2{fill:#6C6D70;stroke:#6C6D70;stroke-miterlimit:10;}
	.st3{fill:#6C6D70;}
	.st4{fill:#76777B;}
</style>
<radialGradient id="XMLID_2_" cx="58.4021" cy="51.1664" r="27.5356" gradientTransform="matrix(0.9987 0 0 0.9987 -0.1478 -1.3524)" gradientUnits="userSpaceOnUse">
	<stop  offset="0.6731" style="stop-color:#EEB844"/>
	<stop  offset="0.7874" style="stop-color:#F7D36F"/>
	<stop  offset="0.8573" style="stop-color:#F7D471"/>
	<stop  offset="0.8825" style="stop-color:#F8D678"/>
	<stop  offset="0.9004" style="stop-color:#F8D983"/>
	<stop  offset="0.9148" style="stop-color:#FADE94"/>
	<stop  offset="0.9192" style="stop-color:#FAE09B"/>
</radialGradient>
<circle id="XMLID_31_" class="st0" cx="58.2" cy="49.7" r="27.5"/>
<g id="XMLID_103_" class="st1">
	<path id="XMLID_112_" class="st2" d="M74.3,47.2c0-1.9-1-3.5-2.5-4.4c0-0.1,0-0.2,0-0.2c0-3.7-3-6.7-6.7-6.7
		c-1.6,0-3.1,0.6-4.3,1.6c-1.1-3-3.9-5.1-7.3-5.1c-0.2,0-0.4,0-0.6,0c-1.5-3.8-5.2-6.5-9.6-6.5c-5,0-9.1,3.5-10.1,8.2
		c-0.7-0.2-1.5-0.3-2.3-0.3c-3.4,0-6.4,2.2-7.4,5.4c-0.7-0.2-1.4-0.4-2.1-0.4c-3.7,0-6.7,3-6.7,6.7c0,3.5,2.7,6.1,6.1,6.5
		c0.9,0.9,48.5,1,49.3,0.1C72.6,51.5,74.3,49.7,74.3,47.2z"/>
	<g id="XMLID_362_">
		<path id="XMLID_23_" class="st3" d="M74.3,47.2c0-1.9-1-3.5-2.5-4.4c0-0.1,0-0.2,0-0.2c0-3.7-3-6.7-6.7-6.7
			c-1.6,0-3.1,0.6-4.3,1.6c-1.1-3-3.9-5.1-7.3-5.1c-0.2,0-0.4,0-0.6,0c-1.5-3.8-5.2-6.5-9.6-6.5c-5,0-9.1,3.5-10.1,8.2
			c-0.7-0.2-1.5-0.3-2.3-0.3c-3.4,0-6.4,2.2-7.4,5.4c-0.7-0.2-1.4-0.4-2.1-0.4c-3.7,0-6.7,3-6.7,6.7c0,3.5,2.7,6.1,6.1,6.5
			c0.9,0.9,48.5,1,49.3,0.1C72.6,51.5,74.3,49.7,74.3,47.2z"/>
		<path id="XMLID_20_" class="st3" d="M74.2,47.2c0-0.9-0.2-1.7-0.7-2.5c-0.4-0.7-1-1.4-1.8-1.8l-0.1,0l0-0.1c0.1-0.3,0-0.6,0-0.9
			c-0.1-0.3-0.1-0.6-0.2-0.9c-0.1-0.6-0.4-1.2-0.7-1.7c-0.6-1.1-1.6-2-2.8-2.5c-1.1-0.6-2.4-0.7-3.7-0.6c-1.2,0.2-2.4,0.7-3.3,1.5
			l-0.3,0.2l-0.1-0.3c-0.3-0.8-0.7-1.5-1.2-2.1c-0.5-0.6-1.1-1.2-1.8-1.6c-0.7-0.4-1.4-0.7-2.2-0.9c-0.4-0.1-0.8-0.2-1.2-0.2
			c-0.2,0-0.4,0-0.6,0c-0.2,0-0.4,0-0.6,0l-0.3,0l-0.1-0.3c-0.2-0.5-0.4-1-0.7-1.4c-0.3-0.4-0.6-0.9-0.9-1.3
			c-0.3-0.4-0.7-0.8-1.1-1.1c-0.4-0.3-0.8-0.6-1.3-0.9c-0.4-0.3-0.9-0.5-1.4-0.7c-0.5-0.2-1-0.3-1.5-0.5c-0.5-0.1-1-0.2-1.5-0.2
			c-0.3,0-0.5,0-0.8,0l-0.8,0c-0.5,0.1-1,0.1-1.5,0.3c-0.5,0.1-1,0.3-1.5,0.5c-0.5,0.2-0.9,0.4-1.4,0.7c-0.2,0.1-0.4,0.3-0.6,0.4
			c-0.2,0.2-0.4,0.3-0.6,0.5c-0.4,0.3-0.7,0.7-1.1,1.1c-0.3,0.4-0.6,0.8-0.9,1.3c-0.3,0.4-0.5,0.9-0.7,1.4c-0.2,0.5-0.3,1-0.4,1.5
			l-0.2,0.7l-0.7-0.2c-0.4-0.1-0.9-0.2-1.4-0.3c-0.2,0-0.5,0-0.7,0c-0.2,0-0.5,0-0.7,0c-0.9,0.1-1.8,0.4-2.6,0.8
			c-0.8,0.4-1.5,1-2.1,1.7c-0.6,0.7-1,1.5-1.3,2.4l-0.2,0.7l-0.7-0.2c-0.4-0.1-0.8-0.2-1.2-0.3c-0.4-0.1-0.8,0-1.3,0l-0.6,0.1
			l-0.6,0.2c-0.4,0.1-0.8,0.3-1.1,0.5c-0.4,0.2-0.7,0.4-1,0.7c-0.3,0.3-0.6,0.6-0.8,0.9c-0.2,0.3-0.4,0.7-0.6,1.1
			c-0.2,0.4-0.3,0.8-0.4,1.2c-0.1,0.4-0.1,0.8-0.1,1.2c0,0.1,0,0.4,0,0.6l0.1,0.6c0.1,0.4,0.2,0.8,0.4,1.1c0.2,0.4,0.4,0.7,0.6,1
			c0.5,0.6,1.1,1.1,1.8,1.5c0.4,0.2,0.7,0.3,1.1,0.4c0.4,0.1,0.8,0.2,1.2,0.2l0.6,0.3c0-0.1-0.1-0.2-0.2-0.2c-0.1,0,0,0,0,0l0.1,0
			l0.3,0l0.7,0.1l1.5,0.1l3.1,0.1l6.2,0.1l12.3,0.2L58,52l6.2,0.1l3.1,0l1.5-0.1l0.8,0c0.2,0,0.6-0.1,0.6-0.1l0.1,0
			c1.1-0.2,2.1-0.8,2.8-1.6C73.8,49.4,74.2,48.3,74.2,47.2z M74.4,47.2c0,0.6-0.1,1.2-0.3,1.7c-0.2,0.5-0.5,1.1-0.8,1.5
			c-0.7,0.9-1.8,1.5-2.9,1.8l0.1,0c-0.4,0.2-0.6,0.2-0.9,0.2l-0.8,0.1l-1.5,0.1l-3.1,0.2L58,53.1c-4.1,0.2-8.2,0.3-12.4,0.4
			c-4.1,0.1-8.2,0.1-12.4,0c-2.1,0-4.1-0.1-6.2-0.1L24,53.2c-0.5,0-1-0.1-1.6-0.1L21.6,53c-0.1,0-0.3,0-0.5-0.1l-0.1,0
			c0,0-0.1,0-0.2-0.1c-0.2-0.1-0.4-0.2-0.6-0.3l0.6,0.3c-0.5-0.1-1.1-0.2-1.6-0.3c-0.5-0.2-1-0.4-1.5-0.6c-0.9-0.5-1.8-1.2-2.4-2.1
			c-0.3-0.4-0.6-0.9-0.8-1.4c-0.2-0.5-0.4-1-0.5-1.5c-0.1-0.3-0.1-0.6-0.1-0.8c0-0.3,0-0.4,0-0.8c0-0.5,0.1-1.1,0.2-1.6
			c0.1-0.5,0.3-1,0.5-1.5c0.2-0.5,0.5-0.9,0.8-1.3c0.3-0.4,0.7-0.8,1.1-1.1c0.4-0.3,0.8-0.6,1.3-0.9c0.5-0.3,0.9-0.5,1.4-0.6
			l0.8-0.2c0.3,0,0.6-0.1,0.8-0.1c0.4,0,1-0.1,1.5,0c0.5,0.1,1,0.2,1.5,0.4l-1,0.5c0.4-1,0.9-2,1.6-2.9c0.7-0.8,1.6-1.5,2.6-2
			c1-0.5,2-0.8,3.2-0.9c0.3,0,0.5,0,0.8,0c0.3,0,0.5,0,0.8,0.1c0.5,0.1,1.1,0.2,1.6,0.3L32.8,34c0.1-0.6,0.3-1.1,0.5-1.7
			c0.2-0.5,0.5-1.1,0.8-1.6c0.3-0.5,0.6-1,1-1.4c0.4-0.4,0.8-0.9,1.2-1.2c0.2-0.2,0.4-0.4,0.7-0.5c0.2-0.2,0.5-0.3,0.7-0.5
			c0.5-0.3,1-0.6,1.5-0.8c0.5-0.2,1.1-0.4,1.6-0.5c0.6-0.1,1.1-0.2,1.7-0.3l0.8,0c0.3,0,0.6,0,0.9,0c0.6,0,1.1,0.1,1.7,0.3
			c0.6,0.1,1.1,0.3,1.6,0.5c0.5,0.2,1,0.5,1.5,0.8c0.5,0.3,0.9,0.6,1.4,1c0.4,0.4,0.8,0.8,1.2,1.2c0.4,0.4,0.7,0.9,1,1.4
			c0.3,0.5,0.5,1,0.7,1.5L53,32c0.2,0,0.4,0,0.6,0c0.2,0,0.4,0,0.7,0c0.4,0,0.9,0.1,1.3,0.2c0.9,0.2,1.7,0.6,2.4,1.1
			c0.7,0.5,1.4,1.1,1.9,1.8c0.5,0.7,0.9,1.5,1.2,2.3l-0.4-0.1c1-0.8,2.3-1.4,3.6-1.5c1.3-0.1,2.7,0.1,3.8,0.7
			c1.2,0.6,2.1,1.5,2.8,2.6c0.3,0.6,0.6,1.2,0.7,1.8c0.1,0.3,0.1,0.6,0.2,1c0,0.3,0.1,0.6,0,1l0-0.1c0.8,0.5,1.4,1.1,1.8,1.9
			C74.2,45.4,74.4,46.3,74.4,47.2z"/>
	</g>
	<g id="XMLID_364_">
		<path id="XMLID_18_" class="st3" d="M74.3,47.2c0-1.9-1-3.5-2.5-4.4c0-0.1,0-0.2,0-0.2c0-3.7-3-6.7-6.7-6.7
			c-1.6,0-3.1,0.6-4.3,1.6c-1.1-3-3.9-5.1-7.3-5.1c-0.2,0-0.4,0-0.6,0c-1.5-3.8-5.2-6.5-9.6-6.5c-5,0-9.1,3.5-10.1,8.2
			c-0.7-0.2-1.5-0.3-2.3-0.3c-3.4,0-6.4,2.2-7.4,5.4c-0.7-0.2-1.4-0.4-2.1-0.4c-3.7,0-6.7,3-6.7,6.7c0,3.5,2.7,6.1,6.1,6.5
			c0.9,0.9,48.5,1,49.3,0.1C72.6,51.5,74.3,49.7,74.3,47.2z"/>
		<path id="XMLID_15_" class="st3" d="M74.2,47.2c0-0.9-0.2-1.7-0.7-2.4c-0.4-0.7-1-1.4-1.8-1.8l-0.1,0l0-0.1c0-0.3,0-0.6,0-0.9
			c-0.1-0.3-0.1-0.6-0.2-0.9c-0.2-0.6-0.4-1.2-0.8-1.7c-0.7-1-1.6-1.9-2.7-2.3c-0.3-0.1-0.6-0.2-0.8-0.3c-0.3-0.1-0.6-0.1-0.9-0.2
			c-0.3,0-0.6-0.1-0.9,0c-0.1,0-0.3,0-0.5,0c-0.1,0-0.3,0-0.4,0.1c-1.2,0.2-2.2,0.7-3.1,1.5l-0.7,0.7l-0.4-1
			c-0.3-0.7-0.7-1.4-1.2-1.9c-0.5-0.6-1.1-1.1-1.7-1.5c-0.6-0.4-1.3-0.7-2-0.9c-0.4-0.1-0.7-0.1-1.1-0.2l-0.6,0c-0.1,0-0.4,0-0.6,0
			l-0.6,0l-0.2-0.6c-0.2-0.5-0.4-0.9-0.7-1.3c-0.3-0.4-0.5-0.8-0.9-1.2c-0.3-0.4-0.7-0.8-1-1.1c-0.4-0.3-0.8-0.6-1.2-0.9
			c-0.4-0.3-0.9-0.5-1.3-0.7c-0.5-0.2-0.9-0.4-1.4-0.5c-0.5-0.1-1-0.2-1.5-0.3l-0.7,0l-0.8,0c-0.5,0-1,0.1-1.5,0.2
			c-0.5,0.1-1,0.3-1.5,0.5c-0.5,0.2-1,0.4-1.4,0.7c-0.2,0.1-0.4,0.3-0.7,0.4c-0.2,0.1-0.4,0.3-0.6,0.5c-0.4,0.3-0.8,0.7-1.1,1.1
			c-0.3,0.4-0.7,0.8-0.9,1.3c-0.3,0.5-0.5,0.9-0.7,1.4c-0.2,0.5-0.3,1-0.5,1.5l-0.1,0.3l-0.3-0.1c-0.5-0.1-0.9-0.2-1.4-0.3
			c-0.2,0-0.5,0-0.7,0c-0.2,0-0.5,0-0.7,0c-0.9,0.1-1.9,0.4-2.7,0.8c-0.8,0.5-1.6,1.1-2.2,1.8c-0.6,0.7-1.1,1.6-1.3,2.5L24,39.6
			l-0.4-0.1c-0.4-0.1-0.9-0.2-1.3-0.3c-0.4-0.1-0.8,0-1.3,0l-0.6,0.1l-0.6,0.2c-0.4,0.1-0.8,0.3-1.2,0.6c-0.4,0.2-0.7,0.5-1,0.8
			c-0.3,0.3-0.6,0.6-0.8,1c-0.2,0.3-0.4,0.7-0.6,1.1c-0.2,0.4-0.3,0.8-0.4,1.2c-0.1,0.4-0.1,0.8-0.1,1.2c0,0.1,0,0.4,0,0.7l0.1,0.6
			c0.1,0.4,0.2,0.8,0.4,1.2c0.2,0.4,0.4,0.7,0.6,1c0.5,0.6,1.2,1.2,1.9,1.5c0.4,0.2,0.7,0.3,1.1,0.5c0.4,0.1,0.8,0.2,1.2,0.2
			l0.6,0.3c0-0.1-0.1-0.1-0.2-0.2c-0.1,0,0,0,0,0l0.1,0l0.3,0l0.7,0.1l1.5,0.1l3.1,0.1l6.2,0.1l12.3,0.2c4.1,0,8.2,0.1,12.3,0.3
			c2.1,0.1,4.1,0.1,6.2,0.1l3.1,0l1.5,0c0.3,0,0.5,0,0.8,0c0.2,0,0.6-0.1,0.6-0.1l0.1,0c1.1-0.2,2.1-0.7,2.8-1.6
			C73.8,49.4,74.2,48.3,74.2,47.2z M74.4,47.2c0,0.6-0.1,1.2-0.3,1.7c-0.2,0.5-0.5,1.1-0.9,1.5c-0.7,0.9-1.8,1.5-2.9,1.8l0.1,0
			c-0.4,0.2-0.6,0.2-0.9,0.2l-0.8,0.1l-1.5,0.1l-3.1,0.2L58,53.2c-4.1,0.2-8.2,0.4-12.4,0.4c-4.1,0-8.2,0-12.4-0.1
			c-2.1,0-4.1-0.1-6.2-0.2L24,53.2c-0.5,0-1-0.1-1.6-0.1L21.6,53c-0.1,0-0.3,0-0.4-0.1l-0.1,0c0,0-0.1,0-0.2,0
			c-0.2-0.1-0.4-0.2-0.6-0.3l0.6,0.3c-0.5-0.1-1-0.2-1.5-0.3c-0.5-0.2-1-0.4-1.5-0.6c-0.9-0.5-1.7-1.2-2.4-2.1
			c-0.3-0.4-0.6-0.9-0.8-1.4c-0.2-0.5-0.4-1-0.5-1.5c0-0.3-0.1-0.5-0.1-0.8c0-0.3,0-0.4,0-0.7c0-0.5,0.1-1,0.2-1.5
			c0.1-0.5,0.3-1,0.5-1.5c0.2-0.5,0.5-0.9,0.8-1.3c0.3-0.4,0.7-0.8,1.1-1.1c0.4-0.3,0.8-0.6,1.3-0.9c0.4-0.2,0.9-0.4,1.4-0.6
			l0.7-0.2c0.3,0,0.5-0.1,0.8-0.1c0.4,0,1,0,1.5,0.1c0.5,0.1,1,0.2,1.4,0.4L23.3,39c0.4-1,0.9-1.9,1.6-2.7c0.4-0.4,0.7-0.8,1.1-1.1
			c0.4-0.3,0.9-0.6,1.3-0.8c0.9-0.5,1.9-0.8,3-0.9c0.3,0,0.5,0,0.8,0c0.3,0,0.5,0,0.8,0c0.5,0,1,0.2,1.5,0.3L33.1,34
			c0.1-0.6,0.3-1.1,0.5-1.6c0.2-0.5,0.4-1,0.7-1.5c0.3-0.5,0.6-1,0.9-1.4c0.4-0.4,0.7-0.9,1.2-1.3c0.2-0.2,0.4-0.4,0.6-0.6
			c0.2-0.2,0.4-0.4,0.7-0.5c0.5-0.3,1-0.6,1.5-0.9c0.5-0.2,1.1-0.4,1.6-0.6c0.6-0.2,1.1-0.3,1.7-0.3l0.8-0.1c0.3,0,0.6,0,0.9,0
			c0.6,0,1.2,0.1,1.7,0.2c0.6,0.1,1.1,0.3,1.7,0.5c0.5,0.2,1.1,0.5,1.6,0.8c0.5,0.3,1,0.6,1.4,1c0.5,0.4,0.9,0.8,1.3,1.2
			c0.4,0.4,0.7,0.9,1,1.4c0.3,0.5,0.6,1,0.8,1.6L53,31.5c0.2,0,0.4,0,0.7,0c0.2,0,0.5,0,0.7,0c0.5,0,0.9,0.1,1.4,0.3
			c0.9,0.2,1.8,0.6,2.5,1.2c0.4,0.3,0.8,0.6,1.1,0.9c0.3,0.3,0.6,0.7,0.9,1c0.3,0.4,0.5,0.8,0.7,1.2c0.2,0.4,0.4,0.8,0.5,1.3
			l-1.1-0.3c1.1-0.9,2.5-1.4,3.9-1.5c0.2,0,0.4,0,0.5,0c0.1,0,0.3,0,0.5,0c0.3,0,0.7,0.1,1,0.1c0.3,0.1,0.7,0.2,1,0.3
			c0.3,0.1,0.6,0.3,0.9,0.4c1.2,0.6,2.2,1.6,2.8,2.8c0.2,0.3,0.3,0.6,0.4,0.9c0.1,0.3,0.2,0.6,0.3,0.9c0.1,0.3,0.1,0.7,0.2,1
			c0,0.3,0.1,0.6,0,1l-0.1-0.1c0.8,0.5,1.4,1.1,1.8,1.9C74.2,45.4,74.4,46.3,74.4,47.2z"/>
	</g>
	<g id="XMLID_378_">
		<path id="XMLID_13_" class="st3" d="M74.3,47.2c0-1.9-1-3.5-2.5-4.4c0-0.1,0-0.2,0-0.2c0-3.7-3-6.7-6.7-6.7
			c-1.6,0-3.1,0.6-4.3,1.6c-1.1-3-3.9-5.1-7.3-5.1c-0.2,0-0.4,0-0.6,0c-1.5-3.8-5.2-6.5-9.6-6.5c-5,0-9.1,3.5-10.1,8.2
			c-0.7-0.2-1.5-0.3-2.3-0.3c-3.4,0-6.4,2.2-7.4,5.4c-0.7-0.2-1.4-0.4-2.1-0.4c-3.7,0-6.7,3-6.7,6.7c0,3.5,2.7,6.1,6.1,6.5
			c0.9,0.9,48.5,1,49.3,0.1C72.6,51.5,74.3,49.7,74.3,47.2z"/>
		<path id="XMLID_10_" class="st3" d="M74.2,47.2c0-0.9-0.2-1.7-0.7-2.4c-0.4-0.7-1-1.4-1.8-1.8l-0.1,0l0-0.1c0.1-0.3,0-0.6,0-0.9
			c-0.1-0.3-0.1-0.6-0.2-0.9c-0.2-0.6-0.4-1.2-0.7-1.7c-0.6-1.1-1.6-1.9-2.7-2.5c-0.3-0.1-0.6-0.2-0.9-0.3c-0.3-0.1-0.6-0.2-0.9-0.2
			c-0.3-0.1-0.6-0.1-0.9-0.1c-0.3,0-0.6,0-0.9,0.1c-1.2,0.2-2.4,0.7-3.3,1.5l-0.4,0.4l-0.2-0.5c-0.3-0.7-0.7-1.4-1.2-2
			c-0.5-0.6-1.1-1.1-1.8-1.5c-0.7-0.4-1.4-0.7-2.1-0.9c-0.4-0.1-0.8-0.1-1.1-0.2c-0.2,0-0.4,0-0.6,0l-0.6,0l-0.5,0l-0.2-0.5
			c-0.2-0.5-0.5-0.9-0.7-1.3c-0.3-0.4-0.6-0.8-0.9-1.2c-0.3-0.4-0.7-0.7-1.1-1c-0.4-0.3-0.8-0.6-1.2-0.8c-0.4-0.2-0.9-0.5-1.3-0.6
			c-0.5-0.2-0.9-0.3-1.4-0.4c-0.5-0.1-1-0.1-1.5-0.2c-0.2,0-0.5,0-0.7,0l-0.8,0.1c-0.5,0.1-0.9,0.2-1.4,0.3
			c-0.5,0.1-0.9,0.3-1.3,0.5c-0.4,0.2-0.8,0.4-1.2,0.7c-0.2,0.1-0.4,0.3-0.6,0.4c-0.2,0.1-0.4,0.3-0.5,0.5c-0.3,0.3-0.7,0.7-0.9,1.1
			c-0.3,0.4-0.5,0.8-0.8,1.2c-0.2,0.4-0.4,0.8-0.6,1.3c-0.2,0.4-0.3,0.9-0.4,1.3l-0.4,1.7l-1.7-0.5c-0.4-0.1-0.8-0.2-1.2-0.2
			c-0.2,0-0.4,0-0.6,0c-0.1,0-0.5,0-0.7,0c-0.2,0-0.3,0-0.5,0.1c-0.2,0-0.4,0.1-0.6,0.2c-0.4,0.1-0.7,0.3-1.1,0.5
			c-0.3,0.2-0.7,0.4-1,0.7c-0.3,0.2-0.6,0.5-0.8,0.8c-0.5,0.6-0.9,1.3-1.1,2l-0.6,1.7l-1.7-0.5c-0.4-0.1-0.7-0.2-1-0.2
			c-0.2,0-0.3,0-0.5,0l-0.6,0l-0.4,0.1l-0.5,0.1c-0.3,0.1-0.6,0.2-0.9,0.4c-0.3,0.2-0.6,0.4-0.8,0.6c-0.3,0.2-0.5,0.5-0.7,0.8
			c-0.2,0.3-0.4,0.6-0.5,0.9c-0.1,0.3-0.3,0.6-0.3,1c-0.1,0.3-0.1,0.7-0.1,1l0,0l0.2,0c0-0.2,0.2,0,0.2-0.1v0v0l-0.2,0.1l-0.1,0.2
			l0,0.4l0,0.4c0.1,0.3,0.2,0.7,0.3,1c0.1,0.3,0.3,0.6,0.5,0.9c0.4,0.6,0.9,1,1.5,1.4c0.3,0.2,0.6,0.3,1,0.4
			c0.3,0.1,0.7,0.2,1.1,0.2l1,0.5c-0.1-0.1-0.3-0.3-0.5-0.3l-0.1,0l0,0l0.1,0c0.1,0,0.2,0,0.3,0l0.7,0.1l1.5,0.1l3.1,0.2l6.1,0.4
			c4.1,0.2,8.2,0.4,12.3,0.5l6.2,0.2c2.1,0.1,4.1,0.1,6.2,0.2l6.2,0c1,0,2.1,0,3.1-0.1l1.5-0.1l0.8-0.1c0.2,0,0.5-0.1,0.7-0.1l0.1,0
			c1.1-0.2,2.1-0.8,2.8-1.6C73.8,49.4,74.2,48.3,74.2,47.2z M74.4,47.2c0,0.6-0.1,1.2-0.3,1.7c-0.2,0.5-0.5,1-0.9,1.5
			c-0.7,0.9-1.8,1.5-2.9,1.7l0.1,0c-0.6,0.2-1.1,0.2-1.6,0.2l-1.5,0.1l-3.1,0.1L58,52.7c-4.1,0.1-8.2,0.1-12.4,0.1
			c-4.1,0-8.2,0-12.4-0.1l-6.2-0.1L24,52.4c-0.5,0-1-0.1-1.5-0.1l-0.8-0.1c-0.3-0.1-0.5,0-0.9-0.2l0.1,0.1c-0.5-0.1-0.9-0.1-1.4-0.3
			c-0.5-0.1-0.9-0.3-1.3-0.5c-0.8-0.5-1.6-1.1-2.2-1.8c-0.3-0.4-0.5-0.8-0.7-1.2c-0.2-0.4-0.3-0.9-0.5-1.4c0-0.2-0.1-0.5-0.1-0.7
			c0-0.2,0-0.5,0-0.7c0-0.5,0.1-1,0.2-1.4c0.1-0.5,0.3-0.9,0.5-1.4c0.2-0.4,0.4-0.9,0.7-1.2c0.3-0.4,0.6-0.7,1-1.1
			c0.4-0.3,0.8-0.6,1.2-0.8c0.4-0.2,0.9-0.4,1.3-0.6c0.5-0.1,0.9-0.2,1.4-0.3c0.5,0,1-0.1,1.4,0c0.5,0.1,0.9,0.2,1.4,0.3L23.6,39
			c0.3-1,0.8-1.9,1.5-2.7c0.7-0.8,1.5-1.4,2.4-1.9c0.9-0.5,1.9-0.8,3-0.9c0.5,0,1-0.1,1.5,0c0.5,0.1,1,0.2,1.5,0.3l-0.2,0.1
			c0.1-0.5,0.3-1.1,0.5-1.6c0.2-0.5,0.4-1,0.7-1.5c0.3-0.5,0.6-0.9,1-1.4c0.4-0.4,0.7-0.8,1.2-1.2c0.2-0.2,0.4-0.4,0.6-0.5
			c0.2-0.2,0.4-0.3,0.7-0.5c0.5-0.3,1-0.6,1.5-0.8c0.5-0.2,1-0.4,1.6-0.5c0.5-0.1,1.1-0.2,1.7-0.3c0.5,0,1.1,0,1.7,0
			c0.6,0,1.1,0.1,1.6,0.3c0.5,0.1,1.1,0.3,1.6,0.5c0.5,0.2,1,0.5,1.5,0.8c0.5,0.3,0.9,0.6,1.3,1c0.4,0.4,0.8,0.8,1.2,1.2
			c0.4,0.4,0.7,0.9,1,1.4c0.3,0.5,0.5,1,0.7,1.5L53,32.2c0.8-0.1,1.7,0,2.5,0.2c0.8,0.2,1.6,0.6,2.3,1c0.7,0.5,1.4,1,1.9,1.7
			c0.5,0.7,1,1.4,1.2,2.2l-0.2-0.1c1-0.8,2.2-1.4,3.5-1.5c1.3-0.1,2.6,0.1,3.8,0.7c1.2,0.6,2.2,1.5,2.8,2.6c0.3,0.6,0.6,1.2,0.7,1.8
			c0.1,0.3,0.1,0.6,0.2,1c0,0.3,0.1,0.6,0,1l-0.1-0.1c0.8,0.5,1.4,1.1,1.8,1.9C74.2,45.4,74.4,46.3,74.4,47.2z"/>
	</g>
</g>
<g id="XMLID_442_">
	<path id="XMLID_35_" class="st4" d="M74.6,76.2H63c-0.3,0-0.6-0.3-0.6-0.6v-0.2c0-0.3,0.3-0.6,0.6-0.6h11.5c0.3,0,0.6,0.3,0.6,0.6
		v0.2C75.2,75.9,74.9,76.2,74.6,76.2z"/>
	<path id="XMLID_443_" class="st4" d="M70.4,72.3H58.9c-0.3,0-0.6-0.3-0.6-0.6v-0.2c0-0.3,0.3-0.6,0.6-0.6h11.5
		c0.3,0,0.6,0.3,0.6,0.6v0.2C71,72,70.7,72.3,70.4,72.3z"/>
	<path id="XMLID_752_" class="st4" d="M57.6,64.4H46.1c-0.3,0-0.6-0.3-0.6-0.6v-0.2c0-0.3,0.3-0.6,0.6-0.6h11.5
		c0.3,0,0.6,0.3,0.6,0.6v0.2C58.2,64.1,57.9,64.4,57.6,64.4z"/>
	<path id="XMLID_763_" class="st4" d="M62.7,56.5h-5.4c-0.3,0-0.6-0.3-0.6-0.6v-0.2c0-0.3,0.3-0.6,0.6-0.6h5.4
		c0.3,0,0.6,0.3,0.6,0.6v0.2C63.4,56.2,63.1,56.5,62.7,56.5z"/>
	<path id="XMLID_757_" class="st4" d="M58.1,60.4h-6.8c-0.3,0-0.6-0.3-0.6-0.6v-0.2c0-0.3,0.3-0.6,0.6-0.6h6.8
		c0.3,0,0.6,0.3,0.6,0.6v0.2C58.7,60.2,58.4,60.4,58.1,60.4z"/>
	<path id="XMLID_446_" class="st4" d="M64,68.3H52.5c-0.3,0-0.6-0.3-0.6-0.6v-0.2c0-0.3,0.3-0.6,0.6-0.6H64c0.3,0,0.6,0.3,0.6,0.6
		v0.2C64.6,68,64.3,68.3,64,68.3z"/>
</g>
</svg>
