<?xml version="1.0" encoding="utf-8"?>
<!-- Generator: Adobe Illustrator 19.0.0, SVG Export Plug-In . SVG Version: 6.00 Build 0)  -->
<svg version="1.1" id="Layer_1" xmlns="http://www.w3.org/2000/svg" xmlns:xlink="http://www.w3.org/1999/xlink" x="0px" y="0px"
	 viewBox="0 0 100 100" style="enable-background:new 0 0 100 100;" xml:space="preserve">
<style type="text/css">
	.st0{fill:#48A4C0;}
	.st1{fill:#A5A7AA;}
	.st2{fill:#BBBCBE;}
</style>
<path id="XMLID_344_" class="st0" d="M42.3,70.3c-0.4,0.7-1.3,0.9-2,0.5c-0.7-0.4-1-1.3-0.6-1.9c0.4-0.7,3.1-2.1,3.1-2.1
	S42.7,69.6,42.3,70.3z"/>
<path id="XMLID_528_" class="st0" d="M70,66.3c-0.3,0.5-1,0.6-1.5,0.3c-0.5-0.3-0.7-0.9-0.4-1.4c0.3-0.5,2.3-1.6,2.3-1.6
	S70.3,65.8,70,66.3z"/>
<path id="XMLID_529_" class="st0" d="M55.9,77.5c-0.2,0.3-0.7,0.5-1.1,0.2c-0.4-0.2-0.5-0.7-0.3-1s1.6-1.1,1.6-1.1
	S56.1,77.2,55.9,77.5z"/>
<g id="XMLID_93_">
	<path id="XMLID_497_" class="st1" d="M40.9,40.3c0-1.5,0.9-2.8,2.1-3.6c0-0.1,0-0.1,0-0.2c0-3,2.6-5.5,5.8-5.5
		c1.4,0,2.7,0.5,3.6,1.3c0.9-2.4,3.4-4.2,6.3-4.2c0.2,0,0.3,0,0.5,0c1.3-3.1,4.5-5.3,8.2-5.3c4.3,0,7.8,2.9,8.7,6.7
		c0.6-0.2,1.3-0.3,1.9-0.3c3,0,5.5,1.8,6.3,4.4c0.6-0.2,1.2-0.3,1.8-0.3c3.2,0,5.8,2.5,5.8,5.5c0,2.8-2.3,5-5.2,5.3
		c-0.8,0.7-41.6,0.8-42.4,0.1C42.4,43.8,40.9,42.3,40.9,40.3z"/>
	<path id="XMLID_491_" class="st1" d="M40.9,40.3c0-1.5,0.9-2.8,2.1-3.6c0-0.1,0-0.1,0-0.2c0-3,2.6-5.5,5.8-5.5
		c1.4,0,2.7,0.5,3.6,1.3c0.9-2.4,3.4-4.2,6.3-4.2c0.2,0,0.3,0,0.5,0c1.3-3.1,4.5-5.3,8.2-5.3c4.3,0,7.8,2.9,8.7,6.7
		c0.6-0.2,1.3-0.3,1.9-0.3c3,0,5.5,1.8,6.3,4.4c0.6-0.2,1.2-0.3,1.8-0.3c3.2,0,5.8,2.5,5.8,5.5c0,2.8-2.3,5-5.2,5.3
		c-0.8,0.7-41.6,0.8-42.4,0.1C42.4,43.8,40.9,42.3,40.9,40.3z"/>
	<path id="XMLID_471_" class="st1" d="M40.9,40.3c0-1.5,0.9-2.8,2.1-3.6c0-0.1,0-0.1,0-0.2c0-3,2.6-5.5,5.8-5.5
		c1.4,0,2.7,0.5,3.6,1.3c0.9-2.4,3.4-4.2,6.3-4.2c0.2,0,0.3,0,0.5,0c1.3-3.1,4.5-5.3,8.2-5.3c4.3,0,7.8,2.9,8.7,6.7
		c0.6-0.2,1.3-0.3,1.9-0.3c3,0,5.5,1.8,6.3,4.4c0.6-0.2,1.2-0.3,1.8-0.3c3.2,0,5.8,2.5,5.8,5.5c0,2.8-2.3,5-5.2,5.3
		c-0.8,0.7-41.6,0.8-42.4,0.1C42.4,43.8,40.9,42.3,40.9,40.3z"/>
	<path id="XMLID_317_" class="st1" d="M40.9,40.3c0-1.5,0.9-2.8,2.1-3.6c0-0.1,0-0.1,0-0.2c0-3,2.6-5.5,5.8-5.5
		c1.4,0,2.7,0.5,3.6,1.3c0.9-2.4,3.4-4.2,6.3-4.2c0.2,0,0.3,0,0.5,0c1.3-3.1,4.5-5.3,8.2-5.3c4.3,0,7.8,2.9,8.7,6.7
		c0.6-0.2,1.3-0.3,1.9-0.3c3,0,5.5,1.8,6.3,4.4c0.6-0.2,1.2-0.3,1.8-0.3c3.2,0,5.8,2.5,5.8,5.5c0,2.8-2.3,5-5.2,5.3
		c-0.8,0.7-41.6,0.8-42.4,0.1C42.4,43.8,40.9,42.3,40.9,40.3z"/>
</g>
<g id="XMLID_414_">
	<g id="XMLID_39_">
		<path id="XMLID_43_" class="st1" d="M64.3,52.2c0-1.7-1-3.1-2.4-4c0-0.1,0-0.1,0-0.2c0-3.4-2.9-6.1-6.4-6.1
			c-1.5,0-2.9,0.5-4.1,1.4c-1-2.7-3.8-4.7-7-4.7c-0.2,0-0.4,0-0.5,0c-1.5-3.4-5-5.9-9.1-5.9c-4.7,0-8.7,3.2-9.6,7.4
			c-0.7-0.2-1.4-0.3-2.2-0.3c-3.3,0-6.1,2-7,4.9c-0.6-0.2-1.3-0.3-2-0.3c-3.5,0-6.4,2.7-6.4,6.1c0,3.2,2.5,5.6,5.8,5.9
			c0.8,0.8,46.2,0.9,47.1,0.1C62.6,56.1,64.3,54.5,64.3,52.2z"/>
		<path id="XMLID_42_" class="st1" d="M64.3,52.2c0-1.7-1-3.1-2.4-4c0-0.1,0-0.1,0-0.2c0-3.4-2.9-6.1-6.4-6.1
			c-1.5,0-2.9,0.5-4.1,1.4c-1-2.7-3.8-4.7-7-4.7c-0.2,0-0.4,0-0.5,0c-1.5-3.4-5-5.9-9.1-5.9c-4.7,0-8.7,3.2-9.6,7.4
			c-0.7-0.2-1.4-0.3-2.2-0.3c-3.3,0-6.1,2-7,4.9c-0.6-0.2-1.3-0.3-2-0.3c-3.5,0-6.4,2.7-6.4,6.1c0,3.2,2.5,5.6,5.8,5.9
			c0.8,0.8,46.2,0.9,47.1,0.1C62.6,56.1,64.3,54.5,64.3,52.2z"/>
		<path id="XMLID_41_" class="st1" d="M64.3,52.2c0-1.7-1-3.1-2.4-4c0-0.1,0-0.1,0-0.2c0-3.4-2.9-6.1-6.4-6.1
			c-1.5,0-2.9,0.5-4.1,1.4c-1-2.7-3.8-4.7-7-4.7c-0.2,0-0.4,0-0.5,0c-1.5-3.4-5-5.9-9.1-5.9c-4.7,0-8.7,3.2-9.6,7.4
			c-0.7-0.2-1.4-0.3-2.2-0.3c-3.3,0-6.1,2-7,4.9c-0.6-0.2-1.3-0.3-2-0.3c-3.5,0-6.4,2.7-6.4,6.1c0,3.2,2.5,5.6,5.8,5.9
			c0.8,0.8,46.2,0.9,47.1,0.1C62.6,56.1,64.3,54.5,64.3,52.2z"/>
		<path id="XMLID_40_" class="st1" d="M64.3,52.2c0-1.7-1-3.1-2.4-4c0-0.1,0-0.1,0-0.2c0-3.4-2.9-6.1-6.4-6.1
			c-1.5,0-2.9,0.5-4.1,1.4c-1-2.7-3.8-4.7-7-4.7c-0.2,0-0.4,0-0.5,0c-1.5-3.4-5-5.9-9.1-5.9c-4.7,0-8.7,3.2-9.6,7.4
			c-0.7-0.2-1.4-0.3-2.2-0.3c-3.3,0-6.1,2-7,4.9c-0.6-0.2-1.3-0.3-2-0.3c-3.5,0-6.4,2.7-6.4,6.1c0,3.2,2.5,5.6,5.8,5.9
			c0.8,0.8,46.2,0.9,47.1,0.1C62.6,56.1,64.3,54.5,64.3,52.2z"/>
	</g>
</g>
<g id="XMLID_327_">
	<g id="XMLID_53_">
		<path id="XMLID_58_" class="st2" d="M80.1,42.9c-0.1,0-0.1,0-0.2,0c-1.6-3.8-5.5-6.5-10-6.5c-0.7,0-1.4,0.1-2.1,0.2
			c0-7.6-6.5-13.8-14.5-13.8c-7.7,0-14,5.7-14.5,12.9c-0.3,0-0.5,0-0.8,0c-8,0-14.5,6.2-14.5,13.8c0,6.6,4.8,12.4,11.3,13.8
			c0.7,0.2,45.1,0.2,45.3,0.2c5.9,0,10.8-4.7,10.8-10.3C90.8,47.6,86,42.9,80.1,42.9z"/>
		<path id="XMLID_56_" class="st2" d="M79.2,42.9c-0.1,0-0.1,0-0.2,0c-1.6-3.8-5.5-6.5-10-6.5c-0.7,0-1.4,0.1-2.1,0.2
			c0-7.6-6.5-13.8-14.5-13.8c-7.7,0-14,5.7-14.5,12.9c-0.3,0-0.5,0-0.8,0c-8,0-14.5,6.2-14.5,13.8c0,6.6,4.8,12.4,11.3,13.8
			c0.7,0.2,45.1,0.2,45.3,0.2c5.9,0,10.8-4.7,10.8-10.3C89.9,47.6,85.1,42.9,79.2,42.9z"/>
		<path id="XMLID_54_" class="st2" d="M79.2,42.9c-0.1,0-0.1,0-0.2,0c-1.6-3.8-5.5-6.5-10-6.5c-0.7,0-1.4,0.1-2.1,0.2
			c0-7.6-6.5-13.8-14.5-13.8c-7.7,0-14,5.7-14.5,12.9c-0.3,0-0.5,0-0.8,0c-8,0-14.5,6.2-14.5,13.8c0,6.6,4.8,12.4,11.3,13.8
			c0.7,0.2,45.1,0.2,45.3,0.2c5.9,0,10.8-4.7,10.8-10.3C89.9,47.6,85.1,42.9,79.2,42.9z"/>
	</g>
</g>
</svg>
