<?xml version="1.0" encoding="utf-8"?>
<!-- Generator: Adobe Illustrator 21.0.0, SVG Export Plug-In . SVG Version: 6.00 Build 0)  -->
<svg version="1.1" id="lightningIcon" xmlns="http://www.w3.org/2000/svg" xmlns:xlink="http://www.w3.org/1999/xlink" x="0px"
	 y="0px" viewBox="0 0 56 42.1" style="enable-background:new 0 0 56 42.1;" xml:space="preserve">
<style type="text/css">
	.st0{fill:#FF9B00;}
	.st1{fill:#939598;}
	.st2{fill:#A7A9AC;}
	.st3{fill:#6D6E71;}
	.st4{fill:#BCBEC0;}
</style>
<path id="lightning" class="st0" d="M32.2,26l-6.4,8.5l-0.6-1.2h5.3H32l-0.9,1.2l-6,7.4c-0.1,0.2-0.3,0.2-0.5,0.1
	c-0.1-0.1-0.2-0.3-0.1-0.5l5.4-7.9l0.6,1.2h-5.3h-1.5l0.9-1.2l6.4-8.5c0.2-0.3,0.7-0.4,1-0.1C32.4,25.2,32.5,25.7,32.2,26z"/>
<g id="cloud2">
	<circle class="st1" cx="6.7" cy="14.8" r="6.7"/>
	<circle class="st2" cx="20.4" cy="13.1" r="5.3"/>
	<path class="st1" d="M27.9,18.4c0,1.7-1.4,3.1-3.1,3.1H6.1c-1.7,0-3.1-1.4-3.1-3.1l0,0c0-1.7,13.4-6.7,15.1-6.7
		c0,0,0.5,4.9,4.1,0.8C23.5,11,27.9,16.7,27.9,18.4L27.9,18.4z"/>
	<circle class="st1" cx="25.6" cy="16.3" r="5.1"/>
	<path class="st2" d="M30.7,15.9c-0.2-2.5-2.2-4.5-4.7-4.7c-2.1,0.2-3.8,2-3.8,4.2c0,2.4,1.9,4.3,4.3,4.3
		C28.7,19.7,30.5,18,30.7,15.9z"/>
	<path class="st2" d="M6,8.2C2.9,8.5,0.4,11,0.1,14.1c0.3,2.7,2.6,4.7,5.3,4.7c2.9,0,5.3-2.4,5.3-5.3C10.7,10.8,8.6,8.5,6,8.2z"/>
	<circle class="st1" cx="13.5" cy="8.8" r="7.1"/>
	<path class="st2" d="M19.7,7c0-0.8-0.1-1.5-0.4-2.2C18,3,15.9,1.7,13.5,1.7c-3.9,0-7.1,3.2-7.1,7.1c0,0.7,0.1,1.3,0.3,1.9
		c1.2,2,3.4,3.3,6,3.3C16.6,14,19.7,10.9,19.7,7z"/>
</g>
<g id="cloud1">
	<circle class="st1" cx="49.1" cy="13.2" r="6.7"/>
	<circle class="st2" cx="35.3" cy="11.4" r="5.3"/>
	<path class="st1" d="M27.9,16.7c0,1.7,1.4,3.1,3.1,3.1h18.6c1.7,0,3.1-1.4,3.1-3.1l0,0c0-1.7-13.4-6.7-15.1-6.7
		c0,0-0.5,4.9-4.1,0.8C32.3,9.3,27.9,15,27.9,16.7L27.9,16.7z"/>
	<circle class="st1" cx="30.2" cy="14.7" r="5.1"/>
	<path class="st2" d="M25.1,14.2c0.2-2.5,2.2-4.5,4.7-4.7c2.1,0.2,3.8,2,3.8,4.2c0,2.4-1.9,4.3-4.3,4.3
		C27.1,18.1,25.3,16.4,25.1,14.2z"/>
	<path class="st2" d="M49.8,6.6c3.1,0.3,5.6,2.8,5.9,5.9c-0.3,2.7-2.6,4.7-5.3,4.7c-2.9,0-5.3-2.4-5.3-5.3
		C45.1,9.1,47.1,6.9,49.8,6.6z"/>
	<circle class="st1" cx="42.2" cy="7.2" r="7.1"/>
	<path class="st2" d="M36.1,5.3c0-0.8,0.1-1.5,0.4-2.2C37.8,1.3,39.9,0,42.3,0c3.9,0,7.1,3.2,7.1,7.1c0,0.7-0.1,1.3-0.3,1.9
		c-1.2,2-3.4,3.3-6,3.3C39.2,12.4,36.1,9.2,36.1,5.3z"/>
</g>
<g id="cloud0">
	<path class="st3" d="M55.9,23c0,2.6-2.9,4.6-6.5,4.6h-39c-3.6,0-6.5-2.1-6.5-4.6l0,0c0-2.6,2.9-4.6,6.5-4.6h39
		C53,18.3,55.9,20.4,55.9,23L55.9,23z"/>
	<circle class="st4" cx="27.8" cy="12" r="8.5"/>
	<circle class="st3" cx="37.2" cy="17.4" r="7.8"/>
	<path class="st4" d="M37.2,9.6c-1.8,0-3.5,0.6-4.9,1.7c-0.9,1.3-1.4,2.8-1.4,4.5c0,4.4,3.5,7.9,7.9,7.9c1.7,0,3.2-0.5,4.5-1.4
		c1.1-1.3,1.7-3,1.7-4.9C45,13.1,41.5,9.6,37.2,9.6z"/>
	<circle class="st3" cx="50.9" cy="22.5" r="5.1"/>
	<circle class="st3" cx="9.5" cy="21.1" r="6.5"/>
	<path class="st4" d="M14.3,19.8c0-1.8-0.8-3.4-2-4.5c-0.9-0.4-1.8-0.7-2.8-0.7c-3.6,0-6.5,2.9-6.5,6.5c0,1,0.2,2,0.7,2.8
		c1.1,1.2,2.7,2,4.5,2C11.6,26,14.3,23.2,14.3,19.8z"/>
	<circle class="st3" cx="17.2" cy="18.3" r="7.6"/>
	<path class="st4" d="M17.2,10.7c-4.2,0-7.6,3.4-7.6,7.6c0,1.5,0.4,2.9,1.2,4c1.3,1.2,3.1,1.9,5,1.9c4.1,0,7.5-3.3,7.5-7.5
		c0-1.9-0.7-3.7-1.9-5C20,11.1,18.6,10.7,17.2,10.7z"/>
	<circle class="st3" cx="46.4" cy="17.4" r="5.4"/>
	<path class="st4" d="M46.5,21.7c2.8,0,5-2.1,5.3-4.8c-0.3-2.7-2.6-4.9-5.4-4.9c-2.5,0-4.6,1.7-5.2,3.9c0,0.1,0,0.3,0,0.4
		C41.2,19.3,43.6,21.7,46.5,21.7z"/>
	<path class="st4" d="M50.9,17.4c-2.6,0-4.7,1.9-5,4.4c0.2,2.6,2.4,4.7,5,4.7s4.8-2,5-4.6C55.7,19.4,53.5,17.4,50.9,17.4z"/>
</g>
</svg>
