<?xml version="1.0" encoding="utf-8"?>
<!-- Generator: Adobe Illustrator 19.0.0, SVG Export Plug-In . SVG Version: 6.00 Build 0)  -->
<svg version="1.1" id="Layer_1" xmlns="http://www.w3.org/2000/svg" xmlns:xlink="http://www.w3.org/1999/xlink" x="0px" y="0px"
	 viewBox="0 0 100 100" style="enable-background:new 0 0 100 100;" xml:space="preserve">
<style type="text/css">
	.st0{fill:url(#XMLID_2_);}
	.st1{fill:#76777B;}
</style>
<g id="XMLID_113_">
	
		<radialGradient id="XMLID_2_" cx="49.9451" cy="38.6384" r="16.2663" gradientTransform="matrix(1 0 0 0.9979 0 0.483)" gradientUnits="userSpaceOnUse">
		<stop  offset="0.6731" style="stop-color:#EEB844"/>
		<stop  offset="0.7874" style="stop-color:#F7D36F"/>
		<stop  offset="0.8573" style="stop-color:#F7D471"/>
		<stop  offset="0.8825" style="stop-color:#F8D678"/>
		<stop  offset="0.9004" style="stop-color:#F8D983"/>
		<stop  offset="0.9148" style="stop-color:#FADE94"/>
		<stop  offset="0.9192" style="stop-color:#FAE09B"/>
	</radialGradient>
	<ellipse id="XMLID_350_" class="st0" cx="49.9" cy="39" rx="16.3" ry="16.2"/>
	<g id="XMLID_442_">
		<path id="XMLID_35_" class="st1" d="M53.6,77.8h-6.4c-0.3,0-0.6-0.3-0.6-0.6l0,0c0-0.3,0.3-0.6,0.6-0.6h6.4c0.3,0,0.6,0.3,0.6,0.6
			l0,0C54.2,77.5,53.9,77.8,53.6,77.8z"/>
		<path id="XMLID_443_" class="st1" d="M51.1,74.4h-6.4c-0.3,0-0.6-0.3-0.6-0.6v0c0-0.3,0.3-0.6,0.6-0.6h6.4c0.3,0,0.6,0.3,0.6,0.6
			v0C51.7,74.1,51.4,74.4,51.1,74.4z"/>
		<path id="XMLID_752_" class="st1" d="M43.5,67.5h-6.4c-0.3,0-0.6-0.3-0.6-0.6l0,0c0-0.3,0.3-0.6,0.6-0.6h6.4
			c0.3,0,0.6,0.3,0.6,0.6l0,0C44.1,67.2,43.8,67.5,43.5,67.5z"/>
		<path id="XMLID_763_" class="st1" d="M46.5,60.6h-2.7c-0.3,0-0.6-0.3-0.6-0.6l0,0c0-0.3,0.3-0.6,0.6-0.6h2.7
			c0.3,0,0.6,0.3,0.6,0.6l0,0C47.2,60.3,46.9,60.6,46.5,60.6z"/>
		<path id="XMLID_757_" class="st1" d="M43.7,64h-3.6c-0.3,0-0.6-0.3-0.6-0.6v0c0-0.3,0.3-0.6,0.6-0.6h3.6c0.3,0,0.6,0.3,0.6,0.6v0
			C44.4,63.8,44.1,64,43.7,64z"/>
		<path id="XMLID_446_" class="st1" d="M47.3,70.9h-6.4c-0.3,0-0.6-0.3-0.6-0.6l0,0c0-0.3,0.3-0.6,0.6-0.6h6.4
			c0.3,0,0.6,0.3,0.6,0.6l0,0C47.9,70.6,47.6,70.9,47.3,70.9z"/>
	</g>
</g>
</svg>
