<?xml version="1.0" encoding="utf-8"?>
<!-- Generator: Adobe Illustrator 19.0.0, SVG Export Plug-In . SVG Version: 6.00 Build 0)  -->
<svg version="1.1" id="Layer_1" xmlns="http://www.w3.org/2000/svg" xmlns:xlink="http://www.w3.org/1999/xlink" x="0px" y="0px"
	 viewBox="0 0 100 100" style="enable-background:new 0 0 100 100;" xml:space="preserve">
<style type="text/css">
	.st0{fill:url(#XMLID_2_);}
	.st1{fill:#D7CC92;}
	.st2{fill:#FFFFFF;stroke:#D0D1D3;stroke-miterlimit:10;}
	.st3{fill:#FFFFFF;}
	.st4{fill:#D0D1D3;}
</style>
<g id="XMLID_38_">
	
		<radialGradient id="XMLID_2_" cx="-56.875" cy="0.25" r="48.2992" gradientTransform="matrix(0.3326 1.2912 -1.1621 0.2994 45.1251 118.9859)" gradientUnits="userSpaceOnUse">
		<stop  offset="0.1157" style="stop-color:#F1EABA"/>
		<stop  offset="0.3163" style="stop-color:#F1E9B8"/>
		<stop  offset="0.3885" style="stop-color:#EFE7B1"/>
		<stop  offset="0.4398" style="stop-color:#EDE2A6"/>
		<stop  offset="0.456" style="stop-color:#ECE0A0"/>
	</radialGradient>
	<circle id="XMLID_358_" class="st0" cx="34.3" cy="50.1" r="27.5"/>
	<circle id="XMLID_354_" class="st1" cx="17.5" cy="47.6" r="5.2"/>
	<circle id="XMLID_84_" class="st1" cx="27.2" cy="35.3" r="4.2"/>
	<circle id="XMLID_78_" class="st1" cx="30" cy="45.8" r="2.5"/>
</g>
<g id="XMLID_97_">
	<path id="XMLID_464_" class="st2" d="M91.3,70c0-2.3-1.2-4.2-3-5.3c0-0.1,0-0.2,0-0.3c0-4.5-3.7-8.2-8.2-8.2c-2,0-3.8,0.7-5.2,1.9
		c-1.3-3.6-4.8-6.2-8.9-6.2c-0.2,0-0.5,0-0.7,0c-1.9-4.6-6.4-7.9-11.6-7.9c-6,0-11.1,4.3-12.3,10c-0.9-0.3-1.8-0.4-2.8-0.4
		c-4.2,0-7.8,2.7-9,6.5c-0.8-0.3-1.7-0.5-2.6-0.5c-4.5,0-8.2,3.7-8.2,8.2c0,4.2,3.3,7.5,7.4,7.9c1.1,1.1,59,1.2,60.1,0.2
		C89.2,75.3,91.3,73,91.3,70z"/>
	<g id="XMLID_455_">
		<path id="XMLID_23_" class="st3" d="M91.3,70c0-2.3-1.2-4.2-3-5.3c0-0.1,0-0.2,0-0.3c0-4.5-3.7-8.2-8.2-8.2c-2,0-3.8,0.7-5.2,1.9
			c-1.3-3.6-4.8-6.2-8.9-6.2c-0.2,0-0.5,0-0.7,0c-1.9-4.6-6.4-7.9-11.6-7.9c-6,0-11.1,4.3-12.3,10c-0.9-0.3-1.8-0.4-2.8-0.4
			c-4.2,0-7.8,2.7-9,6.5c-0.8-0.3-1.7-0.5-2.6-0.5c-4.5,0-8.2,3.7-8.2,8.2c0,4.2,3.3,7.5,7.4,7.9c1.1,1.1,59,1.2,60.1,0.2
			C89.2,75.3,91.3,73,91.3,70z"/>
		<path id="XMLID_20_" class="st4" d="M91.2,70c0-1.1-0.3-2.1-0.8-3c-0.5-0.9-1.3-1.7-2.2-2.2l-0.1,0l0-0.1c0.1-0.4,0-0.8,0-1.2
			c-0.1-0.4-0.1-0.8-0.2-1.1c-0.1-0.4-0.2-0.7-0.4-1.1c-0.2-0.3-0.3-0.7-0.5-1c-0.2-0.3-0.4-0.6-0.7-0.9c-0.3-0.3-0.5-0.6-0.8-0.8
			c-0.3-0.3-0.6-0.5-0.9-0.7c-0.3-0.2-0.6-0.4-1-0.6c-0.3-0.2-0.7-0.3-1.1-0.4c-0.4-0.1-0.7-0.2-1.1-0.3c-0.4-0.1-0.8-0.1-1.1-0.1
			c-0.4,0-0.8,0-1.1,0.1c-1.5,0.2-2.9,0.9-4.1,1.8l-0.3,0.2l-0.1-0.3c-0.2-0.5-0.4-0.9-0.6-1.3c-0.3-0.4-0.5-0.8-0.8-1.2
			c-0.3-0.4-0.7-0.7-1-1.1c-0.4-0.3-0.8-0.6-1.2-0.9c-0.4-0.3-0.9-0.5-1.3-0.7c-0.5-0.2-0.9-0.3-1.4-0.5c-0.5-0.1-1-0.2-1.5-0.2
			c-0.2,0-0.5,0-0.7,0c-0.2,0-0.5,0-0.7,0l-0.3,0L65,52.1c-0.3-0.6-0.5-1.2-0.9-1.7c-0.3-0.5-0.7-1.1-1.1-1.6
			c-0.4-0.5-0.9-0.9-1.4-1.3c-0.5-0.4-1-0.8-1.6-1.1c-0.5-0.3-1.1-0.6-1.7-0.9c-0.6-0.2-1.2-0.4-1.8-0.6l-0.9-0.2l-1-0.1
			c-0.3,0-0.7,0-0.9,0l-1,0.1c-0.6,0.1-1.2,0.2-1.9,0.3c-0.6,0.2-1.2,0.4-1.8,0.6c-0.6,0.3-1.1,0.6-1.7,0.9
			c-0.3,0.2-0.5,0.3-0.8,0.5c-0.3,0.2-0.5,0.4-0.7,0.6c-0.5,0.4-0.9,0.9-1.3,1.4c-0.4,0.5-0.8,1-1.1,1.6c-0.3,0.5-0.6,1.1-0.8,1.7
			c-0.1,0.3-0.2,0.6-0.3,0.9l-0.2,0.9l-0.2,0.7l-0.7-0.2c-0.5-0.2-1.1-0.3-1.7-0.3c-0.3,0-0.6,0-0.9,0c-0.2,0-0.6,0-0.9,0
			c-0.3,0-0.5,0.1-0.8,0.1c-0.3,0.1-0.6,0.1-0.8,0.2c-0.5,0.2-1.1,0.4-1.6,0.6c-1,0.5-1.9,1.3-2.6,2.1c-0.2,0.2-0.4,0.4-0.5,0.7
			c-0.2,0.2-0.3,0.5-0.4,0.7c-0.3,0.5-0.5,1-0.7,1.5l-0.3,0.7l-0.7-0.2c-0.5-0.2-1-0.3-1.5-0.4c-0.5-0.1-1,0-1.6,0l-0.7,0.1
			l-0.7,0.2c-0.5,0.2-1,0.4-1.4,0.6c-0.4,0.3-0.9,0.6-1.2,0.9c-0.4,0.3-0.7,0.7-1,1.1c-0.3,0.4-0.6,0.9-0.8,1.3
			c-0.2,0.5-0.4,1-0.5,1.4c-0.1,0.5-0.2,1-0.2,1.5c0,0.2,0,0.5,0,0.8c0,0.2,0.1,0.5,0.1,0.7c0.1,0.5,0.3,1,0.5,1.4
			c0.2,0.5,0.5,0.9,0.8,1.3c0.3,0.4,0.7,0.8,1,1.1c0.4,0.3,0.8,0.6,1.3,0.8c0.4,0.2,0.9,0.4,1.4,0.6c0.5,0.1,1,0.2,1.5,0.3L27,75
			c-0.1-0.1-0.2-0.2-0.3-0.2l0,0c0,0,0.1,0,0.1,0l0.4,0.1l0.9,0.1l1.8,0.1l3.7,0.1l7.5,0.2l15,0.3l15,0.3l7.5,0.1l3.8,0l1.9-0.1
			l0.9-0.1l0.5-0.1c0.1,0,0.2,0,0.2,0c0.1,0,0.1,0,0.1,0l0.1-0.1c1.3-0.3,2.5-0.9,3.4-2c0.4-0.5,0.8-1.1,1-1.7
			C91,71.4,91.1,70.7,91.2,70z M91.3,70c0,0.7-0.1,1.4-0.3,2.1c-0.2,0.7-0.6,1.3-1,1.8c-0.9,1.1-2.2,1.8-3.6,2.2l0.1-0.1
			c-0.1,0.1-0.2,0.1-0.3,0.1c-0.1,0-0.2,0-0.2,0l-0.5,0.1l-0.9,0.1l-1.9,0.1l-3.8,0.2l-7.5,0.3l-7.5,0.3c-2.5,0.1-5,0.1-7.5,0.1
			c-2.5,0-5,0.1-7.5,0.1l-7.5-0.1c-2.5,0-5-0.1-7.5-0.2L30,77.1L28.1,77l-1-0.1c-0.2,0-0.3,0-0.5-0.1c-0.1,0-0.2,0-0.3-0.1l-0.2-0.1
			c-0.1,0-0.3-0.2-0.5-0.3l0.6,0.3c-0.6-0.1-1.3-0.2-1.9-0.4c-0.6-0.2-1.2-0.4-1.7-0.7c-0.6-0.3-1.1-0.7-1.6-1.1
			c-0.5-0.4-0.9-0.9-1.3-1.4c-0.4-0.5-0.7-1.1-1-1.6c-0.3-0.6-0.4-1.2-0.6-1.8c-0.1-0.3-0.1-0.7-0.1-1c0-0.3,0-0.5,0-0.9
			c0-0.6,0.1-1.3,0.2-1.9c0.1-0.6,0.3-1.2,0.6-1.8c0.3-0.6,0.6-1.1,1-1.6c0.4-0.5,0.8-1,1.3-1.4c0.5-0.4,1-0.8,1.5-1.1
			c0.5-0.3,1.1-0.5,1.7-0.7l0.9-0.2c0.3,0,0.7-0.1,1-0.1c0.5,0,1.2-0.1,1.8,0c0.6,0.1,1.2,0.2,1.8,0.4l-1,0.5
			c0.2-0.6,0.5-1.2,0.8-1.8c0.2-0.3,0.3-0.6,0.5-0.8c0.2-0.3,0.4-0.5,0.6-0.8c0.9-1,1.9-1.8,3.1-2.4c0.6-0.3,1.2-0.5,1.8-0.7
			c0.3-0.1,0.6-0.2,1-0.2c0.3-0.1,0.7-0.1,1-0.1c0.3,0,0.6,0,1,0c0.3,0,0.7,0,1,0.1c0.7,0.1,1.3,0.2,1.9,0.4l-0.8,0.5l0.3-1
			c0.1-0.3,0.2-0.7,0.3-1c0.3-0.7,0.6-1.3,0.9-1.9c0.4-0.6,0.8-1.2,1.2-1.7c0.4-0.5,0.9-1,1.5-1.5c0.3-0.2,0.5-0.5,0.8-0.7
			c0.3-0.2,0.6-0.4,0.9-0.6c0.6-0.4,1.2-0.7,1.9-1c0.6-0.3,1.3-0.5,2-0.7c0.7-0.2,1.4-0.3,2.1-0.3l1,0c0.4,0,0.7,0,1.1,0
			c0.3,0,0.7,0.1,1,0.1l1,0.2c0.7,0.2,1.3,0.4,2,0.7c0.6,0.3,1.3,0.6,1.8,1c0.6,0.4,1.1,0.8,1.7,1.2c0.5,0.5,1,1,1.4,1.5
			c0.4,0.5,0.8,1.1,1.2,1.7c0.3,0.6,0.6,1.2,0.9,1.9l-0.4-0.3c0.3,0,0.5,0,0.8,0c0.3,0,0.5,0,0.8,0c0.5,0.1,1.1,0.2,1.6,0.3
			c0.5,0.1,1,0.3,1.5,0.5c0.5,0.2,0.9,0.5,1.4,0.8c0.4,0.3,0.9,0.6,1.2,1c0.4,0.4,0.7,0.8,1.1,1.2c0.3,0.4,0.6,0.9,0.9,1.3
			c0.3,0.5,0.5,0.9,0.6,1.4L74.8,58c1.2-1,2.8-1.7,4.4-1.8c0.4,0,0.8-0.1,1.2,0c0.4,0,0.8,0.1,1.2,0.1c0.4,0.1,0.8,0.2,1.2,0.3
			c0.4,0.1,0.7,0.3,1.1,0.5c0.4,0.2,0.7,0.4,1,0.6c0.3,0.2,0.6,0.5,0.9,0.8c0.3,0.3,0.5,0.6,0.8,0.9c0.2,0.3,0.5,0.6,0.7,1
			c0.2,0.3,0.4,0.7,0.5,1.1c0.1,0.4,0.3,0.7,0.4,1.1c0.1,0.4,0.2,0.8,0.2,1.2c0,0.4,0.1,0.8,0,1.2l0-0.1c0.9,0.6,1.7,1.4,2.2,2.3
			C91.1,67.9,91.4,68.9,91.3,70z"/>
	</g>
	<g id="XMLID_418_">
		<path id="XMLID_18_" class="st3" d="M91.3,70c0-2.3-1.2-4.2-3-5.3c0-0.1,0-0.2,0-0.3c0-4.5-3.7-8.2-8.2-8.2c-2,0-3.8,0.7-5.2,1.9
			c-1.3-3.6-4.8-6.2-8.9-6.2c-0.2,0-0.5,0-0.7,0c-1.9-4.6-6.4-7.9-11.6-7.9c-6,0-11.1,4.3-12.3,10c-0.9-0.3-1.8-0.4-2.8-0.4
			c-4.2,0-7.8,2.7-9,6.5c-0.8-0.3-1.7-0.5-2.6-0.5c-4.5,0-8.2,3.7-8.2,8.2c0,4.2,3.3,7.5,7.4,7.9c1.1,1.1,59,1.2,60.1,0.2
			C89.2,75.3,91.3,73,91.3,70z"/>
		<path id="XMLID_15_" class="st4" d="M91.2,70c0-1.1-0.3-2.1-0.8-3c-0.5-0.9-1.3-1.7-2.2-2.2l-0.1,0l0-0.1c0.1-0.4,0-0.8,0-1.2
			c-0.1-0.4-0.1-0.7-0.2-1.1c-0.1-0.4-0.2-0.7-0.4-1.1c-0.2-0.3-0.3-0.7-0.6-1c-0.8-1.3-2-2.3-3.4-2.9c-0.3-0.2-0.7-0.3-1-0.4
			c-0.4-0.1-0.7-0.2-1.1-0.2c-0.4-0.1-0.7-0.1-1.1-0.1c-0.2,0-0.4,0-0.6,0c-0.2,0-0.3,0-0.5,0.1c-1.4,0.2-2.8,0.9-3.8,1.8l-0.7,0.6
			l-0.4-1c-0.2-0.4-0.4-0.9-0.6-1.3c-0.2-0.4-0.5-0.8-0.8-1.1c-0.3-0.4-0.6-0.7-1-1c-0.3-0.3-0.7-0.6-1.1-0.8
			c-0.4-0.3-0.8-0.5-1.2-0.7c-0.4-0.2-0.9-0.3-1.3-0.4c-0.5-0.1-0.9-0.2-1.4-0.2l-0.7,0c-0.2,0-0.5,0-0.7,0l-0.6,0l-0.2-0.6
			c-0.2-0.6-0.5-1.1-0.8-1.7c-0.3-0.5-0.7-1-1.1-1.5c-0.4-0.5-0.8-0.9-1.3-1.3c-0.5-0.4-1-0.8-1.5-1.1c-0.5-0.3-1.1-0.6-1.6-0.9
			c-0.6-0.3-1.2-0.5-1.8-0.6l-0.9-0.2l-0.9-0.1l-0.9-0.1l-1,0c-0.6,0.1-1.2,0.1-1.9,0.3c-0.6,0.1-1.2,0.3-1.8,0.6
			c-0.6,0.2-1.2,0.5-1.7,0.9c-0.3,0.2-0.5,0.3-0.8,0.5c-0.3,0.2-0.5,0.4-0.8,0.6c-0.5,0.4-1,0.9-1.4,1.4c-0.4,0.5-0.8,1-1.1,1.6
			c-0.3,0.6-0.6,1.1-0.9,1.7c-0.1,0.3-0.2,0.6-0.3,0.9l-0.2,0.9l-0.1,0.3l-0.3-0.1c-0.6-0.2-1.1-0.3-1.7-0.4c-0.3,0-0.6-0.1-0.9,0
			c-0.3,0-0.6,0-0.9,0c-0.3,0-0.6,0.1-0.9,0.1c-0.3,0.1-0.6,0.1-0.9,0.2c-0.6,0.2-1.1,0.4-1.6,0.7c-1,0.6-2,1.3-2.7,2.2
			c-0.2,0.2-0.4,0.5-0.5,0.7c-0.2,0.2-0.3,0.5-0.5,0.8c-0.3,0.5-0.5,1.1-0.7,1.6l-0.1,0.4l-0.4-0.1c-0.5-0.2-1.1-0.3-1.6-0.3
			c-0.5-0.1-1,0-1.6,0l-0.8,0.1l-0.8,0.2c-0.5,0.2-1,0.4-1.4,0.7c-0.5,0.3-0.9,0.6-1.3,1c-0.4,0.4-0.7,0.8-1,1.2
			c-0.3,0.4-0.6,0.9-0.8,1.4c-0.2,0.5-0.4,1-0.5,1.5c-0.1,0.5-0.1,1-0.1,1.5c0,0.2,0,0.5,0,0.8c0,0.2,0.1,0.5,0.1,0.7
			c0.1,0.5,0.3,1,0.5,1.4c0.2,0.5,0.5,0.9,0.8,1.3c0.3,0.4,0.7,0.8,1.1,1.1c0.4,0.3,0.8,0.6,1.3,0.8c0.4,0.2,0.9,0.4,1.4,0.6
			c0.5,0.1,1,0.2,1.5,0.3l0.6,0.3c-0.1-0.1-0.2-0.2-0.2-0.2l0,0c0,0,0.1,0,0.2,0l0.4,0.1l0.9,0.1l1.9,0.1l3.7,0.1l7.5,0.1l15,0.2
			c5,0,10,0.1,15,0.3c2.5,0.1,5,0.1,7.5,0.1l3.8,0l1.9,0c0.3,0,0.6,0,0.9-0.1l0.5,0c0.1,0,0.2,0,0.2,0c0.1,0,0.1,0,0.1,0l0.1,0
			c0.7-0.1,1.3-0.4,1.9-0.7c0.3-0.2,0.6-0.4,0.8-0.6c0.3-0.2,0.5-0.4,0.7-0.7c0.4-0.5,0.8-1.1,1-1.7C91,71.4,91.1,70.7,91.2,70z
			 M91.3,70c0,0.7-0.1,1.4-0.3,2.1c-0.2,0.7-0.6,1.3-1,1.8c-0.5,0.5-1,1-1.6,1.4c-0.6,0.4-1.3,0.6-1.9,0.8l0.1,0
			c-0.1,0.1-0.2,0.1-0.3,0.1c-0.1,0-0.2,0-0.2,0.1l-0.5,0.1l-0.9,0.1l-1.9,0.2l-3.8,0.3l-7.5,0.4c-5,0.3-10,0.4-15,0.4
			c-5,0-10,0-15.1-0.1c-2.5-0.1-5-0.1-7.5-0.2L30,77.1L28.1,77l-1-0.1c-0.2,0-0.3,0-0.5-0.1c-0.1,0-0.2,0-0.3-0.1l-0.2-0.1
			c-0.1,0-0.3-0.2-0.4-0.3l0.6,0.3c-0.6-0.1-1.2-0.2-1.8-0.4c-0.6-0.2-1.2-0.4-1.7-0.7c-0.6-0.3-1.1-0.7-1.6-1.1
			c-0.5-0.4-0.9-0.9-1.3-1.4c-0.4-0.5-0.7-1.1-0.9-1.6c-0.3-0.6-0.4-1.2-0.6-1.8c-0.1-0.3-0.1-0.6-0.1-1c0-0.3,0-0.5,0-0.9
			c0-0.6,0.1-1.2,0.2-1.8c0.2-0.6,0.4-1.2,0.6-1.7c0.3-0.6,0.6-1.1,1-1.6c0.4-0.5,0.8-0.9,1.3-1.3c0.5-0.4,1-0.7,1.5-1
			c0.5-0.3,1.1-0.5,1.7-0.7l0.9-0.2c0.3,0,0.6-0.1,0.9-0.1c0.5,0,1.2,0,1.8,0.1c0.6,0.1,1.2,0.2,1.7,0.4L29.3,60
			c0.2-0.6,0.5-1.2,0.8-1.7c0.2-0.3,0.3-0.5,0.5-0.8c0.2-0.3,0.4-0.5,0.6-0.8c0.8-1,1.8-1.8,3-2.3c0.6-0.3,1.2-0.5,1.8-0.7
			c0.3-0.1,0.6-0.2,0.9-0.2c0.3-0.1,0.6-0.1,0.9-0.1c0.3,0,0.6,0,0.9,0c0.3,0,0.6,0,0.9,0c0.6,0.1,1.3,0.2,1.9,0.4L41.1,54l0.2-1
			c0.1-0.3,0.2-0.6,0.3-1c0.3-0.6,0.5-1.3,0.9-1.9c0.3-0.6,0.7-1.2,1.1-1.7c0.2-0.3,0.4-0.5,0.7-0.8c0.2-0.3,0.5-0.5,0.7-0.7
			c0.2-0.2,0.5-0.5,0.8-0.7c0.3-0.2,0.5-0.4,0.8-0.6c0.6-0.4,1.2-0.7,1.8-1c0.6-0.3,1.3-0.5,2-0.7c0.7-0.2,1.4-0.3,2.1-0.4l1-0.1
			c0.4,0,0.7,0,1.1,0c0.4,0,0.7,0.1,1.1,0.1l1,0.2c0.7,0.2,1.4,0.4,2,0.6c0.7,0.3,1.3,0.6,1.9,0.9c0.6,0.4,1.2,0.8,1.7,1.2
			c0.6,0.5,1.1,1,1.5,1.5c0.5,0.5,0.9,1.1,1.3,1.7c0.4,0.6,0.7,1.3,1,1.9l-0.9-0.6c0.3,0,0.5,0,0.8,0c0.3,0,0.6,0,0.8,0
			c0.6,0.1,1.1,0.2,1.7,0.3c0.5,0.1,1.1,0.3,1.6,0.6c0.5,0.2,1,0.5,1.5,0.8c0.5,0.3,0.9,0.7,1.3,1c0.4,0.4,0.8,0.8,1.1,1.2
			c0.3,0.4,0.6,0.9,0.9,1.4c0.3,0.5,0.5,1,0.6,1.5l-1.1-0.3c1.3-1,3-1.7,4.6-1.8c0.2,0,0.4,0,0.6,0c0.2,0,0.4,0,0.6,0
			c0.4,0,0.8,0.1,1.2,0.2c0.4,0.1,0.8,0.2,1.2,0.3c0.4,0.1,0.8,0.3,1.1,0.5c1.4,0.8,2.7,2,3.4,3.4c0.2,0.3,0.4,0.7,0.5,1.1
			c0.1,0.4,0.3,0.8,0.3,1.1c0.1,0.4,0.1,0.8,0.2,1.2c0,0.4,0.1,0.8,0,1.2l-0.1-0.1c0.9,0.6,1.7,1.4,2.2,2.3
			C91.1,67.9,91.4,68.9,91.3,70z"/>
	</g>
	<g id="XMLID_109_">
		<path id="XMLID_13_" class="st3" d="M91.3,70c0-2.3-1.2-4.2-3-5.3c0-0.1,0-0.2,0-0.3c0-4.5-3.7-8.2-8.2-8.2c-2,0-3.8,0.7-5.2,1.9
			c-1.3-3.6-4.8-6.2-8.9-6.2c-0.2,0-0.5,0-0.7,0c-1.9-4.6-6.4-7.9-11.6-7.9c-6,0-11.1,4.3-12.3,10c-0.9-0.3-1.8-0.4-2.8-0.4
			c-4.2,0-7.8,2.7-9,6.5c-0.8-0.3-1.7-0.5-2.6-0.5c-4.5,0-8.2,3.7-8.2,8.2c0,4.2,3.3,7.5,7.4,7.9c1.1,1.1,59,1.2,60.1,0.2
			C89.2,75.3,91.3,73,91.3,70z"/>
		<path id="XMLID_10_" class="st4" d="M91.2,70c0-1.1-0.3-2.1-0.8-3c-0.5-0.9-1.3-1.7-2.2-2.2l-0.1-0.1l0-0.1c0.1-0.4,0-0.8,0-1.2
			c-0.1-0.4-0.1-0.7-0.2-1.1c-0.1-0.4-0.2-0.7-0.4-1.1c-0.2-0.3-0.3-0.7-0.5-1c-0.8-1.3-2-2.4-3.3-3c-0.3-0.2-0.7-0.3-1-0.4
			c-0.4-0.1-0.7-0.2-1.1-0.3c-0.4-0.1-0.7-0.1-1.1-0.1c-0.4,0-0.8,0-1.1,0.1c-1.5,0.2-2.9,0.8-4,1.8l-0.4,0.4l-0.2-0.5
			c-0.2-0.5-0.4-0.9-0.7-1.3c-0.3-0.4-0.5-0.8-0.9-1.2c-0.3-0.4-0.7-0.7-1-1c-0.4-0.3-0.8-0.6-1.2-0.8c-0.4-0.3-0.8-0.5-1.3-0.6
			c-0.4-0.2-0.9-0.3-1.4-0.4c-0.5-0.1-0.9-0.2-1.4-0.2c-0.2,0-0.5,0-0.7,0l-0.7,0.1l-0.5,0l-0.2-0.5c-0.3-0.6-0.6-1.1-0.9-1.7
			c-0.3-0.5-0.7-1-1.1-1.5c-0.4-0.5-0.9-0.9-1.3-1.3c-0.5-0.4-1-0.7-1.5-1c-0.5-0.3-1.1-0.6-1.7-0.8c-0.6-0.2-1.2-0.4-1.8-0.5
			l-0.9-0.1l-0.9-0.1c-0.3,0-0.7,0-0.9,0l-1,0.1c-0.6,0.1-1.1,0.2-1.7,0.4c-0.6,0.2-1.1,0.4-1.7,0.6c-0.5,0.3-1.1,0.5-1.6,0.9
			c-0.3,0.2-0.5,0.3-0.7,0.5c-0.2,0.2-0.5,0.4-0.7,0.6c-0.4,0.4-0.8,0.8-1.2,1.3c-0.4,0.5-0.7,1-1,1.5c-0.3,0.5-0.5,1-0.7,1.6
			c-0.1,0.3-0.2,0.6-0.3,0.8L43,54.4L42.6,56L41,55.6c-0.5-0.1-1-0.2-1.5-0.3c-0.3,0-0.5,0-0.8,0c-0.1,0-0.6,0-0.8,0
			c-0.2,0-0.4,0-0.7,0.1c-0.2,0.1-0.5,0.1-0.7,0.2c-0.5,0.1-0.9,0.4-1.4,0.6c-0.9,0.5-1.7,1.1-2.3,1.9c-0.1,0.2-0.3,0.4-0.4,0.6
			c-0.1,0.2-0.3,0.4-0.4,0.6c-0.3,0.4-0.4,0.9-0.6,1.4l-0.6,1.6l-1.6-0.5c-0.5-0.1-0.9-0.3-1.3-0.3c-0.2,0-0.4,0-0.6,0l-0.7,0
			l-0.6,0.1l-0.6,0.2c-0.4,0.2-0.8,0.3-1.2,0.5c-0.4,0.2-0.8,0.5-1.1,0.8c-0.3,0.3-0.7,0.6-0.9,1c-0.3,0.3-0.5,0.7-0.7,1.1
			c-0.2,0.4-0.3,0.8-0.4,1.3c-0.1,0.4-0.2,0.9-0.2,1.3l0,0l0.2,0c0-0.2,0.2,0,0.2-0.1v0v0l-0.2,0.1l-0.1,0.2l0,0.4l0.1,0.6
			c0.1,0.4,0.2,0.9,0.4,1.3c0.2,0.4,0.4,0.8,0.7,1.2c0.3,0.4,0.6,0.7,0.9,1c0.3,0.3,0.7,0.6,1.1,0.8c0.4,0.2,0.8,0.4,1.3,0.5
			c0.4,0.1,0.9,0.2,1.4,0.3l1,0.5c-0.1-0.1-0.2-0.2-0.2-0.2c0,0-0.1-0.1-0.1-0.1c-0.1,0-0.1,0-0.1,0c0,0,0,0,0,0c0,0,0.1,0,0.1,0
			l0.4,0.1l0.9,0.1l1.8,0.2l3.7,0.3c2.5,0.1,5,0.3,7.5,0.4c5,0.2,10,0.4,15,0.5l7.5,0.2l3.8,0.1c1.3,0,2.5,0.1,3.8,0.1l7.5-0.1
			l3.8-0.1l1.9-0.1l0.9-0.1l0.5-0.1c0.1,0,0.2,0,0.2,0c0.1,0,0.1,0,0.1,0l0.1,0c1.3-0.3,2.5-1,3.4-2c0.4-0.5,0.8-1.1,1-1.7
			C91,71.4,91.1,70.7,91.2,70z M91.3,70c0,0.7-0.1,1.4-0.4,2.1c-0.2,0.7-0.6,1.3-1,1.8c-0.9,1.1-2.2,1.8-3.5,2.1l0.1,0
			c-0.4,0.2-0.7,0.2-1,0.2l-0.9,0.1l-1.9,0.1l-3.8,0.1l-7.5,0.1c-5,0.1-10,0.1-15,0.1c-5,0-10,0-15-0.1c-2.5,0-5-0.1-7.5-0.2
			L30,76.3l-1.9-0.1l-0.9-0.1c-0.2,0-0.3,0-0.5-0.1c-0.2,0-0.3,0-0.5-0.2l0.1,0.1c-0.6-0.1-1.2-0.2-1.7-0.3
			c-0.6-0.2-1.1-0.4-1.6-0.7c-0.5-0.3-1-0.6-1.4-1c-0.4-0.4-0.8-0.8-1.2-1.3c-0.3-0.5-0.7-1-0.9-1.5c-0.3-0.5-0.4-1.1-0.5-1.7
			c-0.1-0.3-0.1-0.6-0.1-0.9c0-0.3,0-0.6,0-0.9c0-0.6,0.1-1.2,0.2-1.7c0.1-0.6,0.3-1.1,0.6-1.7c0.2-0.5,0.5-1,0.9-1.5
			c0.3-0.5,0.7-0.9,1.2-1.3c0.4-0.4,0.9-0.7,1.4-1c0.5-0.3,1-0.5,1.6-0.7l0.8-0.2c0.3,0,0.6-0.1,0.9-0.1c0.6,0,1.2-0.1,1.7,0
			c0.6,0.1,1.1,0.2,1.7,0.4l-0.2,0.1c0.2-0.6,0.4-1.2,0.8-1.7c0.1-0.3,0.3-0.5,0.5-0.8c0.2-0.3,0.4-0.5,0.6-0.7
			c0.8-0.9,1.8-1.7,2.9-2.3c0.6-0.3,1.1-0.5,1.7-0.7c0.3-0.1,0.6-0.2,0.9-0.2c0.3-0.1,0.6-0.1,0.9-0.1c0.6,0,1.2-0.1,1.9,0
			c0.6,0.1,1.2,0.2,1.8,0.4L41.2,54l0.3-1c0.1-0.3,0.2-0.6,0.3-1c0.3-0.6,0.5-1.2,0.9-1.8c0.3-0.6,0.7-1.1,1.2-1.7
			c0.4-0.5,0.9-1,1.4-1.5c0.2-0.2,0.5-0.4,0.8-0.6c0.3-0.2,0.5-0.4,0.8-0.6c0.6-0.4,1.2-0.7,1.8-0.9c0.6-0.3,1.3-0.5,1.9-0.6
			c0.7-0.2,1.3-0.3,2-0.3l1,0c0.3,0,0.7,0,1,0c0.3,0,0.7,0.1,1,0.1l1,0.2c0.7,0.2,1.3,0.4,1.9,0.6c0.6,0.3,1.2,0.6,1.8,0.9
			c0.6,0.4,1.1,0.7,1.6,1.2c0.5,0.4,1,0.9,1.4,1.4c0.4,0.5,0.8,1.1,1.2,1.6c0.3,0.6,0.6,1.2,0.9,1.8l-0.1-0.1c0.5,0,1,0,1.5,0
			c0.5,0.1,1,0.1,1.5,0.3c0.5,0.1,1,0.3,1.5,0.5c0.5,0.2,0.9,0.5,1.4,0.7c0.4,0.3,0.8,0.6,1.2,1c0.4,0.3,0.7,0.7,1.1,1.1
			c0.3,0.4,0.6,0.8,0.9,1.3c0.3,0.5,0.5,0.9,0.6,1.4l-0.2-0.1c1.2-1,2.7-1.7,4.3-1.9c0.4,0,0.8-0.1,1.2,0c0.4,0,0.8,0,1.2,0.1
			c0.4,0.1,0.8,0.2,1.2,0.3c0.4,0.1,0.7,0.3,1.1,0.5c1.4,0.7,2.6,1.8,3.4,3.2c0.2,0.3,0.4,0.7,0.5,1.1c0.1,0.4,0.3,0.7,0.4,1.1
			c0.1,0.4,0.2,0.8,0.2,1.2c0,0.4,0.1,0.8,0,1.2l-0.1-0.1c0.9,0.6,1.7,1.4,2.2,2.3C91.1,67.9,91.4,68.9,91.3,70z"/>
	</g>
</g>
</svg>
