<?xml version="1.0" encoding="utf-8"?>
<!-- Generator: Adobe Illustrator 21.0.0, SVG Export Plug-In . SVG Version: 6.00 Build 0)  -->
<svg version="1.1" id="mostlyCloudyIcon" xmlns="http://www.w3.org/2000/svg" xmlns:xlink="http://www.w3.org/1999/xlink" x="0px"
	 y="0px" viewBox="0 0 67 37.2" style="enable-background:new 0 0 67 37.2;" xml:space="preserve">
<style type="text/css">
	.st0{fill:#FFE499;}
	.st1{fill:#FFD766;}
	.st2{fill:#FFBC00;}
	.st3{fill:#D1D3D4;}
	.st4{fill:#FFFFFF;}
</style>
<g id="sunIcon">
	<g id="outerRepeat">
		<circle id="outer" class="st0" cx="26.2" cy="17.4" r="17.4"/>
	</g>
	<g id="middleRepeat">
		<circle id="middle" class="st1" cx="26.2" cy="17.4" r="13.4"/>
	</g>
	<circle id="inner" class="st2" cx="26.2" cy="17.4" r="10.1"/>
</g>
<g id="cloudRight">
	<path class="st3" d="M67,16.7c0,2.1-2.4,3.8-5.3,3.8H29.9c-2.9,0-5.3-1.7-5.3-3.8l0,0c0-2.1,2.4-3.8,5.3-3.8h31.8
		C64.7,12.9,67,14.6,67,16.7L67,16.7z"/>
	<circle class="st4" cx="44.1" cy="7.7" r="6.9"/>
	<circle class="st3" cx="51.7" cy="12.2" r="6.4"/>
	<path class="st4" d="M51.7,5.8c-1.5,0-2.9,0.5-4,1.4c-0.7,1-1.1,2.3-1.1,3.6c0,3.6,2.9,6.4,6.4,6.4c1.4,0,2.6-0.4,3.6-1.1
		c0.9-1.1,1.4-2.5,1.4-4C58.1,8.7,55.2,5.8,51.7,5.8z"/>
	<circle class="st3" cx="62.9" cy="16.4" r="4.1"/>
	<circle class="st3" cx="29.1" cy="15.2" r="5.3"/>
	<path class="st4" d="M33,14.2c0-1.4-0.6-2.7-1.6-3.7c-0.7-0.3-1.5-0.5-2.3-0.5c-2.9,0-5.3,2.4-5.3,5.3c0,0.8,0.2,1.6,0.5,2.3
		c0.9,1,2.2,1.6,3.7,1.6C30.8,19.2,33,16.9,33,14.2z"/>
	<circle class="st3" cx="35.4" cy="12.9" r="6.2"/>
	<path class="st4" d="M35.4,6.7c-3.4,0-6.2,2.8-6.2,6.2c0,1.2,0.3,2.3,0.9,3.3c1.1,1,2.5,1.6,4.1,1.6c3.4,0,6.1-2.7,6.1-6.1
		c0-1.6-0.6-3-1.6-4.1C37.7,7,36.6,6.7,35.4,6.7z"/>
	<circle class="st3" cx="59.3" cy="12.2" r="4.4"/>
	<path class="st4" d="M59.4,15.7c2.3,0,4.1-1.7,4.3-3.9c-0.2-2.2-2.1-4-4.4-4c-2,0-3.7,1.4-4.3,3.2c0,0.1,0,0.2,0,0.3
		C55,13.7,57,15.7,59.4,15.7z"/>
	<path class="st4" d="M62.9,12.2c-2.1,0-3.9,1.6-4.1,3.6c0.2,2.1,1.9,3.8,4.1,3.8c2.1,0,3.9-1.6,4.1-3.7
		C66.8,13.8,65,12.2,62.9,12.2z"/>
</g>
<g id="cloudLeft">
	<circle class="st3" cx="7.6" cy="29.5" r="7.6"/>
	<circle class="st4" cx="23.4" cy="27.5" r="6.1"/>
	<path class="st3" d="M31.9,33.6c0,2-1.6,3.6-3.6,3.6H6.9c-2,0-3.6-1.6-3.6-3.6l0,0c0-2,15.4-7.7,17.4-7.7c0,0,0.6,5.7,4.6,0.9
		C26.8,25.1,31.9,31.6,31.9,33.6L31.9,33.6z"/>
	<circle class="st3" cx="29.3" cy="31.3" r="5.9"/>
	<path class="st4" d="M35.1,30.7c-0.2-2.8-2.5-5.1-5.4-5.4c-2.5,0.3-4.4,2.3-4.4,4.9c0,2.7,2.2,4.9,4.9,4.9
		C32.8,35.1,34.9,33.2,35.1,30.7z"/>
	<path class="st4" d="M6.8,21.9c-3.6,0.4-6.4,3.2-6.8,6.8c0.3,3,2.9,5.4,6.1,5.4c3.4,0,6.1-2.7,6.1-6.1C12.2,24.9,9.8,22.3,6.8,21.9
		z"/>
	<circle class="st3" cx="15.4" cy="22.6" r="8.1"/>
	<path class="st4" d="M22.5,20.5c0-0.9-0.1-1.7-0.4-2.5c-1.5-2.1-3.9-3.5-6.7-3.5c-4.5,0-8.1,3.6-8.1,8.1c0,0.7,0.1,1.5,0.3,2.2
		c1.4,2.3,3.9,3.8,6.8,3.8C18.9,28.6,22.5,25,22.5,20.5z"/>
</g>
</svg>
