<?xml version="1.0" encoding="utf-8"?>
<!-- Generator: Adobe Illustrator 21.0.0, SVG Export Plug-In . SVG Version: 6.00 Build 0)  -->
<svg version="1.1" id="Layer_1" xmlns="http://www.w3.org/2000/svg" xmlns:xlink="http://www.w3.org/1999/xlink" x="0px" y="0px"
	 viewBox="0 0 100 100" style="enable-background:new 0 0 100 100;" xml:space="preserve">
<style type="text/css">
	.st0{fill:#6C6D70;}
	.st1{fill:#BBBCBE;}
	.st2{fill:#A5A7AA;}
</style>
<path id="XMLID_18_" class="st0" d="M45,34.5c0-6.6-5-11.9-11.2-11.9c-6,0-11,5.1-11.2,11.4c-6,0.3-10.8,5.5-10.8,11.9
	c0,6.6,5,11.9,11.2,11.9c6,0,11-5.1,11.2-11.4C40.3,46.1,45,40.9,45,34.5z"/>
<path id="XMLID_14_" class="st0" d="M53.9,34.5c0-6.6,5-11.9,11.2-11.9c6,0,11,5.1,11.2,11.4c6,0.3,10.8,5.5,10.8,11.9
	c0,6.6-5,11.9-11.2,11.9c-6,0-11-5.1-11.2-11.4C58.6,46.1,53.9,40.9,53.9,34.5z"/>
<path id="XMLID_42_" class="st1" d="M86.4,54.9c0-2.4-1.2-4.5-3-5.7c0-0.1,0-0.2,0-0.3c0-4.8-3.6-8.7-8-8.7c-1.9,0-3.7,0.8-5.1,2
	c-1.3-3.9-4.7-6.6-8.8-6.6c-0.2,0-0.5,0-0.7,0c-1.8-4.9-6.3-8.4-11.4-8.4c-5.9,0-10.9,4.5-12.1,10.6c-0.9-0.3-1.8-0.4-2.7-0.4
	c-4.1,0-7.6,2.9-8.8,6.9c-0.8-0.3-1.6-0.5-2.5-0.5c-4.4,0-8,3.9-8,8.7c0,4.5,3.2,8,7.3,8.4c1.1,1.2,58,1.2,59.1,0.2
	C84.4,60.5,86.4,58.1,86.4,54.9z"/>
<path id="XMLID_19_" class="st2" d="M63.5,49.4c-0.1,0-0.1,0-0.2,0c0-0.1,0-0.1,0-0.2c0-3.5-2.7-6.4-6.1-6.4c-1.2,0-2.3,0.3-3.2,1
	c-1.2-2.2-3.4-3.7-6-3.7c-3.8,0-6.9,3.3-6.9,7.3c0,0.1,0,0.1,0,0.2c-0.1,0-0.1,0-0.2,0c-3.8,0-6.9,3.3-6.9,7.3c0,3.2,2,5.8,4.7,6.8
	c0.4,0.2,11,0.2,11,0.2l0,0c0,0,15.3,0,15.6-0.2c2.4-0.9,4.1-3.1,4.1-5.9C69.5,52.2,66.8,49.4,63.5,49.4z"/>
</svg>
