<?xml version="1.0" encoding="utf-8"?>
<!-- Generator: Adobe Illustrator 21.0.0, SVG Export Plug-In . SVG Version: 6.00 Build 0)  -->
<svg version="1.1" id="partlyCloudyNightIcon" xmlns="http://www.w3.org/2000/svg" xmlns:xlink="http://www.w3.org/1999/xlink"
	 x="0px" y="0px" viewBox="0 0 59.5 35.1" style="enable-background:new 0 0 59.5 35.1;" xml:space="preserve">
<style type="text/css">
	.st0{fill:#F1E5A1;}
	.st1{fill:#F5EEBC;}
	.st2{fill:#DBD093;}
	.st3{fill:#D1D3D4;}
	.st4{fill:#FFFFFF;}
</style>
<g id="moon">
	<circle class="st0" cx="17.5" cy="17.5" r="17.5"/>
	<path class="st1" d="M0,17.5c0,5.7,2.7,10.8,6.9,14c1.3,0.3,2.6,0.5,4,0.5c9.7,0,17.5-7.9,17.5-17.5c0-5.7-2.7-10.8-6.9-14
		c-1.3-0.3-2.6-0.5-4-0.5C7.9-0.1,0,7.8,0,17.5z"/>
	<circle class="st2" cx="12.1" cy="9" r="2.4"/>
	<circle class="st2" cx="6.6" cy="17.5" r="3.4"/>
	<circle class="st2" cx="15.2" cy="17.5" r="1.7"/>
</g>
<g id="cloud">
	<path class="st3" d="M59.5,30.2c0,2.6-3,4.8-6.7,4.8H12.6c-3.7,0-6.7-2.1-6.7-4.8l0,0c0-2.6,3-4.8,6.7-4.8h40.2
		C56.5,25.4,59.5,27.6,59.5,30.2L59.5,30.2z"/>
	<circle class="st4" cx="30.5" cy="18.9" r="8.8"/>
	<circle class="st3" cx="40.1" cy="24.5" r="8"/>
	<path class="st4" d="M40.1,16.5c-1.9,0-3.6,0.7-5,1.8c-0.9,1.3-1.4,2.9-1.4,4.6c0,4.5,3.6,8.1,8.1,8.1c1.7,0,3.3-0.5,4.6-1.4
		c1.1-1.4,1.8-3.1,1.8-5C48.2,20.1,44.6,16.5,40.1,16.5z"/>
	<circle class="st3" cx="54.3" cy="29.8" r="5.2"/>
	<circle class="st3" cx="11.6" cy="28.4" r="6.7"/>
	<path class="st4" d="M16.6,27c0-1.8-0.8-3.5-2-4.6c-0.9-0.4-1.9-0.7-2.9-0.7c-3.7,0-6.7,3-6.7,6.7c0,1.1,0.3,2.1,0.7,2.9
		c1.2,1.2,2.8,2,4.6,2C13.7,33.3,16.6,30.5,16.6,27z"/>
	<circle class="st3" cx="19.5" cy="25.4" r="7.9"/>
	<path class="st4" d="M19.5,17.6c-4.4,0-7.9,3.5-7.9,7.9c0,1.5,0.4,2.9,1.2,4.1c1.4,1.2,3.2,2,5.2,2c4.2,0,7.7-3.4,7.7-7.7
		c0-2-0.8-3.8-2-5.2C22.4,18,21,17.6,19.5,17.6z"/>
	<circle class="st3" cx="49.7" cy="24.5" r="5.6"/>
	<path class="st4" d="M49.8,28.9c2.8,0,5.2-2.2,5.5-4.9c-0.3-2.8-2.7-5-5.6-5c-2.6,0-4.7,1.7-5.4,4.1c0,0.1,0,0.3,0,0.4
		C44.3,26.5,46.8,28.9,49.8,28.9z"/>
	<path class="st4" d="M54.3,24.5c-2.7,0-4.9,2-5.2,4.6c0.2,2.7,2.5,4.8,5.2,4.8s4.9-2.1,5.2-4.7C59.2,26.6,57,24.5,54.3,24.5z"/>
</g>
</svg>
