<?xml version="1.0" encoding="utf-8"?>
<!-- Generator: Adobe Illustrator 21.0.0, SVG Export Plug-In . SVG Version: 6.00 Build 0)  -->
<svg version="1.1" id="partlyCloudyIcon" xmlns="http://www.w3.org/2000/svg" xmlns:xlink="http://www.w3.org/1999/xlink" x="0px"
	 y="0px" viewBox="0 0 59.8 42.8" style="enable-background:new 0 0 59.8 42.8;" xml:space="preserve">
<style type="text/css">
	.st0{fill:#FFE499;}
	.st1{fill:#FFD766;}
	.st2{fill:#FFBC00;}
	.st3{fill:#D1D3D4;}
	.st4{fill:#FFFFFF;}
</style>
<g id="sun">
	<g id="outerRepeat">
		<circle id="outer" class="st0" cx="38.4" cy="21.4" r="21.4"/>
	</g>
	<g id="middleRepeat">
		<circle id="middle" class="st1" cx="38.4" cy="21.4" r="16.5"/>
	</g>
	<circle id="inner" class="st2" cx="38.4" cy="21.4" r="12.4"/>
</g>
<g id="cloud">
	<circle class="st3" cx="8.3" cy="16.4" r="8.3"/>
	<circle class="st4" cx="25.5" cy="14.2" r="6.6"/>
	<path class="st3" d="M34.8,20.8c0,2.1-1.7,3.9-3.9,3.9H7.6c-2.1,0-3.9-1.7-3.9-3.9l0,0c0-2.1,16.8-8.4,18.9-8.4c0,0,0.7,6.2,5.1,1
		C29.3,11.6,34.8,18.7,34.8,20.8L34.8,20.8z"/>
	<circle class="st3" cx="31.9" cy="18.3" r="6.4"/>
	<path class="st4" d="M38.3,17.7c-0.3-3.1-2.7-5.6-5.8-5.8c-2.7,0.3-4.8,2.5-4.8,5.3c0,2.9,2.4,5.3,5.3,5.3
		C35.8,22.5,38.1,20.4,38.3,17.7z"/>
	<path class="st4" d="M7.5,8.1c-3.9,0.4-7,3.5-7.4,7.4c0.4,3.3,3.2,5.9,6.6,5.9c3.7,0,6.7-3,6.7-6.7C13.4,11.3,10.8,8.5,7.5,8.1z"/>
	<circle class="st3" cx="16.9" cy="8.8" r="8.8"/>
	<path class="st4" d="M24.6,6.6c0-1-0.2-1.9-0.4-2.7c-1.6-2.3-4.3-3.8-7.3-3.8c-4.9,0-8.8,4-8.8,8.8c0,0.8,0.1,1.6,0.3,2.3
		c1.5,2.5,4.3,4.2,7.4,4.2C20.7,15.3,24.6,11.4,24.6,6.6z"/>
</g>
</svg>
