<?xml version="1.0" encoding="utf-8"?>
<!-- Generator: Adobe Illustrator 19.0.0, SVG Export Plug-In . SVG Version: 6.00 Build 0)  -->
<svg version="1.1" id="Layer_1" xmlns="http://www.w3.org/2000/svg" xmlns:xlink="http://www.w3.org/1999/xlink" x="0px" y="0px"
	 viewBox="0 0 100 100" style="enable-background:new 0 0 100 100;" xml:space="preserve">
<style type="text/css">
	.st0{fill:#48A4C0;}
	.st1{fill:#BBBCBE;}
	.st2{fill:#EDB974;}
	.st3{fill:#6C6D70;}
</style>
<path id="XMLID_417_" class="st0" d="M65.1,67.7c-0.4,0.6-1.2,0.8-1.8,0.4c-0.7-0.4-0.9-1.2-0.5-1.8c0.4-0.6,2.7-2.1,2.7-2.1
	S65.4,67,65.1,67.7z"/>
<path id="XMLID_77_" class="st0" d="M75.8,64.9c-0.4,0.6-1.2,0.8-1.8,0.4c-0.7-0.4-0.9-1.2-0.5-1.8c0.4-0.6,2.7-2.1,2.7-2.1
	S76.1,64.3,75.8,64.9z"/>
<path id="XMLID_330_" class="st0" d="M30.3,64c-0.4,0.6-1.2,0.8-1.8,0.4c-0.7-0.4-0.9-1.2-0.5-1.8c0.4-0.6,2.7-2.1,2.7-2.1
	S30.6,63.4,30.3,64z"/>
<path id="XMLID_419_" class="st0" d="M56.2,73.1c-0.3,0.5-0.8,0.6-1.3,0.3s-0.6-0.9-0.4-1.3c0.3-0.5,2-1.5,2-1.5
	S56.4,72.6,56.2,73.1z"/>
<path id="XMLID_331_" class="st0" d="M70.5,76.8c-0.3,0.5-0.8,0.6-1.3,0.3s-0.6-0.9-0.4-1.3c0.3-0.5,2-1.5,2-1.5
	S70.7,76.3,70.5,76.8z"/>
<path id="XMLID_13_" class="st1" d="M94.5,50.3c0-2.1-1.1-3.9-2.7-4.9c0-0.1,0-0.2,0-0.3c0-4.2-3.3-7.6-7.3-7.6
	c-1.8,0-3.4,0.7-4.6,1.8c-1.2-3.4-4.3-5.8-7.9-5.8c-0.2,0-0.4,0-0.6,0c-1.7-4.3-5.7-7.3-10.4-7.3c-5.4,0-9.9,4-11,9.2
	c-0.8-0.2-1.6-0.4-2.5-0.4c-3.7,0-6.9,2.5-8,6c-0.7-0.3-1.5-0.4-2.3-0.4c-4,0-7.3,3.4-7.3,7.6c0,3.9,2.9,6.9,6.6,7.3
	c1,1,52.7,1.1,53.6,0.1C92.6,55.2,94.5,53.1,94.5,50.3z"/>
<path id="XMLID_11_" class="st1" d="M56.1,48.9c0-1.6-0.8-3.1-2.1-3.9c0-0.1,0-0.1,0-0.2c0-3.3-2.6-5.9-5.7-5.9
	c-1.4,0-2.6,0.5-3.6,1.4c-0.9-2.7-3.4-4.5-6.2-4.5c-0.2,0-0.3,0-0.5,0c-1.3-3.4-4.5-5.7-8.1-5.7c-4.2,0-7.8,3.1-8.6,7.3
	c-0.6-0.2-1.3-0.3-1.9-0.3c-2.9,0-5.4,2-6.3,4.7c-0.6-0.2-1.2-0.3-1.8-0.3c-3.2,0-5.7,2.7-5.7,5.9c0,3.1,2.3,5.4,5.2,5.7
	c0.8,0.8,41.3,0.8,42.1,0.1C54.7,52.7,56.1,51,56.1,48.9z"/>
<polygon id="XMLID_15_" class="st2" points="45.3,75.6 53.9,65.6 50.8,65.1 53,62.3 49.3,62.6 46.7,67.4 48.7,67.5 48.7,67.5 "/>
<path id="XMLID_80_" class="st0" d="M35.5,74.9c-0.2,0.4-0.8,0.5-1.2,0.3c-0.4-0.3-0.6-0.8-0.4-1.2s1.8-1.3,1.8-1.3
	S35.7,74.5,35.5,74.9z"/>
<path id="XMLID_224_" class="st0" d="M43.5,64.8c-0.2,0.4-0.8,0.5-1.2,0.3c-0.4-0.3-0.6-0.8-0.4-1.2c0.2-0.4,1.8-1.3,1.8-1.3
	S43.7,64.4,43.5,64.8z"/>
<path id="XMLID_335_" class="st0" d="M20.3,75.8c-0.2,0.4-0.8,0.5-1.2,0.3c-0.4-0.3-0.6-0.8-0.4-1.2c0.2-0.4,1.8-1.3,1.8-1.3
	S20.5,75.4,20.3,75.8z"/>
<g id="XMLID_3_">
	<g id="XMLID_57_">
		<path id="XMLID_62_" class="st3" d="M70.7,41.6c-0.1,0-0.1,0-0.2,0c-1.4-3.6-4.9-6.2-8.9-6.2c-0.6,0-1.2,0.1-1.8,0.2
			c0-7.3-5.8-13.3-13-13.3c-6.9,0-12.5,5.5-12.9,12.5c-0.2,0-0.5,0-0.7,0c-7.2,0-13,6-13,13.3c0,6.3,4.3,12,10.1,13.3
			c0.6,0.2,40.3,0.2,40.4,0.2c5.3,0,9.6-4.5,9.6-9.9C80.3,46.1,76,41.6,70.7,41.6z"/>
		<path id="XMLID_60_" class="st3" d="M69.9,41.6c-0.1,0-0.1,0-0.2,0c-1.4-3.6-4.9-6.2-8.9-6.2c-0.6,0-1.2,0.1-1.8,0.2
			c0-7.3-5.8-13.3-13-13.3c-6.9,0-12.5,5.5-12.9,12.5c-0.2,0-0.5,0-0.7,0c-7.2,0-13,6-13,13.3c0,6.3,4.3,12,10.1,13.3
			c0.6,0.2,40.3,0.2,40.4,0.2c5.3,0,9.6-4.5,9.6-9.9C79.5,46.1,75.2,41.6,69.9,41.6z"/>
		<path id="XMLID_58_" class="st3" d="M69.9,41.6c-0.1,0-0.1,0-0.2,0c-1.4-3.6-4.9-6.2-8.9-6.2c-0.6,0-1.2,0.1-1.8,0.2
			c0-7.3-5.8-13.3-13-13.3c-6.9,0-12.5,5.5-12.9,12.5c-0.2,0-0.5,0-0.7,0c-7.2,0-13,6-13,13.3c0,6.3,4.3,12,10.1,13.3
			c0.6,0.2,40.3,0.2,40.4,0.2c5.3,0,9.6-4.5,9.6-9.9C79.5,46.1,75.2,41.6,69.9,41.6z"/>
	</g>
</g>
</svg>
