<?xml version="1.0" encoding="utf-8"?>
<!-- Generator: Adobe Illustrator 19.0.0, SVG Export Plug-In . SVG Version: 6.00 Build 0)  -->
<svg version="1.1" id="Layer_1" xmlns="http://www.w3.org/2000/svg" xmlns:xlink="http://www.w3.org/1999/xlink" x="0px" y="0px"
	 viewBox="0 0 100 100" style="enable-background:new 0 0 100 100;" xml:space="preserve">
<style type="text/css">
	.st0{fill:#48A4C0;}
	.st1{fill:#6C6D70;}
	.st2{fill:#BBBCBE;}
	.st3{fill:#A5A7AA;}
</style>
<path id="XMLID_6_" class="st0" d="M17.8,76.9L17.8,76.9c-0.4-0.2-0.6-0.7-0.4-1.2l6.3-13.5c0.2-0.4,0.7-0.6,1.1-0.4h0
	c0.4,0.2,0.6,0.7,0.4,1.2l-6.3,13.5C18.7,77,18.2,77.1,17.8,76.9z"/>
<path id="XMLID_393_" class="st0" d="M67.1,69.9L67.1,69.9c-0.4-0.2-0.6-0.7-0.4-1.2L73,55.2c0.2-0.4,0.7-0.6,1.1-0.4h0
	c0.4,0.2,0.6,0.7,0.4,1.2l-6.3,13.5C68,69.9,67.5,70.1,67.1,69.9z"/>
<path id="XMLID_96_" class="st0" d="M31,67.6L31,67.6c-0.4-0.2-0.6-0.7-0.4-1.2l2.9-6.3c0.2-0.4,0.7-0.6,1.1-0.4h0
	c0.4,0.2,0.6,0.7,0.4,1.2l-2.9,6.3C31.9,67.6,31.4,67.8,31,67.6z"/>
<path id="XMLID_316_" class="st0" d="M47.1,74.7L47.1,74.7c-0.4-0.2-0.6-0.7-0.4-1.2l2.9-6.3c0.2-0.4,0.7-0.6,1.1-0.4v0
	c0.4,0.2,0.6,0.7,0.4,1.2l-2.9,6.3C48,74.7,47.5,74.9,47.1,74.7z"/>
<path id="XMLID_383_" class="st0" d="M60.4,65.4L60.4,65.4c-0.4-0.2-0.6-0.7-0.4-1.2l2.9-6.3c0.2-0.4,0.7-0.6,1.1-0.4h0
	c0.4,0.2,0.6,0.7,0.4,1.2L61.5,65C61.3,65.4,60.8,65.6,60.4,65.4z"/>
<path id="XMLID_387_" class="st0" d="M56.4,74.1L56.4,74.1c-0.4-0.2-0.6-0.7-0.4-1.2l2.9-6.3c0.2-0.4,0.7-0.6,1.1-0.4l0,0
	c0.4,0.2,0.6,0.7,0.4,1.2l-2.9,6.3C57.3,74.1,56.8,74.3,56.4,74.1z"/>
<path id="XMLID_396_" class="st0" d="M64.9,74.6L64.9,74.6c-0.4-0.2-0.6-0.7-0.4-1.2l1-2.2c0.2-0.4,0.7-0.6,1.1-0.4v0
	c0.4,0.2,0.6,0.7,0.4,1.2l-1,2.2C65.8,74.7,65.3,74.9,64.9,74.6z"/>
<path id="XMLID_115_" class="st0" d="M39.2,68.6L39.2,68.6c-0.4-0.2-0.6-0.7-0.4-1.2l1.8-3.9c0.2-0.4,0.7-0.6,1.1-0.4v0
	c0.4,0.2,0.6,0.7,0.4,1.2l-1.8,3.9C40.1,68.7,39.6,68.9,39.2,68.6z"/>
<path id="XMLID_126_" class="st0" d="M37.9,71.5L37.9,71.5c-0.4-0.2-0.6-0.7-0.4-1.2l0,0c0.2-0.4,0.7-0.6,1.1-0.4h0
	c0.4,0.2,0.6,0.7,0.4,1.2v0C38.8,71.6,38.3,71.8,37.9,71.5z"/>
<path id="XMLID_91_" class="st1" d="M38.2,33.4c-0.1,0-0.1,0-0.2,0c0-0.1,0-0.1,0-0.2c0-3.7-2.8-6.7-6.2-6.7c-1.2,0-2.3,0.4-3.3,1
	c-1.2-2.3-3.5-3.8-6.1-3.8c-3.9,0-7.1,3.4-7.1,7.6c0,0.1,0,0.1,0,0.2c-0.1,0-0.1,0-0.2,0c-3.9,0-7.1,3.4-7.1,7.6c0,3.4,2,6,4.8,7
	c0.4,0.3,11.3,0.2,11.3,0.2l0,0c0,0,15.7,0,16.1-0.2c2.5-0.9,4.2-3.2,4.2-6.2C44.5,36.4,41.7,33.4,38.2,33.4z"/>
<path id="XMLID_83_" class="st2" d="M91.5,54.2c0-2.8-1.4-5.2-3.4-6.6c0-0.1,0-0.2,0-0.4c0-5.6-4.2-10.1-9.3-10.1
	c-2.3,0-4.3,0.9-5.9,2.4c-1.5-4.5-5.5-7.8-10.1-7.8c-0.3,0-0.5,0-0.8,0c-2.1-5.7-7.3-9.8-13.3-9.8c-6.9,0-12.6,5.3-14,12.4
	c-1-0.3-2.1-0.5-3.2-0.5c-4.8,0-8.8,3.4-10.3,8.1c-0.9-0.3-1.9-0.6-2.9-0.6c-5.1,0-9.3,4.5-9.3,10.1c0,5.3,3.7,9.3,8.4,9.8
	c1.2,1.4,67.3,1.4,68.5,0.2C89.1,60.7,91.5,57.9,91.5,54.2z"/>
<path id="XMLID_85_" class="st3" d="M62.2,49.3c-0.1,0-0.1,0-0.2,0c0-0.1,0-0.1,0-0.2c0-3.7-2.8-6.7-6.2-6.7c-1.2,0-2.3,0.4-3.3,1
	c-1.2-2.3-3.5-3.8-6.1-3.8c-3.9,0-7.1,3.4-7.1,7.6c0,0.1,0,0.1,0,0.2c-0.1,0-0.1,0-0.2,0c-3.9,0-7.1,3.4-7.1,7.6c0,3.4,2,6,4.8,7
	c0.4,0.3,11.3,0.2,11.3,0.2l0,0c0,0,15.7,0,16.1-0.2c2.5-0.9,4.2-3.2,4.2-6.2C68.4,52.3,65.6,49.3,62.2,49.3z"/>
<path id="XMLID_99_" class="st0" d="M27,76.6L27,76.6c-0.4-0.2-0.6-0.7-0.4-1.2l2.9-6.3c0.2-0.4,0.7-0.6,1.1-0.4h0
	c0.4,0.2,0.6,0.7,0.4,1.2l-2.9,6.3C27.9,76.6,27.4,76.8,27,76.6z"/>
</svg>
