<?xml version="1.0" encoding="utf-8"?>
<!-- Generator: Adobe Illustrator 21.0.0, SVG Export Plug-In . SVG Version: 6.00 Build 0)  -->
<svg version="1.1" id="rainyIcon" xmlns="http://www.w3.org/2000/svg" xmlns:xlink="http://www.w3.org/1999/xlink" x="0px" y="0px"
	 viewBox="0 0 58.7 40.3" style="enable-background:new 0 0 58.7 40.3;" xml:space="preserve">
<style type="text/css">
	.st0{fill:none;stroke:#33B5D9;stroke-width:1.5;stroke-linecap:round;stroke-miterlimit:10;}
	.st1{fill:#D1D3D4;}
	.st2{fill:#E6E7E8;}
	.st3{fill:#A7A9AC;}
</style>
<g id="dashedLines">
	<line class="st0" x1="17.7" y1="25.3" x2="9.6" y2="39.6"/>
	<line class="st0" x1="30.3" y1="13.8" x2="17.5" y2="36"/>
	<line class="st0" x1="31.3" y1="21.3" x2="20.8" y2="39.6"/>
	<line class="st0" x1="34.3" y1="25.3" x2="28.1" y2="36.3"/>
	<line class="st0" x1="41.3" y1="23.6" x2="31.9" y2="39.6"/>
	<line class="st0" x1="49.8" y1="18.2" x2="39.8" y2="36"/>
	<line class="st0" x1="51.5" y1="25.3" x2="43.4" y2="39.6"/>
</g>
<g id="cloud2">
	<circle class="st1" cx="6.5" cy="12.8" r="6.5"/>
	<circle class="st2" cx="19.9" cy="11.1" r="5.2"/>
	<path class="st1" d="M27.1,16.2c0,1.7-1.4,3-3,3H6c-1.7,0-3-1.4-3-3l0,0c0-1.7,13-6.5,14.7-6.5c0,0,0.5,4.8,3.9,0.8
		C22.8,9,27.1,14.6,27.1,16.2L27.1,16.2z"/>
	<circle class="st1" cx="24.9" cy="14.2" r="5"/>
	<path class="st2" d="M29.8,13.8c-0.2-2.4-2.1-4.3-4.5-4.5c-2.1,0.2-3.7,2-3.7,4.1c0,2.3,1.9,4.1,4.1,4.1
		C27.9,17.5,29.6,15.9,29.8,13.8z"/>
	<path class="st2" d="M5.8,6.4c-3,0.3-5.4,2.7-5.7,5.7c0.3,2.6,2.5,4.6,5.1,4.6c2.9,0,5.2-2.3,5.2-5.2C10.4,8.8,8.4,6.7,5.8,6.4z"/>
	<circle class="st1" cx="13.1" cy="6.9" r="6.9"/>
	<path class="st2" d="M19.1,5.2c0-0.7-0.1-1.5-0.3-2.1c-1.2-1.8-3.3-3-5.7-3C9.3,0.1,6.2,3.2,6.2,7c0,0.6,0.1,1.2,0.3,1.8
		c1.2,1.9,3.3,3.2,5.8,3.2C16.1,12,19.1,8.9,19.1,5.2z"/>
</g>
<g id="cloud1">
	<path class="st3" d="M58.7,24.6c0,2.5-2.8,4.5-6.3,4.5H14.5c-3.5,0-6.3-2-6.3-4.5l0,0c0-2.5,2.8-4.5,6.3-4.5h37.9
		C55.8,20.1,58.7,22.1,58.7,24.6L58.7,24.6z"/>
	<circle class="st2" cx="31.3" cy="13.9" r="8.2"/>
	<circle class="st3" cx="40.4" cy="19.2" r="7.6"/>
	<path class="st2" d="M40.4,11.6c-1.8,0-3.4,0.6-4.7,1.7c-0.8,1.2-1.3,2.7-1.3,4.3c0,4.2,3.4,7.7,7.7,7.7c1.6,0,3.1-0.5,4.3-1.3
		c1-1.3,1.7-2.9,1.7-4.7C48,15,44.6,11.6,40.4,11.6z"/>
	<circle class="st3" cx="53.7" cy="24.2" r="4.9"/>
	<circle class="st3" cx="13.5" cy="22.8" r="6.3"/>
	<path class="st2" d="M18.2,21.1c0-1.7-0.7-3.3-1.9-4.3c-0.8-0.5-1.8-0.7-2.8-0.7c-3.5,0-6.3,2.8-6.3,6.3c0,1,0.2,1.9,0.7,2.8
		c1.1,1.2,2.6,1.9,4.3,1.9C15.5,27,18.2,24.3,18.2,21.1z"/>
	<circle class="st3" cx="21" cy="20.1" r="7.4"/>
	<path class="st2" d="M21,12.6c-4.1,0-7.4,3.3-7.4,7.4c0,1.4,0.4,2.8,1.1,3.9c1.3,1.2,3,1.9,4.9,1.9c4,0,7.2-3.2,7.2-7.2
		c0-1.9-0.7-3.6-1.9-4.9C23.7,13,22.4,12.6,21,12.6z"/>
	<circle class="st3" cx="49.4" cy="19.2" r="5.3"/>
	<path class="st2" d="M49.5,22.8c2.7,0,4.9-2,5.1-4.6c-0.3-2.7-2.5-4.7-5.2-4.7c-2.4,0-4.4,1.6-5.1,3.8c0,0.1,0,0.3,0,0.4
		C44.4,20.5,46.7,22.8,49.5,22.8z"/>
	<path class="st2" d="M53.7,19.2c-2.5,0-4.6,1.9-4.9,4.3C49,26,51.1,28,53.7,28c2.6,0,4.6-1.9,4.9-4.4
		C58.4,21.2,56.3,19.2,53.7,19.2z"/>
</g>
</svg>
