<?xml version="1.0" encoding="utf-8"?>
<!-- Generator: Adobe Illustrator 19.0.0, SVG Export Plug-In . SVG Version: 6.00 Build 0)  -->
<svg version="1.1" id="Layer_1" xmlns="http://www.w3.org/2000/svg" xmlns:xlink="http://www.w3.org/1999/xlink" x="0px" y="0px"
	 viewBox="0 0 100 100" style="enable-background:new 0 0 100 100;" xml:space="preserve">
<style type="text/css">
	.st0{fill:#48A4C0;}
	.st1{fill:url(#XMLID_2_);}
	.st2{fill:#FFFFFF;stroke:#D0D1D3;stroke-miterlimit:10;}
	.st3{fill:#FFFFFF;}
	.st4{fill:#D0D1D3;}
</style>
<path id="XMLID_344_" class="st0" d="M30.2,69.3c-0.3,0.5-1,0.7-1.6,0.4c-0.6-0.3-0.8-1-0.5-1.5s2.4-1.7,2.4-1.7
	S30.5,68.8,30.2,69.3z"/>
<path id="XMLID_528_" class="st0" d="M52.1,66.2c-0.2,0.4-0.8,0.5-1.2,0.3s-0.6-0.7-0.4-1.1c0.2-0.4,1.8-1.2,1.8-1.2
	S52.4,65.8,52.1,66.2z"/>
<path id="XMLID_529_" class="st0" d="M41,74.9c-0.2,0.3-0.5,0.4-0.9,0.2s-0.4-0.5-0.3-0.8c0.2-0.3,1.3-0.9,1.3-0.9
	S41.2,74.6,41,74.9z"/>
<path id="XMLID_735_" class="st0" d="M54.7,71.6c-0.3,0.5-1,0.7-1.6,0.4c-0.6-0.3-0.8-1-0.5-1.5c0.3-0.5,2.4-1.7,2.4-1.7
	S55,71.1,54.7,71.6z"/>
<path id="XMLID_530_" class="st0" d="M76.6,68.5c-0.2,0.4-0.8,0.5-1.2,0.3c-0.4-0.2-0.6-0.7-0.4-1.1c0.2-0.4,1.8-1.2,1.8-1.2
	S76.9,68.1,76.6,68.5z"/>
<path id="XMLID_449_" class="st0" d="M65.5,77.3c-0.2,0.3-0.5,0.4-0.9,0.2s-0.4-0.5-0.3-0.8c0.2-0.3,1.3-0.9,1.3-0.9
	S65.6,77,65.5,77.3z"/>
<g id="XMLID_177_">
	
		<radialGradient id="XMLID_2_" cx="40.4349" cy="41.9954" r="21.7561" gradientTransform="matrix(1 0 0 0.9812 0 2.6654)" gradientUnits="userSpaceOnUse">
		<stop  offset="0.6731" style="stop-color:#EEB844"/>
		<stop  offset="0.7874" style="stop-color:#F7D36F"/>
		<stop  offset="0.8573" style="stop-color:#F7D471"/>
		<stop  offset="0.8825" style="stop-color:#F8D678"/>
		<stop  offset="0.9004" style="stop-color:#F8D983"/>
		<stop  offset="0.9148" style="stop-color:#FADE94"/>
		<stop  offset="0.9192" style="stop-color:#FAE09B"/>
	</radialGradient>
	<ellipse id="XMLID_351_" class="st1" cx="40.4" cy="43.9" rx="21.8" ry="21.3"/>
	<g id="XMLID_352_">
		<path id="XMLID_532_" class="st2" d="M80,60.4c0-1.8-1-3.3-2.4-4.1c0-0.1,0-0.1,0-0.2c0-3.5-2.9-6.3-6.4-6.3c-1.6,0-3,0.6-4.1,1.5
			c-1-2.8-3.8-4.8-7-4.8c-0.2,0-0.4,0-0.5,0c-1.5-3.6-5-6.1-9.2-6.1c-4.8,0-8.8,3.3-9.7,7.7c-0.7-0.2-1.4-0.3-2.2-0.3
			c-3.3,0-6.1,2.1-7.1,5.1c-0.6-0.2-1.3-0.4-2-0.4c-3.6,0-6.4,2.8-6.4,6.3c0,3.3,2.6,5.8,5.8,6.1c0.8,0.9,46.6,0.9,47.5,0.1
			C78.3,64.4,80,62.7,80,60.4z"/>
		<g id="XMLID_525_">
			<path id="XMLID_23_" class="st3" d="M80,60.4c0-1.8-1-3.3-2.4-4.1c0-0.1,0-0.1,0-0.2c0-3.5-2.9-6.3-6.4-6.3c-1.6,0-3,0.6-4.1,1.5
				c-1-2.8-3.8-4.8-7-4.8c-0.2,0-0.4,0-0.5,0c-1.5-3.6-5-6.1-9.2-6.1c-4.8,0-8.8,3.3-9.7,7.7c-0.7-0.2-1.4-0.3-2.2-0.3
				c-3.3,0-6.1,2.1-7.1,5.1c-0.6-0.2-1.3-0.4-2-0.4c-3.6,0-6.4,2.8-6.4,6.3c0,3.3,2.6,5.8,5.8,6.1c0.8,0.9,46.6,0.9,47.5,0.1
				C78.3,64.4,80,62.7,80,60.4z"/>
			<path id="XMLID_20_" class="st4" d="M79.9,60.4c0-0.8-0.2-1.6-0.6-2.3c-0.4-0.7-1-1.3-1.7-1.7l-0.1,0l0-0.1c0.1-0.3,0-0.6,0-0.9
				c0-0.3-0.1-0.6-0.2-0.9c-0.1-0.6-0.4-1.1-0.7-1.7c-0.3-0.5-0.7-1-1.2-1.4c-0.4-0.4-1-0.7-1.5-1c-1.1-0.5-2.3-0.7-3.5-0.5
				c-1.2,0.1-2.3,0.7-3.2,1.4L67,51.6l-0.1-0.3c-0.6-1.4-1.6-2.7-2.9-3.5c-0.7-0.4-1.4-0.7-2.1-0.9c-0.4-0.1-0.7-0.1-1.1-0.2l-0.6,0
				l-0.6,0l-0.3,0l-0.1-0.3c-0.8-1.8-2.2-3.4-3.9-4.4c-0.4-0.3-0.9-0.5-1.3-0.7c-0.5-0.2-0.9-0.3-1.4-0.4c-0.5-0.1-1-0.2-1.5-0.2
				l-0.7,0l-0.8,0c-0.5,0.1-1,0.1-1.4,0.3c-0.5,0.1-0.9,0.3-1.4,0.5c-0.5,0.2-0.9,0.4-1.3,0.7c-0.4,0.3-0.8,0.6-1.2,0.9
				c-0.7,0.6-1.4,1.4-1.9,2.3c-0.2,0.4-0.5,0.9-0.6,1.3c-0.2,0.5-0.3,0.9-0.4,1.4l-0.2,0.7l-0.7-0.2c-0.4-0.1-0.9-0.2-1.3-0.2
				c-0.2,0-0.4,0-0.7,0l-0.7,0c-0.8,0.1-1.7,0.3-2.5,0.7c-0.8,0.4-1.5,1-2,1.6c-0.6,0.7-1,1.4-1.3,2.2l-0.2,0.7l-0.7-0.2
				c-0.4-0.1-0.8-0.2-1.2-0.3c-0.4-0.1-0.7,0-1.2,0c-0.2,0-0.4,0.1-0.6,0.1l-0.6,0.1c-0.4,0.1-0.7,0.3-1.1,0.5
				c-0.3,0.2-0.7,0.4-1,0.7c-0.3,0.3-0.6,0.5-0.8,0.9c-0.2,0.3-0.4,0.6-0.6,1c-0.2,0.3-0.3,0.7-0.4,1.1c-0.1,0.4-0.1,0.8-0.1,1.1
				c0,0.1,0,0.4,0,0.6l0.1,0.5c0.1,0.4,0.2,0.7,0.4,1.1c0.2,0.3,0.4,0.7,0.6,1c0.9,1.2,2.4,1.9,4,2l0.6,0.3c0-0.1-0.1-0.2-0.2-0.2
				c-0.1,0,0,0,0,0l0.1,0l0.3,0l0.7,0.1l1.5,0.1l2.9,0.1l5.9,0.1l11.9,0.2l11.9,0.3l5.9,0.1l3,0l1.5,0l0.7,0l0.6-0.1l0.1,0
				c1-0.2,2-0.7,2.7-1.5C79.5,62.5,79.9,61.4,79.9,60.4z M80.1,60.4c0,0.5-0.1,1.1-0.3,1.6c-0.2,0.5-0.5,1-0.8,1.4
				c-0.7,0.8-1.7,1.4-2.8,1.7l0.1,0c-0.4,0.2-0.6,0.1-0.8,0.2l-0.7,0.1l-1.5,0.1l-3,0.2L64.3,66c-4,0.2-7.9,0.3-11.9,0.4
				c-2,0-4,0.1-5.9,0.1l-5.9,0c-2,0-4-0.1-6-0.1l-3-0.1L30,66l-0.8-0.1c-0.1,0-0.3,0-0.4-0.1l-0.1,0c0,0-0.1,0-0.2,0
				c-0.2-0.1-0.4-0.2-0.6-0.3l0.6,0.3c-2-0.2-4-1.2-5.2-2.9c-0.3-0.4-0.6-0.8-0.8-1.3c-0.2-0.5-0.4-1-0.5-1.5
				C22,59.9,22,59.6,22,59.3c0-0.2,0-0.4,0-0.7c0-0.5,0.1-1,0.2-1.5c0.1-0.5,0.3-1,0.5-1.4c0.2-0.5,0.5-0.9,0.8-1.3
				c0.3-0.4,0.7-0.8,1-1.1c0.4-0.3,0.8-0.6,1.2-0.8c0.4-0.2,0.9-0.4,1.4-0.6c0.2-0.1,0.5-0.1,0.7-0.2c0.3,0,0.5-0.1,0.8-0.1
				c0.4,0,1,0,1.5,0c0.5,0.1,1,0.2,1.4,0.3l-1,0.5c0.4-1,0.9-1.9,1.6-2.7c0.7-0.8,1.6-1.4,2.5-1.9c1-0.5,1.9-0.7,3-0.8
				c0.3,0,0.5,0,0.8,0c0.3,0,0.5,0,0.8,0c0.5,0.1,1,0.2,1.5,0.3L40,47.8c0.1-0.5,0.3-1.1,0.5-1.6c0.2-0.5,0.5-1,0.8-1.5
				c0.6-1,1.3-1.8,2.2-2.5c0.4-0.4,0.9-0.7,1.3-1c0.5-0.3,1-0.5,1.5-0.7c0.5-0.2,1-0.4,1.6-0.5c0.5-0.1,1.1-0.2,1.7-0.3l0.8,0
				c0.3,0,0.6,0,0.8,0c0.5,0,1.1,0.1,1.6,0.3c0.5,0.1,1.1,0.3,1.6,0.5c0.5,0.2,1,0.5,1.5,0.7c0.5,0.3,0.9,0.6,1.3,1
				c0.4,0.4,0.8,0.8,1.2,1.2c0.4,0.4,0.7,0.9,1,1.3c0.3,0.5,0.5,1,0.7,1.5l-0.4-0.3c0.2,0,0.4,0,0.6,0l0.6,0c0.4,0,0.8,0.1,1.2,0.2
				c0.8,0.2,1.6,0.6,2.3,1c1.4,0.9,2.5,2.3,3,3.9L66.9,51c1-0.8,2.2-1.3,3.5-1.4c1.3-0.1,2.5,0.1,3.7,0.7c0.6,0.3,1.1,0.6,1.5,1.1
				c0.5,0.4,0.9,0.9,1.2,1.4c0.3,0.5,0.6,1.1,0.7,1.7c0.1,0.3,0.1,0.6,0.2,0.9c0,0.3,0.1,0.6,0,0.9l0-0.1c0.7,0.4,1.3,1,1.8,1.8
				C79.8,58.7,80.1,59.5,80.1,60.4z"/>
		</g>
		<g id="XMLID_492_">
			<path id="XMLID_18_" class="st3" d="M80,60.4c0-1.8-1-3.3-2.4-4.1c0-0.1,0-0.1,0-0.2c0-3.5-2.9-6.3-6.4-6.3c-1.6,0-3,0.6-4.1,1.5
				c-1-2.8-3.8-4.8-7-4.8c-0.2,0-0.4,0-0.5,0c-1.5-3.6-5-6.1-9.2-6.1c-4.8,0-8.8,3.3-9.7,7.7c-0.7-0.2-1.4-0.3-2.2-0.3
				c-3.3,0-6.1,2.1-7.1,5.1c-0.6-0.2-1.3-0.4-2-0.4c-3.6,0-6.4,2.8-6.4,6.3c0,3.3,2.6,5.8,5.8,6.1c0.8,0.9,46.6,0.9,47.5,0.1
				C78.3,64.4,80,62.7,80,60.4z"/>
			<path id="XMLID_15_" class="st4" d="M79.9,60.4c0-0.8-0.2-1.6-0.6-2.3c-0.4-0.7-1-1.3-1.7-1.7l-0.1,0l0-0.1c0-0.3,0-0.6,0-0.9
				c-0.1-0.3-0.1-0.6-0.2-0.9c-0.2-0.6-0.4-1.1-0.8-1.6c-0.3-0.5-0.7-0.9-1.2-1.3c-0.4-0.4-0.9-0.7-1.5-0.9
				c-0.3-0.1-0.5-0.2-0.8-0.3c-0.3-0.1-0.6-0.1-0.8-0.2c-0.3,0-0.6,0-0.8,0c-0.1,0-0.3,0-0.4,0c-0.1,0-0.3,0-0.4,0.1
				c-1.1,0.2-2.1,0.7-2.9,1.4l-0.7,0.6l-0.4-0.9c-0.3-0.7-0.7-1.3-1.1-1.8c-0.5-0.5-1-1-1.6-1.4c-0.6-0.4-1.3-0.6-2-0.8
				c-0.3-0.1-0.7-0.1-1-0.2l-0.5,0l-0.6,0l-0.6,0l-0.2-0.6c-0.2-0.4-0.4-0.9-0.6-1.3c-0.3-0.4-0.5-0.8-0.8-1.2c-0.3-0.4-0.6-0.7-1-1
				c-0.4-0.3-0.7-0.6-1.1-0.9c-0.4-0.3-0.8-0.5-1.3-0.7c-0.4-0.2-0.9-0.4-1.4-0.5C51.9,41.1,51.5,41,51,41l-0.7,0l-0.8,0
				C49,41,48.5,41,48,41.1c-0.5,0.1-1,0.2-1.4,0.4c-0.5,0.2-0.9,0.4-1.3,0.6c-0.4,0.2-0.8,0.5-1.2,0.8c-0.8,0.6-1.4,1.4-2,2.2
				c-0.3,0.4-0.5,0.9-0.7,1.3c-0.2,0.5-0.3,1-0.5,1.4l-0.1,0.3l-0.3-0.1c-0.4-0.1-0.9-0.2-1.4-0.3c-0.2,0-0.5,0-0.7,0l-0.7,0
				c-0.9,0.1-1.8,0.3-2.6,0.8c-0.8,0.4-1.5,1-2.1,1.7c-0.6,0.7-1,1.5-1.3,2.4l-0.1,0.4l-0.4-0.1c-0.4-0.1-0.8-0.2-1.2-0.3
				c-0.4-0.1-0.8,0-1.3,0c-0.4,0.1-0.8,0.1-1.2,0.3c-0.4,0.1-0.8,0.3-1.1,0.5c-0.3,0.2-0.7,0.4-1,0.7c-0.3,0.3-0.6,0.6-0.8,0.9
				c-0.2,0.3-0.4,0.7-0.6,1c-0.2,0.4-0.3,0.7-0.4,1.1c-0.1,0.4-0.1,0.8-0.1,1.2c0,0.1,0,0.4,0,0.6l0.1,0.5c0.1,0.4,0.2,0.7,0.4,1.1
				c0.2,0.3,0.4,0.7,0.6,1c0.2,0.3,0.5,0.6,0.8,0.8c0.3,0.2,0.6,0.4,1,0.6c0.3,0.2,0.7,0.3,1.1,0.4c0.4,0.1,0.8,0.2,1.1,0.2l0.6,0.3
				c0-0.1-0.1-0.1-0.2-0.2c-0.1,0,0,0,0,0l0.1,0l0.3,0l0.7,0.1l1.5,0.1l2.9,0.1l5.9,0.1l11.9,0.1c4,0,7.9,0.1,11.9,0.3
				c2,0.1,4,0.1,5.9,0.2l3,0l1.5,0c0.2,0,0.5,0,0.7,0l0.6-0.1l0.1,0c1-0.2,2-0.7,2.7-1.5C79.5,62.5,79.9,61.4,79.9,60.4z M80.1,60.4
				c0,0.5-0.1,1.1-0.3,1.6c-0.2,0.5-0.5,1-0.8,1.4c-0.7,0.8-1.7,1.4-2.8,1.7l0.1,0c-0.4,0.2-0.6,0.2-0.8,0.2l-0.7,0.1l-1.5,0.1
				l-3,0.2l-5.9,0.4c-4,0.2-7.9,0.4-11.9,0.4c-4,0-7.9,0-11.9-0.1c-2,0-4-0.1-6-0.2l-3-0.2L30,66l-0.8-0.1c-0.1,0-0.3,0-0.4-0.1
				l-0.1,0c0,0-0.1,0-0.2,0c-0.2-0.1-0.4-0.2-0.5-0.3l0.6,0.3c-0.5-0.1-1-0.2-1.5-0.3c-0.5-0.2-1-0.3-1.4-0.6
				c-0.9-0.5-1.7-1.1-2.3-2c-0.3-0.4-0.6-0.8-0.8-1.3c-0.2-0.5-0.4-1-0.5-1.4c0-0.3-0.1-0.5-0.1-0.8c0-0.2,0-0.4,0-0.7
				c0-0.5,0.1-1,0.2-1.5c0.1-0.5,0.3-1,0.5-1.4c0.2-0.4,0.5-0.9,0.8-1.2c0.3-0.4,0.7-0.7,1-1c0.4-0.3,0.8-0.6,1.2-0.8
				c0.4-0.2,0.9-0.4,1.3-0.5c0.5-0.1,1-0.2,1.4-0.2c0.4,0,1,0,1.4,0.1c0.5,0.1,0.9,0.2,1.4,0.4l-0.5,0.3c0.4-1,0.9-1.8,1.6-2.6
				c0.7-0.7,1.5-1.4,2.4-1.8c0.9-0.4,1.9-0.7,2.9-0.8c0.3,0,0.5,0,0.7,0c0.2,0,0.5,0,0.7,0c0.5,0,1,0.1,1.5,0.3l-0.4,0.2
				c0.1-0.5,0.3-1,0.5-1.6c0.2-0.5,0.4-1,0.7-1.5c0.3-0.5,0.6-0.9,0.9-1.3c0.3-0.4,0.7-0.8,1.1-1.2c0.4-0.4,0.8-0.7,1.3-1
				c0.5-0.3,0.9-0.6,1.4-0.8c0.5-0.2,1-0.4,1.6-0.6c0.5-0.2,1.1-0.2,1.7-0.3l0.8-0.1c0.3,0,0.6,0,0.9,0c0.6,0,1.1,0.1,1.7,0.2
				c0.5,0.1,1.1,0.3,1.6,0.5c0.5,0.2,1,0.4,1.5,0.7c0.5,0.3,1,0.6,1.4,1c0.4,0.4,0.9,0.8,1.2,1.2c0.4,0.4,0.7,0.9,1,1.4
				c0.3,0.5,0.6,1,0.8,1.5l-0.9-0.6c0.2,0,0.4,0,0.6,0c0.2,0,0.4,0,0.7,0c0.4,0,0.9,0.1,1.3,0.2c0.9,0.2,1.7,0.6,2.4,1.1
				c0.7,0.5,1.4,1.1,2,1.8c0.3,0.3,0.5,0.7,0.7,1.1c0.2,0.4,0.4,0.8,0.5,1.2l-1.1-0.3c1.1-0.8,2.4-1.3,3.7-1.4c0.2,0,0.3,0,0.5,0
				c0.1,0,0.3,0,0.5,0c0.3,0,0.7,0.1,1,0.1c0.3,0,0.6,0.2,0.9,0.3c0.3,0.1,0.6,0.2,0.9,0.4c0.6,0.3,1.1,0.7,1.6,1.1
				c0.5,0.4,0.9,1,1.2,1.5c0.2,0.3,0.3,0.6,0.4,0.9c0.1,0.3,0.2,0.6,0.3,0.9c0.1,0.3,0.1,0.6,0.2,0.9c0,0.3,0.1,0.6,0,0.9l-0.1-0.1
				c0.7,0.5,1.3,1.1,1.8,1.8C79.9,58.7,80.1,59.5,80.1,60.4z"/>
		</g>
		<g id="XMLID_353_">
			<path id="XMLID_13_" class="st3" d="M80,60.4c0-1.8-1-3.3-2.4-4.1c0-0.1,0-0.1,0-0.2c0-3.5-2.9-6.3-6.4-6.3c-1.6,0-3,0.6-4.1,1.5
				c-1-2.8-3.8-4.8-7-4.8c-0.2,0-0.4,0-0.5,0c-1.5-3.6-5-6.1-9.2-6.1c-4.8,0-8.8,3.3-9.7,7.7c-0.7-0.2-1.4-0.3-2.2-0.3
				c-3.3,0-6.1,2.1-7.1,5.1c-0.6-0.2-1.3-0.4-2-0.4c-3.6,0-6.4,2.8-6.4,6.3c0,3.3,2.6,5.8,5.8,6.1c0.8,0.9,46.6,0.9,47.5,0.1
				C78.3,64.4,80,62.7,80,60.4z"/>
			<path id="XMLID_10_" class="st4" d="M79.9,60.4c0-0.8-0.2-1.6-0.6-2.3c-0.4-0.7-1-1.3-1.7-1.7l-0.1,0l0-0.1c0-0.3,0-0.6,0-0.9
				c-0.1-0.3-0.1-0.6-0.2-0.9c-0.2-0.6-0.4-1.1-0.7-1.6c-0.6-1-1.6-1.8-2.7-2.3c-1.1-0.5-2.3-0.6-3.4-0.5c-1.2,0.2-2.3,0.7-3.1,1.4
				l-0.4,0.4l-0.2-0.5c-0.6-1.4-1.6-2.6-2.9-3.3c-0.6-0.4-1.3-0.6-2.1-0.8c-0.4-0.1-0.7-0.1-1.1-0.1l-0.5,0l-0.6,0l-0.5,0l-0.2-0.5
				c-0.2-0.4-0.4-0.9-0.7-1.3c-0.3-0.4-0.6-0.8-0.9-1.1c-0.3-0.3-0.7-0.7-1.1-1c-0.4-0.3-0.8-0.6-1.2-0.8c-0.4-0.2-0.8-0.4-1.3-0.6
				c-0.4-0.2-0.9-0.3-1.4-0.4c-0.5-0.1-0.9-0.1-1.4-0.1l-0.7,0l-0.8,0.1c-0.4,0.1-0.8,0.1-1.3,0.3c-0.4,0.1-0.9,0.3-1.3,0.5
				c-0.4,0.2-0.8,0.4-1.2,0.7c-0.4,0.2-0.7,0.5-1.1,0.8c-0.7,0.6-1.2,1.3-1.6,2.1c-0.2,0.4-0.4,0.8-0.5,1.2
				c-0.1,0.4-0.3,0.8-0.3,1.3L41.8,50l-1.7-0.4c-0.4-0.1-0.7-0.2-1.1-0.2c-0.2,0-0.4,0-0.6,0l-0.6,0c-0.2,0-0.3,0-0.5,0.1
				c-0.2,0-0.4,0.1-0.5,0.1c-0.4,0.1-0.7,0.3-1,0.4c-0.7,0.4-1.2,0.8-1.7,1.4c-0.5,0.6-0.8,1.2-1.1,1.9l-0.6,1.6l-1.7-0.5
				c-0.3-0.1-0.7-0.2-1-0.2c-0.2,0-0.3,0-0.5,0l-0.6,0c-0.2,0-0.3,0.1-0.4,0.1l-0.5,0.1c-0.3,0.1-0.6,0.2-0.9,0.4
				c-0.3,0.2-0.6,0.3-0.8,0.5c-0.2,0.2-0.5,0.4-0.7,0.7c-0.2,0.2-0.4,0.5-0.5,0.8c-0.1,0.3-0.2,0.6-0.3,0.9c-0.1,0.3-0.1,0.6-0.1,1
				l0.2,0l0.2,0v0c0,0,0,0.1,0-0.1v0l-0.2,0.1l-0.1,0.2l0,0.3l0,0.4c0.1,0.3,0.1,0.6,0.3,0.9c0.1,0.3,0.3,0.6,0.5,0.8
				c0.8,1,2,1.7,3.4,1.9l1,0.5c-0.1-0.1-0.3-0.3-0.5-0.3c-0.1,0-0.1,0-0.1,0l0.1,0c0.1,0,0.1,0,0.3,0l0.7,0.1l1.4,0.1l2.9,0.2
				l5.9,0.3c3.9,0.2,7.9,0.4,11.9,0.5l5.9,0.2c2,0.1,4,0.1,5.9,0.2l5.9,0c1,0,2,0,3,0l1.5-0.1l0.7-0.1c0.2,0,0.5-0.1,0.6-0.1l0.1,0
				c1-0.2,2-0.7,2.7-1.5C79.5,62.5,79.9,61.4,79.9,60.4z M80.1,60.4c0,0.5-0.1,1.1-0.3,1.6c-0.2,0.5-0.5,1-0.8,1.4
				c-0.7,0.8-1.7,1.4-2.8,1.6l0.1,0c-0.6,0.2-1,0.2-1.5,0.2l-1.5,0.1l-3,0.1l-5.9,0.1c-4,0.1-7.9,0.1-11.9,0.1c-4,0-7.9,0-11.9-0.1
				l-5.9-0.1l-3-0.1l-1.5-0.1l-0.7-0.1c-0.3-0.1-0.5,0-0.8-0.2l0.1,0.1c-1.8-0.2-3.6-1-4.7-2.5c-0.3-0.4-0.5-0.8-0.7-1.2
				c-0.2-0.4-0.3-0.9-0.4-1.3c0-0.2-0.1-0.5-0.1-0.7c0-0.2,0-0.4,0-0.7c0-0.5,0.1-0.9,0.2-1.4c0.1-0.4,0.3-0.9,0.5-1.3
				c0.2-0.4,0.4-0.8,0.7-1.2c0.3-0.4,0.6-0.7,0.9-1c0.3-0.3,0.7-0.6,1.1-0.8c0.4-0.2,0.8-0.4,1.3-0.5c0.4-0.1,0.9-0.2,1.4-0.3
				c0.4,0,0.9,0,1.4,0c0.5,0.1,0.9,0.2,1.3,0.3l-0.2,0.1c0.3-0.9,0.8-1.8,1.5-2.5c0.7-0.7,1.4-1.4,2.3-1.8c0.9-0.4,1.8-0.7,2.8-0.8
				c0.5,0,1,0,1.5,0c0.5,0,1,0.1,1.4,0.3l-0.2,0.1c0.1-0.5,0.3-1,0.5-1.5c0.2-0.5,0.4-1,0.7-1.4c0.5-0.9,1.2-1.7,2-2.4
				c0.4-0.3,0.8-0.7,1.3-0.9c0.4-0.3,0.9-0.5,1.4-0.7c0.5-0.2,1-0.4,1.5-0.5c0.5-0.1,1-0.2,1.6-0.3c0.5,0,1.1,0,1.6,0
				c0.5,0,1.1,0.1,1.6,0.2c0.5,0.1,1,0.3,1.5,0.5c0.5,0.2,1,0.4,1.4,0.7c0.5,0.3,0.9,0.6,1.3,0.9c0.4,0.3,0.8,0.7,1.1,1.1
				c0.4,0.4,0.7,0.8,0.9,1.3c0.3,0.5,0.5,0.9,0.7,1.4l-0.1-0.1c0.8-0.1,1.6,0,2.4,0.2c0.8,0.2,1.6,0.5,2.2,1c1.4,0.9,2.5,2.2,3,3.7
				L67,51.1c1-0.8,2.2-1.3,3.4-1.4c1.2-0.1,2.5,0.1,3.6,0.6c0.6,0.3,1.1,0.6,1.5,1c0.5,0.4,0.9,0.9,1.2,1.4c0.3,0.5,0.6,1.1,0.7,1.7
				c0.1,0.3,0.1,0.6,0.2,0.9c0,0.3,0.1,0.6,0,0.9l-0.1-0.1c0.7,0.4,1.3,1.1,1.8,1.8C79.8,58.7,80.1,59.5,80.1,60.4z"/>
		</g>
	</g>
</g>
</svg>
