<?xml version="1.0" encoding="utf-8"?>
<!-- Generator: Adobe Illustrator 19.0.0, SVG Export Plug-In . SVG Version: 6.00 Build 0)  -->
<svg version="1.1" id="Layer_1" xmlns="http://www.w3.org/2000/svg" xmlns:xlink="http://www.w3.org/1999/xlink" x="0px" y="0px"
	 viewBox="0 0 100 100" style="enable-background:new 0 0 100 100;" xml:space="preserve">
<style type="text/css">
	.st0{fill:url(#XMLID_2_);}
	.st1{fill:#FFFFFF;stroke:#D0D1D3;stroke-miterlimit:10;}
	.st2{fill:#FFFFFF;}
	.st3{fill:#D0D1D3;}
</style>
<radialGradient id="XMLID_2_" cx="59.7347" cy="49.9851" r="27.5356" gradientTransform="matrix(0.9987 0 0 0.9987 -0.4786 -0.1735)" gradientUnits="userSpaceOnUse">
	<stop  offset="0.6731" style="stop-color:#EEB844"/>
	<stop  offset="0.7874" style="stop-color:#F7D36F"/>
	<stop  offset="0.8573" style="stop-color:#F7D471"/>
	<stop  offset="0.8825" style="stop-color:#F8D678"/>
	<stop  offset="0.9004" style="stop-color:#F8D983"/>
	<stop  offset="0.9148" style="stop-color:#FADE94"/>
	<stop  offset="0.9192" style="stop-color:#FAE09B"/>
</radialGradient>
<circle id="XMLID_313_" class="st0" cx="59.2" cy="49.7" r="27.5"/>
<g id="XMLID_472_">
	<path id="XMLID_499_" class="st1" d="M58.1,40c0,0-0.1,0-0.1,0c-1.2-3.1-4.2-5.3-7.8-5.3c-0.5,0-1.1,0.1-1.6,0.2
		c0-6.2-5.1-11.3-11.3-11.3c-6,0-10.9,4.7-11.3,10.6c-0.2,0-0.4,0-0.6,0c-6.2,0-11.3,5.1-11.3,11.3c0,5.4,3.8,10.2,8.8,11.3
		c0.6,0.2,35.1,0.1,35.2,0.1c4.6,0,8.4-3.8,8.4-8.4C66.5,43.9,62.8,40,58.1,40z"/>
	<g id="XMLID_488_">
		<path id="XMLID_25_" class="st2" d="M57.4,40c0,0-0.1,0-0.1,0c-1.2-3.1-4.2-5.3-7.8-5.3c-0.5,0-1.1,0.1-1.6,0.2
			c0-6.2-5.1-11.3-11.3-11.3c-6,0-10.9,4.7-11.3,10.6c-0.2,0-0.4,0-0.6,0c-6.2,0-11.3,5.1-11.3,11.3c0,5.4,3.8,10.2,8.8,11.3
			c0.6,0.2,35.1,0.1,35.2,0.1c4.6,0,8.4-3.8,8.4-8.4C65.8,43.9,62.1,40,57.4,40z"/>
		<g id="XMLID_21_">
			<path id="XMLID_22_" class="st3" d="M57.4,40.1l-0.1,0l-0.1,0l0-0.1c-0.4-0.9-0.9-1.7-1.5-2.4c-0.6-0.7-1.4-1.3-2.2-1.7
				c-0.4-0.2-0.9-0.4-1.3-0.5c-0.4-0.1-0.9-0.2-1.4-0.3c-0.9-0.1-1.9,0-2.8,0.2l-0.4,0.1l0-0.5l-0.1-1c-0.1-0.3-0.1-0.7-0.2-1
				c-0.2-0.7-0.4-1.3-0.7-2c-0.6-1.3-1.4-2.4-2.4-3.3c-0.5-0.5-1-0.9-1.6-1.3c-0.6-0.4-1.2-0.7-1.8-0.9c-0.6-0.3-1.3-0.5-1.9-0.6
				c-0.7-0.1-1.3-0.2-2-0.2l-0.2,0l-0.1,0l0,0c0.1,0,0,0,0,0l0,0l-0.1,0l-0.5,0c-0.4,0-0.7,0.1-1,0.1c-0.6,0.1-1.3,0.3-1.9,0.5
				c-1.3,0.4-2.4,1.1-3.5,2c-0.5,0.4-1,0.9-1.4,1.5c-0.2,0.3-0.4,0.6-0.6,0.8c-0.2,0.3-0.3,0.6-0.5,0.9l-0.4,0.9l-0.3,1l-0.2,1
				l-0.1,1l-0.1,0.5l-0.4,0l-0.5,0c-0.1,0-0.3,0-0.5,0c-0.3,0-0.7,0-1,0.1c-0.7,0.1-1.3,0.2-2,0.4c-0.7,0.2-1.3,0.5-1.9,0.8
				c-0.3,0.2-0.6,0.3-0.9,0.5L17.8,37L17,37.7l-0.7,0.8l-0.6,0.8l-0.5,0.9c-0.3,0.6-0.6,1.2-0.8,1.9c-0.2,0.7-0.3,1.3-0.4,2
				c-0.1,0.3,0,0.7-0.1,1c0,0.3,0,0.7,0,1c0.1,0.7,0.2,1.3,0.3,2c0.2,0.7,0.4,1.3,0.7,1.9l0.5,0.9c0.2,0.3,0.4,0.6,0.6,0.8
				c0.4,0.5,0.8,1.1,1.3,1.5c0.2,0.2,0.5,0.5,0.7,0.7c0.3,0.2,0.5,0.4,0.8,0.6c0.5,0.4,1.1,0.7,1.7,0.9c0.6,0.3,1.2,0.4,1.9,0.6
				l0.1,0l15.1-0.1c2.6,0,5.1,0,7.7,0c2.6,0,5.1,0,7.7,0l3.8,0c1.3,0,2.3-0.1,3.4-0.5c1.1-0.4,2.1-1.1,2.9-1.9
				c0.8-0.8,1.4-1.9,1.8-3c0.4-1.1,0.5-2.4,0.3-3.6c-0.2-1.2-0.7-2.4-1.4-3.4c-0.7-1-1.7-1.9-2.8-2.5C60,40.5,58.7,40.2,57.4,40.1z
				 M57.4,39.9c2.6,0,5.2,1.2,6.8,3.3c0.8,1,1.5,2.2,1.8,3.5c0.3,1.3,0.3,2.7,0,4c-0.6,2.7-2.5,5.1-5.1,6.3c-0.7,0.3-1.3,0.5-2,0.6
				l-0.6,0.1l-0.5,0c-0.2,0-0.3,0-0.5,0l-0.5,0L53,58c-2.6,0-5.1,0.1-7.7,0c-2.6,0-5.1,0-7.7-0.1L30,57.8l-3.9-0.1l-1.9-0.1l-1,0
				l-0.5,0c-0.2,0-0.5,0-0.7-0.1l0.1,0c-0.7-0.2-1.4-0.4-2.1-0.8c-0.7-0.3-1.3-0.7-1.9-1.2c-0.3-0.2-0.6-0.5-0.9-0.7
				c-0.3-0.2-0.5-0.5-0.8-0.8c-0.5-0.5-0.9-1.1-1.3-1.8c-0.4-0.6-0.7-1.3-1-2c-0.3-0.7-0.5-1.4-0.6-2.1c-0.1-0.7-0.3-1.5-0.3-2.2
				c0-0.3,0-0.7,0-1.1c0-0.4,0-0.7,0.1-1.1c0.1-0.7,0.3-1.4,0.5-2.1c0.1-0.3,0.2-0.7,0.4-1c0.2-0.3,0.3-0.7,0.5-1l0.6-0.9l0.7-0.9
				l0.7-0.8l0.8-0.7l0.9-0.7c0.3-0.2,0.6-0.4,0.9-0.6c0.6-0.4,1.3-0.7,2-0.9c0.7-0.2,1.4-0.4,2.1-0.5c0.4-0.1,0.7-0.1,1.1-0.1
				c0.2,0,0.3,0,0.6,0l0.5,0l-0.5,0.5l0.1-1.1l0.2-1.1l0.3-1.1l0.4-1.1c0.2-0.3,0.3-0.7,0.5-1c0.2-0.3,0.4-0.7,0.6-1
				c0.4-0.6,0.9-1.2,1.5-1.8c1.1-1.1,2.4-1.9,3.9-2.5c0.7-0.3,1.5-0.5,2.3-0.6c0.4-0.1,0.8-0.1,1.2-0.1l0.5,0l0.1,0l0,0l0.1,0l0.1,0
				l0.3,0c1.6,0,3.1,0.4,4.5,1.1c0.7,0.3,1.4,0.7,2,1.2c0.6,0.5,1.2,1,1.7,1.5c1,1.1,1.8,2.5,2.3,3.9c0.3,0.7,0.4,1.5,0.6,2.2
				c0,0.4,0.1,0.7,0.1,1.1l0,1.1l-0.5-0.4c1-0.2,2-0.1,3,0.1c0.5,0.1,1,0.2,1.4,0.4c0.5,0.2,0.9,0.4,1.3,0.6
				c0.9,0.5,1.6,1.1,2.3,1.9C56.5,38.3,57,39.1,57.4,39.9l-0.1,0L57.4,39.9z"/>
		</g>
	</g>
	<g id="XMLID_473_">
		<path id="XMLID_18_" class="st2" d="M57.4,40c0,0-0.1,0-0.1,0c-1.2-3.1-4.2-5.3-7.8-5.3c-0.5,0-1.1,0.1-1.6,0.2
			c0-6.2-5.1-11.3-11.3-11.3c-6,0-10.9,4.7-11.3,10.6c-0.2,0-0.4,0-0.6,0c-6.2,0-11.3,5.1-11.3,11.3c0,5.4,3.8,10.2,8.8,11.3
			c0.6,0.2,35.1,0.1,35.2,0.1c4.6,0,8.4-3.8,8.4-8.4C65.8,43.9,62.1,40,57.4,40z"/>
		<g id="XMLID_14_">
			<path id="XMLID_15_" class="st3" d="M57.4,40.1l-0.1,0l-0.1,0l0-0.1c-0.7-1.8-2.1-3.3-3.7-4.2c-0.8-0.4-1.7-0.8-2.7-0.9
				c-0.5-0.1-0.9-0.1-1.4-0.1c-0.5,0-0.9,0.1-1.4,0.2l-0.2,0.1l0-0.3l-0.1-1.1c0-0.4-0.1-0.7-0.2-1c-0.2-0.7-0.4-1.4-0.6-2
				c-0.3-0.6-0.6-1.3-1-1.8c-0.4-0.6-0.9-1.1-1.4-1.6c-1-1-2.2-1.7-3.5-2.2c-1.3-0.5-2.6-0.8-4-0.7l-0.3,0l-0.1,0l0,0c0.1,0,0,0,0,0
				l0,0l-0.1,0l-0.5,0c-0.4,0-0.7,0.1-1,0.2c-0.6,0.1-1.3,0.3-1.9,0.6c-1.2,0.5-2.4,1.3-3.3,2.2c-0.5,0.5-0.9,1-1.3,1.5
				c-0.2,0.3-0.3,0.6-0.5,0.8l-0.4,0.9l-0.3,0.9L27,32.4l-0.2,0.9l-0.1,1l-0.1,1.3l-1.3,0l-0.5,0l-0.1,0l0,0c0,0,0.1,0,0.1,0l0,0
				l0,0l-0.1,0l-0.3,0c-0.3,0-0.7,0-1,0.1c-0.5,0.1-1.1,0.3-1.7,0.5c-0.6,0.2-1.1,0.5-1.6,0.8c-0.3,0.2-0.5,0.3-0.8,0.5L18.6,38
				l-0.7,0.6l-0.6,0.7l-0.5,0.7l-0.4,0.8L16,41.7c-0.1,0.3-0.2,0.6-0.3,0.8c-0.2,0.6-0.3,1.1-0.4,1.7c-0.1,0.3,0,0.6-0.1,0.9
				c0,0.1,0,0.4,0,0.4l0,0.5c0,0.4,0.1,0.6,0.1,0.9c0,0.3,0.1,0.6,0.2,0.9c0.1,0.6,0.3,1.1,0.6,1.7c0.3,0.5,0.5,1.1,0.9,1.6
				c0.3,0.5,0.7,1,1.1,1.4c0.2,0.2,0.4,0.4,0.6,0.6c0.2,0.2,0.5,0.4,0.7,0.6c0.5,0.4,1,0.6,1.5,0.9c0.5,0.3,1.1,0.4,1.7,0.6l0.2,0
				c0,0,0-0.1,0-0.1l0.5,0l0.9,0l1.9,0.1l3.8,0.1c2.6,0.1,5.1,0.2,7.7,0.3L53,56.2l3.8,0.1c1.3,0.1,2.4,0,3.6-0.5
				c1.1-0.4,2.2-1.1,3-2c0.8-0.9,1.4-2,1.8-3.2c0.3-1.2,0.4-2.5,0.2-3.7c-0.2-1.2-0.7-2.4-1.5-3.4c-0.7-1-1.7-1.9-2.9-2.4
				C60,40.5,58.7,40.2,57.4,40.1z M57.4,39.9c1.3,0,2.6,0.3,3.8,0.9c1.2,0.6,2.2,1.4,3,2.5c0.8,1,1.3,2.2,1.6,3.5
				c0.2,1.3,0.2,2.6-0.1,3.9c-0.6,2.5-2.5,4.7-4.9,5.7c-1.2,0.5-2.5,0.7-3.8,0.7l-3.8,0l-15.4,0l-7.7,0l-3.8,0c-1.3,0-2.5,0-3.9-0.1
				l0,0c-0.7-0.2-1.4-0.4-2-0.7c-0.6-0.3-1.3-0.6-1.9-1.1c-0.3-0.2-0.6-0.4-0.8-0.7c-0.3-0.2-0.5-0.5-0.8-0.7
				c-0.5-0.5-0.9-1.1-1.4-1.7c-0.2-0.3-0.4-0.6-0.6-0.9l-0.5-1c-0.3-0.7-0.5-1.3-0.7-2c-0.2-0.7-0.3-1.4-0.3-2.1
				c0-0.7,0-1.4,0.1-2.1c0.1-0.7,0.3-1.4,0.5-2.1c0.1-0.3,0.2-0.7,0.4-1c0.2-0.3,0.3-0.6,0.5-1l0.6-0.9l0.6-0.9l0.7-0.8l0.8-0.7
				l0.9-0.6c0.3-0.2,0.6-0.4,0.9-0.6c0.6-0.3,1.3-0.6,2-0.9c0.7-0.2,1.4-0.4,2.1-0.5c0.4-0.1,0.7-0.1,1.1-0.1c0.3,0,0.7,0,1.1,0
				l-0.2,0.2l0.1-1.1l0.2-1.1l0.3-1.1l0.4-1c0.2-0.3,0.3-0.6,0.5-1c0.2-0.3,0.4-0.6,0.6-0.9c0.4-0.6,0.9-1.1,1.5-1.6
				c1.1-1,2.4-1.8,3.7-2.3c0.7-0.3,1.4-0.4,2.1-0.6c0.7-0.1,1.4-0.2,2.2-0.1c1.5,0,2.9,0.4,4.3,1c1.3,0.6,2.6,1.4,3.6,2.5
				c1,1.1,1.8,2.3,2.4,3.7c0.3,0.7,0.5,1.4,0.6,2.1c0.1,0.4,0.1,0.7,0.2,1.1l0.1,1.1l-0.1-0.1c1-0.2,2-0.2,2.9-0.1
				c1,0.2,1.9,0.5,2.8,0.9C55.3,36.6,56.7,38.2,57.4,39.9l-0.1,0L57.4,39.9z"/>
		</g>
	</g>
</g>
</svg>
