<?xml version="1.0" encoding="utf-8"?>
<!-- Generator: Adobe Illustrator 21.0.0, SVG Export Plug-In . SVG Version: 6.00 Build 0)  -->
<svg version="1.1" id="showersIcon" xmlns="http://www.w3.org/2000/svg" xmlns:xlink="http://www.w3.org/1999/xlink" x="0px"
	 y="0px" viewBox="0 0 63.8 41.9" style="enable-background:new 0 0 63.8 41.9;" xml:space="preserve">
<style type="text/css">
	.st0{fill:#33B5D9;}
	.st1{fill:#A7A9AC;}
	.st2{fill:#E6E7E8;}
	.st3{fill:none;stroke:#33B5D9;stroke-width:1.5;stroke-linecap:round;stroke-miterlimit:10;}
	.st4{fill:#D1D3D4;}
	.st5{fill:#F1F2F2;}
</style>
<g id="rain">
	<path class="st0" d="M29.9,26.4c-0.1,0.5-0.4,3.1-0.9,3.9c-0.1,0.2-0.3,0.4-0.4,0.5c-0.4,0.2-0.8,0.3-1.1,0.1
		c-0.6-0.3-0.6-1.3-0.1-2.2C27.8,28.1,29.2,26.9,29.9,26.4z"/>
	<path class="st0" d="M27.1,28.2c0,0.3-0.2,1.9-0.5,2.4c-0.1,0.1-0.2,0.2-0.2,0.3c-0.2,0.1-0.5,0.2-0.7,0c-0.4-0.2-0.4-0.8-0.1-1.3
		C25.9,29.3,26.7,28.6,27.1,28.2z"/>
	<path class="st0" d="M37.1,26.4c-0.1,0.5-0.4,3.1-0.9,3.9c-0.1,0.2-0.3,0.4-0.4,0.5c-0.4,0.2-0.8,0.3-1.1,0.1
		c-0.6-0.3-0.6-1.3-0.1-2.2C35,28.1,36.4,27,37.1,26.4z"/>
	<path class="st0" d="M22.1,26.4c-0.1,0.5-0.4,3.1-0.9,3.9c-0.1,0.2-0.3,0.4-0.4,0.5c-0.4,0.2-0.8,0.3-1.1,0.1
		c-0.6-0.3-0.6-1.3-0.1-2.2C20,28.1,21.4,27,22.1,26.4z"/>
</g>
<g id="cloud2">
	<path class="st1" d="M63.8,14.2c0,1.9-2.1,3.4-4.8,3.4H30.5c-2.6,0-4.8-1.5-4.8-3.4l0,0c0-1.9,2.1-3.4,4.8-3.4H59
		C61.7,10.8,63.8,12.4,63.8,14.2L63.8,14.2z"/>
	<circle class="st2" cx="43.2" cy="6.2" r="6.2"/>
	<circle class="st1" cx="50.1" cy="10.2" r="5.7"/>
	<path class="st2" d="M50.1,4.5c-1.3,0-2.6,0.5-3.6,1.3c-0.6,0.9-1,2.1-1,3.3c0,3.2,2.6,5.8,5.8,5.8c1.2,0,2.3-0.4,3.3-1
		c0.8-1,1.3-2.2,1.3-3.6C55.8,7,53.2,4.5,50.1,4.5z"/>
	<circle class="st1" cx="60.1" cy="13.9" r="3.7"/>
	<circle class="st1" cx="29.8" cy="12.9" r="4.7"/>
	<path class="st2" d="M33.3,12c0-1.3-0.6-2.5-1.4-3.3c-0.6-0.3-1.3-0.5-2.1-0.5c-2.6,0-4.7,2.1-4.7,4.7c0,0.7,0.2,1.5,0.5,2.1
		c0.8,0.9,2,1.4,3.3,1.4C31.3,16.4,33.3,14.4,33.3,12z"/>
	<circle class="st1" cx="35.4" cy="10.8" r="5.6"/>
	<path class="st2" d="M35.4,5.2c-3.1,0-5.6,2.5-5.6,5.6c0,1.1,0.3,2.1,0.8,2.9c1,0.9,2.3,1.4,3.7,1.4c3,0,5.5-2.4,5.5-5.5
		c0-1.4-0.5-2.7-1.4-3.7C37.5,5.5,36.5,5.2,35.4,5.2z"/>
	<circle class="st1" cx="56.9" cy="10.2" r="4"/>
	<path class="st2" d="M56.9,13.3c2,0,3.7-1.5,3.9-3.5c-0.2-2-1.9-3.6-3.9-3.6c-1.8,0-3.3,1.2-3.8,2.9c0,0.1,0,0.2,0,0.3
		C53,11.6,54.8,13.3,56.9,13.3z"/>
	<path class="st2" d="M60.1,10.2c-1.9,0-3.5,1.4-3.7,3.3c0.1,1.9,1.7,3.4,3.7,3.4c1.9,0,3.5-1.5,3.7-3.3
		C63.6,11.7,62,10.2,60.1,10.2z"/>
</g>
<g id="cloud1">
	<path class="st1" d="M38.7,19.9c0,1.9-2.1,3.4-4.8,3.4H5.4c-2.6,0-4.8-1.5-4.8-3.4l0,0c0-1.9,2.1-3.4,4.8-3.4H34
		C36.6,16.5,38.7,18,38.7,19.9L38.7,19.9z"/>
	<circle class="st2" cx="18.1" cy="11.8" r="6.2"/>
	<circle class="st1" cx="25" cy="15.9" r="5.7"/>
	<path class="st2" d="M25,10.1c-1.3,0-2.6,0.5-3.6,1.3c-0.6,0.9-1,2.1-1,3.3c0,3.2,2.6,5.8,5.8,5.8c1.2,0,2.3-0.4,3.3-1
		c0.8-1,1.3-2.2,1.3-3.6C30.7,12.7,28.1,10.1,25,10.1z"/>
	<circle class="st1" cx="35" cy="19.6" r="3.7"/>
	<circle class="st1" cx="4.7" cy="18.6" r="4.7"/>
	<path class="st2" d="M8.2,17.6c0-1.3-0.6-2.5-1.4-3.3c-0.6-0.3-1.3-0.5-2.1-0.5c-2.6,0-4.7,2.1-4.7,4.7c0,0.7,0.2,1.5,0.5,2.1
		c0.8,0.9,2,1.4,3.3,1.4C6.2,22.1,8.2,20.1,8.2,17.6z"/>
	<circle class="st1" cx="10.3" cy="16.5" r="5.6"/>
	<path class="st2" d="M10.3,10.9c-3.1,0-5.6,2.5-5.6,5.6c0,1.1,0.3,2.1,0.8,2.9c1,0.9,2.3,1.4,3.7,1.4c3,0,5.5-2.4,5.5-5.5
		c0-1.4-0.5-2.7-1.4-3.7C12.4,11.2,11.4,10.9,10.3,10.9z"/>
	<circle class="st1" cx="31.8" cy="15.9" r="4"/>
	<path class="st2" d="M31.9,19c2,0,3.7-1.5,3.9-3.5c-0.2-2-1.9-3.6-3.9-3.6c-1.8,0-3.3,1.2-3.8,2.9c0,0.1,0,0.2,0,0.3
		C28,17.2,29.7,19,31.9,19z"/>
	<path class="st2" d="M35,15.9c-1.9,0-3.5,1.4-3.7,3.3c0.1,1.9,1.7,3.4,3.7,3.4c1.9,0,3.5-1.5,3.7-3.3C38.5,17.3,37,15.9,35,15.9z"
		/>
</g>
<g id="dashedLines">
	<line class="st3" x1="13.7" y1="26.8" x2="5.6" y2="41.1"/>
	<line class="st3" x1="26.3" y1="15.3" x2="13.5" y2="37.5"/>
	<line class="st3" x1="27.3" y1="22.8" x2="16.8" y2="41.1"/>
	<line class="st3" x1="30.3" y1="26.8" x2="24.1" y2="37.8"/>
	<line class="st3" x1="37.3" y1="25.1" x2="27.9" y2="41.1"/>
	<line class="st3" x1="45.8" y1="19.7" x2="35.8" y2="37.5"/>
	<line class="st3" x1="47.5" y1="26.8" x2="39.4" y2="41.1"/>
</g>
<g id="cloud0">
	<circle class="st4" cx="18.1" cy="21.5" r="9.8"/>
	<circle class="st5" cx="38.4" cy="18.9" r="7.8"/>
	<path class="st4" d="M49.3,26.7c0,2.5-2,4.6-4.6,4.6H17.3c-2.5,0-4.6-2-4.6-4.6l0,0c0-2.5,19.8-9.9,22.3-9.9c0,0,0.8,7.3,6,1.2
		C42.9,15.8,49.3,24.2,49.3,26.7L49.3,26.7z"/>
	<circle class="st4" cx="46" cy="23.7" r="7.6"/>
	<path class="st5" d="M53.5,23.1c-0.3-3.7-3.2-6.6-6.9-6.9c-3.2,0.3-5.6,3-5.6,6.2c0,3.5,2.8,6.3,6.3,6.3
		C50.5,28.7,53.2,26.2,53.5,23.1z"/>
	<path class="st5" d="M17.1,11.7c-4.6,0.5-8.2,4.1-8.7,8.7c0.5,3.9,3.8,6.9,7.8,6.9c4.3,0,7.9-3.5,7.9-7.9
		C24,15.5,21,12.2,17.1,11.7z"/>
	<circle class="st4" cx="28.2" cy="12.6" r="10.4"/>
	<path class="st5" d="M37.3,9.9c0-1.1-0.2-2.2-0.5-3.2c-1.9-2.7-5-4.5-8.6-4.5c-5.8,0-10.4,4.7-10.4,10.4c0,1,0.1,1.9,0.4,2.8
		c1.8,2.9,5,4.9,8.7,4.9C32.7,20.3,37.3,15.6,37.3,9.9z"/>
</g>
</svg>
