<?xml version="1.0" encoding="utf-8"?>
<!-- Generator: Adobe Illustrator 21.0.0, SVG Export Plug-In . SVG Version: 6.00 Build 0)  -->
<svg version="1.1" id="snowyIcon" xmlns="http://www.w3.org/2000/svg" xmlns:xlink="http://www.w3.org/1999/xlink" x="0px" y="0px"
	 viewBox="0 0 57.9 36.1" style="enable-background:new 0 0 57.9 36.1;" xml:space="preserve">
<style type="text/css">
	.st0{fill:#FFFFFF;}
	.st1{fill:#A7A9AC;}
	.st2{fill:#E6E7E8;}
	.st3{fill:#D1D3D4;}
</style>
<g id="rain">
	<path class="st0" d="M21.4,30.8l0.2-0.2l-0.4-0.3l0.4-0.2l-0.1-0.2l-0.4,0.2v-0.5h-0.3v0.6l-0.2,0.1v-0.7h-0.3v0.8l-0.8,0.4
		l0.1-0.5h-0.5l0.3-0.4l0.8-0.1v-0.3h-0.6l0.2-0.3L19.6,29l-0.3,0.6L19.1,29l-0.3,0.1l0.2,0.8l-0.3,0.4l-0.1-0.5l-0.4,0.3v-0.9
		l0.7-0.4l0-0.2l-0.6,0.3v-0.3l0.5-0.3L18.7,28l-0.4,0.2v-0.5H18v0.5l-0.4-0.3l-0.1,0.3l0.4,0.4v0.3l-0.5-0.4l-0.1,0.3l0.7,0.4v0.9
		l-0.4-0.3l-0.2,0.4l-0.2-0.4l0.4-0.8l-0.3-0.2L17,29.4l-0.2-0.3l-0.2,0.2l0.1,0.3l-0.6-0.1v0.3l0.8,0.2l0.2,0.4l-0.5-0.2v0.5
		l-0.7-0.5v-0.8l-0.3-0.1V30l-0.2-0.1v-0.6l-0.3-0.1v0.5l-0.4-0.3l-0.2,0.3l0.4,0.3l-0.4,0.2l0.2,0.3l0.5-0.3l0.2,0.1l-0.8,0.3
		l0.2,0.2l0.7-0.4l0.8,0.5L15.8,31l0.3,0.4h-0.4l-0.5-0.7l-0.3,0.1l0.4,0.5h-0.4v0.3h0.4l-0.4,0.6l0.3,0.2l0.6-0.6h0.4l-0.4,0.4
		l0.5,0.2l-0.8,0.4l-0.7-0.4l-0.2,0.2l0.6,0.4L15,33.1l-0.5-0.4l-0.2,0.2l0.4,0.3l-0.4,0.2l0.1,0.3l0.4-0.2V34h0.3v-0.6l0.2-0.1V34
		h0.3v-0.8l0.8-0.4l-0.1,0.5h0.5l-0.3,0.4l-0.7-0.1v0.3h0.6l-0.2,0.3l0.3,0.2l0.2-0.3l0.2,0.6l0.3-0.1l-0.3-0.8l0.3-0.4l0.1,0.5
		l0.4-0.3v0.9l-0.8,0.3l0.1,0.3l0.6-0.3v0.3l-0.5,0.3l0.1,0.3l0.4-0.2V36h0.3v-0.5l0.4,0.3l0.1-0.3l-0.6-0.4v-0.3l0.6,0.4l0.1-0.3
		l-0.6-0.4v-0.9l0.4,0.4l0.2-0.5l0.2,0.4l-0.3,0.7l0.3,0.2l0.3-0.6l0.2,0.3l0.3-0.1l-0.1-0.3l0.6,0.1v-0.3l-0.8-0.2L19,33.3h0.3l0,0
		h0.3v-0.5l0.8,0.5l-0.1,0.8l0.3,0.1v-0.7l0.2,0.1v0.6l0.3,0.1v-0.5l0.4,0.3l0.2-0.3l-0.4-0.3l0.4-0.2l-0.2-0.2L21,33.4l-0.2-0.1
		l0.6-0.3l-0.2-0.2l-0.7,0.4l-0.8-0.5l0.5-0.1l-0.3-0.4h0.4l0.5,0.7l0.3-0.1l-0.4-0.5h0.4V32h-0.4l0.4-0.4l-0.3-0.2L20.2,32h-0.4
		l0.4-0.4l-0.5-0.2l0.8-0.4l0.7,0.4l0.2-0.2l-0.5-0.4l0.2-0.1L21.4,30.8z M18.8,30.8h0.4l-0.1,0.4l-0.7,0.4L18.8,30.8z M18.6,32.9
		l-0.3-0.7l0.7,0.4V33L18.6,32.9L18.6,32.9z M18.2,30.5l0.3-0.2l0.1,0.4l-0.4,0.7V30.5z M17.6,30.3l0.3,0.2v0.8l-0.4-0.7L17.6,30.3z
		 M17.2,30.7l0.4,0.7l-0.5-0.3L17,31h-0.1v-0.4L17.2,30.7z M16.7,31.2l0.7,0.4l0,0h-0.8l-0.2-0.3L16.7,31.2z M16.3,32.1l0.3-0.3h0.8
		l-0.7,0.4L16.3,32.1z M17.1,32.9h-0.4l0.1-0.4l0.7-0.4L17.1,32.9z M17.7,33.1l-0.3,0.2l-0.1-0.4l0.4-0.7V33.1z M18.2,33.4l-0.3-0.2
		v-0.8l0.4,0.7L18.2,33.4z M19.1,32.4L18.4,32h0.8l0.2,0.3L19.1,32.4z M19.3,31.8h-0.8l0.7-0.4l0.3,0.1L19.3,31.8z"/>
	<path class="st0" d="M53.2,19.3l0.2-0.2L53,18.8l0.5-0.2l-0.1-0.2l-0.5,0.2v-0.5h-0.3v0.6l-0.2,0.1v-0.7h-0.3V19l-0.9,0.4l0.1-0.5
		h-0.6l0.3-0.4l0.9-0.1v-0.3h-0.7l0.2-0.3l-0.2-0.2L50.9,18l-0.2-0.6l-0.3,0.2l0.2,0.9l-0.3,0.4l-0.1-0.5l-0.4,0.2v-1l0.8-0.4
		l-0.1-0.3l-0.6,0.3v-0.3l0.6-0.3l-0.1-0.3l-0.5,0.3v-0.5h-0.3v0.5l-0.4-0.3L49,16.6l0.5,0.3v0.3l-0.6-0.4l-0.1,0.3l0.7,0.5v1
		l-0.4-0.3l-0.2,0.5l-0.2-0.4l0.4-0.8l-0.3-0.2L48.5,18l-0.2-0.3l-0.2,0.2l0.1,0.3l-0.7-0.1v0.3l0.9,0.2l0.2,0.4l-0.5-0.2v0.5
		l-0.8-0.5v-0.9L47,17.8v0.7l-0.2-0.1v-0.6l-0.4-0.2v0.5l-0.5-0.3l-0.2,0.3l0.4,0.3l-0.4,0.2l0.2,0.3l0.6-0.3l0.2,0.1L46,19l0.2,0.2
		l0.8-0.4l0.9,0.6l-0.5,0.1l0.3,0.5h-0.5l-0.5-0.7l-0.3,0.1l0.4,0.5h-0.4v0.3h0.4l-0.5,0.5l0.3,0.2l0.6-0.6h0.5l-0.4,0.4l0.5,0.2
		l-0.9,0.6L46.2,21l-0.3,0.3l0.6,0.4l-0.2,0.1l-0.5-0.4l-0.2,0.2l0.4,0.3l-0.5,0.2l0.1,0.3l0.5-0.2v0.5h0.3v-0.6l0.2-0.1v0.7h0.3
		v-0.9l0.9-0.4L47.7,22h0.6L48,22.4l-0.9,0.1v0.1h0.7l-0.2,0.3l0.3,0.2l0.2-0.3l0.2,0.7l0.3-0.1l-0.2-0.9l0.3-0.4l0.1,0.6l0.5-0.3v1
		l-0.9,0.2l0.1,0.3l0.7-0.3v0.3l-0.6,0.3l0.1,0.3l0.5-0.2v0.5h0.3v-0.5l0.4,0.3l0.1-0.3l-0.7-0.4v-0.3l0.6,0.4l0.1-0.3l-0.7-0.5v-1
		l0.6,0.4l0.2-0.5l0.2,0.4L50,23.3l0.3,0.2l0.3-0.6l0.2,0.3l0.3-0.1l-0.2-0.3l0.6,0.1v-0.3l-0.9-0.2L50.4,22h0.3l0,0l0.3,0.1v-0.6
		l0.9,0.6L51.8,23l0.3,0.1v-0.7l0.2,0.1v0.6l0.3,0.1v-0.5l0.5,0.3l0.2-0.3l-0.5-0.3l0.5-0.2L53.1,22l-0.6,0.3l-0.2-0.1l0.7-0.3
		l-0.2-0.2L52,22.1l-0.9-0.6l0.5-0.1l-0.3-0.5h0.5l0.5,0.7l0.3-0.1l-0.4-0.6h0.4v-0.3h-0.4l0.5-0.5l-0.3-0.2l-0.6,0.6h-0.5l0.4-0.4
		l-0.5-0.2l0.9-0.4l0.7,0.5l0.2-0.2l-0.6-0.4l0.2-0.1L53.2,19.3z M50.4,19.3h0.4l-0.1,0.3L49.9,20L50.4,19.3z M50.2,21.6l-0.3-0.8
		l0.7,0.5v0.4L50.2,21.6L50.2,21.6z M49.7,18.9l0.3-0.2l0.1,0.4l-0.4,0.7V18.9z M49.2,18.7l0.3,0.2v0.9L49.1,19L49.2,18.7z
		 M48.7,19.2l0.4,0.8l-0.5-0.4h-0.1l-0.1-0.1v-0.4L48.7,19.2z M48.2,19.7l0.7,0.5l0,0h-0.8l-0.2-0.3L48.2,19.7z M47.8,20.7l0.3-0.3
		H49l-0.8,0.4L47.8,20.7z M48.6,21.5h-0.4l0.1-0.4l0.8-0.4L48.6,21.5z M49.3,21.8L49,22l-0.1-0.4l0.5-0.7L49.3,21.8z M49.8,22.1
		l-0.3-0.2V21l0.4,0.8L49.8,22.1z M50.8,21l-0.7-0.4H51l0.2,0.3L50.8,21z M50.9,20.3H50l0.8-0.4l0.3,0.1L50.9,20.3z"/>
	<path class="st0" d="M31.2,31.6l0.2-0.2l-0.3-0.2l0.4-0.2l-0.1-0.2L31,31v-0.4h-0.3v0.5l-0.2,0.1v-0.6h-0.3v0.7l-0.7,0.3l0.1-0.4
		h-0.5l0.2-0.3l0.7-0.1v-0.2h-0.5l0.2-0.3l-0.2-0.2l-0.2,0.3l-0.2-0.5L28.9,30l0.2,0.7l-0.2,0.4l-0.1-0.4L28.5,31v-0.8l0.6-0.3v-0.3
		l-0.5,0.3v-0.2l0.5-0.2l-0.2-0.3l-0.4,0.2V29h-0.3v0.4l-0.3-0.2l-0.1,0.2l0.4,0.3v0.2l-0.5-0.4l-0.1,0.2l0.6,0.4v0.8l-0.3-0.3
		L27.7,31l-0.2-0.3l0.3-0.6l-0.2-0.2l-0.2,0.5l-0.2-0.3L27,30.3l0.1,0.3l-0.5-0.1v0.3l0.7,0.2l0.2,0.3l-0.4-0.2v0.4l-0.6-0.4v-0.7
		l-0.2-0.1v0.6l-0.2-0.1v-0.5l-0.3-0.1v0.4l-0.4-0.2l-0.2,0.2l0.3,0.2L25.1,31l0.2,0.2l0.5-0.2l0.2,0.1l-0.5,0.3l0.2,0.2l0.6-0.3
		l0.7,0.5l-0.4,0.1l0.3,0.4h-0.4l-0.6-0.7l-0.2,0.1l0.3,0.4h-0.3v0.3H26l-0.4,0.4l0.2,0.2l0.5-0.5h0.4l-0.3,0.3l0.4,0.2l-0.7,0.3
		l-0.6-0.4l-0.2,0.2l0.5,0.3l-0.1,0.2l-0.4-0.3l-0.2,0.2l0.3,0.2L25,33.9l0.1,0.2l0.4-0.2v0.4h0.3v-0.5l0.2-0.1v0.6h0.3v-0.7
		l0.7-0.3l-0.1,0.3h0.5l-0.2,0.3L26.5,34v0.3H27l-0.2,0.3l0.2,0.2l0.2-0.3l0.2,0.5l0.2-0.1l-0.2-0.7l0.2-0.3l0.1,0.5l0.4-0.3v0.8
		l-0.7,0.2l0.1,0.3l0.5-0.3v0.2l-0.5,0.2l0.1,0.3l0.4-0.2V36h0.3v-0.4l0.3,0.2l0.1-0.2l-0.5-0.3v-0.2l0.5,0.3l0.1-0.2l-0.6-0.4V34
		l0.3,0.3l0.2-0.4l0.2,0.3l-0.3,0.6l0.2,0.2l0.2-0.5l0.2,0.3l0.2-0.1l-0.1-0.3l0.5,0.1v-0.3L29.1,34l-0.2-0.3h0.2l0,0h0.3v-0.5
		l0.7,0.5L30,34.4l0.2,0.1v-0.6l0.2,0.1v0.5l0.3,0.1v-0.4l0.4,0.2l0.2-0.2L30.9,34l0.4-0.2l-0.2-0.2l-0.5,0.2l-0.2-0.1l0.5-0.3v-0.1
		l-0.7,0.3l-0.7-0.5l0.4-0.1l-0.3-0.4H30l0.4,0.6l0.2-0.1l-0.3-0.5h0.3v-0.3h-0.3l0.4-0.4l-0.2-0.2L30,32.2h-0.4l0.3-0.3l-0.4-0.2
		l0.7-0.3l0.6,0.4l0.2-0.2l-0.5-0.3l0.2-0.1L31.2,31.6z M29,31.5h0.3l-0.1,0.3l-0.6,0.3L29,31.5z M28.8,33.3l-0.2-0.6l0.6,0.4v0.3
		L28.8,33.3L28.8,33.3z M28.4,31.3l0.2-0.2l0.1,0.3L28.4,32V31.3z M28,31.1l0.2,0.2V32l-0.3-0.6L28,31.1z M27.6,31.4l0.3,0.6
		l-0.4-0.2l-0.1-0.1l-0.1-0.1v-0.3L27.6,31.4z M27.2,31.9l0.6,0.4l0,0h-0.7l-0.2-0.4H27.2z M26.9,32.7l0.2-0.2h0.7l-0.6,0.3
		L26.9,32.7z M27.5,33.3h-0.3l0.1-0.3l0.6-0.3L27.5,33.3z M28,33.5l-0.2,0.2l-0.1-0.3l0.4-0.6L28,33.5z M28.5,33.8l-0.2-0.2v-0.7
		l0.3,0.6L28.5,33.8z M29.3,32.9l-0.6-0.4h0.7l0.2,0.2L29.3,32.9z M29.4,32.4h-0.7l0.6-0.3l0.3,0.1L29.4,32.4z"/>
	<path class="st0" d="M37.4,33.2L37.4,33.2L37.3,33l0.2-0.1v-0.1l-0.2,0.1v-0.3h-0.2v0.3L36.9,33v-0.4h-0.2V33l-0.4,0.2l0.1-0.3
		h-0.3l0.1-0.2h0.4v-0.2h-0.3l0.1-0.2l-0.1-0.1l-0.1,0.4l-0.1-0.3L36,32.4l0.1,0.4L36,33l-0.1-0.3l-0.2,0.2v-0.5l0.4-0.2V32
		l-0.3,0.2v-0.1l0.3-0.1v-0.1L35.9,32v-0.3h-0.2V32l-0.2-0.1L35.4,32l0.3,0.2v0.1l-0.3-0.2l-0.1,0.1l0.4,0.2v0.5l-0.2-0.2l-0.1,0.2
		l-0.1-0.2l0.2-0.4l-0.1-0.1l-0.1,0.3l-0.4-0.2l-0.1,0.1l0.1,0.2l-0.3-0.1v0.2l0.4,0.1l0.1,0.2l-0.3-0.1v0.3l-0.4-0.3v-0.4h-0.1v0.4
		l-0.1-0.1v-0.3H34v0.3l-0.2-0.1l-0.2-0.1l0.2,0.1l-0.2,0.1l0.1,0.1l0.3-0.1l0.1,0.1l-0.3,0.2l0.1,0.1l0.4-0.2l0.4,0.3l-0.3,0.1
		l0.2,0.2h-0.2l-0.3-0.4L34,33.3l0.2,0.3H34v0.2h0.2L33.9,34l0.1,0.1l0.3-0.3h0.2L34.3,34l0.3,0.1l-0.4,0.2l-0.3-0.2l-0.1,0.1
		l0.3,0.2L34,34.5l-0.3-0.2l-0.1,0.1l0.2,0.1l-0.2,0.1l0.1,0.1l0.2-0.1v0.3h0.2v-0.3l0.1-0.1v0.4h0.2v-0.4l0.4-0.2l-0.1,0.3H35
		l-0.1,0.2h-0.4V35h0.3l-0.1,0.2l0.1,0.1l0.1-0.2l0.1,0.3l0.1-0.1L35,34.9l0.1-0.2l0.1,0.3l0.2-0.2v0.5L35,35.4v0.2l0.3-0.2v0.1
		l-0.2,0.1v0.2l0.2-0.1V36h0.2v-0.3l0.2,0.1l0.1-0.1l-0.3-0.2v-0.1l0.3,0.2l0.1-0.1l-0.4-0.2v-0.5l0.2,0.2l0.1-0.3l0.1,0.2l-0.2,0.4
		l0.1,0.1l0.1-0.3l0.1,0.2l0.1-0.1L36,35l0.3,0.1v-0.2l-0.4-0.1l0.1-0.2h0.1l0,0h0.2v-0.3l0.4,0.3L36.6,35h0.1v-0.4l0.1,0.1V35H37
		v-0.3l0.2,0.1l0.1-0.1l-0.2-0.1l0.2-0.1l-0.1-0.1l-0.3,0.1v0.1l0.3-0.2l-0.1-0.1l-0.4,0.2l-0.4-0.3l0.3-0.1l-0.2-0.2h0.2l0.3,0.4
		l0.1-0.1l-0.1-0.3h0.2v-0.2h-0.2l0.2-0.2L37,33.4l-0.3,0.3h-0.2l0.2-0.2l-0.3-0.1l0.4-0.2l0.4,0.2l0.1-0.1L37,33.1l0.1-0.1
		L37.4,33.2z M36,33.2h0.2v0.2l-0.4,0.2L36,33.2z M35.9,34.3l-0.2-0.4l0.4,0.2v0.2H35.9L35.9,34.3z M35.6,33L35.6,33l0.1,0.1
		l-0.2,0.4L35.6,33z M35.4,32.9L35.4,32.9l0.1,0.5L35.3,33L35.4,32.9z M35.1,33.2l0.2,0.4L35,33.5l0,0h-0.1v-0.2L35.1,33.2z
		 M34.9,33.4l0.3,0.2l0,0h-0.4l-0.1-0.2H34.9z M34.7,33.9L34.7,33.9l0.5-0.1L34.9,34L34.7,33.9z M35.1,34.3h-0.2v-0.2l0.4-0.2
		L35.1,34.3z M35.4,34.5L35.4,34.5L35.4,34.5l0.1-0.5L35.4,34.5z M35.7,34.6L35.7,34.6l-0.1-0.5l0.2,0.4L35.7,34.6z M36.2,34.1
		l-0.4-0.2h0.4V34.1L36.2,34.1z M36.2,33.7h-0.4l0.4-0.2l0.2,0.1L36.2,33.7z"/>
	<path class="st0" d="M44.3,28L44.3,28l-0.1-0.2l0.2-0.1v-0.1l-0.2,0.1v-0.3H44v0.3l-0.1,0.1v-0.4h-0.2v0.4L43.3,28l0.1-0.3h-0.3
		l0.1-0.2h0.4v-0.2h-0.3l0.1-0.2L43.3,27l-0.1,0.2l-0.1-0.3l-0.2,0.3l0.1,0.4l-0.1,0.2l-0.1-0.3l-0.2,0.2v-0.5L43,27v-0.2L42.7,27
		v-0.1l0.3-0.1v-0.1l-0.2,0.1v-0.3h-0.2v0.3l-0.3-0.2l-0.1,0.1l0.3,0.2V27l-0.3-0.2l-0.1,0.1l0.4,0.2v0.5l-0.2-0.2l-0.1,0.2
		l-0.1-0.2l0.2-0.4l-0.1-0.1l-0.1,0.3l-0.2,0l-0.1,0.1l0.1,0.2l-0.3-0.1v0.2h0.3l0.1,0.2l-0.3-0.1V28l-0.4-0.3v-0.4h-0.1v0.4
		l-0.1-0.1v-0.3h-0.2v0.3l-0.2-0.1l-0.1,0.1l0.2,0.1l-0.2,0.1l0.1,0.1l0.3-0.1l0.1,0.1l-0.3,0.2l0.1,0.1l0.4-0.2l0.4,0.3l-0.3,0.1
		l0.2,0.2h-0.2l-0.3-0.4l-0.2-0.1l0.2,0.3h-0.2v0.2h0.2l-0.2,0.2l0.1,0.1l0.3-0.3h0.2l-0.2,0.2l0.3,0.1l-0.4,0.2l-0.4-0.2L40.7,29
		l0.3,0.2l-0.1,0.1l-0.3-0.2l-0.1,0.1l0.2,0.1l-0.2,0.1l0.1,0.1l0.2-0.1v0.3H41v-0.3l0.1-0.1v0.4h0.2v-0.4l0.4-0.2l-0.1,0.3h0.3
		l-0.1,0.2h-0.4v0.2h0.3L41.6,30l0.1,0.1l0.1-0.2l0.1,0.3l0.1-0.1l-0.1-0.5l0.1-0.2l0.1,0.3l0.2-0.2V30l-0.4,0.2v0.2l0.3-0.2v0.1
		l-0.3,0.1v0.2l0.2-0.1v0.3h0.2v-0.3l0.2,0.1l0.1-0.1l-0.3-0.2v-0.1l0.3,0.2l0.1-0.1l-0.4-0.2v-0.5l0.2,0.2l0.1-0.3l0.3,0.1L42.7,30
		l0.1,0.1l0.1-0.3L43,30l0.1-0.1L43,29.7l0.3,0.1v-0.2h-0.2l-0.2-0.2H43l0,0h0.2v-0.3l0.4,0.3l-0.1,0.4h0.1v-0.4l0.3,0.2v0.3h0.2
		v-0.3l0.2,0.1l0.1-0.1h-0.3l0.2-0.1l-0.1-0.1l-0.3,0.1v-0.1l0.3-0.2l-0.1-0.1l-0.4,0.2L43.3,29l0.3-0.1l-0.2-0.2h0.2l0.3,0.4L44,29
		l-0.2-0.3H44v-0.1h-0.2l0.2-0.2l-0.1-0.1l-0.3,0.3h-0.2l0.2-0.2l-0.3-0.1l0.4-0.2l0.4,0.2l0.1-0.1L43.9,28l0.1-0.1L44.3,28z
		 M42.9,28h0.2v0.2l-0.4,0.2L42.9,28z M42.8,29.2l-0.2-0.4L43,29v0.2H42.8L42.8,29.2z M42.6,27.9L42.6,27.9l0.1,0.1l-0.2,0.4
		L42.6,27.9z M42.3,27.7L42.3,27.7l0.1,0.5l-0.2-0.4L42.3,27.7z M42.1,28l0.2,0.4L42,28.3l0,0h-0.1v-0.2L42.1,28z M41.8,28.2
		l0.3,0.2l0,0h-0.4l-0.1-0.2H41.8z M41.6,28.7L41.6,28.7l0.5-0.1l-0.4,0.2L41.6,28.7z M42,29.1h-0.2v-0.2l0.4-0.2L42,29.1z
		 M42.4,29.3L42.4,29.3l-0.1-0.1l0.2-0.4L42.4,29.3z M42.6,29.4L42.6,29.4l-0.1-0.5l0.2,0.4L42.6,29.4z M43.1,28.9l-0.4-0.2h0.4
		l0.1,0.1L43.1,28.9z M43.2,28.5h-0.4l0.4-0.2l0.2,0.1L43.2,28.5z"/>
	<path class="st0" d="M11.7,34.6c0,0.8-0.7,1.5-1.5,1.5s-1.5-0.7-1.5-1.5c0-0.8,0.7-1.5,1.5-1.5C11.2,33,11.7,33.7,11.7,34.6z"/>
	<path class="st0" d="M22.8,34.6c0,0.8-0.7,1.5-1.5,1.5s-1.5-0.7-1.5-1.5c0-0.8,0.7-1.5,1.5-1.5C22.3,33,22.8,33.7,22.8,34.6z"/>
	<path class="st0" d="M34.7,34.7c0,0.7-0.6,1.3-1.3,1.3c-0.7,0-1.3-0.6-1.3-1.3c0-0.7,0.5-1.4,1.3-1.3
		C34.1,33.4,34.7,33.9,34.7,34.7z"/>
	<path class="st0" d="M46.6,23.7c0,0.7-0.6,1.3-1.3,1.3c-0.7,0-1.4-0.6-1.4-1.3s0.5-1.4,1.3-1.3C46,22.4,46.6,22.9,46.6,23.7z"/>
	<path class="st0" d="M55,22.3c0,0.7-0.6,1.3-1.3,1.3c-0.7,0-1.3-0.6-1.3-1.3s0.5-1.4,1.3-1.3C54.4,21,55,21.6,55,22.3z"/>
</g>
<g id="cloud1">
	<circle class="st1" cx="49.5" cy="16.6" r="8.4"/>
	<circle class="st2" cx="32.1" cy="14.4" r="6.7"/>
	<path class="st1" d="M22.7,21.1c0,2.2,1.8,3.9,3.9,3.9h23.6c2.2,0,3.9-1.8,3.9-3.9l0,0c0-2.2-17-8.5-19.2-8.5c0,0-0.7,6.3-5.1,1
		C28.3,11.7,22.7,18.9,22.7,21.1L22.7,21.1z"/>
	<circle class="st1" cx="25.6" cy="18.5" r="6.5"/>
	<path class="st2" d="M19.1,18c0.3-3.1,2.8-5.6,5.9-5.9c2.7,0.3,4.8,2.6,4.8,5.4c0,3-2.4,5.4-5.4,5.4C21.7,22.8,19.4,20.7,19.1,18z"
		/>
	<path class="st2" d="M50.4,8.2c3.9,0.4,7.1,3.5,7.5,7.5c-0.4,3.4-3.2,6-6.7,6c-3.7,0-6.7-3-6.7-6.7C44.4,11.5,47.1,8.6,50.4,8.2z"
		/>
	<circle class="st1" cx="40.9" cy="9" r="9"/>
	<path class="st2" d="M33.1,6.7c0-1,0.2-1.9,0.4-2.8C35.1,1.6,37.8,0,40.9,0c4.9,0,9,4,9,9c0,0.8-0.1,1.6-0.3,2.4
		c-1.7,2.5-4.5,4.2-7.6,4.2C37,15.6,33.1,11.6,33.1,6.7z"/>
</g>
<g id="cloud0">
	<circle class="st3" cx="9.7" cy="26.4" r="9.7"/>
	<circle class="st0" cx="29.7" cy="23.8" r="7.8"/>
	<path class="st3" d="M40.5,31.6c0,2.5-2,4.5-4.5,4.5H8.9c-2.5,0-4.5-2-4.5-4.5l0,0c0-2.5,19.6-9.8,22.1-9.8c0,0,0.8,7.2,5.9,1.2
		C34.2,20.8,40.5,29.1,40.5,31.6L40.5,31.6z"/>
	<circle class="st3" cx="37.2" cy="28.6" r="7.5"/>
	<path class="st0" d="M44.7,27.9c-0.3-3.6-3.2-6.5-6.8-6.8c-3.1,0.3-5.6,3-5.6,6.2c0,3.4,2.8,6.2,6.2,6.2
		C41.7,33.5,44.4,31.1,44.7,27.9z"/>
	<path class="st0" d="M8.7,16.7c-4.5,0.5-8.1,4.1-8.6,8.6c0.4,3.9,3.7,6.9,7.7,6.9c4.3,0,7.8-3.5,7.8-7.8
		C15.5,20.5,12.5,17.2,8.7,16.7z"/>
	<circle class="st3" cx="19.7" cy="17.6" r="10.3"/>
	<path class="st0" d="M28.7,14.9c0-1.1-0.2-2.2-0.5-3.2c-1.9-2.7-5-4.5-8.5-4.5C14,7.2,9.4,11.8,9.4,17.5c0,0.9,0.1,1.9,0.4,2.7
		c1.8,2.9,5,4.8,8.7,4.8C24.1,25.2,28.7,20.6,28.7,14.9z"/>
</g>
</svg>
