<?xml version="1.0" encoding="utf-8"?>
<!-- Generator: Adobe Illustrator 19.0.0, SVG Export Plug-In . SVG Version: 6.00 Build 0)  -->
<svg version="1.1" id="Layer_1" xmlns="http://www.w3.org/2000/svg" xmlns:xlink="http://www.w3.org/1999/xlink" x="0px" y="0px"
	 viewBox="0 0 100 100" style="enable-background:new 0 0 100 100;" xml:space="preserve">
<style type="text/css">
	.st0{fill:#FFFFFF;}
	.st1{fill:#FFFFFF;stroke:#D0D1D3;stroke-miterlimit:10;}
	.st2{fill:#D0D1D3;}
	.st3{fill:#BBBCBE;}
</style>
<g id="XMLID_614_">
	<g id="XMLID_631_">
		<polygon id="XMLID_637_" class="st0" points="69.9,62.4 69.2,63 63.3,56.8 64,56.2 		"/>
		<polygon id="XMLID_636_" class="st0" points="65.3,57.9 65.2,58.5 63,58.4 63,57.8 		"/>
		<polygon id="XMLID_635_" class="st0" points="64.9,58.2 65.5,58.2 65.7,56.1 65.1,56.1 		"/>
		<polygon id="XMLID_634_" class="st0" points="64.6,58.2 65.3,57.7 71.2,63.8 70.5,64.4 		"/>
		<polygon id="XMLID_633_" class="st0" points="69.2,62.8 69.3,62.2 71.5,62.2 71.5,62.8 		"/>
		<polygon id="XMLID_632_" class="st0" points="69.6,62.4 69,62.4 68.8,64.5 69.4,64.5 		"/>
	</g>
	<g id="XMLID_624_">
		<polygon id="XMLID_630_" class="st0" points="70.7,59.4 70.8,60.2 61.7,61.6 61.6,60.8 		"/>
		<polygon id="XMLID_629_" class="st0" points="63.9,60.6 64.4,61 62.9,62.7 62.5,62.3 		"/>
		<polygon id="XMLID_628_" class="st0" points="63.9,61.1 64.3,60.6 62.6,59.4 62.2,59.9 		"/>
		<polygon id="XMLID_627_" class="st0" points="63.8,61.3 63.7,60.5 72.8,59 72.9,59.9 		"/>
		<polygon id="XMLID_626_" class="st0" points="70.6,60 70.2,59.7 71.6,58 72.1,58.3 		"/>
		<polygon id="XMLID_625_" class="st0" points="70.6,59.6 70.2,60 72,61.2 72.3,60.8 		"/>
	</g>
	<g id="XMLID_615_">
		<polygon id="XMLID_622_" class="st0" points="65.2,63.1 66.1,63.4 69.9,55.5 69.1,55.2 		"/>
		<polygon id="XMLID_620_" class="st0" points="68.3,57.2 68.5,57.7 70.7,56.9 70.5,56.4 		"/>
		<polygon id="XMLID_619_" class="st0" points="68.8,57.4 68.2,57.6 67.5,55.7 68,55.5 		"/>
		<polygon id="XMLID_618_" class="st0" points="69.1,57.3 68.2,57 64.3,64.9 65.2,65.2 		"/>
		<polygon id="XMLID_617_" class="st0" points="65.9,63.2 65.7,62.7 63.6,63.5 63.8,64 		"/>
		<polygon id="XMLID_616_" class="st0" points="65.5,63 66.1,62.8 66.8,64.7 66.2,64.9 		"/>
	</g>
</g>
<g id="XMLID_641_">
	<g id="XMLID_656_">
		<polygon id="XMLID_662_" class="st0" points="29.7,67 29.6,67.9 20.8,67.4 20.8,66.5 		"/>
		<polygon id="XMLID_661_" class="st0" points="23,66.9 23.4,67.3 21.8,68.7 21.4,68.3 		"/>
		<polygon id="XMLID_660_" class="st0" points="23,67.4 23.4,67 22,65.4 21.5,65.7 		"/>
		<polygon id="XMLID_659_" class="st0" points="22.8,67.5 22.9,66.7 31.7,67.2 31.7,68 		"/>
		<polygon id="XMLID_658_" class="st0" points="29.5,67.7 29.1,67.3 30.7,65.8 31.1,66.3 		"/>
		<polygon id="XMLID_657_" class="st0" points="29.5,67.2 29,67.6 30.5,69.2 30.9,68.8 		"/>
	</g>
	<g id="XMLID_649_">
		<polygon id="XMLID_655_" class="st0" points="28,64.3 28.7,64.8 23.3,71.9 22.6,71.4 		"/>
		<polygon id="XMLID_654_" class="st0" points="24.1,69.7 24.7,69.6 25,71.8 24.4,71.9 		"/>
		<polygon id="XMLID_653_" class="st0" points="24.5,70 24.4,69.4 22.3,69.7 22.3,70.3 		"/>
		<polygon id="XMLID_652_" class="st0" points="24.6,70.3 23.8,69.7 29.2,62.7 29.9,63.2 		"/>
		<polygon id="XMLID_651_" class="st0" points="28.4,64.8 27.8,64.9 27.5,62.8 28.1,62.7 		"/>
		<polygon id="XMLID_650_" class="st0" points="28,64.5 28.1,65.1 30.3,64.8 30.2,64.2 		"/>
	</g>
	<g id="XMLID_642_">
		
			<rect id="XMLID_648_" x="25.3" y="61.9" transform="matrix(-0.9289 0.3703 -0.3703 -0.9289 74.1191 118.4386)" class="st0" width="0.9" height="8.8"/>
		<polygon id="XMLID_647_" class="st0" points="24.7,64.4 25.2,64.6 26.1,62.6 25.5,62.4 		"/>
		<polygon id="XMLID_646_" class="st0" points="25.1,64.2 24.9,64.7 22.9,63.9 23.1,63.3 		"/>
		
			<rect id="XMLID_645_" x="26" y="63.8" transform="matrix(0.9289 -0.3703 0.3703 0.9289 -23.3791 14.6456)" class="st0" width="0.9" height="8.8"/>
		<polygon id="XMLID_644_" class="st0" points="27.5,70.2 26.9,69.9 26.1,71.9 26.6,72.2 		"/>
		<polygon id="XMLID_643_" class="st0" points="27,70.4 27.3,69.8 29.3,70.7 29,71.2 		"/>
	</g>
</g>
<g id="XMLID_663_">
	<g id="XMLID_678_">
		<polygon id="XMLID_684_" class="st0" points="47.2,74.5 47.1,75 41.5,74.7 41.5,74.1 		"/>
		
			<rect id="XMLID_683_" x="42.3" y="74.2" transform="matrix(-0.6651 -0.7467 0.7467 -0.6651 14.8349 156.5491)" class="st0" width="0.4" height="1.4"/>
		
			<rect id="XMLID_682_" x="42.4" y="73.3" transform="matrix(-0.751 0.6603 -0.6603 -0.751 123.4327 101.4977)" class="st0" width="0.4" height="1.4"/>
		<polygon id="XMLID_681_" class="st0" points="42.8,74.8 42.8,74.2 48.5,74.5 48.5,75.1 		"/>
		
			<rect id="XMLID_680_" x="47.3" y="73.6" transform="matrix(0.6651 0.7467 -0.7467 0.6651 71.3612 -10.5554)" class="st0" width="0.4" height="1.4"/>
		
			<rect id="XMLID_679_" x="47.2" y="74.5" transform="matrix(0.751 -0.6603 0.6603 0.751 -37.8649 50.0194)" class="st0" width="0.4" height="1.4"/>
	</g>
	<g id="XMLID_671_">
		<polygon id="XMLID_677_" class="st0" points="46.1,72.7 46.5,73 43.1,77.6 42.7,77.2 		"/>
		
			<rect id="XMLID_676_" x="43.7" y="76.1" transform="matrix(-0.9899 0.142 -0.142 -0.9899 98.2646 146.6598)" class="st0" width="0.4" height="1.4"/>
		
			<rect id="XMLID_675_" x="43" y="75.6" transform="matrix(0.1367 0.9906 -0.9906 0.1367 112.8209 23.1031)" class="st0" width="0.4" height="1.4"/>
		<polygon id="XMLID_674_" class="st0" points="43.9,76.5 43.5,76.2 46.9,71.7 47.3,72 		"/>
		
			<rect id="XMLID_673_" x="45.9" y="71.7" transform="matrix(0.9899 -0.142 0.142 0.9899 -9.8115 7.2785)" class="st0" width="0.4" height="1.4"/>
		
			<rect id="XMLID_672_" x="46.7" y="72.2" transform="matrix(-0.1367 -0.9906 0.9906 -0.1367 -19.0181 129.3253)" class="st0" width="0.4" height="1.4"/>
	</g>
	<g id="XMLID_664_">
		
			<rect id="XMLID_670_" x="44.4" y="71.2" transform="matrix(-0.9289 0.3703 -0.3703 -0.9289 113.5074 126.2213)" class="st0" width="0.6" height="5.6"/>
		<polygon id="XMLID_669_" class="st0" points="44,72.8 44.3,72.9 44.9,71.6 44.5,71.5 		"/>
		<polygon id="XMLID_668_" class="st0" points="44.3,72.6 44.1,73 42.8,72.4 43,72.1 		"/>
		
			<rect id="XMLID_667_" x="44.8" y="72.4" transform="matrix(0.9289 -0.3703 0.3703 0.9289 -24.6418 22.0567)" class="st0" width="0.6" height="5.6"/>
		<polygon id="XMLID_666_" class="st0" points="45.8,76.5 45.4,76.3 44.9,77.6 45.2,77.7 		"/>
		<polygon id="XMLID_665_" class="st0" points="45.5,76.6 45.6,76.2 46.9,76.8 46.8,77.1 		"/>
	</g>
</g>
<g id="XMLID_685_">
	<g id="XMLID_700_">
		<polygon id="XMLID_706_" class="st0" points="49,62.7 48.9,63.2 43.3,62.9 43.3,62.3 		"/>
		
			<rect id="XMLID_705_" x="44.1" y="62.5" transform="matrix(-0.6651 -0.7467 0.7467 -0.6651 26.6352 138.263)" class="st0" width="0.4" height="1.4"/>
		
			<rect id="XMLID_704_" x="44.2" y="61.5" transform="matrix(-0.751 0.6603 -0.6603 -0.751 118.8005 79.6668)" class="st0" width="0.4" height="1.4"/>
		<polygon id="XMLID_703_" class="st0" points="44.6,63 44.6,62.4 50.3,62.8 50.3,63.3 		"/>
		
			<rect id="XMLID_702_" x="49.1" y="61.8" transform="matrix(0.6651 0.7467 -0.7467 0.6651 63.1611 -15.8471)" class="st0" width="0.4" height="1.4"/>
		
			<rect id="XMLID_701_" x="49" y="62.7" transform="matrix(0.751 -0.6603 0.6603 0.751 -29.6325 48.2726)" class="st0" width="0.4" height="1.4"/>
	</g>
	<g id="XMLID_693_">
		<polygon id="XMLID_699_" class="st0" points="47.9,60.9 48.3,61.3 44.9,65.8 44.5,65.4 		"/>
		
			<rect id="XMLID_698_" x="45.5" y="64.4" transform="matrix(-0.9899 0.142 -0.142 -0.9899 100.1727 122.946)" class="st0" width="0.4" height="1.4"/>
		
			<rect id="XMLID_697_" x="44.8" y="63.8" transform="matrix(0.1367 0.9906 -0.9906 0.1367 102.6968 11.1425)" class="st0" width="0.4" height="1.4"/>
		<polygon id="XMLID_696_" class="st0" points="45.7,64.7 45.3,64.4 48.7,59.9 49.1,60.2 		"/>
		
			<rect id="XMLID_695_" x="47.7" y="59.9" transform="matrix(0.9899 -0.142 0.142 0.9899 -8.1195 7.4147)" class="st0" width="0.4" height="1.4"/>
		
			<rect id="XMLID_694_" x="48.5" y="60.5" transform="matrix(-0.1367 -0.9906 0.9906 -0.1367 -5.2938 117.7082)" class="st0" width="0.4" height="1.4"/>
	</g>
	<g id="XMLID_686_">
		
			<rect id="XMLID_692_" x="46.2" y="59.4" transform="matrix(-0.9289 0.3703 -0.3703 -0.9289 112.6144 102.815)" class="st0" width="0.6" height="5.6"/>
		<polygon id="XMLID_691_" class="st0" points="45.8,61 46.1,61.1 46.7,59.8 46.3,59.7 		"/>
		<polygon id="XMLID_690_" class="st0" points="46.1,60.8 45.9,61.2 44.6,60.6 44.8,60.3 		"/>
		
			<rect id="XMLID_689_" x="46.6" y="60.6" transform="matrix(0.9289 -0.3703 0.3703 0.9289 -20.1486 21.8853)" class="st0" width="0.6" height="5.6"/>
		<polygon id="XMLID_688_" class="st0" points="47.6,64.7 47.2,64.5 46.7,65.8 47,66 		"/>
		<polygon id="XMLID_687_" class="st0" points="47.3,64.8 47.4,64.4 48.7,65 48.6,65.3 		"/>
	</g>
</g>
<g id="XMLID_707_">
	<g id="XMLID_722_">
		<polygon id="XMLID_728_" class="st0" points="63.1,70.9 63,71.3 59.2,71.1 59.3,70.7 		"/>
		
			<rect id="XMLID_727_" x="59.8" y="70.8" transform="matrix(-0.6651 -0.7467 0.7467 -0.6651 46.5867 163.408)" class="st0" width="0.3" height="0.9"/>
		
			<rect id="XMLID_726_" x="59.8" y="70.2" transform="matrix(-0.751 0.6603 -0.6603 -0.751 151.6548 84.0869)" class="st0" width="0.3" height="0.9"/>
		<polygon id="XMLID_725_" class="st0" points="60.1,71.1 60.1,70.8 63.9,71 63.9,71.4 		"/>
		
			<rect id="XMLID_724_" x="63.1" y="70.3" transform="matrix(0.6651 0.7467 -0.7467 0.6651 74.0546 -23.5062)" class="st0" width="0.3" height="0.9"/>
		
			<rect id="XMLID_723_" x="63.1" y="71" transform="matrix(0.751 -0.6603 0.6603 0.751 -31.4345 59.5157)" class="st0" width="0.3" height="0.9"/>
	</g>
	<g id="XMLID_715_">
		<polygon id="XMLID_721_" class="st0" points="62.3,69.8 62.6,70 60.3,73 60,72.8 		"/>
		
			<rect id="XMLID_720_" x="60.7" y="72.1" transform="matrix(-0.9899 0.142 -0.142 -0.9899 131.3963 135.6706)" class="st0" width="0.3" height="0.9"/>
		
			<rect id="XMLID_719_" x="60.2" y="71.7" transform="matrix(0.1367 0.9906 -0.9906 0.1367 123.5824 2.4961)" class="st0" width="0.3" height="0.9"/>
		<polygon id="XMLID_718_" class="st0" points="60.9,72.3 60.6,72.1 62.9,69.1 63.2,69.3 		"/>
		
			<rect id="XMLID_717_" x="62.2" y="69.1" transform="matrix(0.9899 -0.142 0.142 0.9899 -9.2428 9.5543)" class="st0" width="0.3" height="0.9"/>
		
			<rect id="XMLID_716_" x="62.7" y="69.5" transform="matrix(-0.1367 -0.9906 0.9906 -0.1367 2.1555 141.7171)" class="st0" width="0.3" height="0.9"/>
	</g>
	<g id="XMLID_708_">
		
			<rect id="XMLID_714_" x="61.2" y="68.7" transform="matrix(-0.9289 0.3703 -0.3703 -0.9289 144.4967 113.5149)" class="st0" width="0.4" height="3.8"/>
		<polygon id="XMLID_713_" class="st0" points="60.9,69.8 61.1,69.9 61.5,69 61.3,68.9 		"/>
		<polygon id="XMLID_712_" class="st0" points="61.1,69.7 61,69.9 60.1,69.6 60.3,69.3 		"/>
		
			<rect id="XMLID_711_" x="61.5" y="69.5" transform="matrix(0.9289 -0.3703 0.3703 0.9289 -22.0668 27.9174)" class="st0" width="0.4" height="3.8"/>
		<polygon id="XMLID_710_" class="st0" points="62.1,72.3 61.9,72.2 61.5,73 61.8,73.1 		"/>
		<polygon id="XMLID_709_" class="st0" points="61.9,72.4 62,72.1 62.9,72.5 62.8,72.7 		"/>
	</g>
</g>
<g id="XMLID_339_">
	<path id="XMLID_546_" class="st1" d="M88.3,53.2c0-2.6-1.3-4.9-3.2-6.2c0-0.1,0-0.2,0-0.3c0-5.3-3.9-9.5-8.7-9.5
		c-2.1,0-4,0.9-5.5,2.2c-1.4-4.2-5.1-7.3-9.4-7.3c-0.2,0-0.5,0-0.7,0c-2-5.4-6.7-9.2-12.3-9.2c-6.4,0-11.8,5-13,11.6
		c-0.9-0.3-1.9-0.5-2.9-0.5c-4.5,0-8.2,3.2-9.5,7.6c-0.9-0.3-1.8-0.5-2.7-0.5c-4.8,0-8.7,4.3-8.7,9.5c0,5,3.5,8.7,7.8,9.2
		c1.1,1.3,62.6,1.4,63.7,0.2C86.1,59.3,88.3,56.6,88.3,53.2z"/>
	<g id="XMLID_533_">
		<path id="XMLID_23_" class="st0" d="M88.3,53.2c0-2.6-1.3-4.9-3.2-6.2c0-0.1,0-0.2,0-0.3c0-5.3-3.9-9.5-8.7-9.5
			c-2.1,0-4,0.9-5.5,2.2c-1.4-4.2-5.1-7.3-9.4-7.3c-0.2,0-0.5,0-0.7,0c-2-5.4-6.7-9.2-12.3-9.2c-6.4,0-11.8,5-13,11.6
			c-0.9-0.3-1.9-0.5-2.9-0.5c-4.5,0-8.2,3.2-9.5,7.6c-0.9-0.3-1.8-0.5-2.7-0.5c-4.8,0-8.7,4.3-8.7,9.5c0,5,3.5,8.7,7.8,9.2
			c1.1,1.3,62.6,1.4,63.7,0.2C86.1,59.3,88.3,56.6,88.3,53.2z"/>
		<path id="XMLID_20_" class="st2" d="M88.2,53.2c0-1.2-0.3-2.4-0.8-3.5c-0.5-1.1-1.3-2-2.3-2.7L85,47l0-0.1c0.1-0.4,0-0.8,0-1.3
			c-0.1-0.4-0.1-0.8-0.2-1.3c-0.1-0.4-0.2-0.8-0.4-1.2c-0.1-0.4-0.3-0.8-0.5-1.2c-0.2-0.4-0.4-0.7-0.7-1.1c-0.2-0.4-0.5-0.7-0.8-1
			c-0.3-0.3-0.6-0.6-0.9-0.9c-0.3-0.3-0.7-0.5-1-0.7c-0.4-0.2-0.7-0.4-1.1-0.5c-0.4-0.2-0.8-0.3-1.2-0.4c-0.8-0.2-1.7-0.2-2.5-0.1
			c-1.7,0.2-3.2,1-4.5,2.2l-0.3,0.3l-0.1-0.4c-0.2-0.5-0.4-1-0.6-1.5c-0.3-0.5-0.5-1-0.9-1.4c-0.3-0.4-0.7-0.9-1.1-1.2
			c-0.2-0.2-0.4-0.4-0.6-0.6c-0.2-0.2-0.4-0.4-0.6-0.5c-0.4-0.3-0.9-0.6-1.4-0.8c-0.5-0.2-1-0.4-1.5-0.6c-0.3-0.1-0.5-0.1-0.8-0.2
			c-0.3-0.1-0.5-0.1-0.8-0.1c-0.3,0-0.5,0-0.8,0c-0.2,0-0.5,0-0.8,0l-0.3,0l-0.1-0.3l-0.4-1l-0.5-1c-0.4-0.6-0.7-1.2-1.2-1.8
			c-0.4-0.6-0.9-1.1-1.4-1.6c-0.3-0.2-0.5-0.5-0.8-0.7c-0.3-0.2-0.6-0.4-0.8-0.6c-0.6-0.4-1.2-0.7-1.8-1c-0.6-0.3-1.3-0.5-2-0.7
			l-1-0.2c-0.3,0-0.7-0.1-1-0.1c-0.3,0-0.7,0-1,0c-0.4,0-0.7,0-1.1,0.1l-1,0.2l-1,0.3l-1,0.3c-0.3,0.1-0.6,0.3-1,0.4
			c-0.6,0.3-1.2,0.7-1.8,1.1c-0.6,0.4-1.1,0.9-1.6,1.4c-0.5,0.5-0.9,1-1.3,1.6c-0.2,0.3-0.4,0.6-0.6,0.9c-0.2,0.3-0.4,0.6-0.5,0.9
			c-0.3,0.6-0.6,1.3-0.8,1.9c-0.2,0.7-0.4,1.4-0.5,2L36,35.4l-0.7-0.2c-0.6-0.2-1.2-0.3-1.8-0.4c-0.3,0-0.6,0-0.9,0
			c-0.3,0-0.7,0-1,0.1c-0.6,0.1-1.2,0.2-1.8,0.4c-0.6,0.2-1.1,0.5-1.7,0.8c-0.5,0.3-1,0.7-1.5,1.1c-0.5,0.4-0.9,0.9-1.2,1.4
			c-0.4,0.5-0.7,1-1,1.6c-0.3,0.6-0.5,1.1-0.7,1.7l-0.2,0.8l-0.8-0.3c-0.6-0.2-1.1-0.3-1.7-0.4c-0.3,0-0.6-0.1-0.8,0
			c-0.3,0-0.6,0-0.9,0.1c-0.5,0.1-1.1,0.2-1.6,0.4c-0.5,0.2-1,0.5-1.5,0.8c-0.5,0.3-0.9,0.7-1.3,1.1c-0.4,0.4-0.7,0.9-1.1,1.4
			c-0.3,0.5-0.6,1-0.8,1.5L12.8,48l-0.2,0.8l-0.1,0.9l0,0.9l0,0.9l0.1,0.8c0.1,0.6,0.3,1.1,0.5,1.6c0.2,0.5,0.5,1,0.8,1.5
			c0.3,0.5,0.7,0.9,1.1,1.3c0.4,0.4,0.9,0.7,1.3,1c0.5,0.3,1,0.5,1.5,0.7c0.5,0.2,1.1,0.3,1.6,0.4l0.6,0.3C20.1,59.1,20,59,19.9,59
			l0,0c0,0,0.1,0,0.2,0c0.1,0,0.3,0,0.4,0.1l0.9,0.1c0.6,0.1,1.3,0.1,2,0.1c1.3,0.1,2.6,0.1,4,0.2l8,0.2l15.9,0.3l15.9,0.3
			c2.7,0,5.3,0,8,0l4-0.1c0.7,0,1.3-0.1,2-0.1l1-0.1l0.5-0.1c0.1,0,0.2,0,0.2,0l0.1,0c0,0,0,0,0,0l0.1-0.1c0.4-0.1,0.7-0.2,1.1-0.3
			c0.3-0.2,0.7-0.3,1-0.5c0.6-0.4,1.2-0.9,1.6-1.5c0.5-0.6,0.8-1.3,1-2C88.1,54.7,88.2,53.9,88.2,53.2z M88.4,53.2
			c0,0.8-0.1,1.6-0.3,2.3c-0.2,0.7-0.6,1.5-1,2.1c-0.5,0.6-1,1.2-1.7,1.6c-0.3,0.2-0.7,0.4-1,0.6c-0.4,0.2-0.7,0.3-1.1,0.4l0.1-0.1
			c-0.1,0.1-0.2,0.1-0.3,0.2c-0.1,0-0.2,0-0.3,0.1c-0.2,0-0.3,0.1-0.5,0.1l-1,0.1l-2,0.1l-4,0.2c-2.7,0.1-5.3,0.3-8,0.4l-8,0.3
			c-2.7,0.1-5.3,0.1-8,0.2l-8,0.1l-8-0.1c-2.7,0-5.3-0.1-8-0.2c-1.3-0.1-2.7-0.1-4-0.2c-0.7,0-1.3-0.1-2-0.2c-0.3,0-0.7-0.1-1-0.1
			c-0.2,0-0.4-0.1-0.6-0.1c-0.1,0-0.2,0-0.3-0.1l-0.2-0.1c-0.1,0-0.3-0.2-0.5-0.3l0.6,0.3c-0.7-0.1-1.4-0.2-2.1-0.5
			c-0.7-0.2-1.3-0.5-1.9-0.9c-0.6-0.4-1.1-0.8-1.7-1.3c-0.5-0.5-1-1-1.3-1.6c-0.4-0.6-0.7-1.2-1-1.8c-0.3-0.6-0.4-1.3-0.6-2
			c-0.1-0.3-0.1-0.7-0.1-1.1l0-1l0.1-1l0.1-1l0.2-1l0.3-1c0.3-0.6,0.6-1.3,0.9-1.8c0.4-0.6,0.8-1.1,1.3-1.6c0.5-0.5,1-0.9,1.6-1.3
			c0.6-0.4,1.2-0.7,1.8-0.9c0.6-0.2,1.3-0.4,2.1-0.5c0.3,0,0.6,0,1-0.1c0.4,0,0.7,0,1.1,0.1c0.7,0.1,1.4,0.3,2,0.5l-1,0.5
			c0.2-0.7,0.5-1.3,0.8-2c0.3-0.6,0.7-1.2,1.1-1.8c0.4-0.6,0.9-1.1,1.4-1.6c0.5-0.5,1.1-0.9,1.7-1.3c0.6-0.4,1.3-0.7,2-0.9
			c0.7-0.2,1.4-0.4,2.1-0.5c0.4-0.1,0.7,0,1-0.1c0.4,0,0.7,0,1.1,0.1c0.7,0.1,1.4,0.2,2.1,0.5l-0.9,0.5c0.2-0.7,0.3-1.5,0.6-2.2
			c0.3-0.7,0.5-1.4,0.9-2.1c0.2-0.3,0.4-0.7,0.6-1c0.2-0.3,0.4-0.7,0.6-1c0.4-0.6,0.9-1.2,1.5-1.8c0.5-0.5,1.1-1,1.7-1.5
			c0.6-0.5,1.3-0.8,2-1.2c0.4-0.2,0.7-0.3,1.1-0.5l1.1-0.4l1.1-0.3l1.2-0.2c0.4,0,0.7,0,1.1-0.1c0.4,0,0.8,0,1.2,0
			c0.4,0,0.8,0.1,1.1,0.1c0.4,0.1,0.8,0.2,1.1,0.3c0.7,0.2,1.5,0.5,2.2,0.8c0.7,0.3,1.4,0.7,2,1.2c0.6,0.4,1.2,0.9,1.7,1.5
			c0.5,0.5,1,1.1,1.5,1.7c0.4,0.6,0.8,1.3,1.2,1.9l0.5,1l0.4,1.1l-0.4-0.3c0.3,0,0.5,0,0.9,0c0.3,0,0.6,0,0.9,0.1
			c0.3,0,0.6,0.1,0.9,0.1c0.3,0.1,0.6,0.1,0.8,0.2c0.6,0.2,1.1,0.4,1.6,0.7c0.5,0.3,1,0.6,1.5,0.9c0.2,0.2,0.5,0.4,0.7,0.6
			c0.2,0.2,0.4,0.4,0.6,0.6c0.4,0.4,0.8,0.9,1.1,1.3c0.3,0.5,0.6,1,0.9,1.5c0.2,0.5,0.5,1.1,0.6,1.6l-0.4-0.1c1.3-1.2,3-2,4.7-2.2
			c0.9-0.1,1.8,0,2.6,0.2c0.4,0.1,0.9,0.2,1.3,0.4c0.4,0.2,0.8,0.4,1.2,0.6c0.4,0.2,0.7,0.5,1.1,0.8c0.3,0.3,0.6,0.6,0.9,0.9
			c0.3,0.3,0.6,0.7,0.8,1c0.3,0.4,0.5,0.7,0.7,1.1c0.2,0.4,0.4,0.8,0.5,1.2c0.1,0.4,0.3,0.8,0.4,1.3c0.1,0.4,0.1,0.9,0.2,1.3
			c0,0.4,0.1,0.9,0,1.3l0-0.1c1,0.7,1.8,1.6,2.4,2.7C88.1,50.7,88.4,52,88.4,53.2z"/>
	</g>
	<g id="XMLID_524_">
		<path id="XMLID_18_" class="st0" d="M88.3,53.2c0-2.6-1.3-4.9-3.2-6.2c0-0.1,0-0.2,0-0.3c0-5.3-3.9-9.5-8.7-9.5
			c-2.1,0-4,0.9-5.5,2.2c-1.4-4.2-5.1-7.3-9.4-7.3c-0.2,0-0.5,0-0.7,0c-2-5.4-6.7-9.2-12.3-9.2c-6.4,0-11.8,5-13,11.6
			c-0.9-0.3-1.9-0.5-2.9-0.5c-4.5,0-8.2,3.2-9.5,7.6c-0.9-0.3-1.8-0.5-2.7-0.5c-4.8,0-8.7,4.3-8.7,9.5c0,5,3.5,8.7,7.8,9.2
			c1.1,1.3,62.6,1.4,63.7,0.2C86.1,59.3,88.3,56.6,88.3,53.2z"/>
		<path id="XMLID_15_" class="st2" d="M88.2,53.2c0-1.2-0.3-2.4-0.8-3.4c-0.5-1.1-1.4-2-2.3-2.6l-0.1-0.1l0-0.1c0.1-0.4,0-0.8,0-1.3
			c-0.1-0.4-0.1-0.8-0.2-1.2c-0.1-0.4-0.2-0.8-0.4-1.2c-0.1-0.4-0.3-0.8-0.5-1.1c-0.2-0.4-0.4-0.7-0.7-1.1c-0.2-0.3-0.5-0.6-0.8-1
			c-0.3-0.3-0.6-0.6-0.9-0.8c-0.3-0.3-0.7-0.5-1-0.7c-0.4-0.2-0.7-0.4-1.1-0.5c-0.4-0.2-0.8-0.2-1.2-0.3c-0.4-0.1-0.8-0.1-1.2-0.1
			c-0.4,0-0.8,0-1.2,0.1c-1.6,0.2-3,1-4.2,2.1l-0.8,0.8l-0.4-1.1c-0.2-0.5-0.4-1-0.6-1.4c-0.3-0.5-0.5-0.9-0.8-1.3
			c-0.3-0.4-0.6-0.8-1-1.2c-0.4-0.4-0.8-0.7-1.2-1c-0.4-0.3-0.9-0.6-1.3-0.8c-0.5-0.2-0.9-0.4-1.4-0.5c-0.2-0.1-0.5-0.1-0.7-0.2
			c-0.2-0.1-0.5-0.1-0.8-0.1c-0.3,0-0.5,0-0.8,0c-0.2,0-0.5,0-0.8,0l-0.6,0L60,32.4l-0.4-1l-0.5-0.9c-0.3-0.6-0.7-1.2-1.1-1.8
			c-0.4-0.6-0.9-1.1-1.3-1.6c-0.5-0.5-1-0.9-1.6-1.3c-0.6-0.4-1.1-0.8-1.8-1.1c-0.6-0.3-1.3-0.6-1.9-0.8l-1-0.2
			c-0.3,0-0.7-0.1-1-0.1c-0.3,0-0.7-0.1-1-0.1c-0.4,0-0.7,0-1.1,0l-1,0.1l-1,0.2l-1,0.3c-0.3,0.1-0.6,0.3-1,0.4
			c-0.6,0.3-1.3,0.7-1.8,1.1c-0.6,0.4-1.1,0.9-1.6,1.4c-0.5,0.5-1,1-1.4,1.6c-0.2,0.3-0.4,0.6-0.6,0.9c-0.2,0.3-0.4,0.6-0.5,0.9
			c-0.4,0.6-0.6,1.3-0.9,2c-0.2,0.7-0.4,1.4-0.6,2.1l-0.1,0.3l-0.3-0.1c-0.6-0.2-1.2-0.4-1.9-0.4c-0.3,0-0.7,0-1,0
			c-0.3,0-0.7,0-1,0.1c-0.6,0.1-1.3,0.2-1.9,0.4c-0.6,0.2-1.2,0.5-1.7,0.8c-0.6,0.3-1.1,0.7-1.5,1.2c-0.5,0.4-0.9,0.9-1.3,1.4
			c-0.4,0.5-0.7,1.1-1,1.7c-0.3,0.6-0.5,1.2-0.7,1.8l-0.1,0.4l-0.4-0.2c-0.6-0.2-1.2-0.3-1.7-0.4c-0.3,0-0.6,0-0.9,0
			c-0.3,0-0.6,0-0.9,0.1c-0.6,0.1-1.1,0.2-1.7,0.5c-0.5,0.2-1.1,0.5-1.5,0.8c-0.5,0.3-0.9,0.7-1.3,1.2c-0.4,0.4-0.7,0.9-1.1,1.4
			c-0.3,0.5-0.5,1-0.8,1.6L12.7,48l-0.2,0.9l-0.1,0.9l0,0.9l0.1,0.9l0.1,0.8c0.1,0.6,0.3,1.1,0.5,1.7c0.2,0.5,0.5,1,0.8,1.5
			c0.3,0.5,0.7,0.9,1.1,1.3c0.4,0.4,0.9,0.7,1.4,1c0.5,0.3,1,0.5,1.5,0.7c0.5,0.2,1.1,0.3,1.6,0.4l0.6,0.3c0-0.1-0.2-0.2-0.2-0.2
			l0,0c0,0,0.1,0,0.2,0c0.1,0,0.3,0,0.4,0.1l1,0.1c0.6,0.1,1.3,0.1,2,0.1c1.3,0.1,2.6,0.1,4,0.1l8,0.1l15.9,0.2
			c5.3,0.1,10.6,0.1,15.9,0.3c2.7,0,5.3,0.1,8,0.1l4,0c0.7,0,1.3,0,2-0.1c0.3,0,0.7,0,1-0.1l0.5-0.1c0.1,0,0.2,0,0.2,0l0.1,0
			c0,0,0,0,0,0l0.1-0.1c0.4-0.1,0.7-0.2,1.1-0.3c0.3-0.1,0.7-0.3,1-0.5c0.6-0.4,1.2-0.9,1.6-1.5c0.5-0.6,0.8-1.3,1-2
			C88.1,54.7,88.2,53.9,88.2,53.2z M88.4,53.2c0,0.8-0.1,1.6-0.3,2.3c-0.2,0.7-0.6,1.5-1,2.1c-0.5,0.6-1,1.2-1.7,1.6
			c-0.3,0.2-0.7,0.4-1,0.6c-0.4,0.2-0.7,0.3-1.1,0.4l0.1-0.1c-0.1,0.1-0.2,0.1-0.3,0.2c-0.1,0-0.2,0-0.3,0.1c-0.2,0-0.3,0.1-0.5,0.1
			l-1,0.1c-0.7,0.1-1.3,0.1-2,0.2l-4,0.3l-8,0.4c-5.3,0.3-10.6,0.4-16,0.4c-5.3,0-10.6,0-16-0.1c-2.7,0-5.3-0.1-8-0.3
			c-1.3-0.1-2.7-0.1-4-0.2c-0.7,0-1.3-0.1-2-0.2c-0.3,0-0.7-0.1-1-0.1c-0.2,0-0.4-0.1-0.6-0.1c-0.1,0-0.2,0-0.3-0.1l-0.2-0.1
			c-0.1,0-0.3-0.2-0.5-0.3l0.6,0.3c-0.7-0.1-1.4-0.2-2-0.5c-0.7-0.2-1.3-0.5-1.9-0.9c-0.6-0.4-1.1-0.8-1.6-1.3
			c-0.5-0.5-0.9-1-1.3-1.6c-0.4-0.6-0.7-1.2-0.9-1.8c-0.3-0.6-0.4-1.3-0.5-2c-0.1-0.3-0.1-0.7-0.1-1.1l0-1l0.1-1l0.2-1l0.2-1l0.3-1
			c0.3-0.6,0.6-1.2,1-1.8c0.4-0.6,0.8-1.1,1.3-1.6c0.5-0.5,1-0.9,1.6-1.3c0.6-0.4,1.2-0.7,1.8-0.9c0.6-0.2,1.3-0.4,2-0.5
			c0.3,0,0.6,0,1,0c0.4,0,0.7,0,1,0.1c0.7,0.1,1.3,0.3,1.9,0.5l-0.6,0.3c0.2-0.7,0.5-1.3,0.8-1.9c0.3-0.6,0.7-1.2,1.1-1.7
			c0.4-0.6,0.9-1.1,1.4-1.5c0.5-0.5,1.1-0.9,1.7-1.2c0.6-0.4,1.2-0.6,1.9-0.9c0.7-0.2,1.3-0.4,2-0.4c0.4-0.1,0.7,0,1-0.1
			c0.4,0,0.7,0,1,0.1c0.7,0.1,1.4,0.2,2,0.4l-0.4,0.2c0.2-0.7,0.3-1.5,0.6-2.2c0.2-0.7,0.5-1.4,0.9-2.1c0.2-0.3,0.3-0.7,0.5-1
			c0.2-0.3,0.4-0.6,0.6-1c0.4-0.6,0.9-1.2,1.4-1.8c0.5-0.6,1.1-1.1,1.7-1.5c0.6-0.5,1.2-0.9,1.9-1.2c0.3-0.2,0.7-0.3,1-0.5l1.1-0.4
			l1.1-0.3l1.2-0.2c0.4,0,0.7-0.1,1.1-0.1c0.4,0,0.8,0,1.2,0c0.4,0,0.8,0.1,1.2,0.1c0.4,0.1,0.8,0.1,1.1,0.2
			c0.8,0.2,1.5,0.4,2.2,0.8c0.7,0.3,1.4,0.7,2,1.1c0.3,0.2,0.6,0.4,0.9,0.7c0.3,0.2,0.6,0.5,0.9,0.8c0.6,0.5,1.1,1.1,1.6,1.7
			c0.5,0.6,0.9,1.3,1.3,2c0.2,0.3,0.3,0.7,0.5,1l0.4,1.1l-0.9-0.6c0.3,0,0.5,0,0.9,0c0.3,0,0.6,0,0.9,0.1c0.3,0,0.6,0.1,0.9,0.1
			c0.3,0.1,0.6,0.1,0.9,0.2c0.6,0.2,1.2,0.4,1.7,0.7c0.6,0.3,1.1,0.6,1.6,1c0.3,0.2,0.5,0.4,0.7,0.6c0.2,0.2,0.4,0.4,0.6,0.6
			c0.4,0.4,0.8,0.9,1.1,1.4c0.3,0.5,0.6,1,0.9,1.6l0.4,0.8l0.3,0.8l-1.2-0.3c1.4-1.2,3.2-2,5-2.2c0.5,0,0.9,0,1.4,0
			c0.5,0,0.9,0.1,1.4,0.2c0.4,0.1,0.9,0.2,1.3,0.4c0.4,0.2,0.8,0.4,1.2,0.6c0.4,0.3,0.8,0.5,1.1,0.8c0.4,0.3,0.7,0.6,1,0.9
			c0.3,0.4,0.6,0.7,0.8,1.1c0.3,0.4,0.5,0.8,0.7,1.2c0.2,0.4,0.4,0.8,0.5,1.2c0.1,0.4,0.3,0.8,0.3,1.3c0.1,0.4,0.1,0.9,0.2,1.3
			c0,0.4,0.1,0.9,0,1.3l-0.1-0.1c1,0.7,1.8,1.7,2.4,2.8C88.1,50.7,88.4,52,88.4,53.2z"/>
	</g>
	<g id="XMLID_355_">
		<path id="XMLID_13_" class="st0" d="M88.3,53.2c0-2.6-1.3-4.9-3.2-6.2c0-0.1,0-0.2,0-0.3c0-5.3-3.9-9.5-8.7-9.5
			c-2.1,0-4,0.9-5.5,2.2c-1.4-4.2-5.1-7.3-9.4-7.3c-0.2,0-0.5,0-0.7,0c-2-5.4-6.7-9.2-12.3-9.2c-6.4,0-11.8,5-13,11.6
			c-0.9-0.3-1.9-0.5-2.9-0.5c-4.5,0-8.2,3.2-9.5,7.6c-0.9-0.3-1.8-0.5-2.7-0.5c-4.8,0-8.7,4.3-8.7,9.5c0,5,3.5,8.7,7.8,9.2
			c1.1,1.3,62.6,1.4,63.7,0.2C86.1,59.3,88.3,56.6,88.3,53.2z"/>
		<path id="XMLID_10_" class="st2" d="M88.2,53.2c0-1.2-0.3-2.4-0.9-3.4c-0.5-1.1-1.4-2-2.3-2.6l-0.1-0.1l0-0.1c0.1-0.4,0-0.8,0-1.3
			c-0.1-0.4-0.1-0.8-0.2-1.2c-0.1-0.4-0.2-0.8-0.4-1.2c-0.1-0.4-0.3-0.8-0.5-1.2c-0.2-0.4-0.4-0.7-0.7-1.1c-0.2-0.4-0.5-0.7-0.8-1
			c-0.3-0.3-0.6-0.6-0.9-0.8c-0.3-0.3-0.7-0.5-1-0.7c-0.4-0.2-0.7-0.4-1.1-0.5c-0.4-0.2-0.8-0.2-1.2-0.4c-0.8-0.2-1.7-0.2-2.5-0.1
			c-1.6,0.2-3.2,1-4.4,2.1l-0.4,0.4l-0.2-0.6c-0.2-0.5-0.4-1-0.7-1.5c-0.3-0.5-0.5-0.9-0.9-1.4c-0.3-0.4-0.7-0.8-1.1-1.2
			c-0.2-0.2-0.4-0.4-0.6-0.5c-0.2-0.2-0.4-0.3-0.6-0.5c-0.4-0.3-0.9-0.6-1.4-0.8c-0.5-0.2-1-0.4-1.5-0.5c-0.2-0.1-0.5-0.1-0.8-0.2
			c-0.3-0.1-0.5-0.1-0.8-0.1c-0.3,0-0.5,0-0.8,0c-0.2,0-0.5,0-0.8,0.1l-0.5,0l-0.2-0.5l-0.4-1l-0.5-0.9c-0.4-0.6-0.7-1.2-1.2-1.7
			c-0.4-0.5-0.9-1.1-1.4-1.5c-0.5-0.5-1-0.9-1.6-1.3c-0.6-0.4-1.2-0.7-1.8-1c-0.6-0.3-1.3-0.5-1.9-0.6l-1-0.2c-0.3,0-0.7-0.1-1-0.1
			c-0.3,0-0.7,0-1,0c-0.4,0-0.7,0-1.1,0.1l-0.9,0.2l-1,0.3L44.5,25c-0.3,0.1-0.6,0.3-0.9,0.4c-0.6,0.3-1.1,0.7-1.7,1.1
			c-0.5,0.4-1,0.8-1.5,1.3c-0.4,0.5-0.9,1-1.2,1.5c-0.2,0.3-0.4,0.6-0.5,0.8c-0.2,0.3-0.3,0.6-0.5,0.9c-0.3,0.6-0.5,1.2-0.8,1.8
			c-0.2,0.6-0.4,1.3-0.5,1.9l-0.4,1.7L35,36c-0.5-0.2-1.1-0.3-1.6-0.3l-0.4,0l-0.3,0c-0.3,0-0.7,0-0.9,0.1c-0.2,0-0.5,0.1-0.8,0.1
			c-0.3,0.1-0.5,0.1-0.8,0.2c-0.5,0.2-1,0.4-1.5,0.7c-0.5,0.3-0.9,0.6-1.3,1c-0.4,0.4-0.8,0.8-1.1,1.3c-0.3,0.5-0.6,0.9-0.9,1.5
			c-0.3,0.5-0.4,1-0.6,1.6l-0.6,1.8l-1.7-0.6c-0.5-0.2-1-0.3-1.5-0.4c-0.1,0-0.2,0-0.4,0l-0.2,0h-0.1h0h0c0,0-0.1,0,0.1,0h0l0,0
			c-0.3,0-0.7,0-0.9,0c-0.4,0.1-0.9,0.2-1.3,0.3c-0.5,0.2-0.9,0.4-1.3,0.7c-0.4,0.3-0.8,0.6-1.2,1c-0.4,0.4-0.7,0.8-1,1.2
			c-0.3,0.4-0.5,0.9-0.7,1.4l-0.3,0.7L13.4,49l-0.1,0.8l0,0.8l0,0.9l0.1,0.7c0.1,0.5,0.2,1,0.4,1.5c0.2,0.5,0.4,1,0.7,1.4
			c0.3,0.4,0.6,0.8,1,1.2c0.4,0.4,0.8,0.7,1.2,1c0.4,0.3,0.9,0.5,1.4,0.7c0.5,0.2,1,0.3,1.5,0.4l1,0.5c-0.1-0.2-0.4-0.3-0.5-0.3
			c0,0,0,0,0,0c0,0,0.1,0,0.1,0c0.1,0,0.3,0,0.4,0.1l0.9,0.1c0.6,0.1,1.3,0.1,1.9,0.2c1.3,0.1,2.6,0.2,3.9,0.3
			c2.6,0.2,5.3,0.3,7.9,0.4c5.3,0.2,10.6,0.4,15.9,0.6l8,0.2c2.7,0,5.3,0.1,8,0.1c2.7,0,5.3,0,8-0.1l4-0.1c0.7,0,1.3-0.1,2-0.1
			l1-0.1c0.2,0,0.3,0,0.5-0.1c0.1,0,0.2,0,0.2,0c0.1,0,0.1,0,0.1,0l0.1-0.1c0.4-0.1,0.7-0.2,1.1-0.4c0.3-0.2,0.7-0.3,1-0.5
			c0.6-0.4,1.2-0.9,1.6-1.5c0.5-0.6,0.8-1.3,1-2C88.1,54.7,88.2,53.9,88.2,53.2z M88.4,53.2c0,0.8-0.1,1.6-0.3,2.3
			c-0.2,0.7-0.6,1.5-1.1,2.1c-0.5,0.6-1,1.2-1.7,1.6c-0.3,0.2-0.7,0.4-1,0.6c-0.4,0.2-0.7,0.3-1.1,0.4l0.1,0c-0.4,0.2-0.7,0.2-1,0.2
			l-1,0.1c-0.7,0.1-1.3,0.1-2,0.1l-4,0.2c-2.7,0.1-5.3,0.1-8,0.2c-5.3,0.1-10.6,0.1-16,0.1c-5.3,0-10.6,0-16-0.1
			c-2.7,0-5.3-0.1-8-0.2c-1.3,0-2.7-0.1-4-0.2c-0.7,0-1.3-0.1-2-0.1c-0.3,0-0.7-0.1-1-0.1c-0.2,0-0.3,0-0.5-0.1
			c-0.1,0-0.2,0-0.3-0.1c-0.1,0-0.2,0-0.3-0.2l0.1,0.1c-0.6-0.1-1.3-0.2-1.9-0.4c-0.6-0.2-1.2-0.5-1.7-0.8c-0.6-0.3-1.1-0.7-1.5-1.2
			c-0.5-0.5-0.9-0.9-1.2-1.5c-0.4-0.5-0.7-1.1-0.9-1.7c-0.2-0.6-0.4-1.2-0.5-1.9c-0.1-0.3-0.1-0.6-0.1-1l0-1l0-1l0.1-1l0.2-0.9
			l0.3-0.9c0.2-0.6,0.5-1.2,0.9-1.7c0.4-0.5,0.7-1.1,1.2-1.5c0.4-0.5,0.9-0.9,1.5-1.2c0.5-0.4,1.1-0.7,1.7-0.9
			c0.6-0.2,1.2-0.4,1.9-0.5c0.3,0,0.6,0,0.9-0.1c0.3,0,0.7,0,1,0.1c0.6,0.1,1.3,0.3,1.9,0.5l-0.3,0.1c0.2-0.6,0.4-1.3,0.8-1.9
			c0.3-0.6,0.7-1.2,1.1-1.7c0.4-0.5,0.9-1.1,1.4-1.5c0.5-0.5,1.1-0.9,1.6-1.2c0.6-0.4,1.2-0.6,1.9-0.9c0.6-0.2,1.3-0.4,2-0.4
			c0.3-0.1,0.7,0,1-0.1c0.4,0,0.7,0,1,0.1c0.7,0.1,1.3,0.2,2,0.4l-0.2,0.1c0.2-0.7,0.3-1.4,0.6-2.2c0.2-0.7,0.5-1.4,0.9-2
			c0.2-0.3,0.3-0.7,0.5-1c0.2-0.3,0.4-0.6,0.6-0.9c0.4-0.6,0.9-1.2,1.4-1.7c0.5-0.5,1.1-1,1.7-1.5c0.6-0.4,1.2-0.8,1.9-1.2
			c0.3-0.2,0.7-0.3,1-0.5l1.1-0.4l1.1-0.3l1.1-0.2c0.7-0.1,1.5-0.1,2.2,0c0.4,0,0.7,0.1,1.1,0.1c0.4,0.1,0.7,0.2,1.1,0.2
			c0.7,0.2,1.4,0.4,2.1,0.8c0.7,0.3,1.3,0.7,1.9,1.1c0.6,0.4,1.2,0.9,1.7,1.4c0.5,0.5,1,1.1,1.5,1.7c0.4,0.6,0.8,1.2,1.2,1.9l0.5,1
			l0.4,1L60.8,32c0.6,0,1.1,0,1.7,0c0.3,0,0.6,0.1,0.8,0.1c0.3,0.1,0.6,0.1,0.8,0.2c0.5,0.2,1.1,0.4,1.6,0.6c0.5,0.2,1,0.6,1.5,0.9
			c0.2,0.2,0.4,0.4,0.7,0.5c0.2,0.2,0.4,0.4,0.6,0.6c0.4,0.4,0.8,0.9,1.1,1.3c0.3,0.5,0.6,1,0.9,1.5c0.2,0.5,0.5,1,0.6,1.6l-0.2-0.1
			c1.3-1.2,2.9-2,4.7-2.2c0.9-0.1,1.8,0,2.6,0.1c0.4,0.1,0.9,0.2,1.2,0.4c0.4,0.1,0.8,0.4,1.2,0.6c0.4,0.2,0.7,0.5,1.1,0.8
			c0.3,0.3,0.6,0.6,1,0.9c0.3,0.3,0.6,0.7,0.8,1c0.3,0.4,0.5,0.7,0.7,1.1c0.2,0.4,0.4,0.8,0.5,1.2c0.1,0.4,0.3,0.8,0.4,1.3
			c0.1,0.4,0.1,0.9,0.2,1.3c0,0.4,0.1,0.9,0,1.3l0-0.1c1,0.7,1.8,1.6,2.4,2.7C88.1,50.7,88.4,52,88.4,53.2z"/>
	</g>
</g>
<g id="XMLID_537_">
	<g id="XMLID_68_">
		<path id="XMLID_73_" class="st3" d="M57.3,44.2c-0.1,0-0.1,0-0.1,0c-1.3-3-4.5-5.2-8.2-5.2c-0.6,0-1.1,0.1-1.7,0.2
			C47.3,33,41.9,28,35.3,28c-6.3,0-11.5,4.6-11.9,10.4c-0.2,0-0.4,0-0.6,0c-6.6,0-11.9,5-11.9,11.1c0,5.3,4,10,9.3,11.1
			c0.6,0.2,37.1,0.1,37.2,0.1c4.9,0,8.8-3.8,8.8-8.3C66.2,48,62.2,44.2,57.3,44.2z"/>
		<path id="XMLID_71_" class="st3" d="M56.6,44.2c-0.1,0-0.1,0-0.1,0c-1.3-3-4.5-5.2-8.2-5.2c-0.6,0-1.1,0.1-1.7,0.2
			C46.5,33,41.2,28,34.6,28c-6.3,0-11.5,4.6-11.9,10.4c-0.2,0-0.4,0-0.6,0c-6.6,0-11.9,5-11.9,11.1c0,5.3,4,10,9.3,11.1
			c0.6,0.2,37.1,0.1,37.2,0.1c4.9,0,8.8-3.8,8.8-8.3C65.4,48,61.5,44.2,56.6,44.2z"/>
		<path id="XMLID_69_" class="st3" d="M56.6,44.2c-0.1,0-0.1,0-0.1,0c-1.3-3-4.5-5.2-8.2-5.2c-0.6,0-1.1,0.1-1.7,0.2
			C46.5,33,41.2,28,34.6,28c-6.3,0-11.5,4.6-11.9,10.4c-0.2,0-0.4,0-0.6,0c-6.6,0-11.9,5-11.9,11.1c0,5.3,4,10,9.3,11.1
			c0.6,0.2,37.1,0.1,37.2,0.1c4.9,0,8.8-3.8,8.8-8.3C65.4,48,61.5,44.2,56.6,44.2z"/>
	</g>
</g>
</svg>
