<?xml version="1.0" encoding="utf-8"?>
<!-- Generator: Adobe Illustrator 21.0.0, SVG Export Plug-In . SVG Version: 6.00 Build 0)  -->
<svg version="1.1" id="sunnyShowersIcon" xmlns="http://www.w3.org/2000/svg" xmlns:xlink="http://www.w3.org/1999/xlink" x="0px"
	 y="0px" viewBox="0 0 59.1 51.8" style="enable-background:new 0 0 59.1 51.8;" xml:space="preserve">
<style type="text/css">
	.st0{fill:#33B5D9;}
	.st1{fill:#00A2CF;}
	.st2{fill:#FFE499;}
	.st3{fill:#FFD766;}
	.st4{fill:#FFBC00;}
	.st5{fill:none;stroke:#33B5D9;stroke-width:1.5;stroke-linecap:round;stroke-miterlimit:10;}
	.st6{fill:#D1D3D4;}
	.st7{fill:#FFFFFF;}
</style>
<g id="rain">
	<path class="st0" d="M15.8,40.6c-0.1,0.4-0.3,2.7-0.7,3.4c-0.1,0.2-0.2,0.3-0.3,0.5c-0.3,0.2-0.7,0.2-0.9,0.1
		c-0.5-0.3-0.5-1.1-0.1-1.9C14,42.1,15.1,41.1,15.8,40.6z"/>
	<path class="st0" d="M20,39.4c-0.1,0.6-0.4,3.5-1,4.4c-0.1,0.2-0.3,0.4-0.5,0.6c-0.4,0.2-0.9,0.3-1.2,0.1c-0.7-0.4-0.7-1.5-0.1-2.5
		C17.6,41.2,19.1,40,20,39.4z"/>
	<path class="st0" d="M44.3,39.6c-0.1,0.5-0.4,3.3-0.9,4.2c-0.1,0.2-0.3,0.4-0.4,0.6c-0.4,0.2-0.8,0.3-1.2,0.1
		c-0.6-0.4-0.7-1.4-0.1-2.4C42,41.4,43.5,40.2,44.3,39.6z"/>
	<path class="st1" d="M26.4,43.4c-0.6,1-1.6,1.5-2.2,1.1c-0.7-0.4-0.7-1.5-0.1-2.5s3.3-3,3.3-3S27,42.4,26.4,43.4z"/>
	<path class="st0" d="M36.4,40.3c-0.1,0.5-0.4,2.9-0.8,3.7c-0.1,0.2-0.2,0.4-0.4,0.5c-0.4,0.2-0.7,0.2-1,0.1
		c-0.5-0.3-0.6-1.2-0.1-2.1C34.4,41.9,35.7,40.8,36.4,40.3z"/>
	<path class="st0" d="M33.7,40.3c-0.1,0.5-0.4,2.9-0.8,3.7c-0.1,0.2-0.2,0.4-0.4,0.5c-0.4,0.2-0.7,0.2-1,0.1
		c-0.5-0.3-0.6-1.2-0.1-2.1C31.8,41.9,33,40.9,33.7,40.3z"/>
	<path class="st0" d="M26.9,40.2c-0.1,0.5-0.4,3-0.8,3.8c-0.1,0.2-0.2,0.4-0.4,0.5c-0.4,0.2-0.7,0.2-1,0.1c-0.6-0.3-0.6-1.3-0.1-2.2
		C24.8,41.8,26.1,40.7,26.9,40.2z"/>
</g>
<g id="sun">
	<g id="outerRepeat">
		<circle id="outer" class="st2" cx="22.2" cy="21.5" r="21.5"/>
	</g>
	<g id="middleRepeat">
		<circle id="middle" class="st3" cx="22.2" cy="21.5" r="16.6"/>
	</g>
	<circle id="inner" class="st4" cx="22.2" cy="21.5" r="12.5"/>
</g>
<g id="dashedLines">
	<line class="st5" x1="14.8" y1="36.7" x2="6.7" y2="51"/>
	<line class="st5" x1="27.4" y1="25.2" x2="14.6" y2="47.4"/>
	<line class="st5" x1="28.4" y1="32.7" x2="17.9" y2="51"/>
	<line class="st5" x1="31.4" y1="36.7" x2="25.2" y2="47.7"/>
	<line class="st5" x1="38.4" y1="35" x2="29" y2="51"/>
	<line class="st5" x1="46.9" y1="29.6" x2="36.9" y2="47.4"/>
	<line class="st5" x1="48.6" y1="36.7" x2="40.5" y2="51"/>
</g>
<g id="cloud">
	<path class="st6" d="M59,39.7c0,2.9-3.2,5.2-7.2,5.2H8.3c-4,0-7.2-2.3-7.2-5.2l0,0c0-2.9,3.2-5.2,7.2-5.2h43.5
		C55.8,34.6,59,36.9,59,39.7L59,39.7z"/>
	<circle class="st7" cx="27.7" cy="27.5" r="9.5"/>
	<circle class="st6" cx="38.1" cy="33.6" r="8.7"/>
	<path class="st7" d="M38.1,24.9c-2.1,0-3.9,0.7-5.4,1.9c-1,1.4-1.5,3.1-1.5,5c0,4.9,3.9,8.8,8.8,8.8c1.8,0,3.6-0.6,5-1.5
		c1.2-1.5,1.9-3.4,1.9-5.4C46.8,28.8,42.9,24.9,38.1,24.9z"/>
	<circle class="st6" cx="53.4" cy="39.3" r="5.7"/>
	<circle class="st6" cx="7.2" cy="37.7" r="7.2"/>
	<path class="st7" d="M12.6,36.3c0-2-0.8-3.7-2.2-5c-1-0.5-2-0.7-3.2-0.7c-4,0-7.2,3.2-7.2,7.2C0,38.9,0.3,40,0.7,41
		c1.2,1.3,3,2.2,5,2.2C9.5,43.1,12.6,40,12.6,36.3z"/>
	<circle class="st6" cx="15.8" cy="34.6" r="8.5"/>
	<path class="st7" d="M15.8,26c-4.7,0-8.5,3.8-8.5,8.5c0,1.6,0.5,3.2,1.3,4.5c1.5,1.3,3.4,2.2,5.6,2.2c4.6,0,8.3-3.7,8.3-8.3
		c0-2.2-0.8-4.1-2.2-5.6C19,26.5,17.4,26,15.8,26z"/>
	<circle class="st6" cx="48.4" cy="33.6" r="6"/>
	<path class="st7" d="M48.6,38.3c3.1,0,5.6-2.3,5.9-5.3c-0.3-3.1-2.9-5.4-6-5.4c-2.8,0-5.1,1.9-5.8,4.4c0,0.1,0,0.3,0,0.4
		C42.6,35.7,45.3,38.3,48.6,38.3z"/>
	<path class="st7" d="M53.4,33.6c-2.9,0-5.3,2.2-5.6,5c0.2,2.9,2.7,5.2,5.6,5.2s5.3-2.2,5.6-5.1C58.7,35.8,56.3,33.6,53.4,33.6z"/>
</g>
</svg>
