<?xml version="1.0" encoding="utf-8"?>
<!-- Generator: Adobe Illustrator 21.0.0, SVG Export Plug-In . SVG Version: 6.00 Build 0)  -->
<svg version="1.1" id="thundershowersIcon" xmlns="http://www.w3.org/2000/svg" xmlns:xlink="http://www.w3.org/1999/xlink" x="0px"
	 y="0px" viewBox="0 0 57.6 34.1" style="enable-background:new 0 0 57.6 34.1;" xml:space="preserve">
<style type="text/css">
	.st0{fill:#FF9B00;}
	.st1{fill:#00A2CF;}
	.st2{fill:#BCBEC0;}
	.st3{fill:#E6E7E8;}
	.st4{fill:#D1D3D4;}
</style>
<path id="lightning" class="st0" d="M28.3,21.5l-5.1,6.7l-0.4-0.9h4.1h1.2l-0.7,0.9L22.7,34c-0.1,0.1-0.3,0.1-0.4,0
	s-0.1-0.3-0.1-0.4l4.2-6.2l0.5,0.9h-4.1h-1.2l0.7-0.9l5.1-6.7c0.2-0.3,0.6-0.3,0.8-0.1C28.4,20.9,28.5,21.3,28.3,21.5z"/>
<g id="rain">
	<path class="st1" d="M30.9,21.6c-0.3,0.6-1,0.9-1.4,0.7s-0.4-0.9-0.1-1.5c0.4-0.6,2-1.8,2-1.8S31.3,21,30.9,21.6z"/>
	<path class="st1" d="M20.7,21.8c-0.3,0.5-0.7,0.7-1,0.5s-0.3-0.7-0.1-1.2c0.3-0.5,1.6-1.4,1.6-1.4S21,21.3,20.7,21.8z"/>
	<path class="st1" d="M10.3,16.5C10,17.1,9.4,17.4,9,17.2s-0.4-0.9-0.1-1.5s1.9-1.8,1.9-1.8S10.7,15.9,10.3,16.5z"/>
	<path class="st1" d="M14.7,21.5c-0.3,0.5-0.8,0.7-1.1,0.5c-0.3-0.2-0.3-0.7-0.1-1.2c0.3-0.5,1.6-1.4,1.6-1.4S15,21,14.7,21.5z"/>
	<path class="st1" d="M18.2,21.6c-0.3,0.6-1,0.9-1.4,0.7s-0.4-0.9-0.1-1.5c0.4-0.6,2-1.8,2-1.8S18.5,21,18.2,21.6z"/>
	<path class="st1" d="M22.1,21.9c-0.2,0.4-0.6,0.6-0.9,0.4c-0.3-0.1-0.3-0.6-0.1-1c0.2-0.4,1.3-1.2,1.3-1.2S22.3,21.5,22.1,21.9z"/>
	<path class="st1" d="M36.1,21.9c-0.2,0.4-0.6,0.6-0.9,0.4c-0.3-0.1-0.3-0.6-0.1-1s1.3-1.2,1.3-1.2S36.3,21.5,36.1,21.9z"/>
	<path class="st1" d="M30.4,21.9c-0.2,0.4-0.6,0.6-0.9,0.4c-0.3-0.1-0.3-0.6-0.1-1s1.3-1.2,1.3-1.2S30.6,21.5,30.4,21.9z"/>
	<path class="st1" d="M47.1,15.6c-0.2,0.3-0.5,0.5-0.7,0.4s-0.2-0.5,0-0.8s1.1-1,1.1-1S47.3,15.3,47.1,15.6z"/>
	<path class="st1" d="M43.7,19.8c-0.3,0.5-0.8,0.7-1.1,0.6c-0.3-0.2-0.4-0.7-0.1-1.2c0.3-0.5,1.7-1.5,1.7-1.5S44,19.3,43.7,19.8z"/>
	<path class="st1" d="M49.2,15.6C49,16,48.6,16.2,48.4,16c-0.2-0.1-0.3-0.6-0.1-0.9c0.2-0.4,1.3-1.1,1.3-1.1S49.4,15.2,49.2,15.6z"
		/>
	<path class="st1" d="M10.2,16.8c-0.2,0.4-0.6,0.6-0.8,0.4c-0.2-0.1-0.3-0.6-0.1-0.9c0.2-0.4,1.3-1.1,1.3-1.1S10.4,16.4,10.2,16.8z"
		/>
</g>
<g id="cloud2">
	<path class="st2" d="M57.6,13.1c0,1.7-2,3.1-4.4,3.1H26.8c-2.4,0-4.4-1.4-4.4-3.1l0,0c0-1.7,2-3.1,4.4-3.1h26.4
		C55.6,10,57.6,11.4,57.6,13.1L57.6,13.1z"/>
	<circle class="st3" cx="38.5" cy="5.7" r="5.7"/>
	<circle class="st2" cx="44.8" cy="9.4" r="5.3"/>
	<path class="st3" d="M44.8,4.1c-1.2,0-2.4,0.4-3.3,1.2c-0.6,0.9-0.9,1.9-0.9,3c0,3,2.4,5.3,5.3,5.3c1.1,0,2.2-0.3,3-0.9
		c0.7-0.9,1.2-2.1,1.2-3.3C50.1,6.5,47.8,4.1,44.8,4.1z"/>
	<circle class="st2" cx="54.1" cy="12.8" r="3.4"/>
	<circle class="st2" cx="26.1" cy="11.9" r="4.4"/>
	<path class="st3" d="M29.4,11c0-1.2-0.5-2.3-1.3-3c-0.6-0.3-1.2-0.5-1.9-0.5c-2.4,0-4.4,2-4.4,4.4c0,0.7,0.2,1.3,0.5,1.9
		c0.8,0.8,1.8,1.3,3,1.3C27.5,15.2,29.4,13.3,29.4,11z"/>
	<circle class="st2" cx="31.3" cy="10" r="5.2"/>
	<path class="st3" d="M31.3,4.8c-2.9,0-5.2,2.3-5.2,5.2c0,1,0.3,1.9,0.8,2.7c0.9,0.8,2.1,1.3,3.4,1.3c2.8,0,5-2.3,5-5
		c0-1.3-0.5-2.5-1.3-3.4C33.2,5.1,32.3,4.8,31.3,4.8z"/>
	<circle class="st2" cx="51.1" cy="9.4" r="3.7"/>
	<path class="st3" d="M51.2,12.3c1.9,0,3.4-1.4,3.6-3.2c-0.2-1.9-1.7-3.3-3.6-3.3c-1.7,0-3.1,1.1-3.5,2.7c0,0.1,0,0.2,0,0.3
		C47.6,10.7,49.2,12.3,51.2,12.3z"/>
	<path class="st3" d="M54.1,9.4c-1.8,0-3.2,1.3-3.4,3c0.1,1.8,1.6,3.2,3.4,3.2c1.8,0,3.2-1.4,3.4-3.1C57.4,10.8,55.9,9.4,54.1,9.4z"
		/>
</g>
<g id="cloud1">
	<path class="st2" d="M35.9,14.6c0,1.7-2,3.1-4.4,3.1H5.1c-2.4,0-4.4-1.4-4.4-3.1l0,0c0-1.7,2-3.1,4.4-3.1h26.4
		C33.9,11.5,35.9,12.9,35.9,14.6L35.9,14.6z"/>
	<circle class="st3" cx="16.8" cy="7.2" r="5.7"/>
	<circle class="st2" cx="23.2" cy="10.9" r="5.3"/>
	<path class="st3" d="M23.2,5.6c-1.2,0-2.4,0.4-3.3,1.2c-0.6,0.9-0.9,1.9-0.9,3c0,3,2.4,5.3,5.3,5.3c1.1,0,2.2-0.3,3-0.9
		c0.7-0.9,1.2-2.1,1.2-3.3C28.4,8,26.1,5.6,23.2,5.6z"/>
	<circle class="st2" cx="32.5" cy="14.4" r="3.4"/>
	<circle class="st2" cx="4.4" cy="13.4" r="4.4"/>
	<path class="st3" d="M7.7,12.5c0-1.2-0.5-2.3-1.3-3C5.8,9.2,5.2,9,4.5,9c-2.4,0-4.4,2-4.4,4.4c0,0.7,0.2,1.3,0.5,1.9
		c0.8,0.8,1.8,1.3,3,1.3C5.8,16.7,7.7,14.8,7.7,12.5z"/>
	<circle class="st2" cx="9.6" cy="11.5" r="5.2"/>
	<path class="st3" d="M9.6,6.3c-2.9,0-5.2,2.3-5.2,5.2c0,1,0.3,1.9,0.8,2.7c0.9,0.8,2.1,1.3,3.4,1.3c2.8,0,5-2.3,5-5
		c0-1.3-0.5-2.5-1.3-3.4C11.5,6.6,10.6,6.3,9.6,6.3z"/>
	<circle class="st2" cx="29.5" cy="10.9" r="3.7"/>
	<path class="st3" d="M29.5,13.8c1.9,0,3.4-1.4,3.6-3.2c-0.2-1.9-1.7-3.3-3.6-3.3c-1.7,0-3.1,1.1-3.5,2.7c0,0.1,0,0.2,0,0.3
		C25.9,12.2,27.5,13.8,29.5,13.8z"/>
	<path class="st3" d="M32.5,10.9c-1.8,0-3.2,1.3-3.4,3c0.1,1.8,1.6,3.2,3.4,3.2c1.8,0,3.2-1.4,3.4-3.1
		C35.7,12.3,34.2,10.9,32.5,10.9z"/>
</g>
<g id="cloud0">
	<circle class="st2" cx="37.8" cy="15.6" r="7.4"/>
	<circle class="st4" cx="22.5" cy="13.7" r="5.9"/>
	<path class="st2" d="M14.3,19.6c0,1.9,1.5,3.4,3.5,3.4h20.7c1.9,0,3.5-1.5,3.5-3.4l0,0c0-1.9-14.9-7.5-16.8-7.5
		c0,0-0.6,5.5-4.5,0.9C19.2,11.4,14.3,17.7,14.3,19.6L14.3,19.6z"/>
	<circle class="st2" cx="16.8" cy="17.3" r="5.7"/>
	<path class="st4" d="M11.1,16.8c0.2-2.8,2.4-5,5.2-5.2c2.4,0.2,4.2,2.3,4.2,4.7c0,2.6-2.1,4.7-4.7,4.7
		C13.4,21.1,11.4,19.2,11.1,16.8z"/>
	<path class="st4" d="M38.6,8.3c3.5,0.4,6.2,3.1,6.6,6.6c-0.3,2.9-2.8,5.2-5.9,5.2c-3.3,0-5.9-2.7-5.9-5.9
		C33.4,11.1,35.6,8.6,38.6,8.3z"/>
	<circle class="st2" cx="30.2" cy="8.9" r="7.9"/>
	<path class="st4" d="M23.4,6.9c0-0.9,0.1-1.7,0.4-2.4c1.4-2.1,3.8-3.4,6.5-3.4c4.3,0,7.9,3.5,7.9,7.9c0,0.7-0.1,1.4-0.3,2.1
		c-1.4,2.2-3.8,3.7-6.6,3.7C26.9,14.7,23.4,11.2,23.4,6.9z"/>
</g>
</svg>
