<?xml version="1.0" encoding="utf-8"?>
<!-- Generator: Adobe Illustrator 21.0.0, SVG Export Plug-In . SVG Version: 6.00 Build 0)  -->
<svg version="1.1" id="windyIcon" xmlns="http://www.w3.org/2000/svg" xmlns:xlink="http://www.w3.org/1999/xlink" x="0px" y="0px"
	 viewBox="0 0 55.1 47.5" style="enable-background:new 0 0 55.1 47.5;" xml:space="preserve">
<style type="text/css">
	.st0{fill:#D1D3D4;}
	.st1{fill:#F1F2F2;}
	.st2{fill:none;stroke:#FFFFFF;stroke-linecap:round;stroke-miterlimit:10;}
</style>
<g id="cloud1">
	<circle class="st0" cx="46.6" cy="20.9" r="8.5"/>
	<circle class="st1" cx="29.1" cy="18.7" r="6.8"/>
	<path class="st0" d="M19.7,25.4c0,2.2,1.8,3.9,3.9,3.9h23.7c2.2,0,3.9-1.8,3.9-3.9l0,0c0-2.2-17.1-8.6-19.3-8.6c0,0-0.7,6.3-5.2,1
		C25.3,16,19.7,23.3,19.7,25.4L19.7,25.4z"/>
	<circle class="st0" cx="22.6" cy="22.9" r="6.5"/>
	<path class="st1" d="M16.1,22.3c0.3-3.2,2.8-5.7,5.9-5.9c2.7,0.3,4.9,2.6,4.9,5.4c0,3-2.4,5.4-5.4,5.4C18.7,27.1,16.4,25,16.1,22.3
		z"/>
	<path class="st1" d="M47.5,12.5c4,0.4,7.1,3.6,7.5,7.5c-0.4,3.4-3.2,6-6.7,6c-3.7,0-6.8-3-6.8-6.8C41.5,15.8,44.1,12.9,47.5,12.5z"
		/>
	<circle class="st0" cx="37.9" cy="13.3" r="9"/>
	<path class="st1" d="M30.1,10.9c0-1,0.2-1.9,0.4-2.8c1.6-2.3,4.3-3.9,7.4-3.9c5,0,9,4,9,9c0,0.8-0.1,1.6-0.3,2.4
		c-1.6,2.5-4.4,4.2-7.6,4.2C34.1,19.9,30.1,15.9,30.1,10.9z"/>
</g>
<g id="cloud0">
	<circle class="st0" cx="5.2" cy="10.2" r="5.2"/>
	<circle class="st1" cx="16" cy="8.8" r="4.2"/>
	<path class="st0" d="M21.8,13c0,1.3-1.1,2.4-2.4,2.4H4.8c-1.3,0-2.4-1.1-2.4-2.4l0,0c0-1.3,10.5-5.3,11.8-5.3c0,0,0.4,3.9,3.2,0.6
		C18.3,7.2,21.8,11.7,21.8,13L21.8,13z"/>
	<circle class="st0" cx="20" cy="11.4" r="4"/>
	<path class="st1" d="M24,11.1c-0.2-1.9-1.7-3.5-3.7-3.7c-1.7,0.2-3,1.6-3,3.3c0,1.8,1.5,3.3,3.3,3.3C22.4,14.1,23.8,12.7,24,11.1z"
		/>
	<path class="st1" d="M4.7,5.1C2.2,5.3,0.3,7.3,0.1,9.7c0.2,2.1,2,3.7,4.1,3.7c2.3,0,4.2-1.9,4.2-4.2C8.4,7.1,6.7,5.3,4.7,5.1z"/>
	<circle class="st0" cx="10.6" cy="5.5" r="5.5"/>
	<path class="st1" d="M15.4,4.1c0-0.6-0.1-1.2-0.3-1.7C14.1,1,12.4,0,10.6,0C7.5,0,5.1,2.5,5.1,5.5c0,0.5,0.1,1,0.2,1.5
		C6.3,8.6,8,9.6,10,9.6C12.9,9.6,15.4,7.1,15.4,4.1z"/>
</g>
<g id="dashedLines">
	<path class="st2" d="M49.5,33.4c0,0-35.6,0-36.5,0"/>
	<path class="st2" d="M49.5,36.1H7.4c-1.9,0-3.4-1.5-3.4-3.4s1.5-3.4,3.4-3.4h1.9"/>
	<path class="st2" d="M49.5,41.4H21.4c-1.6,0-2.8,1.3-2.8,2.8s1.3,2.8,2.8,2.8h1.5"/>
	<path class="st2" d="M49.5,38.5H12.4c-1.6,0-2.8,1.3-2.8,2.8s1.3,2.8,2.8,2.8h1.5"/>
</g>
</svg>
