<?xml version="1.0" encoding="utf-8"?>
<!-- Generator: Adobe Illustrator 19.0.0, SVG Export Plug-In . SVG Version: 6.00 Build 0)  -->
<svg version="1.1" id="Layer_1" xmlns="http://www.w3.org/2000/svg" xmlns:xlink="http://www.w3.org/1999/xlink" x="0px" y="0px"
	 viewBox="0 0 100 100" style="enable-background:new 0 0 100 100;" xml:space="preserve">
<style type="text/css">
	.st0{fill:#FFFFFF;stroke:#D0D1D3;stroke-miterlimit:10;}
	.st1{fill:#FFFFFF;}
	.st2{fill:#D0D1D3;}
	.st3{fill:#CDCDCF;}
	.st4{fill:none;stroke:#CDCDCF;stroke-miterlimit:10;}
</style>
<g id="XMLID_385_">
	<path id="XMLID_379_" class="st0" d="M35.7,49.4c0,4.4,3.7,8.1,8.2,8.1c0.1,0,33.9,0.1,34.5-0.1c4.9-1.1,8.6-5.7,8.6-10.9
		c0-6-5-10.9-11.1-10.9c-0.2,0-0.4,0-0.6,0c-0.4-5.7-5.2-10.2-11-10.2c-6.1,0-11.1,4.9-11.1,10.9c-0.5-0.1-1-0.2-1.6-0.2
		c-3.5,0-6.4,2.1-7.6,5.1c0,0-0.1,0-0.1,0C39.4,41.3,35.7,45,35.7,49.4z"/>
	<g id="XMLID_409_">
		<path id="XMLID_53_" class="st1" d="M36.4,49.4c0,4.4,3.7,8.1,8.2,8.1c0.1,0,33.9,0.1,34.5-0.1c4.9-1.1,8.6-5.7,8.6-10.9
			c0-6-5-10.9-11.1-10.9c-0.2,0-0.4,0-0.6,0c-0.4-5.7-5.2-10.2-11-10.2c-6.1,0-11.1,4.9-11.1,10.9c-0.5-0.1-1-0.2-1.6-0.2
			c-3.5,0-6.4,2.1-7.6,5.1c0,0-0.1,0-0.1,0C40.1,41.3,36.4,45,36.4,49.4z"/>
		<g id="XMLID_49_">
			<path id="XMLID_50_" class="st2" d="M36.5,49.4c0,1,0.2,1.9,0.6,2.9c0.4,0.9,0.9,1.7,1.6,2.4c1.3,1.4,3.2,2.3,5,2.4
				c0.9,0.1,1.9,0,2.9-0.1l3-0.1c2-0.1,3.9-0.1,5.9-0.2c2,0,3.9-0.1,5.9,0c2,0,3.9,0,5.9,0.1l5.9,0.2l3,0.1l2.8,0l0,0
				c0.6-0.1,1.3-0.3,1.9-0.6c0.6-0.3,1.2-0.6,1.7-0.9c0.6-0.4,1.1-0.8,1.5-1.3c0.5-0.5,0.9-1,1.3-1.5c0.4-0.5,0.7-1.1,1-1.7
				c0.3-0.6,0.5-1.2,0.6-1.9c0.1-0.6,0.2-1.3,0.3-2c0-0.3,0-0.6,0-1c0-0.3,0-0.7-0.1-1c-0.1-0.6-0.3-1.3-0.5-1.9
				c-0.2-0.6-0.5-1.2-0.8-1.8c-0.2-0.3-0.4-0.5-0.5-0.8c-0.2-0.3-0.4-0.5-0.6-0.8L84,39.2l-0.7-0.6l-0.8-0.5l-0.8-0.5l-0.9-0.4
				c-0.3-0.1-0.6-0.2-0.9-0.3c-0.6-0.2-1.2-0.3-1.9-0.4c-0.3-0.1-0.6,0-0.9-0.1c-0.2,0-0.3,0-0.5,0l-0.5,0l-0.7,0.1l-0.1-0.8l-0.1-1
				l-0.2-0.9l-0.3-0.9L74.1,32c-0.3-0.6-0.6-1.1-1-1.6c-0.4-0.5-0.8-1-1.3-1.4c-1-0.8-2.1-1.5-3.3-1.9c-0.6-0.2-1.2-0.4-1.9-0.4
				c-0.6-0.1-1.3-0.1-1.9-0.1c-0.7,0-1.3,0.1-1.9,0.2c-0.6,0.1-1.2,0.3-1.8,0.6c-0.6,0.3-1.1,0.6-1.7,0.9c-0.5,0.4-1,0.8-1.5,1.2
				C57.4,30,57,30.4,56.6,31c-0.4,0.5-0.7,1.1-0.9,1.7c-0.2,0.6-0.4,1.2-0.6,1.8l-0.2,0.9l-0.1,1l-0.1,1l-1-0.1
				c-0.4,0-0.8-0.1-1.2-0.2c-0.1,0-0.4,0-0.7,0c-0.2,0-0.4,0-0.6,0c-0.4,0.1-0.8,0.1-1.2,0.2c-0.4,0.1-0.8,0.3-1.2,0.4
				c-1.6,0.7-2.9,2-3.6,3.6L45,41.8l-0.3,0c-0.2,0-0.5,0-0.8,0c-0.3,0-0.5,0-0.8,0.1c-0.2,0-0.5,0.1-0.8,0.1c-0.3,0-0.5,0.1-0.7,0.2
				c-0.3,0.1-0.5,0.2-0.7,0.3c-0.2,0.1-0.5,0.2-0.7,0.4c-0.5,0.3-0.9,0.6-1.3,0.9c-0.4,0.4-0.7,0.8-1.1,1.2l-0.4,0.7l-0.4,0.7
				l-0.3,0.7l-0.2,0.8l-0.1,0.8L36.5,49.4L36.5,49.4z M36.3,49.4l0-0.8l0.1-0.8l0.2-0.8l0.3-0.8c0.2-0.5,0.5-1,0.8-1.5
				c0.3-0.5,0.7-0.9,1-1.3c0.4-0.4,0.8-0.7,1.3-1.1c0.2-0.1,0.5-0.3,0.7-0.4c0.2-0.1,0.5-0.3,0.7-0.4c0.3-0.1,0.5-0.2,0.8-0.3
				c0.3-0.1,0.5-0.2,0.8-0.2c0.3,0,0.6-0.1,0.8-0.1c0.3,0,0.5-0.1,0.8-0.1l-0.4,0.3c0.7-1.9,2-3.5,3.8-4.6C49,36,50,35.6,51,35.5
				c0.3,0,0.6-0.1,0.8-0.1c0.3,0,0.4-0.1,0.8,0c0.5,0,1,0.1,1.6,0.1L53,36.4l0-1.1c0-0.4,0.1-0.8,0.1-1.1c0.1-0.4,0.2-0.7,0.3-1.1
				c0.1-0.4,0.3-0.7,0.4-1.1c0.3-0.7,0.7-1.4,1.1-2c0.4-0.6,0.9-1.2,1.4-1.8c0.5-0.5,1.1-1,1.8-1.5c0.6-0.4,1.3-0.8,2-1.1
				c0.7-0.3,1.4-0.5,2.2-0.7c0.8-0.2,1.6-0.3,2.3-0.3c0.8,0,1.5,0,2.3,0.2c0.8,0.1,1.5,0.3,2.2,0.6c1.4,0.5,2.8,1.3,3.9,2.4
				c0.6,0.5,1.1,1.1,1.5,1.7c0.5,0.6,0.8,1.3,1.2,2c0.2,0.3,0.3,0.7,0.4,1.1c0.1,0.4,0.2,0.7,0.3,1.1l0.2,1.1l0.1,1.1L76,34.8l0.5,0
				c0.2,0,0.4,0,0.6,0c0.4,0,0.7,0,1.1,0.1c0.7,0.1,1.4,0.3,2.1,0.5c0.7,0.2,1.3,0.6,2,0.9l0.9,0.6l0.9,0.7l0.8,0.7l0.7,0.8
				c0.2,0.3,0.4,0.6,0.6,0.9c0.2,0.3,0.4,0.6,0.5,0.9c0.3,0.6,0.6,1.3,0.8,2c0.2,0.7,0.4,1.4,0.4,2.1c0.1,0.4,0,0.7,0.1,1
				c0,0.3,0,0.7,0,1.1c0,0.7-0.2,1.4-0.3,2.1c-0.2,0.7-0.4,1.3-0.7,2c-0.3,0.6-0.6,1.2-1,1.8c-0.4,0.6-0.8,1.1-1.3,1.6
				c-0.5,0.5-1,1-1.6,1.4c-0.6,0.4-1.2,0.8-1.8,1.1c-0.3,0.2-0.7,0.3-1,0.4l-1,0.3l0,0c-0.7,0.1-1.1,0.1-1.6,0.1L76.1,58l-3,0.1
				l-5.9,0.2c-2,0-3.9,0.1-5.9,0.1c-2,0-3.9,0-5.9,0c-2-0.1-3.9-0.1-5.9-0.2l-3-0.1c-1-0.1-2,0-3-0.2c-2.1-0.3-3.9-1.4-5.2-3
				c-0.7-0.8-1.2-1.6-1.5-2.6C36.5,51.4,36.3,50.4,36.3,49.4L36.3,49.4z"/>
		</g>
	</g>
	<g id="XMLID_398_">
		<path id="XMLID_46_" class="st1" d="M36.4,49.4c0,4.4,3.7,8.1,8.2,8.1c0.1,0,33.9,0.1,34.5-0.1c4.9-1.1,8.6-5.7,8.6-10.9
			c0-6-5-10.9-11.1-10.9c-0.2,0-0.4,0-0.6,0c-0.4-5.7-5.2-10.2-11-10.2c-6.1,0-11.1,4.9-11.1,10.9c-0.5-0.1-1-0.2-1.6-0.2
			c-3.5,0-6.4,2.1-7.6,5.1c0,0-0.1,0-0.1,0C40.1,41.3,36.4,45,36.4,49.4z"/>
		<g id="XMLID_42_">
			<path id="XMLID_43_" class="st2" d="M36.5,49.4c0,1,0.2,1.9,0.6,2.8c0.4,0.9,0.9,1.7,1.5,2.5c1.3,1.4,3.1,2.4,5,2.6
				c0.9,0.1,1.9,0,2.9,0l3-0.1c2,0,3.9-0.1,5.9-0.2l11.8-0.4l5.9-0.2l2.9-0.1l1.5-0.1c0.4,0,1.2-0.1,1.1,0l0,0l0.1,0
				c0.6-0.2,1.1-0.4,1.6-0.6c0.5-0.3,1-0.6,1.5-0.9c0.5-0.3,0.9-0.7,1.3-1.2c0.4-0.4,0.8-0.9,1.1-1.4c0.3-0.5,0.6-1,0.8-1.5
				c0.2-0.5,0.4-1.1,0.5-1.7c0.1-0.6,0.2-1.1,0.2-1.7l0-0.4l0-0.1l0,0l0,0c0,0.2,0,0,0,0.1l0,0l0-0.1l0-0.3c0-0.3,0-0.7-0.1-0.9
				c-0.1-0.5-0.2-1.1-0.4-1.6c-0.2-0.5-0.4-1.1-0.7-1.6c-0.3-0.5-0.6-1-1-1.4l-0.6-0.6l-0.6-0.6L81.9,39l-0.7-0.4l-0.8-0.4
				c-0.3-0.1-0.5-0.2-0.8-0.3c-0.5-0.2-1.1-0.3-1.7-0.4c-0.3-0.1-0.6-0.1-0.9-0.1c-0.1,0-0.3,0-0.4,0l-0.5,0l-1.6,0l-0.1-1.6
				l-0.1-0.9L74.1,34l-0.3-0.9l-0.3-0.8c-0.3-0.5-0.6-1.1-0.9-1.6c-0.4-0.5-0.8-0.9-1.2-1.4c-0.9-0.8-1.9-1.5-3.1-2
				c-0.6-0.2-1.2-0.4-1.8-0.5c-0.6-0.1-1.3-0.2-1.8-0.2c-0.8,0-1.3,0.1-1.9,0.2c-0.6,0.1-1.2,0.3-1.8,0.5c-0.6,0.2-1.2,0.5-1.7,0.9
				c-0.5,0.3-1.1,0.7-1.5,1.2c-0.5,0.4-0.9,0.9-1.3,1.5c-0.4,0.5-0.7,1.1-1,1.7c-0.1,0.3-0.3,0.6-0.4,0.9c-0.1,0.3-0.2,0.6-0.3,0.9
				l-0.2,1l-0.1,1L54.4,37l-0.6-0.1l-1.3-0.2c-0.2,0-0.5,0-0.7,0c-0.2,0-0.4,0-0.7,0c-0.9,0.1-1.8,0.4-2.6,0.7
				c-1.6,0.8-2.9,2.2-3.7,3.9l-0.1,0.2l-0.2,0c-0.2,0-0.5,0-0.8,0c-0.3,0-0.5,0.1-0.8,0.1c-0.3,0-0.5,0.1-0.8,0.2
				c-0.3,0.1-0.5,0.2-0.8,0.2c-1,0.4-1.9,1-2.7,1.7c-0.4,0.4-0.7,0.8-1,1.2l-0.4,0.7l-0.4,0.7l-0.3,0.7l-0.2,0.8l-0.1,0.8L36.5,49.4
				L36.5,49.4z M36.3,49.4l0-0.8l0.1-0.8l0.2-0.8l0.3-0.8l0.4-0.7l0.4-0.7c0.3-0.4,0.7-0.9,1.1-1.3c0.8-0.8,1.7-1.4,2.7-1.8
				c0.3-0.1,0.5-0.2,0.8-0.3c0.3-0.1,0.5-0.2,0.8-0.2c0.3,0,0.5-0.1,0.8-0.1c0.3,0,0.5,0,0.8,0l-0.1,0.1c0.7-1.8,2.1-3.3,3.8-4.2
				c0.8-0.5,1.8-0.8,2.7-0.9c0.2,0,0.5-0.1,0.7-0.1c0.2,0,0.5,0,0.7,0l1.4,0.1l-0.2,0.1l0.1-1.1c0-0.4,0.1-0.7,0.2-1.1
				c0.1-0.3,0.2-0.7,0.3-1c0.1-0.3,0.2-0.7,0.4-1c0.3-0.7,0.6-1.3,1-1.9c0.4-0.6,0.9-1.1,1.4-1.7c0.5-0.5,1.1-1,1.6-1.4
				c0.6-0.4,1.2-0.7,1.9-1c0.7-0.3,1.3-0.5,2-0.7c0.7-0.1,1.4-0.2,2.1-0.3c0.7,0,1.4,0,2.1,0.1c0.7,0.1,1.4,0.3,2.1,0.5
				c1.3,0.5,2.6,1.2,3.7,2.2c0.5,0.5,1,1,1.5,1.6c0.4,0.6,0.8,1.2,1.1,1.8c0.2,0.3,0.3,0.7,0.4,1l0.3,1l0.2,1l0.1,1.1L76,35.5
				c0.7-0.1,1.4,0,2.1,0.1c0.7,0.1,1.4,0.2,2,0.4c0.3,0.1,0.7,0.2,1,0.4l0.9,0.4l0.9,0.5l0.8,0.6l0.8,0.7l0.7,0.8
				c0.2,0.3,0.4,0.6,0.6,0.8c0.2,0.3,0.4,0.6,0.6,0.9c0.3,0.6,0.6,1.2,0.8,1.9c0.2,0.7,0.4,1.3,0.5,2c0.1,0.3,0.1,0.7,0.1,1
				c0,0.3,0,0.7,0,1c0,0.7-0.1,1.4-0.3,2.1c-0.2,0.7-0.4,1.3-0.7,2c-0.3,0.6-0.6,1.2-1,1.8c-0.4,0.6-0.8,1.1-1.3,1.6
				c-0.5,0.5-1,0.9-1.6,1.3c-0.6,0.4-1.2,0.7-1.8,1c-0.6,0.3-1.3,0.5-2,0.7l0,0c-1.1,0.1-2,0.1-3,0.1l-3,0l-5.9,0l-11.8,0l-5.9,0
				l-3,0c-1,0-2,0-3-0.1c-2-0.2-3.9-1.2-5.2-2.7c-0.7-0.7-1.2-1.6-1.6-2.5C36.5,51.4,36.3,50.4,36.3,49.4L36.3,49.4z"/>
		</g>
	</g>
</g>
<g id="XMLID_225_">
	<path id="XMLID_731_" class="st0" d="M36.2,31.3C36.2,31.3,36.2,31.3,36.2,31.3c-0.7-1.6-2.3-2.8-4.2-2.8c-0.3,0-0.6,0-0.9,0.1
		c0-3.3-2.7-5.9-6-5.9c-3.2,0-5.8,2.5-6,5.6c-0.1,0-0.2,0-0.3,0c-3.3,0-6,2.7-6,5.9c0,2.8,2,5.3,4.7,5.9c0.3,0.1,18.8,0.1,18.8,0.1
		c2.5,0,4.5-2,4.5-4.4C40.7,33.3,38.7,31.3,36.2,31.3z"/>
	<g id="XMLID_448_">
		<path id="XMLID_39_" class="st1" d="M35.8,31.3C35.8,31.3,35.8,31.3,35.8,31.3c-0.7-1.6-2.3-2.8-4.2-2.8c-0.3,0-0.6,0-0.9,0.1
			c0-3.3-2.7-5.9-6-5.9c-3.2,0-5.8,2.5-6,5.6c-0.1,0-0.2,0-0.3,0c-3.3,0-6,2.7-6,5.9c0,2.8,2,5.3,4.7,5.9c0.3,0.1,18.8,0.1,18.8,0.1
			c2.5,0,4.5-2,4.5-4.4C40.3,33.3,38.3,31.3,35.8,31.3z"/>
		<g id="XMLID_35_">
			<path id="XMLID_36_" class="st2" d="M35.8,31.4L35.8,31.4l-0.1,0l0-0.1c-0.4-0.9-1.1-1.7-2-2.1c-0.4-0.2-0.9-0.4-1.4-0.4
				c-0.1,0-0.2,0-0.4,0c-0.1,0-0.3,0-0.3,0L30.8,29L30.4,29l0-0.4c0-0.4-0.1-0.7-0.2-1.1c-0.1-0.3-0.2-0.7-0.4-1
				c-0.3-0.6-0.8-1.2-1.3-1.6c-1-0.9-2.3-1.4-3.6-1.4l-0.1,0l0,0c0.1,0,0,0,0,0l-0.1,0l-0.3,0c-0.2,0-0.3,0-0.5,0.1
				c-0.3,0-0.6,0.1-0.9,0.2c-0.6,0.2-1.2,0.5-1.8,0.9c-0.5,0.4-1,0.9-1.3,1.5c-0.2,0.3-0.3,0.6-0.4,0.9c-0.1,0.3-0.2,0.7-0.2,1
				l-0.1,0.5l-0.4,0c-0.2,0-0.3,0-0.5,0c-0.2,0-0.4,0-0.5,0c-0.3,0-0.7,0.1-1,0.2c-0.3,0.1-0.7,0.2-1,0.4c-0.3,0.2-0.6,0.4-0.9,0.6
				c-0.3,0.2-0.5,0.5-0.8,0.7c-0.2,0.3-0.4,0.6-0.6,0.9c-0.3,0.6-0.6,1.3-0.6,2c0,0.2,0,0.3,0,0.5c0,0.2,0,0.3,0,0.5
				c0,0.4,0.1,0.7,0.2,1c0.2,0.7,0.5,1.3,0.9,1.8c0.8,1.1,2.1,1.8,3.3,2l0.1,0c0,0,0,0,0,0l0.2,0l0.5,0l1,0l2,0l4.1-0.1
				c1.4,0,2.7,0,4.1,0c1.4,0,2.7,0,4.1,0c0.7,0,1.4,0,2.1,0l0.3,0c0,0,0.1,0,0.1,0l0.1,0c0.2,0,0.4,0,0.4,0c0.2,0,0.5-0.1,0.8-0.2
				c1-0.3,2-1.1,2.5-2.3c0.2-0.5,0.3-1.2,0.2-1.8c-0.1-0.6-0.3-1.2-0.7-1.8c-0.4-0.5-0.9-1-1.5-1.3C37.2,31.6,36.5,31.4,35.8,31.4z
				 M35.8,31.2c1.4,0,2.8,0.6,3.7,1.7c0.5,0.5,0.8,1.2,1,1.9c0.2,0.7,0.2,1.5,0.1,2.3c-0.3,1.5-1.4,2.9-2.9,3.6
				c-0.4,0.2-0.7,0.3-1.2,0.4c-0.2,0-0.4,0.1-0.6,0.1l-0.1,0l-0.2,0l-0.3,0c-0.7,0-1.4,0-2.1,0.1c-1.4,0-2.7,0.1-4.1,0
				c-1.4,0-2.7,0-4.1-0.1l-4.1-0.1L19,41l-1,0l-0.5,0l-0.3,0c-0.2,0-0.3,0-0.5-0.1l0.1,0c-0.4-0.1-0.8-0.3-1.2-0.4
				c-0.4-0.2-0.7-0.4-1.1-0.7c-0.7-0.5-1.2-1.1-1.6-1.8c-0.4-0.7-0.7-1.5-0.9-2.2c-0.1-0.4-0.1-0.8-0.1-1.2c0-0.2,0-0.4,0-0.6
				c0-0.2,0-0.4,0.1-0.6c0.1-0.8,0.4-1.5,0.8-2.2c0.2-0.3,0.4-0.7,0.7-1c0.3-0.3,0.5-0.6,0.8-0.8c0.3-0.2,0.6-0.5,1-0.7
				c0.3-0.2,0.7-0.4,1.1-0.5c0.4-0.1,0.8-0.2,1.2-0.3c0.2,0,0.4-0.1,0.6-0.1c0.1,0,0.2,0,0.3,0l0.3,0l-0.5,0.5
				c0-0.4,0.1-0.8,0.1-1.2c0.1-0.4,0.2-0.8,0.4-1.2c0.3-0.8,0.8-1.5,1.4-2.1c0.6-0.6,1.4-1.1,2.2-1.4c0.4-0.2,0.8-0.3,1.3-0.3
				c0.2,0,0.5-0.1,0.7-0.1l0.3,0l0.1,0l0.1,0l0,0l0.2,0c0.9,0,1.7,0.2,2.5,0.6c0.8,0.4,1.5,0.9,2.1,1.6c0.6,0.7,1,1.4,1.3,2.2
				c0.1,0.4,0.2,0.8,0.3,1.2c0,0.4,0.1,0.8,0,1.2l-0.4-0.4l0.8,0c0.2,0,0.3,0,0.4,0c0.1,0,0.3,0,0.4,0.1c0.5,0.1,1,0.3,1.5,0.6
				c0.5,0.3,0.9,0.6,1.2,1C35.4,30.3,35.7,30.8,35.8,31.2L35.8,31.2L35.8,31.2z"/>
		</g>
	</g>
	<g id="XMLID_337_">
		<path id="XMLID_32_" class="st1" d="M35.8,31.3C35.8,31.3,35.8,31.3,35.8,31.3c-0.7-1.6-2.3-2.8-4.2-2.8c-0.3,0-0.6,0-0.9,0.1
			c0-3.3-2.7-5.9-6-5.9c-3.2,0-5.8,2.5-6,5.6c-0.1,0-0.2,0-0.3,0c-3.3,0-6,2.7-6,5.9c0,2.8,2,5.3,4.7,5.9c0.3,0.1,18.8,0.1,18.8,0.1
			c2.5,0,4.5-2,4.5-4.4C40.3,33.3,38.3,31.3,35.8,31.3z"/>
		<g id="XMLID_28_">
			<path id="XMLID_29_" class="st2" d="M35.8,31.4L35.8,31.4l-0.1,0l0-0.1c-0.4-0.9-1.1-1.7-2-2.2c-0.4-0.2-0.9-0.4-1.4-0.4
				c-0.1,0-0.2,0-0.4,0c-0.1,0-0.3,0-0.4,0l-0.8,0.1l-0.2,0l0-0.2c0-0.4-0.1-0.7-0.2-1.1c-0.1-0.4-0.2-0.7-0.4-1
				c-0.2-0.3-0.3-0.6-0.6-0.9c-0.2-0.3-0.5-0.6-0.7-0.8c-1.1-0.9-2.5-1.4-3.9-1.3c-0.3,0-0.8,0.1-1,0.1c-0.3,0.1-0.6,0.2-0.9,0.3
				c-0.6,0.3-1.1,0.7-1.6,1.1c-0.4,0.5-0.8,1-1,1.6c-0.1,0.3-0.2,0.6-0.2,0.9c0,0.3-0.1,0.6-0.1,0.9l0,1.2l-1.4,0l-0.2,0l0,0l0,0
				l0,0c0.1,0,0,0,0.1,0l0,0l-0.1,0l-0.1,0c-0.2,0-0.4,0-0.5,0.1c-0.2,0.1-0.5,0.1-0.8,0.2c-0.3,0.1-0.5,0.2-0.7,0.4
				c-0.2,0.1-0.5,0.3-0.7,0.5c-0.2,0.2-0.4,0.4-0.6,0.6c-0.2,0.2-0.3,0.4-0.4,0.7c-0.2,0.5-0.4,1-0.4,1.5c0,0.1,0,0.3,0,0.4
				c0,0,0,0.2,0,0.1l0,0.3c0,0.2,0,0.3,0,0.4c0,0.1,0.1,0.2,0.1,0.4c0.1,0.5,0.4,1,0.7,1.4c0.6,0.9,1.5,1.6,2.5,1.8l0.2,0
				c-0.1,0-0.1-0.1-0.2-0.1l0.2,0l0.5,0l1,0.1l2,0.1c1.4,0,2.7,0.2,4.1,0.3l8.2,0.6l2.1,0.1l0.3,0c0,0,0.1,0,0.1,0l0.1,0
				c0.2,0,0.4,0,0.5,0c0.3,0,0.6-0.1,0.9-0.2c1.2-0.3,2.2-1.3,2.6-2.5c0.2-0.6,0.3-1.3,0.2-1.9c-0.1-0.6-0.4-1.3-0.8-1.8
				C38.5,32.1,37.2,31.4,35.8,31.4z M35.8,31.2c1.4,0,2.8,0.7,3.6,1.8c0.9,1.1,1.2,2.6,0.8,4c-0.4,1.4-1.4,2.5-2.7,3
				c-0.7,0.3-1.4,0.3-2.1,0.3l-2.1,0l-8.2,0l-4.1,0l-2.1,0c-0.7,0-1.3,0-2.1,0l0,0c-1.5-0.3-2.9-1.3-3.7-2.5
				c-0.9-1.3-1.3-2.9-1.1-4.4c0.1-0.8,0.4-1.5,0.7-2.2c0.2-0.3,0.4-0.6,0.7-0.9c0.3-0.3,0.5-0.6,0.8-0.8c0.3-0.2,0.6-0.4,1-0.6
				c0.3-0.2,0.7-0.3,1.1-0.4c0.4-0.1,0.7-0.2,1.1-0.2c0.4,0,0.8-0.1,1.1,0l-0.2,0.2c0-0.4,0.1-0.8,0.2-1.2c0.1-0.4,0.2-0.7,0.4-1.1
				c0.4-0.7,0.8-1.3,1.4-1.9c0.6-0.5,1.3-0.9,2-1.2c0.4-0.1,0.8-0.2,1.1-0.3c0.4-0.1,0.8-0.1,1.2-0.1c1.6,0,3.1,0.7,4.2,1.8
				c0.6,0.6,1,1.2,1.3,1.9c0.1,0.4,0.3,0.7,0.3,1.1c0.1,0.4,0.1,0.8,0.1,1.2l-0.1-0.1l0.8-0.1c0.1,0,0.3,0,0.4,0c0.1,0,0.3,0,0.4,0
				c0.5,0.1,1,0.3,1.5,0.5C34.7,29.4,35.5,30.3,35.8,31.2L35.8,31.2L35.8,31.2z"/>
		</g>
	</g>
</g>
<path id="XMLID_444_" class="st3" d="M76.1,64h-18c-0.2,0-0.4-0.2-0.4-0.4v-0.2c0-0.2,0.2-0.4,0.4-0.4h18c0.2,0,0.4,0.2,0.4,0.4v0.2
	C76.6,63.8,76.4,64,76.1,64z"/>
<path id="XMLID_788_" class="st3" d="M54.4,66.7h-18c-0.2,0-0.4-0.2-0.4-0.4v-0.2c0-0.2,0.2-0.4,0.4-0.4h18c0.2,0,0.4,0.2,0.4,0.4
	v0.2C54.9,66.5,54.7,66.7,54.4,66.7z"/>
<path id="XMLID_613_" class="st3" d="M76.1,66.7H59.5c-0.2,0-0.4-0.2-0.4-0.4v-0.2c0-0.2,0.2-0.4,0.4-0.4h16.6
	c0.2,0,0.4,0.2,0.4,0.4v0.2C76.6,66.5,76.4,66.7,76.1,66.7z"/>
<path id="XMLID_793_" class="st3" d="M60,69.3H43.4c-0.2,0-0.4-0.2-0.4-0.4v-0.2c0-0.2,0.2-0.4,0.4-0.4H60c0.2,0,0.4,0.2,0.4,0.4
	v0.2C60.5,69.1,60.3,69.3,60,69.3z"/>
<path id="XMLID_754_" class="st3" d="M75.4,72H58.8c-0.2,0-0.4-0.2-0.4-0.4v-0.2c0-0.2,0.2-0.4,0.4-0.4h16.6c0.2,0,0.4,0.2,0.4,0.4
	v0.2C75.9,71.8,75.7,72,75.4,72z"/>
<path id="XMLID_621_" class="st3" d="M77.4,69.3H65.3c-0.2,0-0.4-0.2-0.4-0.4v-0.2c0-0.2,0.2-0.4,0.4-0.4h12.2
	c0.2,0,0.4,0.2,0.4,0.4v0.2C77.9,69.1,77.7,69.3,77.4,69.3z"/>
<path id="XMLID_764_" class="st3" d="M52.9,64h-10c-0.2,0-0.4-0.2-0.4-0.4v-0.2c0-0.2,0.2-0.4,0.4-0.4h10c0.2,0,0.4,0.2,0.4,0.4v0.2
	C53.3,63.8,53.1,64,52.9,64z"/>
<path id="XMLID_804_" class="st4" d="M38.7,76.8h-0.6c-2.4,0-4.4-1.9-4.4-4.3"/>
<path id="XMLID_802_" class="st4" d="M45.2,77.7c-2.4,0-4.4-1.2-4.4-2.7v-0.7c0-1.5,2-2.7,4.4-2.7h10.9"/>
<path id="XMLID_445_" class="st4" d="M30.9,68.3v-1.1c0-2.4,2-4.3,4.4-4.3h3.1"/>
</svg>
